<svg xmlns="http://www.w3.org/2000/svg" xmlns:xlink="http://www.w3.org/1999/xlink" viewBox="0 0 157.71 207.08"><defs><style>.cls-1{fill:url(#Gold);}.cls-2{fill:#ff8885;}.cls-3{fill:#231f20;}</style><linearGradient id="Gold" x1="-1042.71" y1="8.34" x2="-1042.97" y2="8.76" gradientTransform="matrix(-1, 0, 0, 1, -962.67, 0)" gradientUnits="userSpaceOnUse"><stop offset="0" stop-color="#ffe7a3"/><stop offset="0.5" stop-color="#ffca05"/><stop offset="1" stop-color="#faac18"/></linearGradient></defs><title>Asset 5</title><g id="Layer_2" data-name="Layer 2"><g id="Layer_1-2" data-name="Layer 1"><line class="cls-1" x1="79.53" y1="8.64" x2="80.92" y2="8.64"/><path class="cls-2" d="M82.21,200.62h46.64v-7.74s-32,0-35.31-10.55S92.37,78.54,92.37,78.54s52-6.73,64.11-59.74c2.13-9.51.18-10.16-5.05-10.16H14C8.79,8.64,6.83,9.3,9,18.8,21,71.81,73.08,78.54,73.08,78.54s2.16,93.25-1.17,103.79S36.6,192.89,36.6,192.89v7.74Z" transform="translate(-0.23)"/><path class="cls-3" d="M78.47,207.08h49.08s0-2.48,0-2.5v-8.14c0-.14,0-2.5,0-2.5-10.41,0-23.39-.54-32.52-6-7.8-4.67-6-17.23-6.26-25-.79-27-.24-54,.32-81,0-.69-.27-2.49.07-3.13s-.32.23.41-.19c1.87-1.09,5.44-1.11,7.55-1.69a89.54,89.54,0,0,0,31.22-15.61A79.13,79.13,0,0,0,155.58,19.9c1.24-4.48,3.41-12.2,1.77-17.11C156.21-.6,152.21,0,149.27,0H8.44C5.19.05,1.32-.47.55,3.52c-1,5.21.54,11.5,1.89,16.38A80.92,80.92,0,0,0,14.21,45,82,82,0,0,0,47.47,72a92.07,92.07,0,0,0,14,5c1.82.49,5.62.51,7.15,1.57.57.39-.12-.59.29.17s.06,2.59.07,3.34q.14,6.62.24,13.24c.25,15.09.42,30.19.38,45.28,0,12.72.29,25.74-1.24,38.4-1.43,11.8-16.18,13.22-25.87,14.24a116.44,116.44,0,0,1-12,.7s0,2.48,0,2.5v8.14c0,.14,0,2.5,0,2.5h48s0-5,0-5h-48l0,2.5v-8.14l0,2.5c10,0,21.5-.71,30.67-5,8.44-4,7.57-12.44,7.92-20.54,1.09-25.18.61-50.46.24-75.65Q69.14,85.83,68.88,74a3.38,3.38,0,0,0,0-.34c-22.08-2.92-43.8-17.13-56-35.49A82,82,0,0,1,1.4,10.74,17.32,17.32,0,0,1,.63,6.47c-.19,3.17.07.41.52.17C2.32,6,2.77,5.4,4.25,5.15A24,24,0,0,1,8.12,5C20.28,5,32.43,5,44.58,5H145c2.81,0,6-.38,8.81.1,1.48.25,1.93.88,3.1,1.5.45.24.71,3,.52-.17a17.41,17.41,0,0,1-.77,4.27,84.24,84.24,0,0,1-5.08,15.55c-10.7,24.46-35.64,43.78-62.39,47.32a3.38,3.38,0,0,0,0,.34q-.67,29.13-.73,58.27c0,12.39,0,24.79.4,37.18.21,6.32-1.14,17.64,4.32,22.22,5.27,4.43,13.5,5.51,20.08,6.34a115.82,115.82,0,0,0,14.34,1l0-2.5v8.14l0-2.5H78.47S78.43,207.08,78.47,207.08Z" transform="translate(-0.23)"/></g></g></svg>