<svg xmlns="http://www.w3.org/2000/svg" viewBox="0 0 225.44 220.27"><defs><style>.cls-1{fill:#fff;}</style></defs><title>Asset 14</title><g id="Layer_2" data-name="Layer 2"><g id="Layer_3" data-name="Layer 3"><path class="cls-1" d="M112.75,220.27H5.43c-5.43,0-5.77-.32-5.26-5.54,3-30.36,18.58-53.1,43.2-70,6.77-4.65,14.53-7.87,21.81-11.78,3-1.6,4.85-.8,6.68,2.09,12.31,19.48,24.77,38.86,37.19,58.27,2.87,4.48,4.42,4.5,7.23.1l37.05-58c2.6-4.06,2.87-4.2,7.39-2.26,28.79,12.32,50.28,31.87,60.48,62.15,2.15,6.38,3,13.25,4,20,.69,4.41,0,5-4.47,5h-108Z"/><path class="cls-1" d="M112.74,110.37a55.19,55.19,0,1,1,55.15-55.3A55,55,0,0,1,112.74,110.37Z"/><path class="cls-1" d="M109.35,137.45h6.86c4-1.23,7.91-2.64,11.93-3.6,3.32-.79,4.71.48,4.78,3.84q.12,5.78,0,11.56c-.07,3.2-1.4,4.46-4.54,3.8-3.84-.81-7.57-2.07-11.82-3.27-3.36,2.41-4.43,2.41-7.74,0-4.22,1.2-8,2.46-11.79,3.28-3.13.67-4.49-.58-4.56-3.77-.09-4-.06-7.94,0-11.91,0-2.92,1.7-4.26,4.44-3.59C101,134.81,105.06,136.17,109.35,137.45Z"/></g></g></svg>