<svg xmlns="http://www.w3.org/2000/svg" viewBox="0 0 278.55 405.52"><defs><style>.cls-1{fill:#855d25;}</style></defs><title>Asset 2</title><g id="Layer_2" data-name="Layer 2"><g id="Layer_2-2" data-name="Layer 2"><g id="_Group_" data-name="&lt;Group&gt;"><g id="_Group_2" data-name="&lt;Group&gt;"><path id="_Path_" data-name="&lt;Path&gt;" class="cls-1" d="M49.68,114.77c5.69.8,10.93,1.43,16.23,3.84,4.34,2,8.09,6,12.6,7.11a2,2,0,0,0,2.21-2.88c-2.09-4.74-9.12-7.41-13.84-8.76-5.42-1.55-11.71-2.17-17.19-.71-.64.17-.73,1.29,0,1.39Z"/></g><g id="_Group_3" data-name="&lt;Group&gt;"><path id="_Path_2" data-name="&lt;Path&gt;" class="cls-1" d="M47.34,114.22a3.87,3.87,0,0,0-4,.18,1.35,1.35,0,0,0-.48,1.82,8.77,8.77,0,0,0,6.52,3.84c1.69.18,1.87-2.09.78-2.88a2.55,2.55,0,0,0-1.63-.44,1,1,0,0,0-1,1,2.91,2.91,0,0,0,.74,1.89L49.36,117a7,7,0,0,1-4.42-2.36v1.88a1.68,1.68,0,0,1,1.73-.67c.92.18,1.6-1.11.67-1.6Z"/></g><g id="_Group_4" data-name="&lt;Group&gt;"><path id="_Path_3" data-name="&lt;Path&gt;" class="cls-1" d="M38.88,117c-4.46.27-9,1.39-12,4.92a1.47,1.47,0,0,0,.29,2.27c-1.07-.6-7.29,3.18-8.06,3.64a29.64,29.64,0,0,0-7.79,6.42c-.55.66.17,1.87,1,1.29,5.41-3.77,10.49-7.19,16.67-9.65a1,1,0,0,0,.68-1.2c-.92-2.65,8.22-4.63,9.58-4.85,1.6-.26,1.23-2.93-.38-2.83Z"/></g><g id="_Group_5" data-name="&lt;Group&gt;"><path id="_Path_4" data-name="&lt;Path&gt;" class="cls-1" d="M8.81,137a16.19,16.19,0,0,0-6,5.65c-1.19,1.89-3.07,5.06-1.74,7.23a1.25,1.25,0,0,0,1.69.44c1.76-1.25,1.91-3.78,2.9-5.61A21.93,21.93,0,0,1,10.31,139c1.06-1-.3-2.61-1.5-1.94Z"/></g><g id="_Group_6" data-name="&lt;Group&gt;"><path id="_Path_5" data-name="&lt;Path&gt;" class="cls-1" d="M3.87,153.86a14.37,14.37,0,0,0-3.46,7.8c-.38,2.5-1,5.72,1,7.66A1.41,1.41,0,0,0,3.54,169c1.19-2,.37-4.59.55-6.88.2-2.6.81-5.16,1.09-7.75a.78.78,0,0,0-1.32-.55Z"/></g><g id="_Group_7" data-name="&lt;Group&gt;"><path id="_Path_6" data-name="&lt;Path&gt;" class="cls-1" d="M3.35,173.28a21.3,21.3,0,0,0,.18,7.55c.3,1.66,2.52,2,3.6,1,6.29-6,13.37-7.34,21.8-7.13,5.32.13,10.63-.26,13.27-5.46a.83.83,0,0,0-1.13-1.13c-7.14,3.16-14.46.87-21.84,2.22a27.56,27.56,0,0,0-15.15,8.46l3.6,1A20.2,20.2,0,0,0,5,173.06c-.39-.61-1.55-.62-1.69.22Z"/></g><g id="_Group_8" data-name="&lt;Group&gt;"><path id="_Path_7" data-name="&lt;Path&gt;" class="cls-1" d="M47.68,167.09a.21.21,0,0,0,0-.41.21.21,0,0,0,0,.41Z"/></g><g id="_Group_9" data-name="&lt;Group&gt;"><path id="_Path_8" data-name="&lt;Path&gt;" class="cls-1" d="M46.92,173.94a54.25,54.25,0,0,0,15.25-10.87c1.79-1.86-1-4.71-2.84-2.84a61.66,61.66,0,0,1-13.92,11.14c-1.69,1-.2,3.42,1.51,2.58Z"/></g><g id="_Group_10" data-name="&lt;Group&gt;"><path id="_Path_9" data-name="&lt;Path&gt;" class="cls-1" d="M62.41,165.94c7.79-1.38,15.19-8.4,20.06-14.27,4.56-5.49,9.81-14,8.32-21.43a2.88,2.88,0,0,0-2-2c-1.93-.59-3.27,1.08-4,2.66C82.9,135,82.27,139.5,80,143.65a46.39,46.39,0,0,1-8.35,11.16c-3.3,3.22-7.33,5.71-10.41,9.14a1.2,1.2,0,0,0,1.15,2Z"/></g><g id="_Group_11" data-name="&lt;Group&gt;"><path id="_Path_10" data-name="&lt;Path&gt;" class="cls-1" d="M88.37,125.39c-1.44-1-3-2.38-4.71-2.79s-3.46,1.49-2.34,3,3.13,2.57,4.76,3.66a2.27,2.27,0,1,0,2.29-3.91Z"/></g><g id="_Group_12" data-name="&lt;Group&gt;"><path id="_Path_11" data-name="&lt;Path&gt;" class="cls-1" d="M15.61,166.77c7.41-1.08,16.16-4.37,21.85-9.37,1-.84-.26-2.24-1.31-1.7-3.25,1.68-6.19,3.89-9.48,5.54-3.63,1.83-7.48,3.29-11.25,4.83a.36.36,0,0,0,.19.7Z"/></g><g id="_Group_13" data-name="&lt;Group&gt;"><path id="_Path_12" data-name="&lt;Path&gt;" class="cls-1" d="M43.74,154.16a199.49,199.49,0,0,1,15.89-14.64c2.53-2.08,5.14-4.07,7.73-6.08s5.87-3.7,7.26-6.84a1.1,1.1,0,0,0-.93-1.63c-5.79.33-11.41,6.53-15.65,10.18a196.9,196.9,0,0,0-16.84,16.46c-1.56,1.71.92,4.22,2.55,2.55Z"/></g><g id="_Group_14" data-name="&lt;Group&gt;"><path id="_Path_13" data-name="&lt;Path&gt;" class="cls-1" d="M74.83,127.6a61.31,61.31,0,0,0,6.68-.65c2.12-.35,4.22-.39,5.92-1.78a1.4,1.4,0,0,0-.61-2.32c-2-.49-3.8.33-5.72.89a63.63,63.63,0,0,0-6.48,2.35c-.73.3-.75,1.57.21,1.52Z"/></g><g id="_Group_15" data-name="&lt;Group&gt;"><path id="_Path_14" data-name="&lt;Path&gt;" class="cls-1" d="M37.83,147.42a22.36,22.36,0,0,1-2.91.74,6.2,6.2,0,0,0-2.74,1,1.19,1.19,0,0,0,0,1.68c2.08,1.85,5.11,0,6.8-1.48.84-.75,0-2.44-1.15-2Z"/></g><g id="_Group_16" data-name="&lt;Group&gt;"><path id="_Path_15" data-name="&lt;Path&gt;" class="cls-1" d="M14,153.68q5.51.69,11,1.26c3.26.34,6.65,1.14,9.87.43,1.56-.34,1.37-2.54,0-3-3.1-1-6.64-.5-9.87-.47q-5.52,0-11,.21a.77.77,0,0,0,0,1.55Z"/></g><g id="_Group_17" data-name="&lt;Group&gt;"><path id="_Path_16" data-name="&lt;Path&gt;" class="cls-1" d="M38.58,155.24l.52-.09a1.51,1.51,0,0,0,0-2.9l-.52-.09a1.6,1.6,0,1,0,0,3.08Z"/></g><g id="_Group_18" data-name="&lt;Group&gt;"><path id="_Path_17" data-name="&lt;Path&gt;" class="cls-1" d="M7.11,151.76a7.49,7.49,0,0,0,2.39.3c.8,0,1.7.08,2.28-.57a1.06,1.06,0,0,0,0-1.46c-.58-.65-1.47-.53-2.28-.57a7.51,7.51,0,0,0-2.39.3,1,1,0,0,0,0,2Z"/></g><g id="_Group_19" data-name="&lt;Group&gt;"><path id="_Path_18" data-name="&lt;Path&gt;" class="cls-1" d="M15.44,146c.65,0,1.33.06,2,0a11.79,11.79,0,0,0,1.87-.44.67.67,0,0,0,0-1.29,11.09,11.09,0,0,0-1.87-.44c-.65,0-1.32,0-2,0a1.08,1.08,0,0,0,0,2.16Z"/></g><g id="_Group_20" data-name="&lt;Group&gt;"><path id="_Path_19" data-name="&lt;Path&gt;" class="cls-1" d="M30.83,146c2,.07,4.36.39,6.2-.5a.67.67,0,0,0,0-1.16c-1.84-.9-4.23-.57-6.2-.5a1.08,1.08,0,0,0,0,2.16Z"/></g><g id="_Group_21" data-name="&lt;Group&gt;"><path id="_Path_20" data-name="&lt;Path&gt;" class="cls-1" d="M26.8,133.06c5.72,3.24,12.7,6.05,19.41,5.37,1.74-.18,2.5-3,.45-3.34-6.5-1.12-12.91-1.39-19.27-3.45a.78.78,0,0,0-.6,1.41Z"/></g><g id="_Group_22" data-name="&lt;Group&gt;"><path id="_Path_21" data-name="&lt;Path&gt;" class="cls-1" d="M51.34,138.6l1.43-.1a2.33,2.33,0,0,0,1.61-.82,1.2,1.2,0,0,0,0-1.68,2.38,2.38,0,0,0-1.61-.82l-1.43-.1a1.75,1.75,0,1,0,0,3.5Z"/></g><g id="_Group_23" data-name="&lt;Group&gt;"><path id="_Path_22" data-name="&lt;Path&gt;" class="cls-1" d="M42.71,127.56a52.53,52.53,0,0,0,5.57,2.31c1.79.65,3.47,1.55,5.3.72a1.45,1.45,0,0,0,.52-2C53,127,51,126.84,49.23,126.45a52.83,52.83,0,0,0-5.94-1,1.14,1.14,0,0,0-.57,2.11Z"/></g><g id="_Group_24" data-name="&lt;Group&gt;"><path id="_Path_23" data-name="&lt;Path&gt;" class="cls-1" d="M59.05,128.57a3.28,3.28,0,0,0,1.08.22,3.4,3.4,0,0,0,1.06-.27,1.25,1.25,0,0,0,0-2.38,3.08,3.08,0,0,0-1.06-.27,3.62,3.62,0,0,0-1.08.22,1.3,1.3,0,0,0,0,2.48Z"/></g><g id="_Group_25" data-name="&lt;Group&gt;"><path id="_Path_24" data-name="&lt;Path&gt;" class="cls-1" d="M53.93,161c5.75-4,9.12-13.49,7.18-20.24a1.86,1.86,0,0,0-3.64.49c-.16,3.33.17,6.36-.75,9.65s-2.53,5.95-4,8.9c-.35.72.42,1.74,1.2,1.2Z"/></g><g id="_Group_26" data-name="&lt;Group&gt;"><path id="_Path_25" data-name="&lt;Path&gt;" class="cls-1" d="M61.59,137.14a1.75,1.75,0,0,0,0-3.5,1.75,1.75,0,0,0,0,3.5Z"/></g><g id="_Group_27" data-name="&lt;Group&gt;"><path id="_Path_26" data-name="&lt;Path&gt;" class="cls-1" d="M65.71,147.79a19.48,19.48,0,0,0,1.85-3c.56-1.14,1.19-2.3.48-3.52a1.53,1.53,0,0,0-1.69-.69c-1.35.32-1.74,1.62-2.17,2.78a19.48,19.48,0,0,0-.92,3.43,1.35,1.35,0,0,0,2.45,1Z"/></g><g id="_Group_28" data-name="&lt;Group&gt;"><path id="_Path_27" data-name="&lt;Path&gt;" class="cls-1" d="M70.68,137.5c.84-1.48.74-3.26,1.24-4.87s1.66-3.15,2.15-4.84A1.46,1.46,0,0,0,72,126.17c-2.93,1.78-5.38,8.25-3.5,11.34a1.3,1.3,0,0,0,2.22,0Z"/></g><g id="_Group_29" data-name="&lt;Group&gt;"><path id="_Path_28" data-name="&lt;Path&gt;" class="cls-1" d="M73.1,149.46a8.67,8.67,0,0,0,2.66-3.3c.6-1.22,1.24-2.63.59-3.95a1,1,0,0,0-1.54-.2c-.87.71-1,2-1.46,3s-1.12,2.05-1.66,3.07c-.45.83.53,2.07,1.41,1.41Z"/></g><g id="_Group_30" data-name="&lt;Group&gt;"><path id="_Path_29" data-name="&lt;Path&gt;" class="cls-1" d="M77.74,130.74c-.77-.07-1.93-.36-2.31.56s.62,1.67,1.15,2.26a1.64,1.64,0,1,0,1.17-2.81Z"/></g><g id="_Group_31" data-name="&lt;Group&gt;"><path id="_Path_30" data-name="&lt;Path&gt;" class="cls-1" d="M32.29,162.47a1.44,1.44,0,0,0,0-2.88,1.44,1.44,0,0,0,0,2.88Z"/></g><g id="_Group_32" data-name="&lt;Group&gt;"><path id="_Path_31" data-name="&lt;Path&gt;" class="cls-1" d="M99.36,116.68a73.9,73.9,0,0,1,28.55-21.87L125.58,93l-1.73,4.56c-.54,1.41,1.77,2.38,2.45,1l2.19-4.36a1.61,1.61,0,0,0-1.8-2.34c-12.1,3.28-23.53,12-29.43,23.15-.68,1.28,1.09,2.85,2.1,1.62Z"/></g><g id="_Group_33" data-name="&lt;Group&gt;"><path id="_Path_32" data-name="&lt;Path&gt;" class="cls-1" d="M127.55,97.65c1.82-.65,3.66-1.29,5.51-1.86,1.65-.51,3.69-.53,5.09-1.57a.78.78,0,0,0-.18-1.41c-1.74-.6-3.83.25-5.51.81a18.07,18.07,0,0,0-5.39,2.9c-.5.38-.25,1.39.48,1.13Z"/></g><g id="_Group_34" data-name="&lt;Group&gt;"><path id="_Path_33" data-name="&lt;Path&gt;" class="cls-1" d="M140.71,96.59a12.92,12.92,0,0,0,3.88-.14c1.12-.24,2.63-.52,3.35-1.46a.94.94,0,0,0-.66-1.58c-1.07,0-2,.65-3,1a19.85,19.85,0,0,1-3.54.78.72.72,0,0,0,0,1.44Z"/></g><g id="_Group_35" data-name="&lt;Group&gt;"><path id="_Path_34" data-name="&lt;Path&gt;" class="cls-1" d="M149.27,98.14c5.36-2.84,11.62-6.67,15.21-11.68h-2.35c1.22,2.17.87,3.9.43,6.18-.14.72.81,1.5,1.38.8,1.86-2.31,1.75-5.38.68-8a1.39,1.39,0,0,0-2.27-.6c-2.25,1.87-4.13,4.18-6.37,6.08a58.36,58.36,0,0,1-7.74,5.47,1,1,0,0,0,1,1.78Z"/></g><g id="_Group_36" data-name="&lt;Group&gt;"><path id="_Path_35" data-name="&lt;Path&gt;" class="cls-1" d="M92.69,125.15c3.76-2.34,7-4.65,11.35-5.93,3.58-1.06,8-1,11.19-3a1.51,1.51,0,0,0-.36-2.73c-4.34-.91-9.68,1.12-13.68,2.75-3.81,1.55-7.86,3.84-9.71,7.68-.36.74.4,1.69,1.2,1.2Z"/></g><g id="_Group_37" data-name="&lt;Group&gt;"><path id="_Path_36" data-name="&lt;Path&gt;" class="cls-1" d="M120.13,115.08a72.87,72.87,0,0,0,25.74-7.86,72.27,72.27,0,0,0,10.65-6.95c3.13-2.45,7.74-5.39,8.36-9.57a1,1,0,0,0-1.2-1.2c-3.17.78-5,3.52-7.38,5.64a68.22,68.22,0,0,1-11.61,8.34,72.48,72.48,0,0,1-25,8.67c-1.64.26-1.28,3.13.4,2.93Z"/></g><g id="_Group_38" data-name="&lt;Group&gt;"><path id="_Path_37" data-name="&lt;Path&gt;" class="cls-1" d="M107.15,114c3-.8,7.19-1.24,9.5-3.44a1.25,1.25,0,0,0-.87-2.11c-3.15,0-6.58,2.59-9.26,4a.83.83,0,0,0,.64,1.51Z"/></g><g id="_Group_39" data-name="&lt;Group&gt;"><path id="_Path_38" data-name="&lt;Path&gt;" class="cls-1" d="M114.89,108.19c6.27.95,13.13-.43,17.8-4.92.59-.57,0-1.81-.85-1.46-5.55,2.32-10.71,4.39-16.77,5.07-.68.08-1,1.19-.18,1.32Z"/></g><g id="_Group_40" data-name="&lt;Group&gt;"><path id="_Path_39" data-name="&lt;Path&gt;" class="cls-1" d="M133.72,107.76a6.49,6.49,0,0,0,2-.62c.71-.42,1.38-1,2.05-1.44,1.29-.9,2.68-1.56,2.86-3.25a1.33,1.33,0,0,0-1-1.29c-1.71-.24-2.66.91-3.86,2-.57.5-1.17,1-1.72,1.49a6.12,6.12,0,0,0-1.26,1.93.84.84,0,0,0,.93,1.21Z"/></g><g id="_Group_41" data-name="&lt;Group&gt;"><path id="_Path_40" data-name="&lt;Path&gt;" class="cls-1" d="M140.71,106.43l.55,0a1,1,0,0,0,.9-.52,1.08,1.08,0,0,0,0-1.05,1,1,0,0,0-.9-.52l-.55,0c-1.39-.1-1.39,2.26,0,2.16Z"/></g><g id="_Group_42" data-name="&lt;Group&gt;"><path id="_Path_41" data-name="&lt;Path&gt;" class="cls-1" d="M95.29,109.8a.05.05,0,0,0,0-.11.05.05,0,0,0,0,.11Z"/></g><g id="_Group_43" data-name="&lt;Group&gt;"><path id="_Path_42" data-name="&lt;Path&gt;" class="cls-1" d="M130.37,41.15a43.18,43.18,0,0,1,2.22,10.53c.23,2.79-.45,5.83.45,8.47a.68.68,0,0,0,1.22.16c3-5.32-.48-14.59-2.76-19.64-.29-.64-1.36-.18-1.13.48Z"/></g><g id="_Group_44" data-name="&lt;Group&gt;"><path id="_Path_43" data-name="&lt;Path&gt;" class="cls-1" d="M134.92,60.16a9.43,9.43,0,0,1,2.63-3.87l-1.65-.68a49.37,49.37,0,0,1-.09,6.31c-.15,1.9-.62,3.8-.1,5.66a1,1,0,0,0,1.79.23c1.91-3.29.8-8.64.34-12.21a1,1,0,0,0-1.65-.68,11.28,11.28,0,0,0-2.85,4.8c-.31,1,1.23,1.42,1.59.44Z"/></g><g id="_Group_45" data-name="&lt;Group&gt;"><path id="_Path_44" data-name="&lt;Path&gt;" class="cls-1" d="M138.13,66.36l-.2-.13.34.84-1.08.19v.86a12.58,12.58,0,0,0,0,1.73,14.49,14.49,0,0,1-.88,4.25c-.67,1.8-2.66,3.77-2,5.73a1.13,1.13,0,0,0,1,.79c3.22.12,4.3-5.31,4.62-7.75.3-2.27.77-6.55-2-7.46a1,1,0,0,0-1.07.44,1.11,1.11,0,0,0-.15,1.23.76.76,0,0,0,.72.55h.24a.68.68,0,0,0,.34-1.25Z"/></g><g id="_Group_46" data-name="&lt;Group&gt;"><path id="_Path_45" data-name="&lt;Path&gt;" class="cls-1" d="M96.75,119.71c4.56-9.19,4.11-22.31,3.59-32.31l-3,1.24a8.57,8.57,0,0,1,2.17,3.3c.41.89,1.6.49,1.88-.25.91-2.42.18-3.75-1.59-5.53a1.77,1.77,0,0,0-3,1.24c-.13,5.33-.33,10.68-.69,16s-1.6,10.64-1,15.87c.08.78,1.21,1.3,1.63.44Z"/></g><g id="_Group_47" data-name="&lt;Group&gt;"><path id="_Path_46" data-name="&lt;Path&gt;" class="cls-1" d="M104.5,97.3c.44-4.85,1-10.33,0-15.14-.33-1.69-3.19-1.75-3.48,0-.8,4.85-.11,10.29.47,15.14a1.49,1.49,0,0,0,3,0Z"/></g><g id="_Group_48" data-name="&lt;Group&gt;"><path id="_Path_47" data-name="&lt;Path&gt;" class="cls-1" d="M107.52,82.3a30.64,30.64,0,0,1,2.95-17.89c2.24-4.48,6.06-7.57,8.74-11.7a.78.78,0,0,0-.87-1.13c-12,3.35-15.33,21-13.2,31.38.33,1.59,2.6.87,2.38-.66Z"/></g><g id="_Group_49" data-name="&lt;Group&gt;"><path id="_Path_48" data-name="&lt;Path&gt;" class="cls-1" d="M123.21,50.63c1.73-.67,3.55-1,5.07-2.1.78-.57,1.5-1.23,2.3-1.78a10.19,10.19,0,0,0,2.12-1.6.47.47,0,0,0-.45-.77,8.11,8.11,0,0,0-2.07,1c-.95.54-2,.93-2.92,1.42-1.68.85-2.81,2.34-4.2,3.59-.11.1,0,.31.15.26Z"/></g><g id="_Group_50" data-name="&lt;Group&gt;"><path id="_Path_49" data-name="&lt;Path&gt;" class="cls-1" d="M111.66,94.93a244.69,244.69,0,0,0,11-22.1c2.33-5.19,7.11-12.45,6.33-18.27-.09-.68-1-.71-1.38-.36-2.47,2.05-3.12,4.81-4.26,7.76q-2,5.28-4.22,10.5c-3,7.27-6.28,14.43-9.26,21.71-.43,1,1.25,1.69,1.79.75Z"/></g><g id="_Group_51" data-name="&lt;Group&gt;"><path id="_Path_50" data-name="&lt;Path&gt;" class="cls-1" d="M131,52.59c0-1.24.64-1.87,1.26-2.85.35-.56.83-1,.77-1.67a1.34,1.34,0,0,0-1.21-1.25c-1.37-.19-2.55,1.34-3,2.45a5.83,5.83,0,0,0-.09,3.62,1.14,1.14,0,0,0,2.23-.3Z"/></g><g id="_Group_52" data-name="&lt;Group&gt;"><path id="_Path_51" data-name="&lt;Path&gt;" class="cls-1" d="M125.43,82.77a5.19,5.19,0,0,1,.92-.72,2.16,2.16,0,0,0,.3-.25q-.17.11.08-.06a5.39,5.39,0,0,0,.79-.52c.66-.6,1.53-1.45.67-2.31a2.67,2.67,0,0,0-3.12,0,3.61,3.61,0,0,0-1.7,2.67,1.3,1.3,0,0,0,.57,1.4,1.25,1.25,0,0,0,1.5-.19Z"/></g><g id="_Group_53" data-name="&lt;Group&gt;"><path id="_Path_52" data-name="&lt;Path&gt;" class="cls-1" d="M129.28,87.39a16.91,16.91,0,0,0,2-.36,17.36,17.36,0,0,0,1.75-.77c.63-.28.28-1.24-.34-1.25a12.16,12.16,0,0,0-2,0c-.66.11-1.31.31-2,.46-1.24.29-.7,2.11.52,1.89Z"/></g><g id="_Group_54" data-name="&lt;Group&gt;"><path id="_Path_53" data-name="&lt;Path&gt;" class="cls-1" d="M135.2,87a23.76,23.76,0,0,1-1,4.93c-.45,1.47-1.23,2.87-.78,4.4a1.72,1.72,0,0,0,2.5,1c3-1.6,2.84-7.45,2.68-10.35a1.7,1.7,0,0,0-3.4,0Z"/></g><g id="_Group_55" data-name="&lt;Group&gt;"><path id="_Path_54" data-name="&lt;Path&gt;" class="cls-1" d="M73.84,129.69l.25-.4-.81.33c1.22.36,2.64-.78,3.75-1.1,1.65-.47,2.09.9,3.06,1.93,2.19,2.31,5.51-.15,5-2.91-.7-3.69-5.64-5.5-8.93-4.55a5.29,5.29,0,0,0-3.7,3.22c-.36,1-.53,2.76.65,3.33l-.36-.62,0,.48a.57.57,0,0,0,1.06.29Z"/></g><g id="_Group_56" data-name="&lt;Group&gt;"><path id="_Path_55" data-name="&lt;Path&gt;" class="cls-1" d="M84.48,134.3c-.47,2.5-1,6,.22,8.31a1.24,1.24,0,0,0,2.13,0c1.18-2.35.69-5.81.22-8.31a1.35,1.35,0,0,0-2.58,0Z"/></g><g id="_Group_57" data-name="&lt;Group&gt;"><path id="_Path_56" data-name="&lt;Path&gt;" class="cls-1" d="M94.31,131.82c4.8-1.49,7.91-5.72,13.05-7.09s11.41-.07,16.31-2.48a1,1,0,0,0,.21-1.62c-4.79-4.5-14.4-3.89-20.17-1.78-4.82,1.76-11.42,5.65-11.49,11.39a1.66,1.66,0,0,0,2.09,1.59Z"/></g><g id="_Group_58" data-name="&lt;Group&gt;"><path id="_Path_57" data-name="&lt;Path&gt;" class="cls-1" d="M129.77,117.87a30.64,30.64,0,0,0-4.75-2.45c-1.53-.66-2.69-1.26-4.37-1a1.14,1.14,0,0,0-.68,1.66c1,1.47,2.3,1.9,3.86,2.58a29.52,29.52,0,0,0,4.86,1.72,1.4,1.4,0,0,0,1.07-2.54Z"/></g><g id="_Group_59" data-name="&lt;Group&gt;"><path id="_Path_58" data-name="&lt;Path&gt;" class="cls-1" d="M70.4,1.41c-.33,9.38,2.32,19,4.39,28S79,47.59,81.27,56.63c4.64,18.56,8.48,38.09,15.65,55.87a2.17,2.17,0,0,0,4.17-1.15c-3-19-9.27-37.7-13.89-56.36q-3.36-13.56-6.63-27.14c-2.18-9-3.93-18.66-8.16-27a1.09,1.09,0,0,0-2,.55Z"/></g><g id="_Group_60" data-name="&lt;Group&gt;"><path id="_Path_59" data-name="&lt;Path&gt;" class="cls-1" d="M70.72,2.69c1.24.68,2.59.34,3.93.22s2.67,0,3.66-1.08A.89.89,0,0,0,78.14.45C76.92-.33,75.64.1,74.3.31S71.6.52,70.56,1.47a.78.78,0,0,0,.16,1.21Z"/></g><g id="_Group_61" data-name="&lt;Group&gt;"><path id="_Path_60" data-name="&lt;Path&gt;" class="cls-1" d="M78.31,2a202.72,202.72,0,0,1,6.76,25.22c.78,4,1.44,7.93,2.05,11.92.69,4.48.62,9.59,2.2,13.85.47,1.26,2.72,1.66,3,0,1.22-7.74-1.7-17.19-3.61-24.68A203.52,203.52,0,0,0,79.8,1.63C79.44.73,78,1.07,78.31,2Z"/></g><g id="_Group_62" data-name="&lt;Group&gt;"><path id="_Path_61" data-name="&lt;Path&gt;" class="cls-1" d="M91.47,60.37a162.59,162.59,0,0,0,4.59,18c1.51,4.69,3,10.35,6.3,14.12.79.92,2.71.23,2.55-1.06-.66-5.15-3.53-10.17-5.31-15.05a171.89,171.89,0,0,1-5.14-16.8c-.49-1.94-3.37-1.11-3,.82Z"/></g><g id="_Group_63" data-name="&lt;Group&gt;"><path id="_Path_62" data-name="&lt;Path&gt;" class="cls-1" d="M92.84,134A145.69,145.69,0,0,0,115,135.87c8.25.17,15.71-1.88,23.89-2.5a1,1,0,0,0,0-2c-8.17-.6-15.65-2.63-23.89-2.43a145.72,145.72,0,0,0-22.15,1.89,1.66,1.66,0,0,0,0,3.18Z"/></g><g id="_Group_64" data-name="&lt;Group&gt;"><path id="_Path_63" data-name="&lt;Path&gt;" class="cls-1" d="M142.17,133.24a.05.05,0,0,0,0-.11.05.05,0,0,0,0,.11Z"/></g><g id="_Group_65" data-name="&lt;Group&gt;"><path id="_Path_64" data-name="&lt;Path&gt;" class="cls-1" d="M143.79,131.48c8.71-.33,17.42.81,26.06,1.87,7.72,1,15,2.21,22.32-1,.63-.28.41-1.25-.18-1.41-7.89-2.12-16.1-1.68-24.22-2s-16.09-.32-24.14,1.24a.67.67,0,0,0,.18,1.32Z"/></g><g id="_Group_66" data-name="&lt;Group&gt;"><path id="_Path_65" data-name="&lt;Path&gt;" class="cls-1" d="M196,132.67c2.37-.09,4.74-.12,7.12,0,2.06.07,4.37.67,6.3-.09a.78.78,0,0,0,.18-1.41c-1.77-1.07-4-.79-6-.82-2.54,0-5.08,0-7.62.2-1.38.08-1.4,2.22,0,2.16Z"/></g><g id="_Group_67" data-name="&lt;Group&gt;"><path id="_Path_66" data-name="&lt;Path&gt;" class="cls-1" d="M165.66,128.27c7-5.11,13.67-9.84,22.43-11.31a39,39,0,0,1,15.26.64c4.19,1,8.06,2.79,12.34,3.45.47.07,1-.42.7-.91-5.63-8-17.89-9.15-26.83-7.85-9.54,1.39-19.79,6.61-24.6,15.26-.23.42.27,1,.7.7Z"/></g><g id="_Group_68" data-name="&lt;Group&gt;"><path id="_Path_67" data-name="&lt;Path&gt;" class="cls-1" d="M220,123.52l2.74,2.2a.31.31,0,1,0,.37-.49l-2.8-2.12c-.23-.17-.54.22-.31.4Z"/></g><g id="_Group_69" data-name="&lt;Group&gt;"><path id="_Path_68" data-name="&lt;Path&gt;" class="cls-1" d="M229.24,129.63c8.44,9.06,17.88,16.17,24.13,27.15a74.13,74.13,0,0,1,6.72,15.79c1.2,4.07,1.26,10.49,4.51,13.36a1.57,1.57,0,0,0,2.43-.31c2.54-4.28-.6-11-2.27-15.26a79.13,79.13,0,0,0-8.09-15.51c-7.2-10.68-16.67-18.33-27.12-25.62-.25-.17-.5.2-.31.4Z"/></g><g id="_Group_70" data-name="&lt;Group&gt;"><path id="_Path_69" data-name="&lt;Path&gt;" class="cls-1" d="M216.8,132.57c-2,6.71,1.26,14.81,2.65,21.36.93,4.37-1.23,14.22,3.12,17.06a1.82,1.82,0,0,0,2.2-.28l.29-.35a1.42,1.42,0,0,0,0-2c-1.46-1.3-.46-7.29-.62-9.23a39.44,39.44,0,0,0-2-9.22c-1.84-5.62-2.47-12.16-4.84-17.48-.15-.34-.66-.21-.75.1Z"/></g><g id="_Group_71" data-name="&lt;Group&gt;"><path id="_Path_70" data-name="&lt;Path&gt;" class="cls-1" d="M226.07,143.64c-.55,4.16-.12,8.53,0,12.73.07,3.77-.33,7.78,1.05,11.33.51,1.32,2.74,1.7,3.08,0,.74-3.64-.19-7.24-.75-10.88-.68-4.4-1-9.07-2.33-13.32a.52.52,0,0,0-1,.14Z"/></g><g id="_Group_72" data-name="&lt;Group&gt;"><path id="_Path_71" data-name="&lt;Path&gt;" class="cls-1" d="M227.82,139.52a10.81,10.81,0,0,0,.55-2.82,1.6,1.6,0,1,0-3.19,0,10.83,10.83,0,0,0,.55,2.82,1.09,1.09,0,0,0,2.09,0Z"/></g><g id="_Group_73" data-name="&lt;Group&gt;"><path id="_Path_72" data-name="&lt;Path&gt;" class="cls-1" d="M236,148.37a19.44,19.44,0,0,0-1.15,7.79c.11,2.19,0,5.17,1.84,6.62.64.5,1.86.66,2.27-.29.88-2.07,0-3.74-.35-5.89-.46-2.63-.76-5.38-1.09-8a.78.78,0,0,0-1.52-.21Z"/></g><g id="_Group_74" data-name="&lt;Group&gt;"><path id="_Path_73" data-name="&lt;Path&gt;" class="cls-1" d="M242.05,159.89c-.92,2.86-.28,6.52.22,9.45s1.2,7,3.51,9.07a1.77,1.77,0,0,0,3-1.24c.15-2.94-1.65-6.12-2.57-8.91s-1.33-6-2.74-8.55a.78.78,0,0,0-1.41.18Z"/></g><g id="_Group_75" data-name="&lt;Group&gt;"><path id="_Path_74" data-name="&lt;Path&gt;" class="cls-1" d="M244.53,153.17l-.53-1.43a1.43,1.43,0,0,0-1.72-1,1.41,1.41,0,0,0-1,1.72l.44,1.45a1.47,1.47,0,0,0,1.77,1,1.45,1.45,0,0,0,1-1.77Z"/></g><g id="_Group_76" data-name="&lt;Group&gt;"><path id="_Path_75" data-name="&lt;Path&gt;" class="cls-1" d="M240.3,171.58l0,.05h-1.4a1,1,0,0,0,.23.2q.39.32-.21-.24a1.63,1.63,0,0,0,1.74.71l-.82-.09a1.3,1.3,0,0,0,1.76-.46,1.7,1.7,0,0,0,.14-1.35,1.57,1.57,0,0,0-1.9-1.08,1.69,1.69,0,0,0-1.25,1.78.94.94,0,0,0,1.73.47Z"/></g><g id="_Group_77" data-name="&lt;Group&gt;"><path id="_Path_76" data-name="&lt;Path&gt;" class="cls-1" d="M225.81,170.7c6.88,3.5,14.07,5.39,21.39,7.7a69.46,69.46,0,0,0,9.46,2.79c3,.51,5.54,1.12,8,3,1.59,1.23,2.75,2.62,4.41,3.77,1.29.89,2.63-1,1.62-2.1-2.58-2.74-6.61-4.06-9.92-5.78-3.49-1.81-6.45-4.61-10-6.22-7.39-3.33-16.44-4.57-24.47-5a1,1,0,0,0-.49,1.82Z"/></g><g id="_Group_78" data-name="&lt;Group&gt;"><path id="_Path_77" data-name="&lt;Path&gt;" class="cls-1" d="M242.54,134.32c5.26,9,12.48,17,18.76,25.33s8.1,17.82,12.31,27.06c1.08,2.38,4.57.63,4-1.71-2.1-9.47-5.9-19-12-26.52-6.89-8.46-14.1-17.53-22.26-24.79a.52.52,0,0,0-.81.62Z"/></g><g id="_Group_79" data-name="&lt;Group&gt;"><path id="_Path_78" data-name="&lt;Path&gt;" class="cls-1" d="M276.65,183.37a59.28,59.28,0,0,0-1.81-35.49c-3.8-10.1-10-16.62-19.39-21.67a.41.41,0,0,0-.42.71c7.74,5.47,13.44,15.6,16.3,24.54,3.32,10.39,3.28,21.24,4.92,31.91,0,.21.35.18.4,0Z"/></g><g id="_Group_80" data-name="&lt;Group&gt;"><path id="_Path_79" data-name="&lt;Path&gt;" class="cls-1" d="M250.4,122.8a.05.05,0,0,0,0-.11.05.05,0,0,0,0,.11Z"/></g><g id="_Group_81" data-name="&lt;Group&gt;"><path id="_Path_80" data-name="&lt;Path&gt;" class="cls-1" d="M250.11,121.75l-1.1-.55c-.59-.3-1.11.59-.52.89l1.1.55c.59.3,1.11-.59.52-.89Z"/></g><g id="_Group_82" data-name="&lt;Group&gt;"><path id="_Path_81" data-name="&lt;Path&gt;" class="cls-1" d="M249.33,121.78c-8.47-7-17.9-11.85-28.89-13.28-9.45-1.23-24.59-1.59-31.91,5.65a1.72,1.72,0,0,0,1.2,2.9c4.38,0,8.64-1.73,12.9-2.63A63,63,0,0,1,218.76,113c10.53.51,21.32,3.39,29.95,9.54.47.34,1.07-.43.62-.81Z"/></g><g id="_Group_83" data-name="&lt;Group&gt;"><path id="_Path_82" data-name="&lt;Path&gt;" class="cls-1" d="M190.23,119.46l-.66,5.06c-.2,1.53-.51,3,.25,4.42a1.41,1.41,0,0,0,2.4,0c.92-1.2.8-3,.84-4.42l.15-5.06c.06-2-2.75-1.84-3,0Z"/></g><g id="_Group_84" data-name="&lt;Group&gt;"><path id="_Path_83" data-name="&lt;Path&gt;" class="cls-1" d="M196.54,121.89a11.6,11.6,0,0,0-.77,3.1,2.82,2.82,0,0,0,.78,2.73.84.84,0,0,0,1.29-.17,3.76,3.76,0,0,0,.47-2.39,9.37,9.37,0,0,1,.41-2.68c.42-1.43-1.65-1.92-2.19-.6Z"/></g><g id="_Group_85" data-name="&lt;Group&gt;"><path id="_Path_84" data-name="&lt;Path&gt;" class="cls-1" d="M69.51,161.28c2.13,22.53,4,45.1,6,67.64.47,5.35-.39,10.73,0,16.16s.8,10.63,2.58,15.87a52.36,52.36,0,0,1,2.45,18.65c-.1,4.56-.48,9.34,1.71,13.45a1,1,0,0,0,1.79-.23c1.68-4.32.72-9.21,0-13.69a62.11,62.11,0,0,1,.06-20.2c1.64-11-2.4-21.43-3.63-32.17-2.51-22.05-6.16-43.8-10.52-65.54,0-.22-.43-.18-.4.05Z"/></g><g id="_Group_86" data-name="&lt;Group&gt;"><path id="_Path_85" data-name="&lt;Path&gt;" class="cls-1" d="M83.3,296.05c-2,9.9-1,18.82-.2,28.74.41,4.84.13,9.73.3,14.58s-.52,10.21,2.41,14.33a2.61,2.61,0,0,0,4.45,0c2.56-4.4,1.47-9.44,1.18-14.33a107.62,107.62,0,0,0-1.39-12.72c-1.85-10.34-5.1-19.57-4.63-30.31a1.09,1.09,0,0,0-2.12-.29Z"/></g><g id="_Group_87" data-name="&lt;Group&gt;"><path id="_Path_86" data-name="&lt;Path&gt;" class="cls-1" d="M86.23,356.79a120.23,120.23,0,0,0,.39,13.13c.5,4.33-.28,8.73-.06,13.12.31,6.5,1.2,12.79,4.17,18.64,1.68,3.3,6.7.38,5-2.91-3.28-6.28-3.23-13.22-4-20.1-.83-7.3-1-14.51-1.14-21.88,0-2.78-4.34-2.79-4.33,0Z"/></g><g id="_Group_88" data-name="&lt;Group&gt;"><path id="_Path_87" data-name="&lt;Path&gt;" class="cls-1" d="M250.85,177.3c-3.16,19.88-3.82,40.25-5.33,60.31a43.25,43.25,0,0,0,.76,13.9c1.32,5.68,0,12.63-1.17,18.26-1,4.92-2.05,9.83-3,14.75-.73,3.75-1.86,7.18,1.25,10a2.07,2.07,0,0,0,2.43.31c3.61-2.14,3.25-5.39,3.21-9.34-.06-5.43-.32-10.87-.45-16.3-.11-4.9-.25-10.44.83-15.22.68-3,1.76-3.45,2.42-5.64a32.81,32.81,0,0,0,1-7.41c1.44-20.84,2.81-42.33,1-63.17-.13-1.54-2.65-2.18-2.93-.4Z"/></g><g id="_Group_89" data-name="&lt;Group&gt;"><path id="_Path_88" data-name="&lt;Path&gt;" class="cls-1" d="M245,250c-6.94,4-16.72,13.24-15.65,22.15.06.51.73,1,1.14.47,2.62-3.15,3.78-7.24,6-10.69a45.76,45.76,0,0,1,9.6-10.56c.78-.64-.22-1.86-1.06-1.38Z"/></g><g id="_Group_90" data-name="&lt;Group&gt;"><path id="_Path_89" data-name="&lt;Path&gt;" class="cls-1" d="M228.74,274.46a5.84,5.84,0,0,0-.91,1.91.52.52,0,0,0,.76.58,5.62,5.62,0,0,0,1.45-1.49c.75-.94-.69-2-1.29-1Z"/></g><g id="_Group_91" data-name="&lt;Group&gt;"><path id="_Path_90" data-name="&lt;Path&gt;" class="cls-1" d="M226,282.33c-2.14,12.63-4.28,25.23-5.93,37.93-.71,5.48-1.38,11-2.17,16.42-.43,2.94,0,6-.54,8.88-.53,3.13-2.34,6.07-3.32,9.09-.55,1.71,2.09,2.85,2.92,1.23a46.72,46.72,0,0,0,2.73-7.67c.88-2.84,2.33-5.36,3.38-8.09,2-5.14,2.24-11.63,2.82-17.1,1.43-13.41,1.63-26.94,2.13-40.41,0-1.14-1.83-1.43-2-.27Z"/></g><g id="_Group_92" data-name="&lt;Group&gt;"><path id="_Path_91" data-name="&lt;Path&gt;" class="cls-1" d="M209.65,363.44a20.67,20.67,0,0,1-4.3,8.34c-1.82,2.06-5,3.49-6.22,5.91a2.14,2.14,0,0,0,1.82,3.18c3.46.3,6.88-3.74,8.69-6.31A21.84,21.84,0,0,0,213.49,364c.22-2.23-3.27-2.6-3.84-.52Z"/></g><g id="_Group_93" data-name="&lt;Group&gt;"><path id="_Path_92" data-name="&lt;Path&gt;" class="cls-1" d="M86.79,262.41c.87,4.16,1.8,9.05,4.08,12.69a.47.47,0,0,0,.86-.23c-.16-4.3-2.13-8.86-3.75-12.79a.62.62,0,0,0-1.19.33Z"/></g><g id="_Group_94" data-name="&lt;Group&gt;"><path id="_Path_93" data-name="&lt;Path&gt;" class="cls-1" d="M92.55,285.36c.33,13.67,0,27.34,1.45,41,.67,6.46,1.45,12.91,2.26,19.35.39,3.1.65,6.28,1.79,9.21s2.61,5,3.15,8c.07.4.75.31.71-.1-.34-3,.5-5.63.78-8.58a36.17,36.17,0,0,0-.56-8.29c-1-7.26-1.84-14.53-2.78-21.8-1.68-13-4.43-25.87-6.19-38.89,0-.35-.62-.26-.61.08Z"/></g><g id="_Group_95" data-name="&lt;Group&gt;"><path id="_Path_94" data-name="&lt;Path&gt;" class="cls-1" d="M102.46,366.7a10.18,10.18,0,0,0,1.88,6.12c1,1.46,3.19,4.19,5.28,3.39a1.45,1.45,0,0,0,1-1.71c-.24-1.59-2.58-2.6-3.66-3.68a19.33,19.33,0,0,1-3.32-4.43.62.62,0,0,0-1.15.31Z"/></g><g id="_Group_96" data-name="&lt;Group&gt;"><path id="_Path_95" data-name="&lt;Path&gt;" class="cls-1" d="M90.24,307.34a81.88,81.88,0,0,0,.52-15c-.3-3.92-.22-8.16-2.29-11.59-.58-1-2.43-.94-2.64.34-.63,4,.76,7.77,1.45,11.71.84,4.85,1.85,9.67,2.65,14.53,0,.19.29.12.3,0Z"/></g><g id="_Group_97" data-name="&lt;Group&gt;"><path id="_Path_96" data-name="&lt;Path&gt;" class="cls-1" d="M124.86,377.79c6.16,2.78,12.68,5.43,19.34,6.65a52.07,52.07,0,0,0,9.72,1.15c3.86,0,6.36-1.89,9.91-3.23.62-.23,1-1.26.21-1.6-2.67-1.2-5-3.2-7.86-4-3-.79-6.66-.65-9.78-.75-7.08-.22-14.25.41-21.32.86-.41,0-.69.66-.23.86Z"/></g><g id="_Group_98" data-name="&lt;Group&gt;"><path id="_Path_97" data-name="&lt;Path&gt;" class="cls-1" d="M169.25,381.47c2.44,1.8,5.93,1.94,8.85,2.14,2.73.19,6.62.23,7.93-2.66a2.63,2.63,0,0,0-.39-3c-1.94-2.37-5.42-1.44-8.07-1.09s-5.72.24-8.33,1.41c-1.4.63-1,2.47,0,3.2Z"/></g><g id="_Group_99" data-name="&lt;Group&gt;"><path id="_Path_98" data-name="&lt;Path&gt;" class="cls-1" d="M186.12,382.39c2.85.28,6.08.52,8.84-.38s2.48-5.45-.73-5.38c-2.72.06-5.37.7-8.11.71-3.31,0-3.18,4.74,0,5Z"/></g><g id="_Group_100" data-name="&lt;Group&gt;"><path id="_Path_99" data-name="&lt;Path&gt;" class="cls-1" d="M213.81,379a11.61,11.61,0,0,0,5.07-5.39c1-2.09,2.45-5.81-.1-7.41s-3.85,1.37-4.15,3.3a18.32,18.32,0,0,1-3.07,7.25c-1,1.4.9,3,2.26,2.25Z"/></g><g id="_Group_101" data-name="&lt;Group&gt;"><path id="_Path_100" data-name="&lt;Path&gt;" class="cls-1" d="M238.56,264.95c-6.21,6.55-9.49,19.07-5.11,27.38a.78.78,0,0,0,1.41-.18c1.12-4.14,1.06-8.46,1.67-12.68.69-4.73,2.1-9.28,3-14,.1-.52-.53-1-.95-.55Z"/></g><g id="_Group_102" data-name="&lt;Group&gt;"><path id="_Path_101" data-name="&lt;Path&gt;" class="cls-1" d="M232.17,312.23a179.39,179.39,0,0,0-5.09,19.13c-1.28,5.77-3.56,11.79-3.23,17.73a.73.73,0,0,0,1.34.36c3.43-5.22,4.33-12.12,5.57-18.16a90.92,90.92,0,0,0,2.11-19,.36.36,0,0,0-.71-.1Z"/></g><g id="_Group_103" data-name="&lt;Group&gt;"><path id="_Path_102" data-name="&lt;Path&gt;" class="cls-1" d="M221.29,368.33a47.2,47.2,0,0,1-.82,9.47c-.45,1.87-1.36,3.55-1.86,5.41a26.59,26.59,0,0,0-1,11.16c.51,3.05,4.58,2.3,5.46,0,1.31-3.42,1.17-7.54.62-11.16A111.6,111.6,0,0,1,222,368.33a.36.36,0,0,0-.72,0Z"/></g><g id="_Group_104" data-name="&lt;Group&gt;"><path id="_Path_103" data-name="&lt;Path&gt;" class="cls-1" d="M223.84,377.65c-1.5,2.11-2,4.72-2.74,7.18a39,39,0,0,1-3.28,7.4c-1.66,3-2.77,9,2.06,9.81,5.49.87,7.26-5.22,8.16-9.33,1-4.66,2.38-10.75-.38-15a2.25,2.25,0,0,0-3.82,0Z"/></g><g id="_Group_105" data-name="&lt;Group&gt;"><path id="_Path_104" data-name="&lt;Path&gt;" class="cls-1" d="M228,376.17a5.34,5.34,0,0,0,1.52-2.53,22.57,22.57,0,0,0,.39-2.95,2.53,2.53,0,0,0-1.85-2.43,3.54,3.54,0,0,0-1.34,0,2.53,2.53,0,0,0-1.85,2.43,17.52,17.52,0,0,1-.12,2.15,7.88,7.88,0,0,0,.24,2.53,1.81,1.81,0,0,0,3,.8Z"/></g><g id="_Group_106" data-name="&lt;Group&gt;"><path id="_Path_105" data-name="&lt;Path&gt;" class="cls-1" d="M230,365c0-.67,0-1.34,0-2a1.61,1.61,0,1,0-3.19-.11c0,.7,0,1.41,0,2.11a1.6,1.6,0,0,0,3.19,0Z"/></g><g id="_Group_107" data-name="&lt;Group&gt;"><path id="_Path_106" data-name="&lt;Path&gt;" class="cls-1" d="M225.07,361.22c.17-.37.33-.74.5-1.11a4.33,4.33,0,0,0,.32-1.49c.06-.85.09-2-.94-2.26s-1.55.72-1.78,1.51a5.8,5.8,0,0,0-.3,1.38,13.64,13.64,0,0,0,.09,1.39c.07,1,1.61,1.69,2.11.57Z"/></g><g id="_Group_108" data-name="&lt;Group&gt;"><path id="_Path_107" data-name="&lt;Path&gt;" class="cls-1" d="M234.48,305.46l.36-2a2.47,2.47,0,0,0-.3-2,.79.79,0,0,0-1.21-.16,2.31,2.31,0,0,0-.89,1.61l-.34,1.9a1.27,1.27,0,0,0,.86,1.52,1.25,1.25,0,0,0,1.52-.86Z"/></g><g id="_Group_109" data-name="&lt;Group&gt;"><path id="_Path_108" data-name="&lt;Path&gt;" class="cls-1" d="M235.78,288.87l.43-2.78c.11-.7-.9-1-1.09-.3l-.72,2.7c-.25.92,1.25,1.28,1.39.38Z"/></g><g id="_Group_110" data-name="&lt;Group&gt;"><path id="_Path_109" data-name="&lt;Path&gt;" class="cls-1" d="M242,265.89l-.25-1a.67.67,0,0,0-1.29,0l-.25,1a.93.93,0,1,0,1.79,0Z"/></g><g id="_Group_111" data-name="&lt;Group&gt;"><path id="_Path_110" data-name="&lt;Path&gt;" class="cls-1" d="M98.11,371.9l-.48-2.58a3.71,3.71,0,0,0-.84-2.31,1.1,1.1,0,0,0-1.81.48A3.89,3.89,0,0,0,95.3,370l.72,2.51a1.08,1.08,0,0,0,2.09-.58Z"/></g><g id="_Group_112" data-name="&lt;Group&gt;"><path id="_Path_111" data-name="&lt;Path&gt;" class="cls-1" d="M99.45,379.71c.45.47.78.95,1.47,1a.82.82,0,0,0,.71-.41c.34-.56.09-1.25,0-1.85a1.29,1.29,0,1,0-2.15,1.25Z"/></g><g id="_Group_113" data-name="&lt;Group&gt;"><path id="_Path_112" data-name="&lt;Path&gt;" class="cls-1" d="M100.56,398.36c2.83-5.52,1.06-14.7-.87-20.32a.62.62,0,0,0-1.19,0c-1.44,5.75-2.48,15,.82,20.32a.73.73,0,0,0,1.25,0Z"/></g><g id="_Group_114" data-name="&lt;Group&gt;"><path id="_Path_113" data-name="&lt;Path&gt;" class="cls-1" d="M99.32,371.23c.29-1,.28-2.82-.78-3.41a.57.57,0,0,0-.83.64c.06.42.34.77.44,1.18a2.62,2.62,0,0,1,0,1.26.62.62,0,0,0,1.19.33Z"/></g><g id="_Group_115" data-name="&lt;Group&gt;"><path id="_Path_114" data-name="&lt;Path&gt;" class="cls-1" d="M97.87,362.08a9.16,9.16,0,0,1-.47-2.59,17,17,0,0,0,0-2.37.83.83,0,0,0-1.51-.2c-.82,1.66-.25,4,.4,5.59.38,1,1.92.59,1.59-.44Z"/></g><g id="_Group_116" data-name="&lt;Group&gt;"><path id="_Path_115" data-name="&lt;Path&gt;" class="cls-1" d="M121.38,398.51c5.53,1,11.06,2.77,16.68,3a38.76,38.76,0,0,0,9.09-.7c3.56-.7,7.45-.85,10.9-2.08,1.62-.58,2.09-3.45,0-3.77-2.94-.46-5.78,0-8.71-.24a107.36,107.36,0,0,0-11.28-.83c-3.47,0-6.8.75-10.25,1-2.33.18-4.19-.11-6.18,1.09a1.43,1.43,0,0,0-.71,1.24l0,.74a.58.58,0,0,0,.42.55Z"/></g><g id="_Group_117" data-name="&lt;Group&gt;"><path id="_Path_116" data-name="&lt;Path&gt;" class="cls-1" d="M161.26,397.71c5.32,3.18,12.54,2.56,18.52,3.27s13.14,5.3,18.06.39a3.38,3.38,0,0,0,.52-4.06c-4.23-5.65-10.36-2.48-16.5-2.55-6.49-.07-14.08-2.19-20.27.31a1.46,1.46,0,0,0-.34,2.64Z"/></g><g id="_Group_118" data-name="&lt;Group&gt;"><path id="_Path_117" data-name="&lt;Path&gt;" class="cls-1" d="M199.86,400.36l1-.09A2.67,2.67,0,0,0,203,399a1.89,1.89,0,0,0,0-2,2.59,2.59,0,0,0-2.09-1.3l-1-.09a2.37,2.37,0,0,0,0,4.74Z"/></g><g id="_Group_119" data-name="&lt;Group&gt;"><path id="_Path_118" data-name="&lt;Path&gt;" class="cls-1" d="M205.35,401.21l1.48,0h.63a2.05,2.05,0,0,0,1-.28q.71-.5.28-.25a1.8,1.8,0,0,0,0-3.07q.43.25-.28-.25a2.05,2.05,0,0,0-1-.28c-.21,0-.42,0-.63,0l-1.48,0a2.11,2.11,0,0,0,0,4.22Z"/></g><g id="_Group_120" data-name="&lt;Group&gt;"><path id="_Path_119" data-name="&lt;Path&gt;" class="cls-1" d="M199.31,391.54c1.22.13,4.43.84,4.43-1.24s-3.21-1.37-4.43-1.24a1.24,1.24,0,0,0,0,2.47Z"/></g><g id="_Group_121" data-name="&lt;Group&gt;"><path id="_Path_120" data-name="&lt;Path&gt;" class="cls-1" d="M177.33,393.07l-1.69.14a2.25,2.25,0,0,0-1.57.43.73.73,0,0,0,0,1,2.25,2.25,0,0,0,1.57.43l1.69.14c1.39.11,1.39-2.28,0-2.16Z"/></g><g id="_Group_122" data-name="&lt;Group&gt;"><path id="_Path_121" data-name="&lt;Path&gt;" class="cls-1" d="M131.59,385.77a6.12,6.12,0,0,1,.19,5.72c-.64,1.4-1.66,2.57-2.11,4.06a1,1,0,0,0,1.27,1.27c5.17-.84,4.08-8.76,1.9-11.78a.72.72,0,0,0-1.25.73Z"/></g><g id="_Group_123" data-name="&lt;Group&gt;"><path id="_Path_122" data-name="&lt;Path&gt;" class="cls-1" d="M96.39,398.06c-.47,2.25,3.09,3.42,4.71,4,2.3.77,6,2,7.95-.05a1.36,1.36,0,0,0,0-1.89,4.5,4.5,0,0,0-3.27-1.1,20.93,20.93,0,0,1-4.44-.74c-.85-.23-4.57-2-4.95-.18Z"/></g><g id="_Group_124" data-name="&lt;Group&gt;"><path id="_Path_123" data-name="&lt;Path&gt;" class="cls-1" d="M111.41,403.13a11,11,0,0,0,2.59-.19,8.15,8.15,0,0,1,1.22-.29,5.47,5.47,0,0,0,1.31-.21.62.62,0,0,0,0-1.19,5.59,5.59,0,0,0-1.31-.21,9,9,0,0,1-1.22-.29,11.11,11.11,0,0,0-2.59-.19,1.29,1.29,0,0,0,0,2.58Z"/></g><g id="_Group_125" data-name="&lt;Group&gt;"><path id="_Path_124" data-name="&lt;Path&gt;" class="cls-1" d="M90.23,399.86a240.11,240.11,0,0,0,32,4.94c5.66.45,11.37.73,17.05.71,5,0,10.48.23,15.23-1.54a1.14,1.14,0,0,0,0-2.19c-4.82-1.57-10.2-1.24-15.23-1.41-5.33-.18-10.66-.27-16-.52-11-.51-21.93-.9-32.89-1.63a.83.83,0,0,0-.22,1.62Z"/></g><g id="_Group_126" data-name="&lt;Group&gt;"><path id="_Path_125" data-name="&lt;Path&gt;" class="cls-1" d="M157.9,403.08a24.52,24.52,0,0,0,7.79.83c2.12-.17,4.94-.09,6.37-1.84.39-.47.48-1.4-.22-1.7-1.92-.82-3.62,0-5.64.27-2.67.39-5.41.74-8.1.92-.83.05-1.1,1.31-.21,1.52Z"/></g><g id="_Group_127" data-name="&lt;Group&gt;"><path id="_Path_126" data-name="&lt;Path&gt;" class="cls-1" d="M78.93,149.05c-.69,1.89-.27,4.07-.91,6.06-.72,2.25-2.38,3.72-3.31,5.78-.68,1.52.89,3.87,2.61,2.61,2.3-1.7,3.25-4.82,3.67-7.57.34-2.2.6-5.39-.94-7.18a.68.68,0,0,0-1.12.3Z"/></g><g id="_Group_128" data-name="&lt;Group&gt;"><path id="_Path_127" data-name="&lt;Path&gt;" class="cls-1" d="M74.63,162.09l.46-.6c.34-.44-.33-1.11-.78-.78l-.6.46a.66.66,0,1,0,.92.92Z"/></g><g id="_Group_129" data-name="&lt;Group&gt;"><path id="_Path_128" data-name="&lt;Path&gt;" class="cls-1" d="M76.6,162.62a42.72,42.72,0,0,0,15.05,6.49c2.21.42,4.43.6,6.66.9,2.71.36,5.31,1.49,8,1.23a1,1,0,0,0,.89-1.55c-2.11-3.29-6.14-3.17-9.76-3.47a63.58,63.58,0,0,1-20.19-4.76.67.67,0,0,0-.68,1.16Z"/></g><g id="_Group_130" data-name="&lt;Group&gt;"><path id="_Path_129" data-name="&lt;Path&gt;" class="cls-1" d="M110.89,171c2.69.22,5.08-.52,7.78-.66,4-.21,6.06,1.34,9.61,2.68a7.85,7.85,0,0,0,4.19.43c3.71-.4,6.39.11,10,.75,2.31.41,4.29-3.07,1.75-4.14a18.38,18.38,0,0,0-8.7-1.67c-1.09.09-2.14.58-3.19.69-2.24.24-3.62-.61-5.63-1.24-5-1.53-11.53.34-15.93,2.78a.21.21,0,0,0,.1.38Z"/></g><g id="_Group_131" data-name="&lt;Group&gt;"><path id="_Path_130" data-name="&lt;Path&gt;" class="cls-1" d="M127,208c.62-2.18,3.16-16.1,6.12-15.69a2.14,2.14,0,0,0,2.52-1.43c1.82-4.8,3.71-9.61,5.89-14.26a.83.83,0,0,0-1.29-1,26.45,26.45,0,0,0-8.55,14.16l2-1.51c-2.89,0-3.82,1.11-4.61,3.75-1.5,5.06-2.26,10.45-3.35,15.61A.67.67,0,0,0,127,208Z"/></g><g id="_Group_132" data-name="&lt;Group&gt;"><path id="_Path_131" data-name="&lt;Path&gt;" class="cls-1" d="M144.71,176.54a15.21,15.21,0,0,1,6.18-7.41c2.19-1.3.06-4.82-2-3.37a13.56,13.56,0,0,0-6,10.29c-.05.92,1.44,1.4,1.82.49Z"/></g><g id="_Group_133" data-name="&lt;Group&gt;"><path id="_Path_132" data-name="&lt;Path&gt;" class="cls-1" d="M155.16,169.25a62.44,62.44,0,0,1,7.74-5.76c2.1-1.37,4.44-2.12,5.28-4.64a.68.68,0,0,0-.47-.82c-2.75-1-5.39,1-7.6,2.52A42.52,42.52,0,0,0,152.9,167a1.6,1.6,0,0,0,2.26,2.26Z"/></g><g id="_Group_134" data-name="&lt;Group&gt;"><path id="_Path_133" data-name="&lt;Path&gt;" class="cls-1" d="M169.89,160.4c4.67-4.74,11.51-6.64,15.83-11.75l-2.67-.34c1.72,2.28,1.55,4.75,2.73,7.17.76,1.56,2.77.85,3.29-.43,1.31-3.17-1.14-6.65-3.36-8.8a1.71,1.71,0,0,0-2.4,0c-4.33,5.37-11.71,6.67-15.53,12.53-.84,1.29,1,2.7,2.1,1.62Z"/></g><g id="_Group_135" data-name="&lt;Group&gt;"><path id="_Path_134" data-name="&lt;Path&gt;" class="cls-1" d="M189.45,155.18l2.29-.88-1.15-.87c.68,4.76,1.34,9.51,1.74,14.31.28,3.34,5.54,3.37,5.25,0a33.62,33.62,0,0,0-4.82-15.23,1.22,1.22,0,0,0-1.34-.55,4.85,4.85,0,0,0-3.19,2.29c-.5.76.59,1.51,1.21.94Z"/></g><g id="_Group_136" data-name="&lt;Group&gt;"><path id="_Path_135" data-name="&lt;Path&gt;" class="cls-1" d="M196.38,171.57a30.88,30.88,0,0,1-2.4,12.68c-.82,2.12,2.66,3.57,3.67,1.55a15.28,15.28,0,0,0-.5-14.43.42.42,0,0,0-.77.21Z"/></g><g id="_Group_137" data-name="&lt;Group&gt;"><path id="_Path_136" data-name="&lt;Path&gt;" class="cls-1" d="M198.92,185.67c-3.52,5.4-5.19,11.86-8.19,17.58a2.38,2.38,0,0,0,0,2.39c.64,1,.86,1.2,2,1.17a2.34,2.34,0,0,0,2-1.17c2.86-6.1,6-12.83,5.16-19.68a.57.57,0,0,0-1.06-.29Z"/></g><g id="_Group_138" data-name="&lt;Group&gt;"><path id="_Path_137" data-name="&lt;Path&gt;" class="cls-1" d="M193.62,211.54a87.89,87.89,0,0,1-38.51,27.72c-9.74,3.55-29,1.81-31.31,15.52-.35,2,2.31,3.43,3.48,1.47,4.38-7.34,11.5-8.07,19.25-9.29,6.95-1.1,13-3.54,19.26-6.67,5.86-2.94,11.73-5.9,16.58-10.39,5.55-5.14,8.33-11.33,12.05-17.72.28-.49-.43-1.09-.81-.62Z"/></g><g id="_Group_139" data-name="&lt;Group&gt;"><path id="_Path_138" data-name="&lt;Path&gt;" class="cls-1" d="M124.54,214.3c-1,6.94,0,14.19-.57,21.21-.26,3.51-.86,8.78,3.49,9.78a1.72,1.72,0,0,0,2.09-2.09,29.77,29.77,0,0,1-1.05-6c0-2.89.39-5.76.34-8.66-.08-4.82-.54-10-2.61-14.43a.94.94,0,0,0-1.69.22Z"/></g><g id="_Group_140" data-name="&lt;Group&gt;"><path id="_Path_139" data-name="&lt;Path&gt;" class="cls-1" d="M130.69,245.58c2.4-5.88,5-11.67,7.83-17.35,2.21-4.44,5.9-9.15,6.67-14.06a.88.88,0,0,0-1.46-.85c-4.19,3.58-6.33,10.36-8.6,15.29-2.47,5.36-4.72,10.81-6.82,16.32-.57,1.5,1.79,2.1,2.38.66Z"/></g><g id="_Group_141" data-name="&lt;Group&gt;"><path id="_Path_140" data-name="&lt;Path&gt;" class="cls-1" d="M147.12,211.78c2.69-3,4.81-6.45,7.45-9.5,3-3.41,5.87-6.85,8.65-10.41,2.54-3.25,5-6.59,7.33-10s5.44-6.65,6.17-10.72a2.13,2.13,0,0,0-3.53-2.05c-3.15,2.63-4.61,6.9-6.71,10.4-2.36,3.94-4.9,7.77-7.54,11.53-4.12,5.87-11.81,12.7-13.21,19.92-.15.75.78,1.46,1.38.8Z"/></g><g id="_Group_142" data-name="&lt;Group&gt;"><path id="_Path_141" data-name="&lt;Path&gt;" class="cls-1" d="M179.28,165.55c1.76-3,4.38-7.52,3.78-11.11-.11-.67-1-.62-1.32-.17-.94,1.34-1.26,3.16-1.86,4.69a42.24,42.24,0,0,1-2.56,5.44,1.13,1.13,0,0,0,2,1.14Z"/></g><g id="_Group_143" data-name="&lt;Group&gt;"><path id="_Path_142" data-name="&lt;Path&gt;" class="cls-1" d="M152.8,169.39c-4.1,2.66-4.2,6.59-4.15,11.06,0,3.45-1.59,6.3-2,9.67a28.53,28.53,0,0,0,.39,9c.37,1.77,2.8,1.85,3.67.48,1.3-2,1.45-3.39,1.38-5.85a45.31,45.31,0,0,1,.72-8.77c.82-5.16-1.49-9.56,1-14.57.33-.65-.37-1.5-1.06-1.06Z"/></g><g id="_Group_144" data-name="&lt;Group&gt;"><path id="_Path_143" data-name="&lt;Path&gt;" class="cls-1" d="M142.34,194.83a4.38,4.38,0,0,0-3.25,3.09,4.83,4.83,0,0,0-.22,2.6,5.43,5.43,0,0,0,.26.79,2.76,2.76,0,0,0,.71,1.22q.91.72.41.31a2.48,2.48,0,0,0,4.18-1.73v-.26l-.35,1.29a3.82,3.82,0,0,0,.42-2,11.45,11.45,0,0,0-.1-1.18c-.07-.51,0,.1,0-.21a18.78,18.78,0,0,1,0-2.36c.14-1.11-1.16-1.81-2.09-1.59Z"/></g><g id="_Group_145" data-name="&lt;Group&gt;"><path id="_Path_144" data-name="&lt;Path&gt;" class="cls-1" d="M140.12,203.41c-.21.33-.44.66-.62,1a2.86,2.86,0,0,0-.19,2.14,1.9,1.9,0,0,0,1.81,1.38,2.79,2.79,0,0,0,2.12-1c.3-.39.59-.79.89-1.19a2.33,2.33,0,0,0-.83-3.17,2.37,2.37,0,0,0-3.17.83Z"/></g><g id="_Group_146" data-name="&lt;Group&gt;"><path id="_Path_145" data-name="&lt;Path&gt;" class="cls-1" d="M136.35,209.71l-.35,1.48a1.32,1.32,0,0,0,.6,1.46,1.2,1.2,0,0,0,.31.13,1.34,1.34,0,0,0,1.46-.6l.62-1.37a1.44,1.44,0,1,0-2.64-1.11Z"/></g><g id="_Group_147" data-name="&lt;Group&gt;"><path id="_Path_146" data-name="&lt;Path&gt;" class="cls-1" d="M134.33,217.07l-.76,1.14a1.91,1.91,0,0,0-.36,1.72v-.54l-.08.39a.84.84,0,0,0,1.21.93l.35-.18-.51.14a1.87,1.87,0,0,0,1.54-.8l.88-1a1.44,1.44,0,1,0-2.26-1.75Z"/></g><g id="_Group_148" data-name="&lt;Group&gt;"><path id="_Path_147" data-name="&lt;Path&gt;" class="cls-1" d="M145.94,227.61c1.86-1.57,3.19-3.67,4.82-5.47,1.44-1.58,3.12-3.15,3.68-5.29a.84.84,0,0,0-1-1c-2.47.36-4.26,2.37-5.8,4.16a19,19,0,0,0-4.1,6.21c-.49,1.48,1.4,2.25,2.41,1.4Z"/></g><g id="_Group_149" data-name="&lt;Group&gt;"><path id="_Path_148" data-name="&lt;Path&gt;" class="cls-1" d="M159,218.28c12.9-2.23,23.41-7.18,33-16,1.61-1.47-.46-4.09-2.31-3-5.41,3.2-10,7.44-15.81,10-5.25,2.26-10.8,4.18-15.74,7a1.09,1.09,0,0,0,.83,2Z"/></g><g id="_Group_150" data-name="&lt;Group&gt;"><path id="_Path_149" data-name="&lt;Path&gt;" class="cls-1" d="M185.81,212.53l1.31-1.46a4.61,4.61,0,0,0,1.15-2.12,1.56,1.56,0,0,0-.55-1.62,1.61,1.61,0,0,0-1.72-.12c-1.36.58-2.16,2-3,3.13a1.81,1.81,0,0,0,2.83,2.18Z"/></g><g id="_Group_151" data-name="&lt;Group&gt;"><path id="_Path_150" data-name="&lt;Path&gt;" class="cls-1" d="M161.25,224.79l1.08-1.26a5.4,5.4,0,0,0,.67-.86,8.32,8.32,0,0,0,.38-.94,1.58,1.58,0,0,0-1.93-1.93,6.91,6.91,0,0,0-.95.37,6.1,6.1,0,0,0-.87.66l-1.3,1a2.06,2.06,0,0,0,2.91,2.91Z"/></g><g id="_Group_152" data-name="&lt;Group&gt;"><path id="_Path_151" data-name="&lt;Path&gt;" class="cls-1" d="M171.84,202.41a1.65,1.65,0,0,0,0-3.3,1.65,1.65,0,0,0,0,3.3Z"/></g><g id="_Group_153" data-name="&lt;Group&gt;"><path id="_Path_152" data-name="&lt;Path&gt;" class="cls-1" d="M178.16,200.53l.82-.62a1.54,1.54,0,0,0,.62-1.89,1.51,1.51,0,0,0-1.78-.87l-1,.28a1.7,1.7,0,1,0,1.31,3.11Z"/></g><g id="_Group_154" data-name="&lt;Group&gt;"><path id="_Path_153" data-name="&lt;Path&gt;" class="cls-1" d="M187,195.68l.2-1.19a1.13,1.13,0,0,0-.5-1.22,1.1,1.1,0,0,0-1.31.17l-.81.84a1.44,1.44,0,1,0,2.41,1.4Z"/></g><g id="_Group_155" data-name="&lt;Group&gt;"><path id="_Path_154" data-name="&lt;Path&gt;" class="cls-1" d="M164.45,183c.29-2.09-.39-4.13-.49-6.24s.49-4.14-.81-5.83a1.37,1.37,0,0,0-2.1-.27c-1.87,1.62-1.42,4.28-1.15,6.5s.54,4.72,2.06,6.5a1.5,1.5,0,0,0,2.5-.66Z"/></g><g id="_Group_156" data-name="&lt;Group&gt;"><path id="_Path_155" data-name="&lt;Path&gt;" class="cls-1" d="M165.21,165.49l.25-1.51a1.58,1.58,0,0,0-.9-1.84,1.55,1.55,0,0,0-1.95.64l-.69,1.32a1.8,1.8,0,1,0,3.29,1.39Z"/></g><g id="_Group_157" data-name="&lt;Group&gt;"><path id="_Path_156" data-name="&lt;Path&gt;" class="cls-1" d="M175.21,176c4.31.28,8.48-2.2,12.17-4.19a2.57,2.57,0,0,0,1.16-2.85,2.17,2.17,0,0,0-.65-1.11,2.58,2.58,0,0,0-3.06-.39c-3.5,2-7.65,3.37-10.6,6.17a1.41,1.41,0,0,0,1,2.37Z"/></g><g id="_Group_158" data-name="&lt;Group&gt;"><path id="_Path_157" data-name="&lt;Path&gt;" class="cls-1" d="M188.43,163.6a6.12,6.12,0,0,0,.69-1.29,4.45,4.45,0,0,0,.1-1.49,1.64,1.64,0,0,0-3-.82,4.61,4.61,0,0,0-.62,1.33,5.68,5.68,0,0,0,0,1.49,1.56,1.56,0,0,0,2.88.78Z"/></g><g id="_Group_159" data-name="&lt;Group&gt;"><path id="_Path_158" data-name="&lt;Path&gt;" class="cls-1" d="M189.42,161.76a1.65,1.65,0,0,0,0-3.3,1.65,1.65,0,0,0,0,3.3Z"/></g><g id="_Group_160" data-name="&lt;Group&gt;"><path id="_Path_159" data-name="&lt;Path&gt;" class="cls-1" d="M172.94,176.49l-.92-.06a1.34,1.34,0,0,0-1.24.83,1.39,1.39,0,0,0,.28,1.48l.63.74a1.75,1.75,0,1,0,1.24-3Z"/></g><g id="_Group_161" data-name="&lt;Group&gt;"><path id="_Path_160" data-name="&lt;Path&gt;" class="cls-1" d="M125.45,168.75a10.53,10.53,0,0,0,.06-5.38c-.56-2.15-3.56-5.78-2-7.84a1.24,1.24,0,0,0-.25-1.91c-2.2-1.52-3-3.79-4.36-5.88a.72.72,0,0,0-1.32.56c.55,2.85,2.4,4.68,4,7l.44-1.66c-1.91.81-2.61,2.59-2.41,4.64a10.78,10.78,0,0,0,1.19,3.46,15.9,15.9,0,0,1,1.66,6.63c.07,1.62,2.53,2.1,2.93.4Z"/></g><g id="_Group_162" data-name="&lt;Group&gt;"><path id="_Path_161" data-name="&lt;Path&gt;" class="cls-1" d="M134.09,150.85c1.47.78.63,4.23.8,5.63a7.22,7.22,0,0,0,2.12,4.62c1.66,1.53,3.57,1.71,5.69,1.66a40,40,0,0,1,6.29.53c1.36.17,1.9-1.49,1.42-2.48A8.54,8.54,0,0,0,146,157a13.94,13.94,0,0,0-3.34-.73c-1.44-.22-1.4-.08-1.85-1.32-.68-1.85-.47-3.65-1.68-5.38a5.19,5.19,0,0,0-4.1-2.28c-1.9-.16-2.58,2.7-1,3.55Z"/></g><g id="_Group_163" data-name="&lt;Group&gt;"><path id="_Path_162" data-name="&lt;Path&gt;" class="cls-1" d="M153,152.63c.54-3.06,4,.8,5.15,1.33a2.27,2.27,0,0,0,2.73-3.54c-1.73-2.08-5.12-3.84-7.84-3.11-2.47.66-4.65,3.22-3.14,5.73.69,1.16,2.84,1.09,3.11-.41Z"/></g><g id="_Group_164" data-name="&lt;Group&gt;"><path id="_Path_163" data-name="&lt;Path&gt;" class="cls-1" d="M164.5,146.66a3.43,3.43,0,0,1,2.49.51c1,.74,1,1.94,2.09,2.65a2.08,2.08,0,0,0,2.82-.74c1.24-2.31-1-4.74-3.07-5.63a5.34,5.34,0,0,0-5.83.63c-1.31,1.11.15,2.8,1.5,2.58Z"/></g><g id="_Group_165" data-name="&lt;Group&gt;"><path id="_Path_164" data-name="&lt;Path&gt;" class="cls-1" d="M149.28,144.54c-3-.13-6.58,1.08-9.3-.46-1.43-.82-2.53-1.93-4.11-2.59-2.78-1.16-6.73-2.31-9,.14a1.52,1.52,0,0,0,.3,2.35c1.71,1.17,3.14.66,5.15,1,2.43.47,3.9,1.86,6,2.93,3.36,1.73,8,.17,11.33-1a1.24,1.24,0,0,0-.33-2.43Z"/></g><g id="_Group_166" data-name="&lt;Group&gt;"><path id="_Path_165" data-name="&lt;Path&gt;" class="cls-1" d="M124.61,143.83c-5.1-2.85-9.2,1.12-11.79,5.4a89.61,89.61,0,0,1-5.27,8.05c-1.52,2-2.53,4.09-.68,6.12a1.46,1.46,0,0,0,1.75.23c1.25-.76,1.7-1.8,2.52-3a42.59,42.59,0,0,0,3.72-5.24c2.08-4.05,4.08-10,9.49-10.64a.52.52,0,0,0,.26-1Z"/></g><g id="_Group_167" data-name="&lt;Group&gt;"><path id="_Path_166" data-name="&lt;Path&gt;" class="cls-1" d="M106.69,164.11l-.44,1.45a1.32,1.32,0,0,0,.59,1.46,1.35,1.35,0,0,0,.65.18,1.32,1.32,0,0,0,1.25-.95l.53-1.43a1.34,1.34,0,0,0-2.58-.71Z"/></g><g id="_Group_168" data-name="&lt;Group&gt;"><path id="_Path_167" data-name="&lt;Path&gt;" class="cls-1" d="M115.9,164.18c-1.24.83-1.89,2.19-2.89,3.23a1.8,1.8,0,0,0,2.55,2.55,5.48,5.48,0,0,0,1.89-2.54,4,4,0,0,0-.14-2.87,1,1,0,0,0-1.41-.37Z"/></g><g id="_Group_169" data-name="&lt;Group&gt;"><path id="_Path_168" data-name="&lt;Path&gt;" class="cls-1" d="M175.62,146a8.48,8.48,0,0,1,3.44.54,6,6,0,0,1,2.39,2.4c1.32,1.88,5,.79,4-1.7-1.51-3.76-7-6.28-10.58-3.92a1.45,1.45,0,0,0,.73,2.69Z"/></g><g id="_Group_170" data-name="&lt;Group&gt;"><path id="_Path_169" data-name="&lt;Path&gt;" class="cls-1" d="M107.3,177.1c-5.47-.8-8.55,3.06-13.11,5.24-2.12,1-4.76,1.3-5.26,4.05a5.26,5.26,0,0,0,2.87,5.55,1.82,1.82,0,0,0,2.47-2.47c-.76-1.62-.83-2.35.84-3.14A22.52,22.52,0,0,0,99,183.88c2.35-1.76,5-4.15,8-4.46,1.21-.12,1.75-2.12.31-2.33Z"/></g><g id="_Group_171" data-name="&lt;Group&gt;"><path id="_Path_170" data-name="&lt;Path&gt;" class="cls-1" d="M94.7,192.91c3.87.85,4.76,5.09,8.15,6.7,3.7,1.75,7-.28,10.61,2.35,2.52,1.86,3.86,3.65,7.33,3.8a7.32,7.32,0,0,0,7-3.61c.93-1.52-.64-3.84-2.44-3.18-1.31.48-3.12,1.49-4.57,1.37-2.67-.23-3.48-2.18-5.28-3.5-2.09-1.53-3.74-1.58-6.26-1.46-4.16.21-5.62-.18-9-2.16-1.91-1.12-3.1-1.92-5.32-2a.88.88,0,0,0-.23,1.72Z"/></g><g id="_Group_172" data-name="&lt;Group&gt;"><path id="_Path_171" data-name="&lt;Path&gt;" class="cls-1" d="M114,188.24a4.61,4.61,0,0,0,3.54.78,4.36,4.36,0,0,0,3-1.89,1.69,1.69,0,0,0-.26-2,1.75,1.75,0,0,0-2-.26,4.57,4.57,0,0,1-3,.49,1.6,1.6,0,0,0-1.23,2.92Z"/></g><g id="_Group_173" data-name="&lt;Group&gt;"><path id="_Path_172" data-name="&lt;Path&gt;" class="cls-1" d="M124,178.78a10.23,10.23,0,0,1,4.25.81c1.36.53,2.37,1.55,3.92,1.21a1.61,1.61,0,0,0,1.17-1.54c0-2.08-2.26-3.09-4-3.65a10.71,10.71,0,0,0-5.77,0,1.6,1.6,0,0,0,.42,3.14Z"/></g><g id="_Group_174" data-name="&lt;Group&gt;"><path id="_Path_173" data-name="&lt;Path&gt;" class="cls-1" d="M99.47,197.24a3,3,0,0,0-2.91,3.68,5.75,5.75,0,0,0,1.61,2.82c.85.91,1.85,1.45,1.71,2.83-.24,2.35,3.46,2.74,4.05.55a4.93,4.93,0,0,0-1.48-4.75c-.53-.54-3.45-2.39-2.25-3.36.73-.59.09-1.74-.73-1.76Z"/></g><g id="_Group_175" data-name="&lt;Group&gt;"><path id="_Path_174" data-name="&lt;Path&gt;" class="cls-1" d="M101.79,211.11c1.91,2.62,3.86,4.79,5,7.88.72,2,1.43,3.57,3.66,4.18,2.77.76,6.33.1,9.15,0,2.65,0,4.45.2,6-2.19a1.71,1.71,0,0,0,0-1.77c-1.34-1.85-2.24-2-4.49-2-1.49,0-3,.11-4.46.16-.72,0-3.84.5-4.46.16-1.41-.76-2.45-4.06-3.67-5.39a9.45,9.45,0,0,0-5.09-3.11c-1.08-.26-2.33,1-1.57,2Z"/></g><g id="_Group_176" data-name="&lt;Group&gt;"><path id="_Path_175" data-name="&lt;Path&gt;" class="cls-1" d="M192.92,195.57c4.61.37,7.52-1.35,11.25,2.34a6.14,6.14,0,0,0,2.78,1.91c3.33.8,6.74-1.88,7.47,4.67.06.53.87.75,1,.14.5-2.2-.47-3.32-2-4.82-1.27-1.21-2.82-2.29-4.08-3.51-.9-.88-1.78-1.83-2.72-2.69a11.6,11.6,0,0,0-14.43-.82,1.51,1.51,0,0,0,.75,2.78Z"/></g><g id="_Group_177" data-name="&lt;Group&gt;"><path id="_Path_176" data-name="&lt;Path&gt;" class="cls-1" d="M214.9,208.32c-.94,4.5-3.94,8.58-5.73,12.79-.79,1.85-1,4.21-2.13,5.77-1.75,2.44-4.92,1.52-7.51,2.48a1.52,1.52,0,0,0-.36,2.73c4.18,2.63,11.32.94,12.47-4.35a19.85,19.85,0,0,0,0-4.23c0-2.46,1-4.46,2.07-6.64,1.41-2.93,2.23-5.12,2.12-8.42,0-.5-.8-.65-.91-.12Z"/></g><g id="_Group_178" data-name="&lt;Group&gt;"><path id="_Path_177" data-name="&lt;Path&gt;" class="cls-1" d="M181.41,232.26c.65,4.64,5.32,10.41,10.32,10.38,3.87,0,9.74-4.83,6.86-9a1.11,1.11,0,0,0-1.7-.22c-2.54,2-3.48,6.26-7.63,4.08-2.82-1.48-3.72-4.8-6.27-6.5-.88-.59-1.71.38-1.59,1.22Z"/></g><g id="_Group_179" data-name="&lt;Group&gt;"><path id="_Path_178" data-name="&lt;Path&gt;" class="cls-1" d="M108.83,295.27a48.54,48.54,0,0,0-6.28,30.36A38.23,38.23,0,0,0,107,339.5c2.61,4.63,4.51,9.64,7.92,13.81.57.69,1.64-.19,1.21-.94-2.7-4.69-5.78-9-6.82-14.39-.86-4.52-1.76-9-2.27-13.61A59.24,59.24,0,0,1,110.53,296c.38-1-1.17-1.6-1.69-.71Z"/></g><g id="_Group_180" data-name="&lt;Group&gt;"><path id="_Path_179" data-name="&lt;Path&gt;" class="cls-1" d="M117.37,355.71c3.16,6,7,10.55,13.82,12.75,4.5,1.46,13.76,3.41,16.62-1.76a1.53,1.53,0,0,0-.54-2c-3.64-2.42-9.55-.52-13.8-1.54-5.37-1.29-11.58-3.85-15.61-7.78a.31.31,0,0,0-.49.37Z"/></g><g id="_Group_181" data-name="&lt;Group&gt;"><path id="_Path_180" data-name="&lt;Path&gt;" class="cls-1" d="M112.74,298.11c-3.65,5.44-4.9,12.68-5.34,19.14-.37,5.25-1.16,13.94,3.16,17.74a1,1,0,0,0,1.54-.2c2.34-4.83.05-11.27.11-16.53.07-6.7,1.6-13.14,1.88-19.79a.73.73,0,0,0-1.34-.36Z"/></g><g id="_Group_182" data-name="&lt;Group&gt;"><path id="_Path_181" data-name="&lt;Path&gt;" class="cls-1" d="M111.33,336.83a5.61,5.61,0,0,0,1.51,2.19.42.42,0,0,0,.62-.36,5.91,5.91,0,0,0-.89-2.56c-.37-.83-1.71-.1-1.25.73Z"/></g><g id="_Group_183" data-name="&lt;Group&gt;"><path id="_Path_182" data-name="&lt;Path&gt;" class="cls-1" d="M113.72,341.37a25.89,25.89,0,0,0,8,14.94c4.56,4.37,10.59,6,15.44,9.85,1.1.87,3.11.12,2.58-1.5-1.64-5-8.13-5.77-12.23-7.89-6.23-3.2-10.92-9.09-13.7-15.44,0-.06-.1,0-.09,0Z"/></g><g id="_Group_184" data-name="&lt;Group&gt;"><path id="_Path_183" data-name="&lt;Path&gt;" class="cls-1" d="M154.64,375.07c1.9-6.86,1.08-14.92,1.09-22q0-12.56,0-25.13,0-12,0-24c0-7.37,1.33-16-1-23.1a.62.62,0,0,0-1.19,0c-2.2,6.73-1,15-1,22q0,12.56,0,25.13,0,12,0,24c0,7.44-1,15.88,1,23.09a.57.57,0,0,0,1.09,0Z"/></g><g id="_Group_185" data-name="&lt;Group&gt;"><path id="_Path_184" data-name="&lt;Path&gt;" class="cls-1" d="M156.92,273.45c1.45-3.74,3-7.81,5.91-10.69,3.09-3,8.65-4.6,12.51-2.1a.47.47,0,0,0,.56-.73c-3.58-3.41-8.14-3.34-12.18-.55-4.53,3.14-6.42,8.71-8.09,13.71-.28.83,1,1.14,1.29.36Z"/></g><g id="_Group_186" data-name="&lt;Group&gt;"><path id="_Path_185" data-name="&lt;Path&gt;" class="cls-1" d="M179.07,264.49l.05.55a.41.41,0,0,0,.82,0l.05-.55c.06-.6-1-.6-.93,0Z"/></g><g id="_Group_187" data-name="&lt;Group&gt;"><path id="_Path_186" data-name="&lt;Path&gt;" class="cls-1" d="M183,275.2c1.82,10.81.44,22.3.42,33.27a1.24,1.24,0,0,0,2.43.33c3.38-11.77,1.42-22.39-1-34.12-.25-1.25-2.09-.7-1.89.52Z"/></g><g id="_Group_188" data-name="&lt;Group&gt;"><path id="_Path_187" data-name="&lt;Path&gt;" class="cls-1" d="M182.75,312.68c-3.63,8.26-4.26,17.27-4.66,26.21-.22,4.85-.19,9.7-.42,14.55-.2,4.26-1.29,8.46.85,12.33a2.09,2.09,0,0,0,3.24.42c5.78-5,3.94-17.28,3.65-24.18-.41-9.65-1.07-19.18-.93-28.86,0-.86-1.35-1.34-1.73-.47Z"/></g><g id="_Group_189" data-name="&lt;Group&gt;"><path id="_Path_188" data-name="&lt;Path&gt;" class="cls-1" d="M178.36,375.8a5.13,5.13,0,0,0,1.58,3c.84.78,2.27,1.71,3.4,1a1.09,1.09,0,0,0,.39-1.48c-.52-.73-1.34-.79-2-1.36a2.92,2.92,0,0,1-.92-1.86,1.3,1.3,0,0,0-1.58-.9,1.32,1.32,0,0,0-.9,1.58Z"/></g><g id="_Group_190" data-name="&lt;Group&gt;"><path id="_Path_189" data-name="&lt;Path&gt;" class="cls-1" d="M187,293.71c1.37-5.69,2.31-11.63,4-17.22s4.73-9.44,9-13.52c.8-.77-.21-1.88-1.12-1.46-4.2,2-6.44,6.66-7.87,10.86-2.32,6.8-3.82,14-5.5,20.93-.23,1,1.26,1.38,1.49.41Z"/></g><g id="_Group_191" data-name="&lt;Group&gt;"><path id="_Path_190" data-name="&lt;Path&gt;" class="cls-1" d="M209.34,362.48a207.47,207.47,0,0,0,2.88-27.62c.3-8.89,1.26-19-.72-27.74-.24-1-1.61-.67-1.72.23-1.09,8.94.14,18.47-.24,27.51s-1,18.3-1.72,27.41c-.07.86,1.37,1.07,1.52.21Z"/></g><g id="_Group_192" data-name="&lt;Group&gt;"><path id="_Path_191" data-name="&lt;Path&gt;" class="cls-1" d="M211.14,294.79c2-9.32,4.32-21.71-1.15-30.29-3-4.73-12.79-10.5-15.47-2.39a2.34,2.34,0,0,0,3.4,2.62c6-3.84,9.73,7.07,10.51,11.3,1.14,6.19.12,12.75,2.11,18.76a.31.31,0,0,0,.6,0Z"/></g><g id="_Group_193" data-name="&lt;Group&gt;"><path id="_Path_192" data-name="&lt;Path&gt;" class="cls-1" d="M224.17,270.76a38.71,38.71,0,0,1,2.59-6.65c1-1.86,3-3.22,3.6-5.25a1.4,1.4,0,0,0-1.71-1.71c-2.56.56-4.19,3.7-5.19,5.91a11.43,11.43,0,0,0-1,7.7.88.88,0,0,0,1.69,0Z"/></g><g id="_Group_194" data-name="&lt;Group&gt;"><path id="_Path_193" data-name="&lt;Path&gt;" class="cls-1" d="M149.89,284.64c.2-4.4-2.2-8.53-4.23-12.31-1.87-3.48-4.14-6.91-7.55-9-4.54-2.84-12.22-2-14.24,3.58-.42,1.16,1.18,1.93,2,1.15,5.14-5,11.38-1.26,14.78,3.86,2.85,4.29,4.18,9.79,8.12,13.23a.68.68,0,0,0,1.14-.47Z"/></g><g id="_Group_195" data-name="&lt;Group&gt;"><path id="_Path_194" data-name="&lt;Path&gt;" class="cls-1" d="M123.13,268.52a8.18,8.18,0,0,0-1.62,1.82,3.16,3.16,0,0,0-.55,2.46,1,1,0,0,0,1.48.6,4.62,4.62,0,0,0,1.32-1.63,6.6,6.6,0,0,1,1.2-1.44,1.3,1.3,0,0,0,0-1.82,1.32,1.32,0,0,0-1.82,0Z"/></g><g id="_Group_196" data-name="&lt;Group&gt;"><path id="_Path_195" data-name="&lt;Path&gt;" class="cls-1" d="M119.31,277.71c-1.19,2.12-2.17,5.21-.78,7.46.3.48,1.21.47,1.32-.17.36-2.22,0-4.24,1.06-6.35.52-1.06-1-2-1.6-.94Z"/></g><g id="_Group_197" data-name="&lt;Group&gt;"><path id="_Path_196" data-name="&lt;Path&gt;" class="cls-1" d="M117.32,291.41c-.43,7.87-.67,15.73-.51,23.61.14,7.23.15,14.86,3,21.62.29.69,1.53,1,1.69,0,1.19-7.16-.16-14.46-.87-21.62-.78-7.86-1.38-15.73-1.75-23.61a.77.77,0,0,0-1.55,0Z"/></g><g id="_Group_198" data-name="&lt;Group&gt;"><path id="_Path_197" data-name="&lt;Path&gt;" class="cls-1" d="M120.29,356.23c.18,4.62-.74,11.85,1.87,15.9a1,1,0,0,0,1.88-.25c1.39-4.67-1.51-11.27-2.64-15.81a.57.57,0,0,0-1.11.15Z"/></g><g id="_Group_199" data-name="&lt;Group&gt;"><path id="_Path_198" data-name="&lt;Path&gt;" class="cls-1" d="M112,276.81c1.28-6.43-7.91-15.56-14.31-14.1a2.08,2.08,0,0,0-.49,3.77,21.23,21.23,0,0,0,3.88,1.3,13.38,13.38,0,0,1,4,2.3c2.39,2,3.35,4.62,5.16,7,.46.59,1.61.69,1.79-.23Z"/></g><g id="_Group_200" data-name="&lt;Group&gt;"><path id="_Path_199" data-name="&lt;Path&gt;" class="cls-1" d="M96.07,265.65c-2.59,2.59-5.84,6.7-5.13,10.62a.83.83,0,0,0,1.51.2,25.12,25.12,0,0,0,1.78-4.84A20.62,20.62,0,0,1,97,266.4c.42-.58-.49-1.23-1-.75Z"/></g><g id="_Group_201" data-name="&lt;Group&gt;"><path id="_Path_200" data-name="&lt;Path&gt;" class="cls-1" d="M136.73,261.09l-.22-.29.27.65a3.27,3.27,0,0,0-2.13-2.79c-.51-.25-1-.48-1.55-.71a4.79,4.79,0,0,0-1.88-.27,1.24,1.24,0,0,0-1.07,1.86,6.31,6.31,0,0,0,1,1.29,11.79,11.79,0,0,0,1.6,1.06,5.42,5.42,0,0,0,1.66.64,3.67,3.67,0,0,0,.78.14c.33,0,.69-.3,1-.27.75.07.91-.85.55-1.32Z"/></g><g id="_Group_202" data-name="&lt;Group&gt;"><path id="_Path_201" data-name="&lt;Path&gt;" class="cls-1" d="M108.81,256.67l-2.26-2.06c-.36-.32-.7-.66-1.08-1a3.64,3.64,0,0,0-1.46-.58,1,1,0,0,0-1.11,1.44,3.67,3.67,0,0,0,.74,1.2c.39.36.87.67,1.3,1l2.43,1.84c1.07.81,2.42-1,1.44-1.86Z"/></g><g id="_Group_203" data-name="&lt;Group&gt;"><path id="_Path_202" data-name="&lt;Path&gt;" class="cls-1" d="M118.54,301.7c-.25,6.45,5.38,13.81,8.93,18.81,2,2.77,4.13,5.38,6.29,8s4,5.8,7.49,6.91a1,1,0,0,0,1.24-.94c-.65-5.7-6.92-10.81-10.38-15.13-2.66-3.33-5.11-6.69-7.42-10.26-1.7-2.62-3.1-5.66-5.54-7.63a.37.37,0,0,0-.62.25Z"/></g><g id="_Group_204" data-name="&lt;Group&gt;"><path id="_Path_203" data-name="&lt;Path&gt;" class="cls-1" d="M140.86,338.1c1.34,2.43,3.17,5.86,6.3,6A1.14,1.14,0,0,0,148.3,343a6.76,6.76,0,0,0-1.53-3.71,27.34,27.34,0,0,1-2.17-3.38c-1.34-2.44-5.08-.26-3.74,2.18Z"/></g><g id="_Group_205" data-name="&lt;Group&gt;"><path id="_Path_204" data-name="&lt;Path&gt;" class="cls-1" d="M151.82,353.83a10.6,10.6,0,0,1-6.13,7.81c-2.75,1.17-5.64,1-8.34,2.22-1.11.49-1,2-.35,2.75,3.12,3.68,9.32,2,12.51-.82,3.51-3.06,4.61-7.46,3.9-12a.83.83,0,0,0-1.59,0Z"/></g><g id="_Group_206" data-name="&lt;Group&gt;"><path id="_Path_205" data-name="&lt;Path&gt;" class="cls-1" d="M136.72,332.65c-3.69,4.4-6.13,9.53-9.54,14.11a2.31,2.31,0,0,0,2,3.45c3.13-.31,4-2.79,5-5.44a72,72,0,0,0,3.74-11.42c.14-.64-.71-1.3-1.21-.7Z"/></g><g id="_Group_207" data-name="&lt;Group&gt;"><path id="_Path_206" data-name="&lt;Path&gt;" class="cls-1" d="M125.26,344.13a5.85,5.85,0,0,0-2.61,3.86,2.13,2.13,0,0,0,.92,2.27l.07,0-.85-1.1.06.17a1.79,1.79,0,0,0,1.47,1.26,1.74,1.74,0,0,0,1.76-.84l.07-.16-.66.66a1.94,1.94,0,0,0,1.06-1.51c.11-.82-.05.14,0-.21a4.72,4.72,0,0,1,.14-.46c-.08.2,0,.06,0,0s.13-.22.2-.33c-.2.29.51-.43.24-.24a2,2,0,0,0,.7-2.68,2,2,0,0,0-2.68-.7Z"/></g><g id="_Group_208" data-name="&lt;Group&gt;"><path id="_Path_207" data-name="&lt;Path&gt;" class="cls-1" d="M139,349.25a12.69,12.69,0,0,0-2.14,3.64c-.49,1.28-.52,3,.75,3.87a1.24,1.24,0,0,0,1.25,0c1-.54,1.26-1.85,1.39-2.87a9,9,0,0,1,.94-3c.69-1.32-1.13-3-2.18-1.69Z"/></g><g id="_Group_209" data-name="&lt;Group&gt;"><path id="_Path_208" data-name="&lt;Path&gt;" class="cls-1" d="M140,360.53l.1.34a1.56,1.56,0,0,0,3,0l.1-.34a1.65,1.65,0,1,0-3.18,0Z"/></g><g id="_Group_210" data-name="&lt;Group&gt;"><path id="_Path_209" data-name="&lt;Path&gt;" class="cls-1" d="M164.69,345.1c3.53,2.34,7.83,5.31,12.16,5.69.83.07,1-1,.39-1.44a35.6,35.6,0,0,0-5.85-2.8,61.54,61.54,0,0,1-5.77-3c-1-.61-1.92.95-.94,1.6Z"/></g><g id="_Group_211" data-name="&lt;Group&gt;"><path id="_Path_210" data-name="&lt;Path&gt;" class="cls-1" d="M185,352.84c8.06,5.21,17.31,9.12,26.26,12.56l-1.67-2.94c-1.21,4.08-4.52,5.76-6.39,9.18a1.25,1.25,0,0,0,1.07,1.86c4.73-.33,7.69-5.38,9.69-9.19a2.42,2.42,0,0,0-.86-3.27c-8.74-4-18-7.8-27.39-9.88a.93.93,0,0,0-.71,1.69Z"/></g><g id="_Group_212" data-name="&lt;Group&gt;"><path id="_Path_211" data-name="&lt;Path&gt;" class="cls-1" d="M158.37,342.06c-5.06,9.8-1.4,21.56,5.11,29.88,3.27,4.17,7.73,6.24,12.7,7.74s12.63,3.62,17.14.43a1.15,1.15,0,0,0,0-2c-3.52-2.13-7.93-1.51-11.9-2.34-4.51-.94-9.67-2.55-13.17-5.7-7.1-6.4-11-18.35-8.66-27.54.18-.71-.86-1.21-1.22-.52Z"/></g><g id="_Group_213" data-name="&lt;Group&gt;"><path id="_Path_212" data-name="&lt;Path&gt;" class="cls-1" d="M163.49,346.29c-2.28,9.13.23,18.84,7.46,25.15,6.28,5.48,18.59,12.22,27.15,9.16a1.72,1.72,0,0,0,.41-3.11c-6.4-4.44-16-2.53-22.71-6.83-8.1-5.19-12.12-14.81-11.19-24.22.06-.64-1-.76-1.11-.15Z"/></g><g id="_Group_214" data-name="&lt;Group&gt;"><path id="_Path_213" data-name="&lt;Path&gt;" class="cls-1" d="M172.54,354.81a11,11,0,0,1,.5,4.29c0,1.46-.3,2.41.49,3.7a1.09,1.09,0,0,0,1.48.39c3.14-2.05,1.09-6.7-.22-9.33-.62-1.24-2.76-.37-2.26,1Z"/></g><g id="_Group_215" data-name="&lt;Group&gt;"><path id="_Path_214" data-name="&lt;Path&gt;" class="cls-1" d="M178.22,369.62a6.49,6.49,0,0,0,.21,4.25,3.72,3.72,0,0,0,2.94,2.57.78.78,0,0,0,.87-1.13c-.22-.38-.32-.79-.5-1.19s-.48-.75-.63-1.18a3.7,3.7,0,0,1,0-2.52c.6-1.82-2.35-2.65-2.88-.79Z"/></g><g id="_Group_216" data-name="&lt;Group&gt;"><path id="_Path_215" data-name="&lt;Path&gt;" class="cls-1" d="M190,365.15a7.56,7.56,0,0,1-1.24-.77,2.8,2.8,0,0,0-1-.69,2.89,2.89,0,0,0-1.29,0,1.61,1.61,0,0,0-.71,2.67,2.6,2.6,0,0,0,1.08.65,2.74,2.74,0,0,0,1.06,0,9.64,9.64,0,0,1,1.61.07,1,1,0,0,0,.52-1.92Z"/></g><g id="_Group_217" data-name="&lt;Group&gt;"><path id="_Path_216" data-name="&lt;Path&gt;" class="cls-1" d="M185.57,354.43a80.88,80.88,0,0,0-1.31,8.4c-.21,2.38-1.09,4.94.64,6.84a1.15,1.15,0,0,0,1.6,0c1.75-1.67,1.09-4,1-6.29a84.67,84.67,0,0,0-.76-8.78c-.08-.62-1.07-.92-1.21-.16Z"/></g><g id="_Group_218" data-name="&lt;Group&gt;"><path id="_Path_217" data-name="&lt;Path&gt;" class="cls-1" d="M190,360a15.79,15.79,0,0,0-2.72,6.27c-.33,1.93-.74,4.21.77,5.71a1.3,1.3,0,0,0,2-.26c.94-1.52.43-3.28.58-5a20.1,20.1,0,0,1,1.41-5.86c.52-1.26-1.39-1.86-2.07-.87Z"/></g><g id="_Group_219" data-name="&lt;Group&gt;"><path id="_Path_218" data-name="&lt;Path&gt;" class="cls-1" d="M195,365.3c-1.2,3-3.3,5.91-3.41,9.2a.83.83,0,0,0,1.24.71c3.12-2.09,3.72-6.21,4.09-9.65.13-1.19-1.55-1.19-1.92-.26Z"/></g><g id="_Group_220" data-name="&lt;Group&gt;"><path id="_Path_219" data-name="&lt;Path&gt;" class="cls-1" d="M157.84,338.89c3.93-6.48,7.16-13.16,12-19.05a73.51,73.51,0,0,1,7-7.41c2.37-2.17,5.52-3.76,6.9-6.71a1.15,1.15,0,0,0-1.28-1.66c-6,.9-12.26,9.76-15.68,14.27-4.51,5.93-8.68,12.69-10.22,20.06a.67.67,0,0,0,1.22.52Z"/></g><g id="_Group_221" data-name="&lt;Group&gt;"><path id="_Path_220" data-name="&lt;Path&gt;" class="cls-1" d="M186.47,304.1c11.35-5.58,24.13-7.69,36.56-5.07,2.33.49,3.32-3.06,1-3.58-13.45-2.95-27.07-.76-38.33,7.31a.77.77,0,0,0,.78,1.33Z"/></g><g id="_Group_222" data-name="&lt;Group&gt;"><path id="_Path_221" data-name="&lt;Path&gt;" class="cls-1" d="M166.76,347.24c1.64-1,3.23-2,4.92-2.91s3.56-1.36,5.14-2.45a1.14,1.14,0,0,0-.57-2.11c-3.85,0-8.3,3-10.9,5.65a1.17,1.17,0,0,0,1.41,1.83Z"/></g><g id="_Group_223" data-name="&lt;Group&gt;"><path id="_Path_222" data-name="&lt;Path&gt;" class="cls-1" d="M185.1,339.69c5.67,0,11.49-3.16,16.52-5.56,4.66-2.23,12-5.15,14.2-10.15.34-.77,0-2-1.07-1.86-5.24.46-10.09,5.14-14.55,7.73-5.06,2.93-11.14,4.77-15.68,8.44-.58.47-.08,1.41.58,1.41Z"/></g><g id="_Group_224" data-name="&lt;Group&gt;"><path id="_Path_223" data-name="&lt;Path&gt;" class="cls-1" d="M222.42,314.31c-2,1.4-4.91,2.91-5.65,5.37a1.3,1.3,0,0,0,1.24,1.63c2.41.17,4.76-1.93,6.64-3.18a2.27,2.27,0,0,0,.79-3,2.23,2.23,0,0,0-3-.79Z"/></g><g id="_Group_225" data-name="&lt;Group&gt;"><path id="_Path_224" data-name="&lt;Path&gt;" class="cls-1" d="M174.81,348.44c5.42,1.23,12.22-2.26,17.18-4.3a48.41,48.41,0,0,0,15-9.73c.46-.43-.12-1-.62-.81-5.84,2.5-11.58,5.22-17.44,7.66-4.63,1.93-10.65,2.56-14.54,5.71a.88.88,0,0,0,.39,1.46Z"/></g><g id="_Group_226" data-name="&lt;Group&gt;"><path id="_Path_225" data-name="&lt;Path&gt;" class="cls-1" d="M188.25,352.2c3.21,1.79,6.84,1.92,10.42,1.28,3.31-.59,6.85-1.36,8.21-4.71a1.34,1.34,0,0,0-.94-1.65c-2.93-.61-5.22,1-8,1.56-3.08.63-6.24.61-9.34,1.07-1.17.17-1.25,1.93-.32,2.45Z"/></g><g id="_Group_227" data-name="&lt;Group&gt;"><path id="_Path_226" data-name="&lt;Path&gt;" class="cls-1" d="M212,341.72c-1.88.43-3.08,2-4.32,3.36a11.71,11.71,0,0,0-2.73,4.88c-.16.73.51,1.65,1.33,1.33a11.87,11.87,0,0,0,4.52-3.48c1.22-1.51,2.55-2.91,2.69-4.94a1.2,1.2,0,0,0-1.5-1.14Z"/></g><g id="_Group_228" data-name="&lt;Group&gt;"><path id="_Path_227" data-name="&lt;Path&gt;" class="cls-1" d="M199.31,351.35a.05.05,0,0,0,0-.11.05.05,0,0,0,0,.11Z"/></g><g id="_Group_229" data-name="&lt;Group&gt;"><path id="_Path_228" data-name="&lt;Path&gt;" class="cls-1" d="M200.87,213l-1.53,3.23c-.45,1-1.13,1.86-.84,2.94a.94.94,0,0,0,1.36.55c1-.55,1.12-1.67,1.48-2.66l1.22-3.36c.36-1-1.25-1.67-1.69-.71Z"/></g><g id="_Group_230" data-name="&lt;Group&gt;"><path id="_Path_229" data-name="&lt;Path&gt;" class="cls-1" d="M201,171.49c12.4-5.82,15.54,6.14,19.7,14.64,1.93,3.94,6.12,7.58,6.81,11.82.92,5.59-5.74,10.35-10.48,12a1.66,1.66,0,0,0,0,3.18c5.53,2.25,12.32-5.32,14.46-9.8,3.11-6.54-1.26-10.92-5.09-15.75-4.31-5.44-5.87-13.74-11.43-18a12.08,12.08,0,0,0-15.16.35c-.9.77.25,2,1.19,1.54Z"/></g><g id="_Group_231" data-name="&lt;Group&gt;"><path id="_Path_230" data-name="&lt;Path&gt;" class="cls-1" d="M210.21,131.94c-1.68,9.28-1.06,19.9-.35,29.27.19,2.55,4,2.62,4,0,0-9.43-.18-20.11-2.57-29.27-.13-.51-1-.57-1.09,0Z"/></g><g id="_Group_232" data-name="&lt;Group&gt;"><path id="_Path_231" data-name="&lt;Path&gt;" class="cls-1" d="M212.61,162.52c2.17,1.59,4.76,2.42,7.13,3.69,2.1,1.12,4.34,2.92,6.72,3.28.92.14,2-.79,1.34-1.74-1.52-2.27-4.45-3.42-6.89-4.48S215.82,161,213,161a.83.83,0,0,0-.42,1.54Z"/></g><g id="_Group_233" data-name="&lt;Group&gt;"><path id="_Path_232" data-name="&lt;Path&gt;" class="cls-1" d="M197.06,167.64c4.51,2.05,7.32-1.66,11.7-2,3.08-.22,8.41,2.7,9-2.49a1.2,1.2,0,0,0-1.18-1.18c-1.69,0-3.09.33-4.8.07a10.74,10.74,0,0,0-4.28-.12c-3.41.76-6.13,3.34-9.77,3.11a1.4,1.4,0,0,0-.7,2.59Z"/></g><g id="_Group_234" data-name="&lt;Group&gt;"><path id="_Path_233" data-name="&lt;Path&gt;" class="cls-1" d="M207,179.36c1,1.72,2.66,2.81,3.83,4.44a20.21,20.21,0,0,1,2.72,5.55c1,3,5.74,1.73,4.77-1.31a15.74,15.74,0,0,0-4.17-6.8c-1.76-1.68-3.83-3.39-6.35-3.28a.94.94,0,0,0-.8,1.39Z"/></g><g id="_Group_235" data-name="&lt;Group&gt;"><path id="_Path_234" data-name="&lt;Path&gt;" class="cls-1" d="M212.83,195.78c.6,2,3.1,3.45,5,2.08a1.86,1.86,0,0,0-.44-3.39l-.36-.05q.26,0,0,0a1.94,1.94,0,0,0-.34-.12l-.56-.08q.52.09.18,0c-.36-.13.37.26,0,0s.23.24.06.06-.07,0,.11.17a1.37,1.37,0,0,1-.12-.22,2,2,0,0,0-3.58,1.51Z"/></g><g id="_Group_236" data-name="&lt;Group&gt;"><path id="_Path_235" data-name="&lt;Path&gt;" class="cls-1" d="M230.8,189.28a5.59,5.59,0,0,1,4.49-.73c2.16.35,4.67-1.78,3.08-4a2,2,0,0,0-3.52.46,1.27,1.27,0,0,1,.74-.86l-.37-.06a4.47,4.47,0,0,0-1.31-.11,7.21,7.21,0,0,0-2.36.47,5.91,5.91,0,0,0-3.08,3.45c-.6,1.44,1.39,2.1,2.32,1.35Z"/></g><g id="_Group_237" data-name="&lt;Group&gt;"><path id="_Path_236" data-name="&lt;Path&gt;" class="cls-1" d="M229.89,175.88a2.48,2.48,0,0,1,1.57.13c.73.31.81.71,1.12,1.4a2.06,2.06,0,0,0,2.6.85,2.1,2.1,0,0,0,1.21-2.46c-.71-3.26-5.13-5-7.81-3-1.46,1.07-.67,3.68,1.31,3.11Z"/></g><g id="_Group_238" data-name="&lt;Group&gt;"><path id="_Path_237" data-name="&lt;Path&gt;" class="cls-1" d="M234.89,180.52a3.34,3.34,0,0,0,2.06,1.6,3.12,3.12,0,0,0,3.22-1.24,2.76,2.76,0,0,0,.07-3.6,2.49,2.49,0,0,0-2.18-.67,1,1,0,0,0-.76.76c0,.23,0,.09,0,0,.27-.39.15-.19,0-.09a2.17,2.17,0,0,0-.62,1,1.51,1.51,0,0,1-.05.28q.19-.39.08-.18t.12-.15a.68.68,0,0,1,.34-.21q.26-.09,0,0a1.55,1.55,0,0,0-.39.15q-.51.22,0,0-.26.06,0,0t0,0a.64.64,0,0,1,.4.09,1.71,1.71,0,0,0-2.33,2.33Z"/></g><g id="_Group_239" data-name="&lt;Group&gt;"><path id="_Path_238" data-name="&lt;Path&gt;" class="cls-1" d="M197.08,154.91a3.3,3.3,0,0,1,.82-1.38,4.49,4.49,0,0,1,.62-.49,4.25,4.25,0,0,0,.68-.73.62.62,0,0,0-.27-1,2.17,2.17,0,0,0-1.4.07,5.19,5.19,0,0,0-1.08.73,5.59,5.59,0,0,0-1.55,2.23,1.13,1.13,0,0,0,2.19.6Z"/></g><g id="_Group_240" data-name="&lt;Group&gt;"><path id="_Path_239" data-name="&lt;Path&gt;" class="cls-1" d="M202.45,150.62a9,9,0,0,0,2.75,2.62,5,5,0,0,0,3.68.73c1-.15.77-1.52,0-1.79-1.86-.65-3.67-1.13-5.06-2.62-.67-.71-2,.23-1.38,1.06Z"/></g><g id="_Group_241" data-name="&lt;Group&gt;"><path id="_Path_240" data-name="&lt;Path&gt;" class="cls-1" d="M216.45,216.17a6.14,6.14,0,0,0,3.76,1.63,6,6,0,0,0,4.51-.76c1.27-.92,1.69-3.13,0-4a8,8,0,0,0-4-.69,9.19,9.19,0,0,0-3.85.61,2,2,0,0,0-.41,3.16Z"/></g><g id="_Group_242" data-name="&lt;Group&gt;"><path id="_Path_241" data-name="&lt;Path&gt;" class="cls-1" d="M232.28,220a31.31,31.31,0,0,0,3.88-3.35,2,2,0,0,0-2.46-3.19,31.32,31.32,0,0,0-4.22,2.9,2.32,2.32,0,1,0,2.81,3.64Z"/></g><g id="_Group_243" data-name="&lt;Group&gt;"><path id="_Path_242" data-name="&lt;Path&gt;" class="cls-1" d="M240.55,187q-1.33,9.94-2.71,19.88c-.6,4.28-2.44,9.58.25,13.28a1.42,1.42,0,0,0,2.18.28c3.56-3.3,2.6-9.43,2.68-14,.11-6.5.05-13-.14-19.48a1.13,1.13,0,0,0-2.27,0Z"/></g><g id="_Group_244" data-name="&lt;Group&gt;"><path id="_Path_243" data-name="&lt;Path&gt;" class="cls-1" d="M233.87,235.37c.06,1.89-.2,4,1,5.6a.93.93,0,0,0,1.31,0c1.24-1.57,1-3.71,1-5.6.07-2.19-3.47-2.19-3.4,0Z"/></g><g id="_Group_245" data-name="&lt;Group&gt;"><path id="_Path_244" data-name="&lt;Path&gt;" class="cls-1" d="M234.47,245.32a.05.05,0,0,0,0-.11.05.05,0,0,0,0,.11Z"/></g><g id="_Group_246" data-name="&lt;Group&gt;"><path id="_Path_245" data-name="&lt;Path&gt;" class="cls-1" d="M81.14,172.71c-.62,4.22.48,8.92.54,13.25.08,6.56.53,13.09.93,19.64a151,151,0,0,0,6.73,37.11c.2.61,1.27.76,1.39,0,2.15-13.48,1.72-27.77.4-41.33-.75-7.67-.07-25.68-8.91-29.28a.88.88,0,0,0-1.08.61Z"/></g><g id="_Group_247" data-name="&lt;Group&gt;"><path id="_Path_246" data-name="&lt;Path&gt;" class="cls-1" d="M89.16,244.71a101.44,101.44,0,0,0,.1,11.14c.18,2.54-.15,5.16,2.11,6.66a.93.93,0,0,0,1.12-.15c1.59-2,.73-3.88.38-6.34-.54-3.76-.93-7.52-1.14-11.31a1.29,1.29,0,0,0-2.58,0Z"/></g><g id="_Group_248" data-name="&lt;Group&gt;"><path id="_Path_247" data-name="&lt;Path&gt;" class="cls-1" d="M92.07,258.46l.4,5.06a1.89,1.89,0,0,0,1.36,1.78,2.07,2.07,0,0,0,1.42-.19,1.89,1.89,0,0,0,.85-2.09l-.8-5c-.29-1.82-3.38-1.41-3.24.44Z"/></g><g id="_Group_249" data-name="&lt;Group&gt;"><path id="_Path_248" data-name="&lt;Path&gt;" class="cls-1" d="M100.82,250.76a24.92,24.92,0,0,0,1.17,7.48c.69,2.22,1.23,4.38,3.42,5.51a1.09,1.09,0,0,0,1.59-.65c.51-2.26-.45-3.82-1.23-5.91-.85-2.26-1.65-4.52-2.52-6.77-.48-1.23-2.44-1.16-2.43.33Z"/></g><g id="_Group_250" data-name="&lt;Group&gt;"><path id="_Path_249" data-name="&lt;Path&gt;" class="cls-1" d="M125.94,289.9a9.7,9.7,0,0,1,6.81-11.46c2.6-.75,1.46-4.88-1.12-4.06a12.19,12.19,0,0,0-7.48,16.27c.44,1,2.05.29,1.79-.75Z"/></g><g id="_Group_251" data-name="&lt;Group&gt;"><path id="_Path_250" data-name="&lt;Path&gt;" class="cls-1" d="M99.08,155.4a2.83,2.83,0,0,1-.39-.76,3.8,3.8,0,0,1-.36-.74.67.67,0,0,0-1.12-.3,2.45,2.45,0,0,0-.74,1.64,3.39,3.39,0,0,0,.85,1.91,1.24,1.24,0,0,0,1.75,0,1.26,1.26,0,0,0,0-1.75Z"/></g><g id="_Group_252" data-name="&lt;Group&gt;"><path id="_Path_251" data-name="&lt;Path&gt;" class="cls-1" d="M243.33,287c-1,8.41-1.18,16.88-1.79,25.32s-2.1,16.73-2.48,25.13c-.07,1.66,2.37,1.9,2.83.38,2.51-8.19,3.25-17,4-25.51a111.26,111.26,0,0,0-.31-25.62c-.2-1.37-2.09-.85-2.23.3Z"/></g><g id="_Group_253" data-name="&lt;Group&gt;"><path id="_Path_252" data-name="&lt;Path&gt;" class="cls-1" d="M239.35,341.57c-1.07,5.52-2.83,10.89-3.8,16.49-.91,5.24-1.71,10.51-2.46,15.77-.66,4.62-1,9.56-2.75,13.94-2.36,5.85-6.5,6.36-11.06,9.55a2.31,2.31,0,0,0,0,3.91c3.78,2.84,8.73.67,12-2.11,4.36-3.74,6.23-9.34,7.09-14.85,1-6.32,1.25-12.78,1.69-19.16.54-7.84.16-15.59.43-23.39,0-.63-1-.79-1.11-.15Z"/></g><g id="_Group_254" data-name="&lt;Group&gt;"><path id="_Path_253" data-name="&lt;Path&gt;" class="cls-1" d="M219.91,234.38a7.84,7.84,0,0,1-3.55,6.59c-1.73,1.15-3.68,1.8-5.06,3.43-1.92,2.26-2.63,7,1,7.87a1.84,1.84,0,0,0,2.28-1.74,15.58,15.58,0,0,1,0-2.29c.32-1.14,1.48-1.82,2.38-2.45a17.74,17.74,0,0,0,4-3.29,10.5,10.5,0,0,0,2-8.53c-.28-1.77-3-1.27-3,.41Z"/></g><g id="_Group_255" data-name="&lt;Group&gt;"><path id="_Path_254" data-name="&lt;Path&gt;" class="cls-1" d="M212.48,258.9c-.15.28-.32.55-.44.84a1.89,1.89,0,0,0,0,1.82,1.8,1.8,0,0,0,3.11,0,1.89,1.89,0,0,0,0-1.82c-.13-.29-.29-.56-.44-.84a1.3,1.3,0,0,0-2.22,0Z"/></g><g id="_Group_256" data-name="&lt;Group&gt;"><path id="_Path_255" data-name="&lt;Path&gt;" class="cls-1" d="M215.83,269.48l-.9,1a1.4,1.4,0,0,0,2,2l1-.9c1.45-1.27-.84-3.57-2.11-2.11Z"/></g><g id="_Group_257" data-name="&lt;Group&gt;"><path id="_Path_256" data-name="&lt;Path&gt;" class="cls-1" d="M183.21,257.33a71.89,71.89,0,0,0-.57-8.9c-.22-2.43.14-5.23-1.4-7.23-.55-.72-1.93-1.07-2.4,0-1,2.39-.22,4.59.17,7.12a76.55,76.55,0,0,0,1.67,9.35,1.29,1.29,0,0,0,2.53-.34Z"/></g><g id="_Group_258" data-name="&lt;Group&gt;"><path id="_Path_257" data-name="&lt;Path&gt;" class="cls-1" d="M161.62,240.61a13.28,13.28,0,0,0,6.31,6.57c2.33,1.15,6.1,2.21,8.26.24a1.51,1.51,0,0,0-.3-2.35c-1.81-1-4.15-.6-6.13-1.38a9.93,9.93,0,0,1-5.21-4.81c-1-2-3.79-.24-2.94,1.72Z"/></g><g id="_Group_259" data-name="&lt;Group&gt;"><path id="_Path_258" data-name="&lt;Path&gt;" class="cls-1" d="M118,227.09c-3.55,2.38-7.31,5-11.83,3.68s-6-5.52-8.24-9.23a1.36,1.36,0,0,0-2.45.32c-3.71,12.89,19.94,19.09,24.1,6.45a1.09,1.09,0,0,0-1.59-1.22Z"/></g><g id="_Group_260" data-name="&lt;Group&gt;"><path id="_Path_259" data-name="&lt;Path&gt;" class="cls-1" d="M96.51,172.75A4.91,4.91,0,0,1,93.76,169c-.28-1.78.9-2.73,1-4.37a1.35,1.35,0,0,0-1.34-1.34c-3,0-3.66,4.44-3.06,6.64.71,2.6,2.9,4.7,5.68,4.48.77-.06,1.31-1.24.44-1.63Z"/></g><g id="_Group_261" data-name="&lt;Group&gt;"><path id="_Path_260" data-name="&lt;Path&gt;" class="cls-1" d="M154,282.86c1.7-4.25,2.4-8.59,4.9-12.56,2.28-3.63,5.8-5.94,8.27-9.33.66-.9-.43-2.08-1.4-1.82-8.17,2.26-15.14,15.66-13.47,23.7.19.93,1.4.72,1.69,0Z"/></g><g id="_Group_262" data-name="&lt;Group&gt;"><path id="_Path_261" data-name="&lt;Path&gt;" class="cls-1" d="M166.64,269.44a11,11,0,0,1,8.5,1.68c2.32,1.54,3.48,4,5.44,5.84a1.2,1.2,0,0,0,2-.84c.5-3.73-2.88-6.85-5.88-8.49a14.28,14.28,0,0,0-10.91-1.17,1.55,1.55,0,0,0,.82,3Z"/></g><g id="_Group_263" data-name="&lt;Group&gt;"><path id="_Path_262" data-name="&lt;Path&gt;" class="cls-1" d="M181.73,287.57a1.65,1.65,0,0,0,0-3.3,1.65,1.65,0,0,0,0,3.3Z"/></g><g id="_Group_264" data-name="&lt;Group&gt;"><path id="_Path_263" data-name="&lt;Path&gt;" class="cls-1" d="M196.13,283.38a6.82,6.82,0,0,1,2.22-6.48c1.81-1.66,3.79-1.37,5.84-2.25.74-.31.53-1.32,0-1.69-2.45-1.72-6.31.69-8,2.54a9.18,9.18,0,0,0-2.26,8.48c.36,1.42,2.5.82,2.19-.6Z"/></g><g id="_Group_265" data-name="&lt;Group&gt;"><path id="_Path_264" data-name="&lt;Path&gt;" class="cls-1" d="M207,282.07a1.65,1.65,0,0,0,0-3.3,1.65,1.65,0,0,0,0,3.3Z"/></g><g id="_Group_266" data-name="&lt;Group&gt;"><path id="_Path_265" data-name="&lt;Path&gt;" class="cls-1" d="M136.11,287a10.7,10.7,0,0,1-1.22,3.69,16.2,16.2,0,0,0-1,3.67,2.85,2.85,0,0,0,.73,2.76l.37.31a2.4,2.4,0,0,0,3.28,0l.37-.31a2.85,2.85,0,0,0,.73-2.76,16.4,16.4,0,0,0-1-3.67,10.75,10.75,0,0,1-1.22-3.69.57.57,0,0,0-1.13,0Z"/></g><g id="_Group_267" data-name="&lt;Group&gt;"><path id="_Path_266" data-name="&lt;Path&gt;" class="cls-1" d="M163.25,297.76c-.22,1-.81,2-1.05,3s-.36,2.11-.53,3.15a2.58,2.58,0,1,0,5,0c-.17-1-.29-2.12-.53-3.15s-.84-2-1.05-3a.93.93,0,0,0-1.79,0Z"/></g><g id="_Group_268" data-name="&lt;Group&gt;"><path id="_Path_267" data-name="&lt;Path&gt;" class="cls-1" d="M140.73,319.58a3.68,3.68,0,0,0-.09,1.7,1.58,1.58,0,0,0,3.06,0,3.55,3.55,0,0,0-.09-1.7,1.5,1.5,0,0,0-2.88,0Z"/></g><g id="_Group_269" data-name="&lt;Group&gt;"><path id="_Path_268" data-name="&lt;Path&gt;" class="cls-1" d="M198.82,289.86l-.7,2a2.74,2.74,0,0,0-.08,2.27,1.2,1.2,0,0,0,1.62.42,2.9,2.9,0,0,0,1.21-1.94l.64-2a1.39,1.39,0,1,0-2.68-.74Z"/></g><g id="_Group_270" data-name="&lt;Group&gt;"><path id="_Path_269" data-name="&lt;Path&gt;" class="cls-1" d="M96.18,272.47c-.13.7-.24,1.4-.44,2.08a8,8,0,0,0-.47,2.24,1.86,1.86,0,0,0,3.71,0,7.92,7.92,0,0,0-.47-2.24c-.2-.68-.31-1.38-.44-2.08a1,1,0,0,0-1.89,0Z"/></g><g id="_Group_271" data-name="&lt;Group&gt;"><path id="_Path_270" data-name="&lt;Path&gt;" class="cls-1" d="M152.17,249.39a14.26,14.26,0,0,0-.75,3.06,21.86,21.86,0,0,1-.4,3.21,2.22,2.22,0,1,0,4.27,0,21.81,21.81,0,0,1-.4-3.21,14.14,14.14,0,0,0-.75-3.06,1,1,0,0,0-2,0Z"/></g><g id="_Group_272" data-name="&lt;Group&gt;"><path id="_Path_271" data-name="&lt;Path&gt;" class="cls-1" d="M215.84,229.41a8.4,8.4,0,0,0,1.46,2.32,1.16,1.16,0,0,0,1.37.18,1.19,1.19,0,0,0,.52-1.28,8.75,8.75,0,0,0-1-2.57,1.34,1.34,0,1,0-2.31,1.35Z"/></g><g id="_Group_273" data-name="&lt;Group&gt;"><path id="_Path_272" data-name="&lt;Path&gt;" class="cls-1" d="M222.84,253.43a5.39,5.39,0,0,0,.83,1.53,1.29,1.29,0,0,0,1.82,0,5.39,5.39,0,0,0,.83-1.53,1.8,1.8,0,1,0-3.48,0Z"/></g><g id="_Group_274" data-name="&lt;Group&gt;"><path id="_Path_273" data-name="&lt;Path&gt;" class="cls-1" d="M170.6,325.14c-.3.76-.56,1.54-.89,2.28a4.39,4.39,0,0,0-.58,2.41,1.46,1.46,0,0,0,2.69.73,2.9,2.9,0,0,0,.6-1.4c0-.39,0-.79.08-1.18.09-.85.22-1.69.32-2.53a1.12,1.12,0,0,0-1-1.11,1.15,1.15,0,0,0-1.24.81Z"/></g><g id="_Group_275" data-name="&lt;Group&gt;"><path id="_Path_274" data-name="&lt;Path&gt;" class="cls-1" d="M184.78,316.69c-.13,1.63-.73,3.91.5,5.23a1.2,1.2,0,0,0,1.68,0c1.23-1.32.63-3.6.5-5.23a1.34,1.34,0,0,0-2.68,0Z"/></g><g id="_Group_276" data-name="&lt;Group&gt;"><path id="_Path_275" data-name="&lt;Path&gt;" class="cls-1" d="M188.08,322.55l.2,1a1.19,1.19,0,0,0,2.28,0l.2-1a1.39,1.39,0,1,0-2.68,0Z"/></g><g id="_Group_277" data-name="&lt;Group&gt;"><path id="_Path_276" data-name="&lt;Path&gt;" class="cls-1" d="M162.82,349c3.31-6,6.57-12,10.21-17.8s7.72-12,14.62-14.15c2.27-.71,1.32-4.26-1-3.58-6.47,1.91-10.51,6.69-14,12.24a115.53,115.53,0,0,0-11.08,22.76c-.25.72.86,1.17,1.22.52Z"/></g><g id="_Group_278" data-name="&lt;Group&gt;"><path id="_Path_277" data-name="&lt;Path&gt;" class="cls-1" d="M185.05,333.5a12.21,12.21,0,0,1,2.06-3.65c.95-1.08,2.36-1.65,2.54-3.2a1.24,1.24,0,0,0-.64-1.11c-1.88-.87-3.62.92-4.7,2.3a8.06,8.06,0,0,0-1.89,5.3,1.35,1.35,0,0,0,2.63.36Z"/></g><g id="_Group_279" data-name="&lt;Group&gt;"><path id="_Path_278" data-name="&lt;Path&gt;" class="cls-1" d="M196,325.49a10.34,10.34,0,0,0,5.82-1.28c1.44-.81,3.67-2.39,3.48-4.26a1.73,1.73,0,0,0-1.21-1.59c-1.43-.48-3.05.59-4.35,1.14s-2.86,1.27-4.31,1.84a2.12,2.12,0,0,0,.56,4.15Z"/></g><g id="_Group_280" data-name="&lt;Group&gt;"><path id="_Path_279" data-name="&lt;Path&gt;" class="cls-1" d="M207.9,320.05c.38-.54.79-1.07,1.14-1.63a10.29,10.29,0,0,0,.87-2.1A2,2,0,0,0,209,314a2.08,2.08,0,0,0-2.45.32A8.94,8.94,0,0,0,205,316c-.37.55-.71,1.11-1.06,1.67a2.34,2.34,0,0,0,.83,3.17,2.38,2.38,0,0,0,3.17-.83Z"/></g><g id="_Group_281" data-name="&lt;Group&gt;"><path id="_Path_280" data-name="&lt;Path&gt;" class="cls-1" d="M150.47,127.64c1.59-1,3.08-.88,4.87-.89a1.19,1.19,0,0,0,.6-2.21c-2.16-1.11-4.83-.45-6.77.87-1.35.92-.12,3.11,1.3,2.22Z"/></g><g id="_Group_282" data-name="&lt;Group&gt;"><path id="_Path_281" data-name="&lt;Path&gt;" class="cls-1" d="M96.35,371.47c-.72,3.5,1.9,5.45,4.84,6.83a80.93,80.93,0,0,0,20.16,5.92c13.44,2.33,29.16,4.22,42.46.44,2.77-.79,2.07-4.66-.66-4.86-10.57-.76-21.19.44-31.81-.51-5.53-.5-11-1.35-16.54-2.16-3.66-.54-15.79-1-17-5.66a.78.78,0,0,0-1.49,0Z"/></g><g id="_Group_283" data-name="&lt;Group&gt;"><path id="_Path_282" data-name="&lt;Path&gt;" class="cls-1" d="M107,377.88c-6.39-2.53-6-12.08-6.56-17.7a183.59,183.59,0,0,1-.91-20.37c.12-13,1.48-25.94.65-39-1.63-25.64-6.49-50.54-5.08-76.35.11-2.08-3.17-2.53-3.64-.49-6.9,29.71,4,60.42,4,90.35,0,15.78-1.21,31.19.89,46.92.69,5.16.88,11.47,4.24,15.74,1.71,2.18,4.41,3.73,6.52,1.24a.21.21,0,0,0-.09-.34Z"/></g><g id="_Group_284" data-name="&lt;Group&gt;"><path id="_Path_283" data-name="&lt;Path&gt;" class="cls-1" d="M96.65,353c0,7.36.32,15.93,5.95,21.42,6.08,5.94,15.44,6.22,23.33,7.49,1.92.31,3.84-1.56,2.68-3.48-3.81-6.29-10-6.35-16.44-8.4-8.15-2.6-10.74-9.79-12.88-17.39a1.35,1.35,0,0,0-2.63.36Z"/></g><g id="_Group_285" data-name="&lt;Group&gt;"><path id="_Path_284" data-name="&lt;Path&gt;" class="cls-1" d="M174,385a119,119,0,0,0,29.22-2.54c7.75-1.71,13-5.83,16.85-12.72,6.61-11.88,17.16-33.84,4.14-45a.94.94,0,0,0-1.55.9c2.94,14.83-.57,28.83-7.65,42.07-3.87,7.23-9.81,9.6-17.53,11.09-7.89,1.52-15.85,2.7-23.77,4.07-1.24.21-.89,2.09.29,2.12Z"/></g><g id="_Group_286" data-name="&lt;Group&gt;"><path id="_Path_285" data-name="&lt;Path&gt;" class="cls-1" d="M223,311.19a113.81,113.81,0,0,1,4.53-34.38c2.88-9.56,7.87-16.45,16.92-20.7,2-.94,1-4.2-1.12-4.13-9.84.36-14.75,10.82-17.14,19a108.94,108.94,0,0,0-4.31,40.2c.06.71,1.14.74,1.13,0Z"/></g><g id="_Group_287" data-name="&lt;Group&gt;"><path id="_Path_286" data-name="&lt;Path&gt;" class="cls-1" d="M202.93,263.6a7.9,7.9,0,0,0-8.31-1.91c-2.84,1-5.78,4-5.28,7.14a1.56,1.56,0,0,0,2.58.68c1.51-1.59,2.18-3.14,4.2-4.25a8.41,8.41,0,0,1,6.4-1,.42.42,0,0,0,.4-.69Z"/></g><g id="_Group_288" data-name="&lt;Group&gt;"><path id="_Path_287" data-name="&lt;Path&gt;" class="cls-1" d="M235.06,254.5a102.81,102.81,0,0,0,5.08-30c.34-9.62.15-21.09-3.18-30.23a1.92,1.92,0,0,0-3.74.51c-.59,9.77.76,19.89.63,29.73s-1,19.75-1.61,29.6c-.1,1.7,2.33,1.86,2.83.38Z"/></g><g id="_Group_289" data-name="&lt;Group&gt;"><path id="_Path_288" data-name="&lt;Path&gt;" class="cls-1" d="M244.78,178.48c-3.71-4.36-10.4-6.27-15.29-9.14-4.61-2.7-9.26-7-14.76-7.29a1.86,1.86,0,0,0-1.79,2.35c2.16,5.43,8.17,8.24,13.09,10.86s11.64,6.86,17.51,6.21a1.78,1.78,0,0,0,1.24-3Z"/></g><g id="_Group_290" data-name="&lt;Group&gt;"><path id="_Path_289" data-name="&lt;Path&gt;" class="cls-1" d="M184.52,140.86c-.28-3.42-2.45-5.08-4.88-7.2-1.33-1.16-3.57.32-2.55,2,1.64,2.67,3.55,5.23,5.39,7.77,1.52,2.11,3.15,5,5.55,6.11a1.52,1.52,0,0,0,2.19-1.69c-.43-2.58-2.84-4.95-4.47-6.94-2-2.43-3.95-4.94-6.11-7.22l-.72,2.72c2.68-.91,4.38,2.46,4.69,4.6.07.51,1,.4.91-.12Z"/></g><g id="_Group_291" data-name="&lt;Group&gt;"><path id="_Path_290" data-name="&lt;Path&gt;" class="cls-1" d="M194.48,134.69c-3.29,2.56-3.09,8.24-3.56,12.17-.56,4.75-1.43,10.12.48,14.6.59,1.39,2.51.75,2.92-.38,1.57-4.35.77-9.62,1.1-14.22.28-4,2.17-8.44.12-12a.68.68,0,0,0-1.05-.14Z"/></g><g id="_Group_292" data-name="&lt;Group&gt;"><path id="_Path_291" data-name="&lt;Path&gt;" class="cls-1" d="M198.59,145.16c-2.58,1.56-5.45,2.89-7.46,5.16a.78.78,0,0,0,.75,1.29c2.94-.77,5.4-2.72,8-4.32,1.35-.84.12-3-1.25-2.13Z"/></g><g id="_Group_293" data-name="&lt;Group&gt;"><path id="_Path_292" data-name="&lt;Path&gt;" class="cls-1" d="M161.27,131.12a13.5,13.5,0,0,0-6.51,7.71c-1.06,2.86-2.25,7.69-.25,10.33a1.31,1.31,0,0,0,2.35-.31c.82-2.77-.11-5.8.76-8.72a27.28,27.28,0,0,1,4.42-8.24c.36-.48-.32-1-.78-.78Z"/></g><g id="_Group_294" data-name="&lt;Group&gt;"><path id="_Path_293" data-name="&lt;Path&gt;" class="cls-1" d="M161.37,146.57a30.93,30.93,0,0,1,5.4-12.27l-2.4-1c-1,5.17-3,11.11-2.77,16.38a1.35,1.35,0,0,0,2.63.36c1.93-4.79,1.94-10.92,2.67-16a1.32,1.32,0,0,0-2.4-1,32.38,32.38,0,0,0-5,13.08c-.19,1.22,1.63,1.77,1.89.52Z"/></g><g id="_Group_295" data-name="&lt;Group&gt;"><path id="_Path_294" data-name="&lt;Path&gt;" class="cls-1" d="M160.85,152.91c8.42,0,8.43-13.08,0-13.08s-8.43,13.08,0,13.08Z"/></g><g id="_Group_296" data-name="&lt;Group&gt;"><path id="_Path_295" data-name="&lt;Path&gt;" class="cls-1" d="M166.35,146.43a.05.05,0,0,0,0-.11.05.05,0,0,0,0,.11Z"/></g><g id="_Group_297" data-name="&lt;Group&gt;"><path id="_Path_296" data-name="&lt;Path&gt;" class="cls-1" d="M244.64,128a77.45,77.45,0,0,0-19.2-12.76c-6.21-2.81-15.09-6.69-21.95-4.54a2.81,2.81,0,0,0,0,5.36c3.13,1.21,6.52,1.24,9.79,2,3.64.88,7.11,2.17,10.69,3.26,7.19,2.19,13.77,2.88,20,7.46.47.34,1.05-.42.62-.81Z"/></g><g id="_Group_298" data-name="&lt;Group&gt;"><path id="_Path_297" data-name="&lt;Path&gt;" class="cls-1" d="M251,129.93l.95,1.67a2.21,2.21,0,0,0,1.53,1.33.94.94,0,0,0,1.14-.65,2.08,2.08,0,0,0,0-1,3.28,3.28,0,0,0-.69-1.07l-1.24-1.57c-.78-1-2.29.27-1.7,1.31Z"/></g><g id="_Group_299" data-name="&lt;Group&gt;"><path id="_Path_298" data-name="&lt;Path&gt;" class="cls-1" d="M256.85,137.18l.85.79a1.2,1.2,0,0,0,1.14.36.74.74,0,0,0,.54-.54,1.23,1.23,0,0,0-.36-1.14c-.26-.29-.53-.57-.79-.85-.86-.92-2.31.52-1.38,1.38Z"/></g></g></g></g></svg>