<svg xmlns="http://www.w3.org/2000/svg" viewBox="0 0 266.61 266.61"><defs><style>.cls-1{fill:#ecb85c;}</style></defs><title>Asset 2</title><g id="Layer_2" data-name="Layer 2"><g id="Capa_1" data-name="Capa 1"><path class="cls-1" d="M213,46.84c1-6.72,2.14-15.06,6.15-20.76,3.34-4.76,8.78-7.92,14.2-6.74a9.7,9.7,0,0,0-2.72,6.07c-.85,13.72,18.53,13.07,21.25,1.1C255,13,240.21,3.49,228.3,4.74c-15.54,1.63-24.73,15.55-28.61,29.43H2.86c-3.66,0-3.89,5.7-.2,5.7H201.2c2.26,0,4.36.06,4.71-2.29,2.29-15.39,9.27-25.9,23.28-27.11,5.48-.47,11.75,1.65,15,6.29a9.15,9.15,0,0,0-3.86-.66c-7.06-4.64-15.93-3.24-22.1,2.29-6.82,6.12-9,15.1-10.47,23.82H2.89C-.81,42.22-1,48,2.69,48Zm32.16-20.78c1.33,6.19-10.23,4.72-8.66-1.11C237.84,20.09,244.4,22.41,245.18,26.06Z"/><path class="cls-1" d="M195.76,31.82a2.5,2.5,0,0,0,2.4-2,43.55,43.55,0,0,1,16.67-24.1c3-2.19,3.08-8.68-3.93-4.23-8.85,5.61-14.56,14.78-17.69,24.72H2.9C-.81,26.24-1,32,2.69,32h192A3,3,0,0,0,195.76,31.82Z"/><path class="cls-1" d="M218.62,263.92c0,3.73,5.77,3.5,5.77-.21V58.84c8.72-1.46,17.7-3.65,23.82-10.47,5.54-6.17,6.93-15,2.29-22.1a9.15,9.15,0,0,0-.66-3.86c4.64,3.26,6.77,9.52,6.29,15-1.2,14-11.72,21-27.11,23.28-2.35.35-2.29,2.46-2.29,4.71V264c0,3.68,5.7,3.46,5.7-.2V66.92c13.89-3.88,27.8-13.07,29.43-28.61,1.25-11.91-8.29-26.66-21.77-23.59-12,2.72-12.62,22.1,1.1,21.25a9.7,9.7,0,0,0,6.07-2.72c1.18,5.41-2,10.85-6.74,14.2-5.7,4-14,5.1-20.76,6.15Zm23-233.84c-5.83,1.58-7.31-10-1.11-8.66C244.2,22.21,246.52,28.78,241.66,30.09Z"/><path class="cls-1" d="M234.79,70.85a2.5,2.5,0,0,1,2-2.4,43.55,43.55,0,0,0,24.1-16.67c2.19-3,8.68-3.08,4.23,3.93-5.61,8.85-14.78,14.56-24.72,17.69V263.71c0,3.71-5.77,3.93-5.77.21V71.9A3,3,0,0,1,234.79,70.85Z"/></g></g></svg>