<svg xmlns="http://www.w3.org/2000/svg" viewBox="0 0 222.54 227.55"><defs><style>.cls-1{fill:#ecb85c;}</style></defs><title>Asset 2</title><g id="Layer_2" data-name="Layer 2"><g id="Layer_3" data-name="Layer 3"><path class="cls-1" d="M155.23,146c11.34,11.26,22.57,22.42,33.8,33.57s22.49,22.29,33.5,33.21l-14.83,14.81-67.34-67.88c-24.2,16.52-50,21.24-77.67,13-21.32-6.32-37.82-19.38-49.62-38.25-23.16-37-14.82-86.59,19.19-114.36a88,88,0,0,1,117.2,4.65C182,55.86,186.71,108.51,155.23,146Zm10.93-57.63a77.88,77.88,0,1,0-77.92,77.85A77.83,77.83,0,0,0,166.16,88.34Z"/></g></g></svg>