<svg xmlns="http://www.w3.org/2000/svg" viewBox="0 0 167.6 197.64"><defs><style>.cls-1{fill:#ecb85c;}</style></defs><title>Asset 12</title><g id="Layer_2" data-name="Layer 2"><g id="Layer_3" data-name="Layer 3"><path class="cls-1" d="M167.6,0V146.6H157.51v26.7h-42v24.34c-.89-.43-1.5-.71-2.09-1-5.49-3-11-6-16.45-9a3,3,0,0,0-3.36,0c-5.45,3.07-11,6-16.46,9-.55.3-1.12.55-1.93.95V173.31H73q-26.29,0-52.57,0C9,173.32,0,165.25,0,154.72Q0,102.47,0,50.21,0,34.91,0,19.62C0,7.88,8.44,0,21.15,0q59.1,0,118.19,0L165,0ZM146.26,146.6H144.1l-123.65,0c-5.33,0-9.31,3.54-9.28,8.23s4,8.17,9.19,8.18q23.51,0,47,0h7.86v-7.28h40.39v7.17h30.64Z"/></g></g></svg>