<svg xmlns="http://www.w3.org/2000/svg" viewBox="0 0 181.74 244.12"><defs><style>.cls-1{fill:#80bdad;}</style></defs><title>Asset 11</title><g id="Layer_2" data-name="Layer 2"><g id="Layer_2-2" data-name="Layer 2"><path class="cls-1" d="M58.14,65.74q23.72,0,47.43,0c9.52,0,11.37,1.93,10.13,11.44-4,30.68-8.86,61.28-11.92,92-1.82,18.28-1,36.83-1.11,55.26-.15,21.77,1.36,19.56-19.46,19.57q-30,0-60,0c-9.33,0-10.43-1.24-10.56-10.76-.3-22.38.57-44.86-1.32-67.11C8.88,136.69,4.27,107.37.45,78-.92,67.49.39,65.74,10.7,65.73Q34.42,65.72,58.14,65.74Z"/><path class="cls-1" d="M121,117.71l1.68-12.19c4.46-1,8.79-1.6,12.94-2.85,20.61-6.24,34.68-26.76,32.52-47.18-2.45-23.14-19.42-39.77-42.78-41.93C105.05,11.66,84.91,25.7,78.82,46c-3,10.1-3,10.1-14.35,8.31C62.65,27.21,91.12.31,121.93,0c34.09-.34,61,27.77,59.77,62.45C180.63,93.15,151.13,120.47,121,117.71Z"/><path class="cls-1" d="M159.37,54.53H136.53l16.2-15.76Z"/><path class="cls-1" d="M127.17,45.15V22.67l17,6.74Z"/><path class="cls-1" d="M99.27,30.15l18.46-7.72V47.66Z"/><path class="cls-1" d="M135.37,63.74h23.92l-6.9,16.44Z"/><path class="cls-1" d="M127.25,72.94l15.92,16.21-15.92,6.7Z"/><path class="cls-1" d="M92.81,37.36l17,16.91H86Z"/></g></g></svg>