<svg xmlns="http://www.w3.org/2000/svg" viewBox="0 0 671.88 656.33"><defs><style>.cls-1{fill:#ecb85c;}</style></defs><title>Asset 1</title><g id="Layer_2" data-name="Layer 2"><g id="Capa_1" data-name="Capa 1"><path class="cls-1" d="M46.84,53.6c-6.72-1-15.06-2.14-20.76-6.15-4.76-3.34-7.92-8.78-6.74-14.2A9.7,9.7,0,0,0,25.4,36c13.72.85,13.07-18.53,1.1-21.25C13,11.65,3.49,26.4,4.74,38.31,6.37,53.86,20.28,63,34.17,66.92V263.75c0,3.66,5.7,3.89,5.7.2V65.41c0-2.26.06-4.36-2.29-4.71-15.39-2.29-25.9-9.27-27.11-23.28-.47-5.48,1.65-11.75,6.29-15a9.15,9.15,0,0,0-.66,3.86c-4.64,7.06-3.24,15.93,2.29,22.1,6.12,6.82,15.1,9,23.82,10.47V263.72c0,3.71,5.77,3.93,5.77.21ZM26.06,21.43c6.19-1.33,4.72,10.23-1.11,8.66C20.09,28.78,22.41,22.21,26.06,21.43Z"/><path class="cls-1" d="M31.82,70.85a2.5,2.5,0,0,0-2-2.4A43.55,43.55,0,0,1,5.75,51.77c-2.19-3-8.68-3.08-4.23,3.93C7.14,64.56,16.3,70.27,26.24,73.4V263.71c0,3.71,5.77,3.93,5.77.21V71.9A3,3,0,0,0,31.82,70.85Z"/><path class="cls-1" d="M263.92,48c3.73,0,3.5-5.77-.21-5.77H58.84c-1.46-8.72-3.65-17.7-10.47-23.82-6.17-5.54-15-6.93-22.1-2.29a9.15,9.15,0,0,0-3.86.66c3.26-4.64,9.52-6.77,15-6.29,14,1.2,21,11.72,23.28,27.11.35,2.35,2.46,2.29,4.71,2.29H264c3.68,0,3.46-5.7-.2-5.7H66.92C63,20.28,53.86,6.37,38.31,4.74,26.4,3.49,11.65,13,14.72,26.51c2.72,12,22.1,12.62,21.25-1.1a9.7,9.7,0,0,0-2.72-6.07c5.41-1.18,10.85,2,14.2,6.74,4,5.7,5.1,14,6.15,20.76Zm-233.84-23c1.58,5.83-10,7.31-8.66,1.11C22.21,22.41,28.78,20.09,30.09,24.95Z"/><path class="cls-1" d="M70.85,31.82a2.5,2.5,0,0,1-2.4-2A43.55,43.55,0,0,0,51.77,5.75c-3-2.19-3.08-8.68,3.93-4.23C64.56,7.14,70.27,16.3,73.4,26.24H263.71c3.71,0,3.93,5.77.21,5.77H71.9A3,3,0,0,1,70.85,31.82Z"/><path class="cls-1" d="M618.29,46.84c1-6.72,2.14-15.06,6.15-20.76,3.34-4.76,8.78-7.92,14.2-6.74a9.7,9.7,0,0,0-2.72,6.07c-.85,13.72,18.53,13.07,21.25,1.1,3.07-13.48-11.68-23-23.59-21.77C618,6.37,608.84,20.28,605,34.17H408.13c-3.66,0-3.89,5.7-.2,5.7H606.47c2.26,0,4.36.06,4.71-2.29,2.29-15.39,9.27-25.9,23.28-27.11,5.48-.47,11.75,1.65,15,6.29a9.15,9.15,0,0,0-3.86-.66c-7.06-4.64-15.93-3.24-22.1,2.29-6.82,6.12-9,15.1-10.47,23.82H408.17c-3.71,0-3.93,5.77-.21,5.77Zm32.16-20.78c1.33,6.19-10.23,4.72-8.66-1.11C643.11,20.09,649.67,22.41,650.45,26.06Z"/><path class="cls-1" d="M601,31.82a2.5,2.5,0,0,0,2.4-2,43.55,43.55,0,0,1,16.67-24.1c3-2.19,3.08-8.68-3.93-4.23-8.85,5.61-14.56,14.78-17.69,24.72H408.17c-3.71,0-3.93,5.77-.21,5.77H600A3,3,0,0,0,601,31.82Z"/><path class="cls-1" d="M623.89,263.92c0,3.73,5.77,3.5,5.77-.21V58.84c8.72-1.46,17.7-3.65,23.82-10.47,5.54-6.17,6.93-15,2.29-22.1a9.15,9.15,0,0,0-.66-3.86c4.64,3.26,6.77,9.52,6.29,15-1.2,14-11.72,21-27.11,23.28-2.35.35-2.29,2.46-2.29,4.71V264c0,3.68,5.7,3.46,5.7-.2V66.92c13.89-3.88,27.8-13.07,29.43-28.61,1.25-11.91-8.29-26.66-21.77-23.59-12,2.72-12.62,22.1,1.1,21.25a9.7,9.7,0,0,0,6.07-2.72c1.18,5.41-2,10.85-6.74,14.2-5.7,4-14,5.1-20.76,6.15Zm23-233.84c-5.83,1.58-7.31-10-1.11-8.66C649.47,22.21,651.79,28.78,646.94,30.09Z"/><path class="cls-1" d="M640.06,70.85a2.5,2.5,0,0,1,2-2.4,43.55,43.55,0,0,0,24.1-16.67c2.19-3,8.68-3.08,4.23,3.93-5.61,8.85-14.78,14.56-24.72,17.69V263.71c0,3.71-5.77,3.93-5.77.21V71.9A3,3,0,0,1,640.06,70.85Z"/><path class="cls-1" d="M53.6,609.49c-1,6.72-2.14,15.06-6.15,20.76-3.34,4.76-8.78,7.92-14.2,6.74A9.7,9.7,0,0,0,36,630.93c.85-13.72-18.53-13.07-21.25-1.1-3.07,13.48,11.68,23,23.59,21.77C53.86,650,63,636,66.92,622.16H263.75c3.66,0,3.89-5.7.2-5.7H65.41c-2.26,0-4.36-.06-4.71,2.29-2.29,15.39-9.27,25.9-23.28,27.11-5.48.47-11.75-1.65-15-6.29a9.15,9.15,0,0,0,3.86.66c7.06,4.64,15.93,3.24,22.1-2.29,6.82-6.12,9-15.1,10.47-23.82H263.72c3.71,0,3.93-5.77.21-5.77ZM21.43,630.27c-1.33-6.19,10.23-4.72,8.66,1.11C28.78,636.24,22.21,633.92,21.43,630.27Z"/><path class="cls-1" d="M70.85,624.51a2.5,2.5,0,0,0-2.4,2,43.55,43.55,0,0,1-16.67,24.1c-3,2.19-3.08,8.68,3.93,4.23,8.85-5.61,14.56-14.78,17.69-24.72H263.71c3.71,0,3.93-5.77.21-5.77H71.9A3,3,0,0,0,70.85,624.51Z"/><path class="cls-1" d="M48,392.41c0-3.73-5.77-3.5-5.77.21V597.49C33.5,599,24.52,601.14,18.4,608c-5.54,6.17-6.93,15-2.29,22.1a9.15,9.15,0,0,0,.66,3.86c-4.64-3.26-6.77-9.52-6.29-15,1.2-14,11.72-21,27.11-23.28,2.35-.35,2.29-2.46,2.29-4.71V392.38c0-3.68-5.7-3.46-5.7.2V589.41C20.28,593.29,6.37,602.48,4.74,618,3.49,629.93,13,644.68,26.51,641.61c12-2.72,12.62-22.1-1.1-21.25a9.7,9.7,0,0,0-6.07,2.72c-1.18-5.41,2-10.85,6.74-14.2,5.7-4,14-5.1,20.76-6.15Zm-23,233.84c5.83-1.58,7.31,10,1.11,8.66C22.41,634.12,20.09,627.56,24.95,626.24Z"/><path class="cls-1" d="M31.82,585.48a2.5,2.5,0,0,1-2,2.4,43.55,43.55,0,0,0-24.1,16.67c-2.19,3-8.68,3.08-4.23-3.93,5.61-8.85,14.78-14.56,24.72-17.69V392.62c0-3.71,5.77-3.93,5.77-.21v192A3,3,0,0,1,31.82,585.48Z"/><path class="cls-1" d="M625,602.73c6.72,1,15.06,2.14,20.76,6.15,4.76,3.34,7.92,8.78,6.74,14.2a9.7,9.7,0,0,0-6.07-2.72c-13.72-.85-13.07,18.53-1.1,21.25,13.48,3.07,23-11.68,21.77-23.59-1.63-15.54-15.55-24.73-29.43-28.61V392.58c0-3.66-5.7-3.89-5.7-.2V590.92c0,2.26-.06,4.36,2.29,4.71,15.39,2.29,25.9,9.27,27.11,23.28.47,5.48-1.65,11.75-6.29,15a9.15,9.15,0,0,0,.66-3.86c4.64-7.06,3.24-15.93-2.29-22.1-6.12-6.82-15.1-9-23.82-10.47V392.62c0-3.71-5.77-3.93-5.77-.21Zm20.78,32.16c-6.19,1.33-4.72-10.23,1.11-8.66C651.79,627.56,649.47,634.12,645.83,634.9Z"/><path class="cls-1" d="M640.06,585.48a2.5,2.5,0,0,0,2,2.4,43.55,43.55,0,0,1,24.1,16.67c2.19,3,8.68,3.08,4.23-3.93-5.61-8.85-14.78-14.56-24.72-17.69V392.62c0-3.71-5.77-3.93-5.77-.21v192A3,3,0,0,0,640.06,585.48Z"/><path class="cls-1" d="M408,608.34c-3.73,0-3.5,5.77.21,5.77H613c1.46,8.72,3.65,17.7,10.47,23.82,6.17,5.54,15,6.93,22.1,2.29a9.15,9.15,0,0,0,3.86-.66c-3.26,4.64-9.52,6.77-15,6.29-14-1.2-21-11.72-23.28-27.11-.35-2.35-2.46-2.29-4.71-2.29H407.93c-3.68,0-3.46,5.7.2,5.7H605C608.84,636,618,650,633.57,651.59c11.91,1.25,26.66-8.29,23.59-21.77-2.72-12-22.1-12.62-21.25,1.1a9.7,9.7,0,0,0,2.72,6.07c-5.41,1.18-10.85-2-14.2-6.74-4-5.7-5.1-14-6.15-20.76Zm233.84,23c-1.58-5.83,10-7.31,8.66-1.11C649.67,633.92,643.11,636.24,641.8,631.39Z"/><path class="cls-1" d="M601,624.51a2.5,2.5,0,0,1,2.4,2,43.55,43.55,0,0,0,16.67,24.1c3,2.19,3.08,8.68-3.93,4.23-8.85-5.61-14.56-14.78-17.69-24.72H408.17c-3.71,0-3.93-5.77-.21-5.77H600A3,3,0,0,1,601,624.51Z"/></g></g></svg>