<svg xmlns="http://www.w3.org/2000/svg" viewBox="0 0 148.5 326.15"><defs><style>.cls-1{fill:#855d25;}</style></defs><title>Asset 9</title><g id="Layer_2" data-name="Layer 2"><g id="Layer_2-2" data-name="Layer 2"><path class="cls-1" d="M58.24,111.87c-.58.87.47,1.51.45.1Z"/><path class="cls-1" d="M124.45,92.31c.3,1.37,3.86,9.64,1.37,17.15-1,6-.31,12.13-.48,18.19,0,5.65,0,11.31,0,16.95,0,3.12-.57,6.28,0,9.37,5.55,1,2.29-6.71,3.28-7.64,1.7-2,4.14,23.5,3.81,13.75s-.28-20.19-1.72-24a37.76,37.76,0,0,1-.56-7.4c.36-8.32-.78-16.68.81-25,.22-.64-4.88-9.5-5.1-14,.1-2.66-.57-5.24-.77-7.87a12.68,12.68,0,0,0,.36-1.81,5.29,5.29,0,0,1-.71.84c-2.81.63-3,2.26-1.68,4.48C123.63,87.65,123.74,90,124.45,92.31Z"/><path class="cls-1" d="M86.31,239a2.05,2.05,0,0,0-.35.85Z"/><polygon class="cls-1" points="28.36 18.95 28.36 18.95 28.36 18.95 28.36 18.95"/><path class="cls-1" d="M83.31,200.71c.5-3.52-1.3-7.77,3.16-10-.38-1.18-.79-2.34-1.15-3.53a18.16,18.16,0,0,0-2.82-6.25,15.4,15.4,0,0,1-1.61-2.71c-1.11-3.22-2.87-6.15-4.15-9.3-1.35-4-1.29-8.19-1-12.33,1.49-18.7,2.59-37.41,2.81-56.18.07-5.6,1.65-11,1.52-16.7-.12-5.44-.38-10.67-3-15.54a3.69,3.69,0,0,1,0-.47,2.94,2.94,0,0,1-4.31-.59,22.5,22.5,0,0,1-.95,3.5,40.31,40.31,0,0,1-4.33,8,2.11,2.11,0,0,1,.3.07c3.57,2.15,6,4.52,1.58,8.22l-.18.07c-.15,3.1-.12,6.23-.51,9.3-.74,5.91-6.54,23.18-6.15,24.63.34,2.63-.65,5.19-.41,7.82-.7,3-2.52,20-1.75,23.11.15,2,.12,3.95.28,5.92.25,3,1.28,5.92,1.87,8.89.2,1,4.53,18.34,13.21,27.9C77.43,197.91,81.41,197.93,83.31,200.71ZM77,75.32c1.08,0,.87,2.4.56,3.8.58,2.15-1.1,3.47-2.39,6.34V79.15h0C74.86,77.39,74.8,75.25,77,75.32ZM75.05,89.54c3.74,1.08,1.58,3.71,1.52,5.79L73.5,159.1C67.61,154.55,68.93,105.94,75.05,89.54Z"/><path class="cls-1" d="M82.27,315.39l.07.15.33-.08Z"/><path class="cls-1" d="M135.17,315.59a32.77,32.77,0,0,0-3.65-.27q-13-2-26-4.13c-6.41-1-9-4.81-8.79-11.27.48-15.15.38-30.3,1-45.46.36-9,4-15.14,9.92-20.87a319.81,319.81,0,0,0,26.65-28.28c9.94-12.21,15.65-25.76,13.85-41.83-2.09-18.68-3.82-37.42-6.42-56-1.53-10.92-.43-22.24-2.94-32.69a273.3,273.3,0,0,1-6.3-39.57c-.6-6.69-3.88-9.6-10.4-9.45-7.09.17-14.23-.23-21.27.46-6.76.66-10.53-1.52-13.15-8C83.77,8.52,75.76,3.2,65.6,1,48.41-2.73,33.65,4.73,18.74,11.24c-7.61,3.32-12.1,9.45-14.39,17.42C1.63,38.13.73,47.83.22,57.57-.48,71-.32,71,12.88,68.84c.29,0,.64.35,2.75,1.59-2,1.16-3.71,1.79-4.92,2.94S7.25,75.84,8,78.1c.91,2.77,3.28.9,5,1.2,3.3.58,6.55,1.44,10.55,2.35-.87,1.34-1.36,2.16-1.9,2.94a46,46,0,0,0-7.83,34.74c.56,3.5,1.17,5.4,6.07,3.45,7.16-2.84,14.33-5.52,21.56-10.51-1.72,12.46-3.57,23.76-3.91,35.25-.49,16.59,2.81,31.92,13.26,45.3C56,199.56,61,206.49,65.94,213.49c7.75,11.08,14.57,22.59,14.66,36.74.09,13.94.07,27.88.24,41.82.06,5-1.31,9.56-2.92,14.2-1.12,3.25-2.77,4.42-6.19,4.89-10.86,1.5-21.64,3.5-32.45,5.36-2.58.44-6.26.38-6.09,3.87.16,3.29,3.94,3.28,6.4,3.53,30.73,3.1,61.55,2.28,92.35,1.68a15.82,15.82,0,0,0,3.56-.75c2.81-.73,6.54-1.22,6.4-4.76S137.91,316.35,135.17,315.59ZM95.33,236.15a7.85,7.85,0,0,1-.05-1.22,6.78,6.78,0,0,1-1.36,1.2c-2.71.46-3.07-.94-3-3.29,0-3.69,2.68-2.42,4.54-2.73a5.43,5.43,0,0,1,.73,1.85A6.56,6.56,0,0,1,98,230c2.49-1.74,5-3.32,9.91-2.79C102.77,230.58,101.19,236.13,95.33,236.15Zm-7.11,13.63c1.82-.47,3.46-.6,3,2.09-.54,3-1.19,6-1.8,9C86.56,257.41,88.81,253.44,88.22,249.78Zm1.35-6.43c0-1.18,0-2.51,1.7-2.51,1.27,0,1.18,1.17,1.39,1.87-.11,1.07-.13,2.16-1.3,2.26A1.48,1.48,0,0,1,89.57,243.35Zm-.88-205a4.69,4.69,0,0,1-.77-.37c0-1.25.17-2.4,1.45-3,1.06-4.27,3.79-5.29,7.7-3.9,1.94.69,3.31,2.7,5.64,2.45.17-1.05-1.85-2.57-.42-2.62,7.49-.25,15-1.11,22.48.31.62.12,1,1.5,1.5,2.3,2.65,6.28,2.9,13.11,2.8,19.6-.07,4.58-2.07-.48-3.3-.39-4-4-1.73-9.21-2.65-13.9-2.29.26-.62,3.31-2.69,3.55-.44-.46-1.38-.48-1.64,0A5,5,0,0,1,113.14,39c-1.2-2.84,2.55-2.26,2.78-4.09a1.81,1.81,0,0,1,2.14,0c.43.51-.6-.11-2.12-.79-4.47,1.14-8.87.61-13.24-.5,2.86,3.22.68,3.75,4.73,6.1s-.5,6.18-.44,8.61c-.27,3.31-2.43,4.26-5.34,4.26-.77.36-1.87,1.18-1.71,1.53-3.13,5-8.51,4.58-13,4.17-4.74-.44-9.49-1.37-15.37-1.14L82.23,45.29l4.32-6A12.48,12.48,0,0,1,88.68,38.3Zm25.79,11.29h0l-2.92,1.57c-1.9-.34-4.35.17-4.46-2.91l1.32-3.1c1.53-2.07,3.1-1.42,4.68-.07,4.19-2.45,4.78,2.08,7.83,3.74A7.7,7.7,0,0,1,114.47,49.59Zm4.79,3c-4.63,4.49-9.45,6.85-15,1.34a1.08,1.08,0,0,1-.39-1.07c.1-.37.2-.56.31-.56,2.46-.69,4.92-1,7.36.06ZM71.82,46.94c-4-1.88-3.09-4.65-1.39-7.57,2-.58,3,1.11,4.4,1.8h0l2.74-.24c-.08,3.72-2.19,5.81-5.49,6.95,0,.08.05.16.08.24L72,47.92l.19.2-.29.11c-.47,1.45-.48,3.21-2.25,3.84-.84.3-1.41-.4-1.29-1.23.3-2,2.11-2.08,3.54-2.61,0-.1.06-.21.1-.31l.11,0A5.3,5.3,0,0,1,71.82,46.94Zm8.92-8.86c-1.9.52-3.06.41-3.34-.44-2,1.69-4.2,2.46-6.9.17,2-3.31,1.65-10.26,8.77-5.69h0c1.64-2.91,4.25-.76,6.7-1.87A12.32,12.32,0,0,1,80.74,38.08ZM28.36,18.95c-.74-.75-2.32-2-1.15-2.55,2-1,3.53-5,6.76-1.94a4.33,4.33,0,0,0-.63,1.44,6.42,6.42,0,0,1,1.55-1.51c1.88-3,4.57-3.83,7.9-3a14.27,14.27,0,0,0,1.72,1.17,7.08,7.08,0,0,1-.68-1C48.17,8.4,53,10.24,57.64,10c.08,1.78-2.49,1.77-2,3.57,4.59-1.1,9.21-2.71,13.52.81h2c1.33.69.26,3.61,2.63,3.34.24-.24.52-.48.79-.71a3.17,3.17,0,0,1,3.06.79c0-.59.48-.78,1.48-.38,3.66,1.49,5.29,4.56,6.35,8.06-3.75,2.69-4.65-1-6.44-2.7.67,3.28-1.34,3.93-3.79,3.4-4-.87-1-4-1.62-5.93L72,20.32c-2.37,7.45-3.66,8.11-8.4,2.77-2.24-2.53-2.46,3.28-3.63.19a43.14,43.14,0,0,1-4.43-5.76c0,1.91.41,4.15-1.7,4.56,1.91,4.32,3.31,8.6-1.44,12.26-2.8-.52-5.16-2.31-8-2.82-2.34-1.87-4.31-4.19-6.84-5.86a28.89,28.89,0,0,1-3.6-3.72c-.82-1.25-1.91-2.78-2.39-2.61a6.31,6.31,0,0,1,2.29,3.2c1.08,1.8,2.16,3.61,3.07,5.51.72,1.33,1.8,2.43,2.49,3.79.78,2,2.5,3.7,2,6.11-1.11,2.6-2.25,1.83-3.51.09-1.81-2.5-3.4-5.24-6.18-6.76-2.17,2.76,1.23,5.09.21,7.76-4.17-1.16-6.41-4.82-9.7-7-.07-2.36-.05-4.73-.22-7.09C21.65,20.25,23.81,18.35,28.36,18.95ZM63.27,39.71c-3.15.2-2.49-1.8-1.73-3.26.68-1.3-1.08-3.68,1.39-3.76.51,0,4.91-.86,3.16,3C66.31,37.82,66,39.53,63.27,39.71Zm2,1c-2.47,7.85-2.47,7.85-7.24,12.2C60.48,48.25,58.21,42.45,65.3,40.73ZM46.4,66.35c.22,4.11-2,4.22-6.82,3.66ZM37.17,55.28l-7.85-8.66c-1.5-1.12-2.51-2.41-1.53-4.39,3.78-.9,5.57,2.13,7.87,4.06s3.87,4.24,6.79,5C42.14,54.59,40.84,56.52,37.17,55.28ZM20.55,38l2.69,1.51h0l1.93,0c-.09.94-.21,1.88-.29,2.82A6.54,6.54,0,0,1,25,46.55a7.82,7.82,0,0,0,1.43,3.09h-3.1l-4.2-3.09ZM19,52.59l-4.37-.27c-1.34,0-3.68,1.44-3.41-1.16.15-1.48-.94-5.53,3.41-4.3h0c2.24-.36-.25,4.2,3,2.84C19.32,50.05,19.19,51.31,19,52.59ZM13.14,21.76c.69-1.6,2.1-3.77,3.44-2.6s-.72,3.08-1.78,4.46L9.25,39.51l-1.83-.59C8.16,32.89,8.93,26.86,13.14,21.76ZM9.7,61.43c-2.1-3.09.49-4.2,3.26-4.52,1.8-2.82,4.64-3,7.55-2.95,4.23,1.84,8.74,2.29,13.25,2.78l5.85,2.6c-7.75,3.12-14.63-2.42-21.73-.75.35,2.56,3.88.31,4.36,3.56C18,61.46,13.57,67.15,9.7,61.43Zm11,9.93c1.93-3.54,4.68-2.76,7.23-2.65a13.12,13.12,0,0,1-.06,1.35Zm9.64,42.29a1.34,1.34,0,0,1-1.19-1.88,4.64,4.64,0,0,1,2.24-2.46c1.11-.31,1,1.14,1.06,1.92C32.58,112.75,31.22,113,30.29,113.65Zm3.87-3c-1.92-4.46.06-7.16,3.34-9.72C39.64,105.53,39.1,108.77,34.16,110.66Zm1.14-21a15,15,0,0,1-1.91,1,9,9,0,0,1,1.81,0c2.5,2.71,0,4.82-1.6,5.56-5.43,2.53-5.69,9.2-10.39,12.12,1.18,2.94-.92,4.33-2.76,5.85-1,1.55-2.34,2.05-2.57-.13-.33-3.16-.83-6.5,1-9.5-1.23-6.11,3-8.49,7.35-10.83-2.29,0-5.33.91-2.85-3.44,1.22-2.14,3.72-2.13,4.87-4,2-8,6.25-11.49,15.54-12.81,1.66,7.48-6.26,6.91-9,10.69h0c1.69-.43,4.06-2.06,4.71.6S37.91,89.07,35.31,89.66Zm5.49,14c-2.08-7.83-1.4-10,3.17-10,0-.06,0-.13,0-.19h0l.15-.05c-.18-1.81-.5-3.66,1.1-5.15,2,4,2,4-1.1,5.15l0,.25H44C43.87,97.31,45,101.29,40.79,103.7Zm7.79,76.59c-8.74-15.09-6.31-31.47-5.43-47.65.15-2.66.65-5.3,1-7.95l1.54-9,1.05.08V157c-.26,7.45,1.61,14.58,3.23,21.75l3,6C49.57,184.35,49.39,182,48.59,180.28Zm3.09-19.18c0-.43,1-.77,1.48-1.16a94,94,0,0,1-.68-40,2.74,2.74,0,0,0,0-1.25h0c-3-2.73-.59-6-.85-9l.05-8.2,2.42,2.07h0c1.05-1.7-2.09-4.74,1.77-5.56,1.7,1.42,1.56,3.55,2,5.45a14.68,14.68,0,0,1,2.38-4.95A3.16,3.16,0,0,1,56.67,98c-1.29-2-.47-3.85.21-5.74l.52-1.5h0a5.38,5.38,0,0,0-.46-1.37c-1.54-2.74-.49-5.46,0-8.19h-.14a6,6,0,0,0-1.18,3.6l-1.11,3.28-1,1.58c-1.55-1.83-.49-3.29.67-4.74,0-2.15-.41-4.41,1.39-6.16h0c.39-6.51,3.06-12.38,5-19.48,2.53,3.17.47,5.75,1.07,8a10.43,10.43,0,0,0-.42,1.45,5.82,5.82,0,0,1,1.62-1.48c1-6.39,6.47-1.12,9-3.49h0c2.34-1.9,4.81-1.41,7.31-.41l-1.27,2.32c5.27-2.79,11.51-.58,16.71-2.9,8.15-3.63,17.15,1.48,25.06-2.92,2.09-1.16,2.63.33,2.92,1.63.53,2.36.72,4.8,1,7.21.34.43.91.47,1,0,.56-1.58-.71-3.76,1.58-4.76a8.12,8.12,0,0,0,4.38-.72c2.62,5,1.65,10.59,2.79,15.83.46,6.4,2.82,19.57,3,21.59,2.33,22.27,4.9,44.51,7.06,66.8.48,4.92-4.34,21.78-7.1,11.53s-3.62-.21-3.55-.2c.8,1.07,1.47,1.52,1.49,2.7a7,7,0,0,0,.52,3.41c-.7,13.81-18.07,33-32.06,36.32-4,.68-6.51,6.8-11.69,3.2-2.49-3.38-1.15-7.46-2.05-11.13,0-2.63,0-5.26,0-7.89l-1.6.26c-3.21.1-1.65-3.95-3.93-4.65,1.28,3.33.41,5-1.77,5.57,1.87.16,3.79.16,5.3,1.55a3.34,3.34,0,0,1,.16,3c-1.34,1.69-3.16,1.67-5.58,1.33,2.28,1.21,5.47,1.29,4.06,4.81.9,2.23,1.59,4.48.44,7.11-7.57-4.15-11.5-11.13-15.82-17.84,1.78-2.34,3.85-.55,5.54-1.09C63.68,199.23,50.43,174.95,51.68,161.1Zm27.19,66.43a9.36,9.36,0,0,1,7.83,2.63c1.37,2,.68,4.05.15,6.1l0,2.86-.52-.11c.39,5.82,1.41,11.68-1,17.33l-.32-14C82.93,237.6,83.06,232.07,78.88,227.54ZM91.1,311.17c-.32,3.14-.84,4.49-2.59,4.82l0,0a3.32,3.32,0,0,1,1.78,3.65C90,321.42,88.78,322,87.18,322c-3.14-.1-6.31.49-9.41-.41-8.87-.79-18,.66-27.9-2.69,11.72-.93,21.83-4.52,32.47-3.32l-.27-.18.2,0C81.64,314,80.07,313,81,311a46.14,46.14,0,0,0,4.45-20.42c0-1.71,1.48-1.54,2.61-1.75a5.59,5.59,0,0,1,.84,1,8.31,8.31,0,0,0-.85-3.56l-1.29-2.85c1.5-4.9-.58-10.45,2.77-15,2.8,7.91,2.16,16.25,2.87,24.41.35,4.06-.08,8.19-.16,12.29.5,3.54,3.2,5.84,4.87,8.72C92.36,315.6,91.44,315.92,91.1,311.17ZM127,321.33H92.38c-2-7.66,3.63-5.6,7.45-5.82L127.07,320Z"/><g id="_Group_" data-name="&lt;Group&gt;"><path id="_Path_" data-name="&lt;Path&gt;" class="cls-1" d="M91.28,132c.5.47,1,.93,1.46,1.42a1.57,1.57,0,0,1-.31,2.44c-1.41.77-2.46,2.51-1.55,4.06.74,1.26,2.09,1.52,2.65,3a1.66,1.66,0,0,1-.76,1.86c-3,1.88-5.9-2.28-6.24-4.86a6.27,6.27,0,0,1,4.7-6.87l-.93,2.28c-.34-.59-.65-1.2-1-1.8a1.24,1.24,0,0,1,1.94-1.5Z"/></g><g id="_Group_2" data-name="&lt;Group&gt;"><path id="_Path_2" data-name="&lt;Path&gt;" class="cls-1" d="M97.52,163.1a3.34,3.34,0,0,1,2.29,2,2.85,2.85,0,0,1-.66,2.91,2.71,2.71,0,0,1-3.08.55,2.31,2.31,0,0,1-1.29-2.12,1.7,1.7,0,0,1,3.17-.86,1.3,1.3,0,0,0-1.08-.6c-1.18,0,.71.12.28,0,.23.09-.35.12-.11,0q-.41.2-.22.1t-.18.15c-.16.15-.19.37-.31.53v.13a2.38,2.38,0,0,1-.11-.64,2.45,2.45,0,0,1,0-.3s-.07-.36-.1-.48c-.17-.75.54-1.74,1.39-1.39Z"/></g><g id="_Group_3" data-name="&lt;Group&gt;"><path id="_Path_3" data-name="&lt;Path&gt;" class="cls-1" d="M99.74,173.2a3.33,3.33,0,0,1,.14,1.9,7,7,0,0,1-.62,1.33,1.54,1.54,0,0,1-2.63,0A6.91,6.91,0,0,1,96,175.1a3.3,3.3,0,0,1,.14-1.9,1.87,1.87,0,0,1,3.58,0Z"/></g><g id="_Group_4" data-name="&lt;Group&gt;"><path id="_Path_4" data-name="&lt;Path&gt;" class="cls-1" d="M107.76,199.24l.52.66a1.65,1.65,0,0,1-2.33,2.33l-.66-.51a1.75,1.75,0,0,1,2.48-2.48Z"/></g><g id="_Group_5" data-name="&lt;Group&gt;"><path id="_Path_5" data-name="&lt;Path&gt;" class="cls-1" d="M110,120.11c.95,2.08,2.48,4,2.17,6.4a2.71,2.71,0,0,1-5.42,0c-.31-2.44,1.23-4.31,2.17-6.4a.62.62,0,0,1,1.07,0Z"/></g><g id="_Group_6" data-name="&lt;Group&gt;"><path id="_Path_6" data-name="&lt;Path&gt;" class="cls-1" d="M81.9,104.74a2.91,2.91,0,0,1-1.4-2.15,2,2,0,0,1,1.35-2.27,1.37,1.37,0,0,1,1.51.62c-.37-.62.38.76.34.74s-.12-.27-.17-.33a1,1,0,0,0-.65-.25,2,2,0,1,1-1,3.65Z"/></g><g id="_Group_7" data-name="&lt;Group&gt;"><path id="_Path_7" data-name="&lt;Path&gt;" class="cls-1" d="M119.9,194.73c.39-5.48,1.51-10.76,2.22-16.16.53-4,1.41-8.81-.67-12.42a1.15,1.15,0,0,0-2,0c-2.27,3.52-1.54,8.35-1.28,12.42.34,5.42,1.27,10.7,1.38,16.16a.15.15,0,0,0,.31,0Z"/></g><g id="_Group_8" data-name="&lt;Group&gt;"><path id="_Path_8" data-name="&lt;Path&gt;" class="cls-1" d="M122,158.76l-.2-1a.78.78,0,0,0-1.49,0l-.2,1a1,1,0,1,0,1.89,0Z"/></g><g id="_Group_9" data-name="&lt;Group&gt;"><path id="_Path_9" data-name="&lt;Path&gt;" class="cls-1" d="M122.71,152.43c0-1.2.23-2.68-.29-3.79a1,1,0,0,0-1.69,0c-.52,1.11-.29,2.59-.29,3.79a1.13,1.13,0,0,0,2.27,0Z"/></g><g id="_Group_10" data-name="&lt;Group&gt;"><path id="_Path_10" data-name="&lt;Path&gt;" class="cls-1" d="M111.72,100.9a10.71,10.71,0,0,0-1.24,3.88c-.26,1.4-.64,3.19.61,4.19a1.72,1.72,0,0,0,2.33,0c1.25-1,.87-2.79.61-4.19a10.71,10.71,0,0,0-1.24-3.88.63.63,0,0,0-1.07,0Z"/></g><g id="_Group_11" data-name="&lt;Group&gt;"><path id="_Path_11" data-name="&lt;Path&gt;" class="cls-1" d="M98,86.63c-.11.49-.24,1-.32,1.49a2.08,2.08,0,0,0,1.18,2.41,2,2,0,0,0,2.55-.84c.24-.44.43-.9.63-1.36a2.21,2.21,0,1,0-4-1.71Z"/></g></g></g></svg>