<svg xmlns="http://www.w3.org/2000/svg" viewBox="0 0 126.77 372.98"><defs><style>.cls-1{fill:#855d25;}</style></defs><title>Asset 5</title><g id="Layer_2" data-name="Layer 2"><g id="Layer_2-2" data-name="Layer 2"><g id="_Group_" data-name="&lt;Group&gt;"><g id="_Group_2" data-name="&lt;Group&gt;"><path id="_Path_" data-name="&lt;Path&gt;" class="cls-1" d="M8.46,50.6c15.16-1,30.22.63,45.41.41C68.41,50.8,83,50.3,97.3,48.36c.74-.1.47-1.15-.16-1.21C67.73,44,37.77,45.56,8.46,49.47c-.7.09-.74,1.18,0,1.13Z"/></g><g id="_Group_3" data-name="&lt;Group&gt;"><path id="_Path_2" data-name="&lt;Path&gt;" class="cls-1" d="M100.84,49.49a61,61,0,0,1,13.43,1.28c3.32.7,9,1,7.22,5.93a1.29,1.29,0,0,0,.59,1.45c5.18,2.24,6-5.75,2.8-8.43-2.29-1.94-5.63-2.22-8.49-2.51a69.88,69.88,0,0,0-15.56.42c-1.15.14-1.23,1.87,0,1.85Z"/></g><g id="_Group_4" data-name="&lt;Group&gt;"><path id="_Path_3" data-name="&lt;Path&gt;" class="cls-1" d="M7.06,52C5.83,58.47,8.63,65.2,10.7,71.26A203.34,203.34,0,0,1,17.3,95.07a224.93,224.93,0,0,1,3.94,25.85c.58,6.33-.64,15.25,2.66,20.87a.57.57,0,0,0,1,0c3.48-5.64,1.7-14.61,1.15-20.87a172.46,172.46,0,0,0-3.52-23C18.94,82.15,12.28,67.51,8.16,52a.57.57,0,0,0-1.09,0Z"/></g><g id="_Group_5" data-name="&lt;Group&gt;"><path id="_Path_4" data-name="&lt;Path&gt;" class="cls-1" d="M24.65,147.42a.05.05,0,0,0,0-.11.05.05,0,0,0,0,.11Z"/></g><g id="_Group_6" data-name="&lt;Group&gt;"><path id="_Path_5" data-name="&lt;Path&gt;" class="cls-1" d="M22.75,156.24c-3.91,10-6.57,21.19-9.15,31.64-2.24,9.05-4.95,18.28-6.05,27.56a84,84,0,0,0,.64,25.9c.76,4,2.95,19.37,9.27,18.73s0-12.43-.91-15c-3-8.82-5.2-18.32-4.72-27.69.54-10.34,4.16-20.45,6.24-30.54s4.5-20.39,5.38-30.5c0-.44-.57-.44-.71-.1Z"/></g><g id="_Group_7" data-name="&lt;Group&gt;"><path id="_Path_6" data-name="&lt;Path&gt;" class="cls-1" d="M11.26,245.22C15.7,264,24,281.48,42.06,290.48c7.8,3.89,16.69,5,25.32,5.39s17.48-1.08,23.41-7.69c.77-.86,0-2.49-1.2-2.07-14,4.75-31.89,3.69-44.95-3.46-15-8.2-24.23-22.77-30.11-38.34a1.7,1.7,0,0,0-3.28.9Z"/></g><g id="_Group_8" data-name="&lt;Group&gt;"><path id="_Path_7" data-name="&lt;Path&gt;" class="cls-1" d="M122.37,56.83c-4.79,4.32-6.47,12.92-8.27,18.88A195.6,195.6,0,0,0,108.23,99,86.6,86.6,0,0,0,107,109.57c-.18,3.91.61,7.8.75,11.72.3,8.47.64,16.93,1.16,25.4a.88.88,0,0,0,1.75,0c.18-7.86.46-15.61,1-23.44.56-7.52,2.19-14.82,2.66-22.4.49-7.83,1-15.63,2.86-23.29,1.57-6.59,5.85-13.69,6-20.4a.47.47,0,0,0-.79-.33Z"/></g><g id="_Group_9" data-name="&lt;Group&gt;"><path id="_Path_8" data-name="&lt;Path&gt;" class="cls-1" d="M107.07,149c.66,7.32,1,14.58,2,21.88a41.32,41.32,0,0,0,2,9.38c1.74,4.56,2.19,8.26,2.73,13.06.37,3.38.88,6.73,1.36,10.1.62,4.4,2.33,8.47,2.92,12.84a80.41,80.41,0,0,1,.08,19.86,68.71,68.71,0,0,1-14.4,34.12,70.51,70.51,0,0,1-12.13,12c-4.08,3.11-10.72,5.06-13.28,9.62a1.77,1.77,0,0,0,1,2.57c5.37,1.34,11.13-3.33,15.24-6.32a67.6,67.6,0,0,0,13.3-12.58,69.87,69.87,0,0,0,14.87-33.95,63.7,63.7,0,0,0-.13-18c-.66-4.36-2.22-8.44-2.17-12.87a46.26,46.26,0,0,0-1.2-9.57c-.8-4.19-1.65-8.36-2.61-12.52-1-4.47-.22-8.57-.75-13-1.08-9.18-4.14-18-6.31-27-.34-1.38-2.66-1.13-2.53.34Z"/></g><g id="_Group_10" data-name="&lt;Group&gt;"><path id="_Path_9" data-name="&lt;Path&gt;" class="cls-1" d="M11.18,3.29C1.86,8.89.23,22.08.07,31.89,0,38.1-.88,53.46,8.14,54.47c.39,0,.61-.39.55-.72-.68-3.31-2.33-6.3-3-9.72C5,39.75,5,35.25,4.95,30.9c-.2-10.3,1.48-18.26,6.73-27.12a.36.36,0,0,0-.49-.49Z"/></g><g id="_Group_11" data-name="&lt;Group&gt;"><path id="_Path_10" data-name="&lt;Path&gt;" class="cls-1" d="M7.94,55.92c2.59,6.37,4.84,11,10.45,15.21,3.76,2.84,11.88,8.33,16.55,5.38a1.61,1.61,0,0,0,.57-2.18c-2.66-3.54-9-4-12.78-6.34C18,65,12.33,60.13,9.63,55.21c-.49-.9-2.1-.28-1.69.71Z"/></g><g id="_Group_12" data-name="&lt;Group&gt;"><path id="_Path_11" data-name="&lt;Path&gt;" class="cls-1" d="M9,5.64c4.1,11.67,9,23.07,13.6,34.54C27,51,29.9,62.83,35.46,73.16l1.13-2.77a8.26,8.26,0,0,1-7.12-.84,1.09,1.09,0,0,0-1.31,1.7c2.66,2.88,5.66,3.43,9.44,2.79a1.9,1.9,0,0,0,1.32-2.32c-3.38-11.23-9.69-21.62-14.29-32.38C19.76,28,15.14,16.46,9.77,5.32A.41.41,0,0,0,9,5.64Z"/></g><g id="_Group_13" data-name="&lt;Group&gt;"><path id="_Path_12" data-name="&lt;Path&gt;" class="cls-1" d="M20.08,38.65c-2.9,1.3-5.83,2.53-8.64,4-2.11,1.14-4.82,2.06-5.67,4.41a1.15,1.15,0,0,0,1.09,1.43c2.49.26,5.1-2.34,7-3.77,2.32-1.74,4.49-3.62,6.7-5.47.39-.32-.11-.82-.5-.65Z"/></g><g id="_Group_14" data-name="&lt;Group&gt;"><path id="_Path_13" data-name="&lt;Path&gt;" class="cls-1" d="M21,45.36a12.53,12.53,0,0,0-8.73,1.3,1.24,1.24,0,0,0,1.25,2.13A23.49,23.49,0,0,1,21,45.66a.16.16,0,0,0,0-.3Z"/></g><g id="_Group_15" data-name="&lt;Group&gt;"><path id="_Path_14" data-name="&lt;Path&gt;" class="cls-1" d="M20.84,48.73l-3.47.49c-1,.14-2.07.13-2.78.93a.78.78,0,0,0,.16,1.21,4,4,0,0,0,2.92-.2l3.56-1c.92-.27.51-1.52-.38-1.39Z"/></g><g id="_Group_16" data-name="&lt;Group&gt;"><path id="_Path_15" data-name="&lt;Path&gt;" class="cls-1" d="M28.43,54.44c-6.21-1.17-12.88-.72-19.17-.65-2.19,0-2.18,3.51,0,3.4,6.3-.33,13-.29,19.17-1.86a.47.47,0,0,0,0-.89Z"/></g><g id="_Group_17" data-name="&lt;Group&gt;"><path id="_Path_16" data-name="&lt;Path&gt;" class="cls-1" d="M23.19,60.11l-2.7-.26c-.91-.09-1.67-.31-2.38.39a1,1,0,0,0,0,1.38c.71.7,1.47.48,2.38.39l2.7-.26a.82.82,0,0,0,0-1.65Z"/></g><g id="_Group_18" data-name="&lt;Group&gt;"><path id="_Path_17" data-name="&lt;Path&gt;" class="cls-1" d="M26.12,64.39a14.32,14.32,0,0,1-3.52-.18,10,10,0,0,0-3.07-.49.89.89,0,0,0-.62,1.49c1.76,1.71,5.24,1.33,7.46,1,1-.16.79-1.88-.25-1.82Z"/></g><g id="_Group_19" data-name="&lt;Group&gt;"><path id="_Path_18" data-name="&lt;Path&gt;" class="cls-1" d="M15.85,33a10.54,10.54,0,0,0-3.51,1.3,39.54,39.54,0,0,0-3.89,2,1.29,1.29,0,0,0-.57,1.41,1,1,0,0,0,.32.55,1.29,1.29,0,0,0,1.51.19,37,37,0,0,0,3.61-1.92,10.87,10.87,0,0,0,3.11-2.11c.41-.49.2-1.47-.58-1.41Z"/></g><g id="_Group_20" data-name="&lt;Group&gt;"><path id="_Path_19" data-name="&lt;Path&gt;" class="cls-1" d="M8.54,22.11,7.19,23.69a.88.88,0,0,0,1.24,1.24L10,23.57c1-.87-.59-2.47-1.46-1.46Z"/></g><g id="_Group_21" data-name="&lt;Group&gt;"><path id="_Path_20" data-name="&lt;Path&gt;" class="cls-1" d="M34.7,7.27C33.31,14.88,32,22.55,31,30.21c-.87,6.49-3.55,15-1.89,21.49a1.25,1.25,0,0,0,2.26.3c3.2-5.64,2.73-14.15,3.34-20.48.77-8,1.08-16.07,1.13-24.1,0-.62-1-.79-1.11-.15Z"/></g><g id="_Group_22" data-name="&lt;Group&gt;"><path id="_Path_21" data-name="&lt;Path&gt;" class="cls-1" d="M37.12,69.14c11.16-1.66,17.71-17.7,17.82-27.5.07-6.79-2.2-13.35-5.5-19.22-2.87-5.12-7.67-13.5-13.16-16.06A1.2,1.2,0,0,0,34.54,7.7c1.53,5.11,6.64,9.22,9.58,13.63,3.48,5.23,6.28,11,7,17.31a29,29,0,0,1-3.49,17.14c-2.86,5.21-7.41,8.07-11,12.49a.52.52,0,0,0,.5.86Z"/></g><g id="_Group_23" data-name="&lt;Group&gt;"><path id="_Path_22" data-name="&lt;Path&gt;" class="cls-1" d="M35.17,3.58A67.86,67.86,0,0,1,49.52,37.44a64.48,64.48,0,0,1,.29,15.67c-.47,4-2,6.39-4.7,9.35A14.28,14.28,0,0,0,41.95,67c-.69,1.67,1.65,2.55,2.75,1.6,4.17-3.61,7.87-7.86,8.77-13.43a58.8,58.8,0,0,0-.21-18.23A69.18,69.18,0,0,0,36.55,2.2c-.85-1-2.15.42-1.38,1.38Z"/></g><g id="_Group_24" data-name="&lt;Group&gt;"><path id="_Path_23" data-name="&lt;Path&gt;" class="cls-1" d="M43.94,69.88c9.84-1.36,21.72-9.21,22.72-20,.11-1.19-1.67-1.59-2.21-.6-2.34,4.3-4,8.45-7.59,12a26.13,26.13,0,0,1-13.42,6.85c-1.19.23-.66,1.95.49,1.79Z"/></g><g id="_Group_25" data-name="&lt;Group&gt;"><path id="_Path_24" data-name="&lt;Path&gt;" class="cls-1" d="M69.33,43.07C75.13,21.16,55.13-.38,33.13,0,31,0,30.47,3.26,32.63,3.75c9.36,2.1,18,3.91,25.31,10.72a29.36,29.36,0,0,1,8.91,27.92,1.29,1.29,0,0,0,2.48.68Z"/></g><g id="_Group_26" data-name="&lt;Group&gt;"><path id="_Path_25" data-name="&lt;Path&gt;" class="cls-1" d="M34.74,25.06c.93,1.71,2.63,3,4,4.38,1.23,1.19,2.63,3.26,4.54,2.65a1.28,1.28,0,0,0,.91-1.19c.06-2-2.28-2.77-3.77-3.63C38.75,26.3,37,25,35.09,24.6a.31.31,0,0,0-.35.45Z"/></g><g id="_Group_27" data-name="&lt;Group&gt;"><path id="_Path_26" data-name="&lt;Path&gt;" class="cls-1" d="M43.08,35.91a24.56,24.56,0,0,0,3.24,3.36,2.06,2.06,0,0,0,2.82-2.82,24.55,24.55,0,0,0-3.36-3.24,1.91,1.91,0,0,0-2.7,2.7Z"/></g><g id="_Group_28" data-name="&lt;Group&gt;"><path id="_Path_27" data-name="&lt;Path&gt;" class="cls-1" d="M37.53,35.9a23.27,23.27,0,0,0,1.77,2.34c.84,1,2.22-.27,1.7-1.31a20.86,20.86,0,0,0-1.33-2.28A1.27,1.27,0,0,0,38,34.21a1.25,1.25,0,0,0-.44,1.69Z"/></g><g id="_Group_29" data-name="&lt;Group&gt;"><path id="_Path_28" data-name="&lt;Path&gt;" class="cls-1" d="M38.47,43.46l1,.88c.39.33.72.69,1.28.63a.91.91,0,0,0,.88-.88c.06-.56-.29-.88-.63-1.28l-.88-1c-1-1.16-2.84.68-1.68,1.68Z"/></g><g id="_Group_30" data-name="&lt;Group&gt;"><path id="_Path_29" data-name="&lt;Path&gt;" class="cls-1" d="M31.93,46c1.92,2.68,3.64,5.48,5.4,8.25,1.38,2.16,2.36,5.39,5,6.2a1.3,1.3,0,0,0,1.58-.9c.56-2.84-2-5.18-3.61-7.29a59.74,59.74,0,0,0-7-7.32c-.69-.64-2,.21-1.38,1.06Z"/></g><g id="_Group_31" data-name="&lt;Group&gt;"><path id="_Path_30" data-name="&lt;Path&gt;" class="cls-1" d="M31.62,64.5l.73,1.23a1.24,1.24,0,0,0,1.55.51,1.23,1.23,0,0,0,.72-1.47l-.55-1.31a1.34,1.34,0,1,0-2.45,1Z"/></g><g id="_Group_32" data-name="&lt;Group&gt;"><path id="_Path_31" data-name="&lt;Path&gt;" class="cls-1" d="M32.36,66.36a20.69,20.69,0,0,0,1,3.11c.36.84,1.81.42,1.73-.47a20.77,20.77,0,0,0-.62-3.22,1.08,1.08,0,0,0-2.09.58Z"/></g><g id="_Group_33" data-name="&lt;Group&gt;"><path id="_Path_32" data-name="&lt;Path&gt;" class="cls-1" d="M35.72,63.47a4,4,0,0,0,1.17,5.09c1.52,1.11,4.64,1,5.48-1a1.31,1.31,0,0,0-1.78-1.78c-.79.38-1.41,1.06-2.36.65a1.89,1.89,0,0,1-.91-2.32c.28-.94-1.15-1.57-1.6-.67Z"/></g><g id="_Group_34" data-name="&lt;Group&gt;"><path id="_Path_33" data-name="&lt;Path&gt;" class="cls-1" d="M55.31,50.44c-.31,1.37-1,3.18-.13,4.47a1.15,1.15,0,0,0,2,0c.87-1.29.18-3.1-.13-4.47a.88.88,0,0,0-1.69,0Z"/></g><g id="_Group_35" data-name="&lt;Group&gt;"><path id="_Path_34" data-name="&lt;Path&gt;" class="cls-1" d="M57.26,54c-.26,1-.82,2.37-.58,3.44a.88.88,0,0,0,1.46.39c.74-.8.91-2.22,1.2-3.25A1.08,1.08,0,0,0,57.26,54Z"/></g><g id="_Group_36" data-name="&lt;Group&gt;"><path id="_Path_35" data-name="&lt;Path&gt;" class="cls-1" d="M64.43,38.8l-.17-.15a1.61,1.61,0,0,0-1.57-.41l-.17.06a1.62,1.62,0,0,0-1.15,1.51,1.56,1.56,0,0,0,1.15,1.51l.17,0a1.72,1.72,0,0,0,1.82-.74l.13-.18a1.34,1.34,0,0,0-.21-1.62Z"/></g><g id="_Group_37" data-name="&lt;Group&gt;"><path id="_Path_36" data-name="&lt;Path&gt;" class="cls-1" d="M55.42,33.6a1.24,1.24,0,0,0,0-2.47,1.24,1.24,0,0,0,0,2.47Z"/></g><g id="_Group_38" data-name="&lt;Group&gt;"><path id="_Path_37" data-name="&lt;Path&gt;" class="cls-1" d="M57.76,28.56,57.14,28a1.19,1.19,0,0,0-1.68,1.68l.55.62c1.06,1.19,2.94-.68,1.75-1.75Z"/></g><g id="_Group_39" data-name="&lt;Group&gt;"><path id="_Path_38" data-name="&lt;Path&gt;" class="cls-1" d="M61.28,34.06a4.08,4.08,0,0,0-1.13.17,3.21,3.21,0,0,0-.84.56.72.72,0,0,0,0,1,3.22,3.22,0,0,0,.84.56,4.06,4.06,0,0,0,1.13.17c1.59.11,1.59-2.59,0-2.47Z"/></g><g id="_Group_40" data-name="&lt;Group&gt;"><path id="_Path_39" data-name="&lt;Path&gt;" class="cls-1" d="M60.55,59.4a.67.67,0,0,0,0-1.34.67.67,0,0,0,0,1.34Z"/></g><g id="_Group_41" data-name="&lt;Group&gt;"><path id="_Path_40" data-name="&lt;Path&gt;" class="cls-1" d="M30.88,254.15A56.73,56.73,0,0,1,68,242.41c7.15.35,14.26,2.32,21,4.61s13.13,6.54,20,8.49a.88.88,0,0,0,.85-1.46c-5.17-4.82-13.45-7.46-20.06-9.79-7.24-2.55-14.92-4.69-22.63-5a52.36,52.36,0,0,0-37,13.81c-.55.5.2,1.51.81,1.05Z"/></g><g id="_Group_42" data-name="&lt;Group&gt;"><path id="_Path_41" data-name="&lt;Path&gt;" class="cls-1" d="M29.83,252.77c2.92-2.45,4.67-6.47,7.11-9.41a59.25,59.25,0,0,1,7.18-7.28c7-6,15.4-10.26,24.71-11.12,16.73-1.55,32.49,9.3,35.45,26.15.2,1.15,2,.87,2-.27-.43-18.71-17.93-30.84-35.69-29.92a45.93,45.93,0,0,0-26.28,10.24C38.62,235.78,29.86,244.8,29,252.44c0,.44.52.56.79.33Z"/></g><g id="_Group_43" data-name="&lt;Group&gt;"><path id="_Path_42" data-name="&lt;Path&gt;" class="cls-1" d="M30.5,256.5c7-.29,14.66.86,21.5-.48.94-.18.82-1.54,0-1.79-6.7-2-14.94-.5-21.74.55-1,.15-.74,1.76.23,1.72Z"/></g><g id="_Group_44" data-name="&lt;Group&gt;"><path id="_Path_43" data-name="&lt;Path&gt;" class="cls-1" d="M102.65,251.41c-5.56.9-12.69,1.46-17.6,4.37a.78.78,0,0,0,.39,1.44c5.69.61,12.46-1.85,17.89-3.32,1.63-.44.92-2.74-.68-2.48Z"/></g><g id="_Group_45" data-name="&lt;Group&gt;"><path id="_Path_44" data-name="&lt;Path&gt;" class="cls-1" d="M60.55,255.26c8.46.12,17.21,1,25.64.55a1,1,0,0,0,0-2.06c-8.42-.48-17.17.31-25.64.38a.57.57,0,0,0,0,1.13Z"/></g><g id="_Group_46" data-name="&lt;Group&gt;"><path id="_Path_45" data-name="&lt;Path&gt;" class="cls-1" d="M66.14,253.59c.26-2.45,1.13-4.78,1.27-7.21.1-1.89.63-4-.89-5.35a1.21,1.21,0,0,0-1.68,0c-1.52,1.38-1,3.45-.89,5.35.13,2.43,1,4.77,1.27,7.21a.46.46,0,0,0,.93,0Z"/></g><g id="_Group_47" data-name="&lt;Group&gt;"><path id="_Path_46" data-name="&lt;Path&gt;" class="cls-1" d="M70,252.31a20.91,20.91,0,0,0,.44-3,5.09,5.09,0,0,0-.33-2.83.94.94,0,0,0-1.6,0,5.09,5.09,0,0,0-.33,2.83,20.94,20.94,0,0,0,.44,3,.73.73,0,0,0,1.39,0Z"/></g><g id="_Group_48" data-name="&lt;Group&gt;"><path id="_Path_47" data-name="&lt;Path&gt;" class="cls-1" d="M75.55,253.59l0-1.32a2.6,2.6,0,0,0-.37-1.32.88.88,0,0,0-1.51,0,2.64,2.64,0,0,0-.37,1.32l0,1.32a1.08,1.08,0,0,0,2.16,0Z"/></g><g id="_Group_49" data-name="&lt;Group&gt;"><path id="_Path_48" data-name="&lt;Path&gt;" class="cls-1" d="M80.56,245.79a17.35,17.35,0,0,0,.64-3.9c0-.71-1.1-1.12-1.44-.39a17.06,17.06,0,0,0-1,3.8c-.24,1.16,1.55,1.66,1.79.49Z"/></g><g id="_Group_50" data-name="&lt;Group&gt;"><path id="_Path_49" data-name="&lt;Path&gt;" class="cls-1" d="M84.26,253.12a16.89,16.89,0,0,0,.5-4.84.73.73,0,0,0-1.32-.17,15.92,15.92,0,0,0-1.07,4.5c-.23,1.24,1.7,1.75,1.89.52Z"/></g><g id="_Group_51" data-name="&lt;Group&gt;"><path id="_Path_50" data-name="&lt;Path&gt;" class="cls-1" d="M49.25,253.68c1.47-.67,1.39-2.33,1-3.67-.37-1.16-1.34-2.78-2.79-2.59a1,1,0,0,0-1,1,9.75,9.75,0,0,0,.85,2.42,3.92,3.92,0,0,1,.09,1.13,2.17,2.17,0,0,0,.53,1.38,1,1,0,0,0,1.34.35Z"/></g><g id="_Group_52" data-name="&lt;Group&gt;"><path id="_Path_51" data-name="&lt;Path&gt;" class="cls-1" d="M42.18,250.71l-1-.86c-.38-.31-.68-.64-1.21-.59a.8.8,0,0,0-.77.77c0,.53.28.82.61,1.19l.89,1c.93,1.06,2.6-.65,1.53-1.53Z"/></g><g id="_Group_53" data-name="&lt;Group&gt;"><path id="_Path_52" data-name="&lt;Path&gt;" class="cls-1" d="M46.85,253c-.4-.57-.81-1.51-1.54-1.66a.84.84,0,0,0-.93.38c-.34.75.06,1.46.3,2.19a1.18,1.18,0,1,0,2.17-.91Z"/></g><g id="_Group_54" data-name="&lt;Group&gt;"><path id="_Path_53" data-name="&lt;Path&gt;" class="cls-1" d="M10.47,223.26C26,233.83,46.65,224.88,59.86,215c13.53-10.08,27.05-24.74,31.82-41.29a1.14,1.14,0,0,0-2.07-.87C81.08,186.63,73.24,199.68,60.44,210a76.58,76.58,0,0,1-22.58,13.09c-9.31,3.24-17.91,2.57-27-.71-.52-.19-.77.57-.36.85Z"/></g><g id="_Group_55" data-name="&lt;Group&gt;"><path id="_Path_54" data-name="&lt;Path&gt;" class="cls-1" d="M9.54,217.87c13.61,7.22,29.27,1.27,40.14-8.21,7-6.07,12.5-13.55,18.17-20.79,2.61-3.34,5.26-6.65,7.94-9.94,1.82-2.24,3-5,5.54-6.58,2.94-1.83,6-1.57,9.28-1.45a.88.88,0,0,0,.23-1.72,12.26,12.26,0,0,0-7.88,1c-3.45,1.43-7.7,2.9-10.52,5.4-6,5.31-10.1,13-14.77,19.44C46.87,209.81,29.47,225.53,9.78,217.3c-.32-.14-.54.4-.24.56Z"/></g><g id="_Group_56" data-name="&lt;Group&gt;"><path id="_Path_55" data-name="&lt;Path&gt;" class="cls-1" d="M76.12,172.07C53.51,184.45,29.87,196,9.78,212.35c-2.36,1.92,1,5.27,3.35,3.35,9.74-8,20.46-14.5,31.29-20.84,11.18-6.54,22.12-13.5,33.15-20.29a1.44,1.44,0,0,0-1.46-2.49Z"/></g><g id="_Group_57" data-name="&lt;Group&gt;"><path id="_Path_56" data-name="&lt;Path&gt;" class="cls-1" d="M34.35,217.79c3.41-7.1,7.09-14.35,9.7-21.79.46-1.3-1.69-2.24-2.26-1-3.17,7.24-5.46,15-7.82,22.58-.07.22.27.37.38.16Z"/></g><g id="_Group_58" data-name="&lt;Group&gt;"><path id="_Path_57" data-name="&lt;Path&gt;" class="cls-1" d="M45.68,210.52c1.2-5,2.16-10.83.9-15.94-.43-1.76-3.42-1.44-3.24.44.49,5.21,1.54,10.05,1.13,15.34-.05.7,1.05.84,1.21.16Z"/></g><g id="_Group_59" data-name="&lt;Group&gt;"><path id="_Path_58" data-name="&lt;Path&gt;" class="cls-1" d="M54.35,199.69a12.58,12.58,0,0,0-2.26-4.32c-.84-1.16-1.8-2.82-3.36-2.86a1.1,1.1,0,0,0-1,.79c-.4,1.5,1,2.95,1.82,4.06A12.71,12.71,0,0,0,53,200.74a.94.94,0,0,0,1.36-1Z"/></g><g id="_Group_60" data-name="&lt;Group&gt;"><path id="_Path_59" data-name="&lt;Path&gt;" class="cls-1" d="M57.82,191.1a11.1,11.1,0,0,0-2.24-1.61,3.71,3.71,0,0,0-2.6-.61,1,1,0,0,0-.68,1.2c.25,1,1,1.4,1.79,2a11.17,11.17,0,0,0,2.48,1.2c1.17.49,2.22-1.37,1.25-2.15Z"/></g><g id="_Group_61" data-name="&lt;Group&gt;"><path id="_Path_60" data-name="&lt;Path&gt;" class="cls-1" d="M32.54,200.84A4.35,4.35,0,0,1,32,202.6a11,11,0,0,0-.82,1.68c-.28.74.63,1.2,1.21.93,1.6-.74,2.07-2.72,2-4.36a.93.93,0,0,0-1.85,0Z"/></g><g id="_Group_62" data-name="&lt;Group&gt;"><path id="_Path_61" data-name="&lt;Path&gt;" class="cls-1" d="M29.15,209.28a3,3,0,0,0-.45,2.17,1.21,1.21,0,0,0,1.46.83c.9-.24,1.27-1.12,1.72-1.85a1.49,1.49,0,1,0-2.73-1.15Z"/></g><g id="_Group_63" data-name="&lt;Group&gt;"><path id="_Path_62" data-name="&lt;Path&gt;" class="cls-1" d="M22.1,205.68a52.66,52.66,0,0,0-5,5.63c-1.17,1.61-3.65,3.87-2.76,6a1.58,1.58,0,0,0,1.44,1.1c2.34.12,3.4-2.62,4.53-4.3A51.77,51.77,0,0,0,24,207.18c.57-1.21-.91-2.56-1.94-1.5Z"/></g><g id="_Group_64" data-name="&lt;Group&gt;"><path id="_Path_63" data-name="&lt;Path&gt;" class="cls-1" d="M17.56,216.23l0,.55a1.2,1.2,0,0,0,2.39,0l0-.55c.12-1.59-2.59-1.59-2.47,0Z"/></g><g id="_Group_65" data-name="&lt;Group&gt;"><path id="_Path_64" data-name="&lt;Path&gt;" class="cls-1" d="M95.71,178l1.21-.08a3.89,3.89,0,0,0,1.24-.31.94.94,0,0,0,0-1.79,3.87,3.87,0,0,0-1.24-.31l-1.21-.08c-1.66-.11-1.66,2.69,0,2.58Z"/></g><g id="_Group_66" data-name="&lt;Group&gt;"><path id="_Path_65" data-name="&lt;Path&gt;" class="cls-1" d="M84.72,191.26c1.58.18,3.85.81,5.36.17a.89.89,0,0,0,0-1.69c-1.51-.63-3.79,0-5.36.17a.67.67,0,0,0,0,1.34Z"/></g><g id="_Group_67" data-name="&lt;Group&gt;"><path id="_Path_66" data-name="&lt;Path&gt;" class="cls-1" d="M76.69,60.13c-2.74-1.12-4.91-1.45-7.6.27a11.37,11.37,0,0,0-4.28,5.83c-1.72,4.76-2.33,13.1,3.53,15.28.59.22,1-.51.76-1A18.66,18.66,0,0,1,67.8,68.12c1-4.58,4.41-7,8.89-7.69.17,0,.12-.25,0-.3Z"/></g><g id="_Group_68" data-name="&lt;Group&gt;"><path id="_Path_67" data-name="&lt;Path&gt;" class="cls-1" d="M73.23,84.59A22.06,22.06,0,0,0,85,87.79c4.76-.18,9.61-4.48,14.19-3.55,1.6.33,2.88-2,1.19-2.82-2.83-1.3-5-.63-7.81.57-6.07,2.58-12,3.53-18.2.73-1.24-.56-2.33,1.16-1.09,1.87Z"/></g><g id="_Group_69" data-name="&lt;Group&gt;"><path id="_Path_68" data-name="&lt;Path&gt;" class="cls-1" d="M69.17,58.75a149.12,149.12,0,0,1,23.21,4.94c4.67,1.48,8.43,2.87,8.4,8.38,0,3.75-1.38,6.38-2.14,9.9a.78.78,0,0,0,1.13.87c4.6-2.68,6.82-15.7,2.55-19.27-3.48-2.91-10.43-4.06-14.74-5a70.12,70.12,0,0,0-18.18-1.68c-1,.05-1.34,1.66-.25,1.82Z"/></g><g id="_Group_70" data-name="&lt;Group&gt;"><path id="_Path_69" data-name="&lt;Path&gt;" class="cls-1" d="M72,78.42a10.27,10.27,0,0,0,5.12,4.14c2,.66,5,1.11,6.76-.17A1.3,1.3,0,0,0,83.2,80c-1.77-.11-3.29.5-5.1,0a9.66,9.66,0,0,1-4.75-2.66c-.68-.7-1.94.22-1.38,1.06Z"/></g><g id="_Group_71" data-name="&lt;Group&gt;"><path id="_Path_70" data-name="&lt;Path&gt;" class="cls-1" d="M87.24,82.94a4.86,4.86,0,0,0,4.33-1,1.55,1.55,0,0,0-1.87-2.43,2.74,2.74,0,0,1-.6.36c.2-.08-.32.07-.29.06.2,0-.27,0-.28,0q-.3,0-.1,0l-.34-.09a1.6,1.6,0,0,0-.85,3.08Z"/></g><g id="_Group_72" data-name="&lt;Group&gt;"><path id="_Path_71" data-name="&lt;Path&gt;" class="cls-1" d="M96,79l-.15-.69a.88.88,0,0,0-1.69,0L94,79a1,1,0,1,0,2,0Z"/></g><g id="_Group_73" data-name="&lt;Group&gt;"><path id="_Path_72" data-name="&lt;Path&gt;" class="cls-1" d="M93.78,69.25l.69-.15a.88.88,0,0,0,0-1.69l-.69-.15a1,1,0,1,0,0,2Z"/></g><g id="_Group_74" data-name="&lt;Group&gt;"><path id="_Path_73" data-name="&lt;Path&gt;" class="cls-1" d="M102,63.41c2-1,3.74-2.45,5.77-3.46,1.18-.59,5.36-2.72,6.56-1.62A1.85,1.85,0,0,0,117.45,57c.29-4.13-5.2-3.1-7.42-2.25-3.63,1.4-7.67,3.62-9.53,7.15A1.09,1.09,0,0,0,102,63.41Z"/></g><g id="_Group_75" data-name="&lt;Group&gt;"><path id="_Path_74" data-name="&lt;Path&gt;" class="cls-1" d="M85.64,58.19c2.76,1.83,8.18,2,10.77-.18.71-.6.07-1.6-.69-1.67-1.58-.15-3.18.33-4.77.34s-3.16-.43-4.76-.51c-1.14-.06-1.38,1.46-.55,2Z"/></g><g id="_Group_76" data-name="&lt;Group&gt;"><path id="_Path_75" data-name="&lt;Path&gt;" class="cls-1" d="M55.51,66.06C58,66,60.45,65.42,63,65.34c2.07-.06,4.27.68,5.87-.87a1.38,1.38,0,0,0,0-1.89c-1.5-1.92-4.63-1.12-6.76-.85a17.14,17.14,0,0,0-7.18,2.13,1.19,1.19,0,0,0,.6,2.21Z"/></g><g id="_Group_77" data-name="&lt;Group&gt;"><path id="_Path_76" data-name="&lt;Path&gt;" class="cls-1" d="M47,65.45c-2.24-1.26-6.55-1.7-7.56,1.32a.78.78,0,0,0,.74,1A11.19,11.19,0,0,0,43,67a7.7,7.7,0,0,1,3.38-.16.78.78,0,0,0,.6-1.41Z"/></g><g id="_Group_78" data-name="&lt;Group&gt;"><path id="_Path_77" data-name="&lt;Path&gt;" class="cls-1" d="M21.44,77.57c-4.85,5-8.27,11.72-2.94,17.69,4.67,5.23,14.9,10.91,22,8.86,1.38-.4,1.65-2.85,0-3.08a39,39,0,0,1-16-5.59c-2.77-1.73-5.55-4.1-5.77-7.65-.21-3.31,2.11-6.72,3.69-9.48a.62.62,0,0,0-1-.75Z"/></g><g id="_Group_79" data-name="&lt;Group&gt;"><path id="_Path_78" data-name="&lt;Path&gt;" class="cls-1" d="M39.65,73.63c2.76,6,5.31,13.25,9.43,18.51,3,3.78,7.31,4.41,11.83,4.67,7.27.41,21.36-2.56,20.53-12.45-.08-1-1.56-1.33-1.82-.25-1.61,6.65-6.08,9.29-12.78,8.82-3-.21-5.94-.09-8.88-.51-5.2-.74-7.41-4.94-9.81-9.11-2.11-3.67-4.36-7.22-6.64-10.78a1.08,1.08,0,0,0-1.87,1.09Z"/></g><g id="_Group_80" data-name="&lt;Group&gt;"><path id="_Path_79" data-name="&lt;Path&gt;" class="cls-1" d="M50.41,73.23c2.12-.56,3.85-2,6.09-2.43,2-.4,4.29.34,6.15-.52a1.14,1.14,0,0,0,.23-1.78c-3.05-2.61-11.5.41-13.22,3.75a.68.68,0,0,0,.76,1Z"/></g><g id="_Group_81" data-name="&lt;Group&gt;"><path id="_Path_80" data-name="&lt;Path&gt;" class="cls-1" d="M48.5,72.36A6.1,6.1,0,0,0,49,76.8a1.32,1.32,0,0,0,1.15.66h.13a1.11,1.11,0,0,0,1-.56,1.65,1.65,0,0,0,.18-1.13,9.27,9.27,0,0,0-.52-1,3.41,3.41,0,0,1-.22-1.8c.22-1.41-1.79-2-2.19-.6Z"/></g><g id="_Group_82" data-name="&lt;Group&gt;"><path id="_Path_81" data-name="&lt;Path&gt;" class="cls-1" d="M50.28,82.92c.81.93,1.83,2.54,3.23,2.3a.89.89,0,0,0,.65-.65,1.36,1.36,0,0,0-.16-1,5,5,0,0,0-.68-.89c-.47-.46-1-.85-1.51-1.27a1.08,1.08,0,0,0-1.53,1.53Z"/></g><g id="_Group_83" data-name="&lt;Group&gt;"><path id="_Path_82" data-name="&lt;Path&gt;" class="cls-1" d="M60.55,88.6a18.37,18.37,0,0,0,4.57.08.67.67,0,0,0,0-1.29,18.35,18.35,0,0,0-4.57.08.57.57,0,0,0,0,1.13Z"/></g><g id="_Group_84" data-name="&lt;Group&gt;"><path id="_Path_83" data-name="&lt;Path&gt;" class="cls-1" d="M41.19,101.53c4.62-1.53,8.34-5.78,11.48-9.35A1.85,1.85,0,0,0,53,90a1.77,1.77,0,0,0-1.07-.83,1.74,1.74,0,0,0-1.75.46,60.62,60.62,0,0,1-5,5.67,38.13,38.13,0,0,0-4.78,5.09.78.78,0,0,0,.87,1.13Z"/></g><g id="_Group_85" data-name="&lt;Group&gt;"><path id="_Path_84" data-name="&lt;Path&gt;" class="cls-1" d="M28.11,82.47c.28-.36.62-.64.92-1a11.45,11.45,0,0,1,.89-1A7.45,7.45,0,0,1,31,79.77a2.4,2.4,0,0,0,.83-1,.68.68,0,0,0-.4-1,1.94,1.94,0,0,0-1.7.24,7.22,7.22,0,0,0-1.31,1.11,4.65,4.65,0,0,0-1.33,3c-.05.63.75.68,1.06.29Z"/></g><g id="_Group_86" data-name="&lt;Group&gt;"><path id="_Path_85" data-name="&lt;Path&gt;" class="cls-1" d="M28.32,86.34c.7-.05,1.69.06,2.16-.54a1,1,0,0,0,0-1.38c-.47-.61-1.46-.49-2.16-.54-1.59-.12-1.59,2.59,0,2.47Z"/></g><g id="_Group_87" data-name="&lt;Group&gt;"><path id="_Path_86" data-name="&lt;Path&gt;" class="cls-1" d="M41.16,87.37a16.33,16.33,0,0,1-1.24,6.09c-.82,1.81-2.64,3-3.2,4.87a1.76,1.76,0,0,0,1.69,2.22c2.86-.19,4.56-3.27,5.36-5.75a8.82,8.82,0,0,0-1-7.87.88.88,0,0,0-1.63.44Z"/></g><g id="_Group_88" data-name="&lt;Group&gt;"><path id="_Path_87" data-name="&lt;Path&gt;" class="cls-1" d="M35.64,99.88l-.55,0a1.3,1.3,0,0,0,0,2.6l.55,0c1.72.12,1.73-2.8,0-2.68Z"/></g><g id="_Group_89" data-name="&lt;Group&gt;"><path id="_Path_88" data-name="&lt;Path&gt;" class="cls-1" d="M43.92,99.25l-.66.81a.62.62,0,0,0,.87.87l.81-.66c.72-.59-.43-1.74-1-1Z"/></g><g id="_Group_90" data-name="&lt;Group&gt;"><path id="_Path_89" data-name="&lt;Path&gt;" class="cls-1" d="M38.72,101.2a19.86,19.86,0,0,0,2,10.15c1,1.84,3.57,6.47,6.24,5.42s-.06-3.86-1.06-5a22.25,22.25,0,0,1-5.15-10.83c-.2-1.19-2-.83-2,.27Z"/></g><g id="_Group_91" data-name="&lt;Group&gt;"><path id="_Path_90" data-name="&lt;Path&gt;" class="cls-1" d="M50.39,117.15c4.3,5.38,12,4.61,18.13,4,6.35-.59,14.33-1.15,18.57-6.54a1,1,0,0,0-1-1.72c-11.88,2.84-22.39,4.85-34.55,2.26a1.2,1.2,0,0,0-1.15,2Z"/></g><g id="_Group_92" data-name="&lt;Group&gt;"><path id="_Path_91" data-name="&lt;Path&gt;" class="cls-1" d="M89.34,109.29c.33-3.87,2.6-27.64-6.5-25a1.3,1.3,0,0,0-.57,2.15c1.23,1.42,2.48,2.25,3.16,4.13a25.07,25.07,0,0,1,.94,6,89.3,89.3,0,0,1,.28,12.75c-.08,1.74,2.53,1.7,2.68,0Z"/></g><g id="_Group_93" data-name="&lt;Group&gt;"><path id="_Path_92" data-name="&lt;Path&gt;" class="cls-1" d="M53.69,106.56c2.33,2.92,5.95,4.27,9.59,4.8,2.67.39,7,.68,8.55-2a1.09,1.09,0,0,0-.39-1.48c-2.37-1.1-5.14.24-7.71.2-3.38-.06-6.33-1.37-9.43-2.53-.64-.24-.94.61-.6,1Z"/></g><g id="_Group_94" data-name="&lt;Group&gt;"><path id="_Path_93" data-name="&lt;Path&gt;" class="cls-1" d="M78.52,110a3.38,3.38,0,0,0,2.3-2c.49-1.15.64-2.5-.59-3.24l.45.45L80.6,105a1.19,1.19,0,0,0-2,0l-.06.13.45-.45a2,2,0,0,0-.9,1,3.38,3.38,0,0,0-.17.53l-.06.16q.07-.17,0,0l-.18.29c-.09.14.09-.1-.1.12a3.83,3.83,0,0,0-.35.5s-.25.37-.13.22a1.55,1.55,0,0,0-.23,1.81,1.52,1.52,0,0,0,1.69.69Z"/></g><g id="_Group_95" data-name="&lt;Group&gt;"><path id="_Path_94" data-name="&lt;Path&gt;" class="cls-1" d="M49.57,100.65A7.49,7.49,0,0,0,53,99.93c1-.45,2.23-1,2.52-2.16a.88.88,0,0,0-.84-1.11c-1,0-1.67.71-2.52,1.17a24,24,0,0,1-2.8,1.2.83.83,0,0,0,.22,1.62Z"/></g><g id="_Group_96" data-name="&lt;Group&gt;"><path id="_Path_95" data-name="&lt;Path&gt;" class="cls-1" d="M50.38,102.76l2-1.65c.84-.69-.23-1.93-1.12-1.46l-2.33,1.24a1.18,1.18,0,1,0,1.44,1.86Z"/></g><g id="_Group_97" data-name="&lt;Group&gt;"><path id="_Path_96" data-name="&lt;Path&gt;" class="cls-1" d="M89.55,97.09c3.39,1.25,7.25.92,10.79.55,2.68-.28,5.82-.13,7.42-2.54a1.1,1.1,0,0,0-.39-1.48c-2.35-1.63-5.69-.28-8.34,0-3.16.33-6.45.29-9.48,1.29a1.14,1.14,0,0,0,0,2.19Z"/></g><g id="_Group_98" data-name="&lt;Group&gt;"><path id="_Path_97" data-name="&lt;Path&gt;" class="cls-1" d="M99.15,80.5c1.53,3.6,5.8,6.54,9.13,8.35,2.75,1.49,5.21-2.79,2.44-4.17-1.72-.86-3.46-1.77-5.11-2.76a42.44,42.44,0,0,0-4.84-3,1.2,1.2,0,0,0-1.62,1.62Z"/></g><g id="_Group_99" data-name="&lt;Group&gt;"><path id="_Path_98" data-name="&lt;Path&gt;" class="cls-1" d="M111.8,75.11c2.69-.25,5.16-1.82,5.46-4.67a1.09,1.09,0,0,0-1.85-.76c-1.08,1.29-2.24,2.72-3.91,3.21-1.18.35-1,2.35.3,2.23Z"/></g><g id="_Group_100" data-name="&lt;Group&gt;"><path id="_Path_99" data-name="&lt;Path&gt;" class="cls-1" d="M120.61,63.31a1.65,1.65,0,0,0,0-3.3,1.65,1.65,0,0,0,0,3.3Z"/></g><g id="_Group_101" data-name="&lt;Group&gt;"><path id="_Path_100" data-name="&lt;Path&gt;" class="cls-1" d="M34.4,109.66a8,8,0,0,1-1.92,3.66c-.87.92-2.35,1.61-2.87,2.79a1.1,1.1,0,0,0,.65,1.59c1.78.47,3.48-1.1,4.5-2.38a10.62,10.62,0,0,0,2.23-5c.27-1.66-2.17-2.42-2.58-.71Z"/></g><g id="_Group_102" data-name="&lt;Group&gt;"><path id="_Path_101" data-name="&lt;Path&gt;" class="cls-1" d="M36,121.08c-4.56,2.23-5,8.73-1.29,12,1.7,1.49,4.2-1.06,2.47-2.47a5.06,5.06,0,0,1,.18-7.72c1.07-.83-.29-2.31-1.37-1.78Z"/></g><g id="_Group_103" data-name="&lt;Group&gt;"><path id="_Path_102" data-name="&lt;Path&gt;" class="cls-1" d="M38.34,121.54c-.5.47-1,.93-1.46,1.42a1.57,1.57,0,0,0,.31,2.44c1.41.77,2.46,2.51,1.55,4.06-.74,1.26-2.09,1.52-2.65,3a1.66,1.66,0,0,0,.76,1.86c3,1.88,5.9-2.28,6.24-4.86a6.27,6.27,0,0,0-4.7-6.87l.93,2.28c.34-.59.65-1.2,1-1.8a1.24,1.24,0,0,0-1.94-1.5Z"/></g><g id="_Group_104" data-name="&lt;Group&gt;"><path id="_Path_103" data-name="&lt;Path&gt;" class="cls-1" d="M88.07,125.79a3.34,3.34,0,0,0-2.29,2,2.85,2.85,0,0,0,.66,2.91,2.71,2.71,0,0,0,3.08.55,2.31,2.31,0,0,0,1.29-2.12,1.7,1.7,0,0,0-3.17-.86,1.3,1.3,0,0,1,1.08-.6c1.18,0-.71.12-.28,0-.23.09.35.12.11,0q.41.2.22.1t.18.15c.16.15.19.37.31.53v.13a2.38,2.38,0,0,0,.11-.64,2.45,2.45,0,0,0,0-.3s.07-.36.1-.48c.17-.75-.54-1.74-1.39-1.39Z"/></g><g id="_Group_105" data-name="&lt;Group&gt;"><path id="_Path_104" data-name="&lt;Path&gt;" class="cls-1" d="M85.86,135.89a3.33,3.33,0,0,0-.14,1.9,7,7,0,0,0,.62,1.33,1.54,1.54,0,0,0,2.63,0,6.91,6.91,0,0,0,.62-1.33,3.3,3.3,0,0,0-.14-1.9,1.87,1.87,0,0,0-3.58,0Z"/></g><g id="_Group_106" data-name="&lt;Group&gt;"><path id="_Path_105" data-name="&lt;Path&gt;" class="cls-1" d="M79.82,148.33l-.51.66a1.65,1.65,0,0,0,2.33,2.33l.66-.51a1.75,1.75,0,0,0-2.48-2.48Z"/></g><g id="_Group_107" data-name="&lt;Group&gt;"><path id="_Path_106" data-name="&lt;Path&gt;" class="cls-1" d="M29.5,145.05c-.73,12.59-3.11,24.6-5.71,36.89-1.16,5.48-2.46,10.94-3.67,16.41s-3.47,11.48-3.35,17.16c0,2.19,3.24,3.3,4.32,1.17,2.56-5,3.18-11.36,4.35-16.87,1.31-6.19,2.36-12.43,3.27-18.69a244.27,244.27,0,0,0,2.23-36.07.72.72,0,0,0-1.44,0Z"/></g><g id="_Group_108" data-name="&lt;Group&gt;"><path id="_Path_107" data-name="&lt;Path&gt;" class="cls-1" d="M16.51,235.25a50.25,50.25,0,0,0,9.76,29.82c4.83,6.64,14.37,17.67,23.37,17.76a1.62,1.62,0,0,0,1.13-2.73c-2.7-3.19-7.13-4.85-10.42-7.43a54.92,54.92,0,0,1-10.81-11.35A63.93,63.93,0,0,1,18.74,235c-.22-1.28-2.22-.95-2.23.3Z"/></g><g id="_Group_109" data-name="&lt;Group&gt;"><path id="_Path_108" data-name="&lt;Path&gt;" class="cls-1" d="M104.41,184.34c3.63-9.29,1.41-21.12.43-30.75-.49-4.84-.36-9.6-1.42-14.35-1.19-5.32.19-11.51-1.7-16.47-.29-.75-1.45-1.11-1.88-.25-2.06,4.12-.74,8.68-.89,13.16-.09,2.88-.63,5.54-.41,8.43s.91,5.6,1.28,8.42c.75,5.58,1.23,11.22,1.65,16.84.37,5,.13,10.09,1.15,15,.21,1,1.49.77,1.79,0Z"/></g><g id="_Group_110" data-name="&lt;Group&gt;"><path id="_Path_109" data-name="&lt;Path&gt;" class="cls-1" d="M101.37,119.53c-.14-5.08,4.2-11.09,1-16a1.16,1.16,0,0,0-1.55-.41c-2.68,1.45-3.19,4.16-3.47,7-.35,3.59,1.16,6.3,1.71,9.74.21,1.33,2.36,1,2.33-.31Z"/></g><g id="_Group_111" data-name="&lt;Group&gt;"><path id="_Path_110" data-name="&lt;Path&gt;" class="cls-1" d="M103.24,101.67a150.73,150.73,0,0,0,6.09-26.23c1.12-7.66,3.32-15.23.19-22.68-1.25-3-6.2-1.74-5,1.37,5.76,14.58-.66,32.34-5.58,46.37-.94,2.69,3.37,3.88,4.27,1.18Z"/></g><g id="_Group_112" data-name="&lt;Group&gt;"><path id="_Path_111" data-name="&lt;Path&gt;" class="cls-1" d="M106.69,53.83c-2-1.54-6.05-4.26-8.63-2.66a1.15,1.15,0,0,0-.23,1.78c.8.94,2.34,1.27,3.49,1.6a16,16,0,0,1,3.91,1.77c1.63,1,2.88-1.39,1.46-2.49Z"/></g><g id="_Group_113" data-name="&lt;Group&gt;"><path id="_Path_112" data-name="&lt;Path&gt;" class="cls-1" d="M99.8,46.66a12.8,12.8,0,0,0-2.75.5,1.31,1.31,0,0,0-.92,1.21,1.25,1.25,0,0,0,1.25,1.25,13.68,13.68,0,0,0,3-1,1,1,0,0,0-.55-2Z"/></g><g id="_Group_114" data-name="&lt;Group&gt;"><path id="_Path_113" data-name="&lt;Path&gt;" class="cls-1" d="M106.33,191.81a19.28,19.28,0,0,0,0,5,11.52,11.52,0,0,0,.84,4.57,1,1,0,0,0,1.88-.25,11.64,11.64,0,0,0-.06-4.66,18.34,18.34,0,0,0-.81-4.65c-.31-.8-1.7-1-1.89,0Z"/></g><g id="_Group_115" data-name="&lt;Group&gt;"><path id="_Path_114" data-name="&lt;Path&gt;" class="cls-1" d="M108.53,215.8a6.9,6.9,0,0,1-.28,3.93c-.21.66.74,1.26,1.21.7a6.14,6.14,0,0,0,1.16-5.21c-.24-1.35-2.45-.79-2.09.58Z"/></g><g id="_Group_116" data-name="&lt;Group&gt;"><path id="_Path_115" data-name="&lt;Path&gt;" class="cls-1" d="M59,280.77c7.73,4.6,20.22,5.89,27.58-.23a1.3,1.3,0,0,0-1.25-2.15c-4.14,1.49-7.68,3.58-12.16,4.07a31.11,31.11,0,0,1-14.05-2c-.17-.06-.27.2-.12.28Z"/></g><g id="_Group_117" data-name="&lt;Group&gt;"><path id="_Path_116" data-name="&lt;Path&gt;" class="cls-1" d="M40.77,261.7a.05.05,0,0,0,0-.11.05.05,0,0,0,0,.11Z"/></g><g id="_Group_118" data-name="&lt;Group&gt;"><path id="_Path_117" data-name="&lt;Path&gt;" class="cls-1" d="M66.5,260c-.92,2.24-2.28,4.53-1.38,7A2.55,2.55,0,0,0,70,265.69c-.44-1.93-2-3.48-2.11-5.5A.72.72,0,0,0,66.5,260Z"/></g><g id="_Group_119" data-name="&lt;Group&gt;"><path id="_Path_118" data-name="&lt;Path&gt;" class="cls-1" d="M73.42,271.78c.14.31.27.63.42.94a2.11,2.11,0,0,0,.85.86,1.15,1.15,0,0,0,1.7-1,3.68,3.68,0,0,0-.76-2.11,1.29,1.29,0,1,0-2.22,1.3Z"/></g><g id="_Group_120" data-name="&lt;Group&gt;"><path id="_Path_119" data-name="&lt;Path&gt;" class="cls-1" d="M86.2,192.76a37.12,37.12,0,0,1,.05,4.17,23.9,23.9,0,0,0-.49,4c.2,3.24,4.9,2.7,4.45-.6-.2-1.44-.91-2.44-1.27-3.82s-.49-2.66-.72-4c-.2-1.15-2-.87-2,.27Z"/></g><g id="_Group_121" data-name="&lt;Group&gt;"><path id="_Path_120" data-name="&lt;Path&gt;" class="cls-1" d="M89.12,209.87a1.7,1.7,0,0,0,0-3.4,1.7,1.7,0,0,0,0,3.4Z"/></g><g id="_Group_122" data-name="&lt;Group&gt;"><path id="_Path_121" data-name="&lt;Path&gt;" class="cls-1" d="M65.29,214.85a7.15,7.15,0,0,0-.74,1.83c-.12.63-.19,1.26-.29,1.89a2.22,2.22,0,1,0,4.27,0c-.1-.63-.17-1.27-.29-1.89a7.17,7.17,0,0,0-.74-1.83,1.3,1.3,0,0,0-2.22,0Z"/></g><g id="_Group_123" data-name="&lt;Group&gt;"><path id="_Path_122" data-name="&lt;Path&gt;" class="cls-1" d="M39.68,229.71l.25.66a.88.88,0,0,0,1.69,0l.25-.66a1.13,1.13,0,1,0-2.19,0Z"/></g><g id="_Group_124" data-name="&lt;Group&gt;"><path id="_Path_123" data-name="&lt;Path&gt;" class="cls-1" d="M51.22,149.26c-.95,2.08-2.48,4-2.17,6.4a2.71,2.71,0,0,0,5.42,0c.31-2.44-1.23-4.31-2.17-6.4a.62.62,0,0,0-1.07,0Z"/></g><g id="_Group_125" data-name="&lt;Group&gt;"><path id="_Path_124" data-name="&lt;Path&gt;" class="cls-1" d="M49.82,171.77a2.91,2.91,0,0,0,1.4-2.15,2,2,0,0,0-1.35-2.27,1.37,1.37,0,0,0-1.51.62c.37-.62-.38.76-.34.74s.12-.27.17-.33a1,1,0,0,1,.65-.25,2,2,0,1,0,1,3.65Z"/></g><g id="_Group_126" data-name="&lt;Group&gt;"><path id="_Path_125" data-name="&lt;Path&gt;" class="cls-1" d="M54.08,121.73a11.09,11.09,0,0,0,.25,4,1.15,1.15,0,0,0,2.19,0,11.07,11.07,0,0,0,.25-4,1.34,1.34,0,0,0-2.68,0Z"/></g><g id="_Group_127" data-name="&lt;Group&gt;"><path id="_Path_126" data-name="&lt;Path&gt;" class="cls-1" d="M71,94.63l0,1.43a1.74,1.74,0,0,0,.58,1.39.89.89,0,0,0,1.24,0,1.79,1.79,0,0,0,.58-1.39l0-1.43a1.24,1.24,0,0,0-2.47,0Z"/></g><g id="_Group_128" data-name="&lt;Group&gt;"><path id="_Path_127" data-name="&lt;Path&gt;" class="cls-1" d="M35.42,175.1c-.74,3.95-1.79,7.83-2.89,11.69-.85,3-2.45,5.76-1.14,8.75.35.81,1.39.68,1.94.25,2.47-1.94,2.25-5.63,2.54-8.54.41-4,.43-8,.45-12,0-.51-.81-.65-.91-.12Z"/></g><g id="_Group_129" data-name="&lt;Group&gt;"><path id="_Path_128" data-name="&lt;Path&gt;" class="cls-1" d="M30.44,200.84a13.91,13.91,0,0,0,.2,3.44c.25,1,.91,2.29,2.07,2.29s1.77-1.21,2-2.13a13,13,0,0,0,.22-3.61c0-2.92-4.53-2.92-4.53,0Z"/></g><g id="_Group_130" data-name="&lt;Group&gt;"><path id="_Path_129" data-name="&lt;Path&gt;" class="cls-1" d="M30,237.72a5.77,5.77,0,0,0-2,3.23,3.83,3.83,0,0,0,1.28,4.33,2.23,2.23,0,0,0,2.69-.35,4.22,4.22,0,0,0,.94-3.32c0-.91,0-1.78,0-2.69a1.72,1.72,0,0,0-2.9-1.2Z"/></g><g id="_Group_131" data-name="&lt;Group&gt;"><path id="_Path_130" data-name="&lt;Path&gt;" class="cls-1" d="M117.41,232.79c-.74,2.29-2.42,5.59-1.75,8a1.46,1.46,0,0,0,2.64.34,7.56,7.56,0,0,0,1-3.83c.13-1.41.19-2.82.28-4.23s-1.76-1.41-2.12-.29Z"/></g><g id="_Group_132" data-name="&lt;Group&gt;"><path id="_Path_131" data-name="&lt;Path&gt;" class="cls-1" d="M50,290.81c3.15,5.81-1.16,12-3.53,17.23-1.65,3.64-2.36,6.86-1.5,10.84,1,4.45,3.6,8.22,4.88,12.54,1.81,6.13-1.29,9.93-3.64,15.19a1.31,1.31,0,0,0,1.45,1.89c11.14-2.49,8.84-17.34,5.14-24.77-1.54-3.1-3.46-6-3.63-9.59-.2-4.2,1.91-7.63,3.36-11.41,1.68-4.4,2.08-9-.66-13A1.08,1.08,0,0,0,50,290.81Z"/></g><g id="_Group_133" data-name="&lt;Group&gt;"><path id="_Path_132" data-name="&lt;Path&gt;" class="cls-1" d="M51.84,316.73c.29,4.25,2.23,8.06,3.84,11.95a3,3,0,0,0,3.55,2,2.56,2.56,0,0,0,1.27-.74,2.92,2.92,0,0,0,.45-3.49c-2.14-3.66-4-7.65-7.26-10.49-.65-.57-1.91-.24-1.85.76Z"/></g><g id="_Group_134" data-name="&lt;Group&gt;"><path id="_Path_133" data-name="&lt;Path&gt;" class="cls-1" d="M78,318a8.29,8.29,0,0,0-1.79,1.43,12,12,0,0,0-1.61,3A11.25,11.25,0,0,0,74,329c.9,3.07,5.29,2.37,5.46-.74.09-1.66-.24-3.29-.11-5,.06-.84.18-1.63.32-2.46.1-.62-.06-1.32,0-1.88A1,1,0,0,0,78,318Z"/></g><g id="_Group_135" data-name="&lt;Group&gt;"><path id="_Path_134" data-name="&lt;Path&gt;" class="cls-1" d="M80.67,295c-5.21,9.49,4.13,18.77-.28,28.48-1.91,4.21-4,7.87-3.31,12.65.71,5.05,3.7,10.66,6.26,15,1.28,2.16,4.26.65,3.86-1.63-.88-5-4.74-8.94-5.36-14-.68-5.6,3.55-9.69,4.49-15,1.57-8.86-6.58-16.5-4.81-25.15.1-.49-.58-.84-.85-.36Z"/></g><g id="_Group_136" data-name="&lt;Group&gt;"><path id="_Path_135" data-name="&lt;Path&gt;" class="cls-1" d="M56.51,341.38c2.48,1.58,4.61,2.91,7.56,3.38a16.57,16.57,0,0,0,8.18-.7c3-1,1.72-5.78-1.31-4.77-4.19,1.39-9.53,2-13.71.4-1-.4-1.56,1.15-.71,1.69Z"/></g><g id="_Group_137" data-name="&lt;Group&gt;"><path id="_Path_136" data-name="&lt;Path&gt;" class="cls-1" d="M63.79,351.46c1.3-.19,3.12-.14,4.13-1a1.09,1.09,0,0,0-.48-1.81,3.57,3.57,0,0,0-2.16.2l-2.07.57c-1.38.38-.77,2.28.58,2.09Z"/></g><g id="_Group_138" data-name="&lt;Group&gt;"><path id="_Path_137" data-name="&lt;Path&gt;" class="cls-1" d="M51.78,352.18a6.64,6.64,0,0,0,3.89.62c1.29-.16,3-.64,3.09-2.22.07-1.27-1.54-1.64-2.52-1.44a16.77,16.77,0,0,1-3.73.36c-1.37,0-2.05,2.06-.73,2.69Z"/></g><g id="_Group_139" data-name="&lt;Group&gt;"><path id="_Path_138" data-name="&lt;Path&gt;" class="cls-1" d="M57,305.11c1.31-2.24,1.43-5.14,1.7-7.68A2.47,2.47,0,0,0,56.21,295a2.51,2.51,0,0,0-2.46,2.46c-.26,2.34-.68,5,.05,7.26a1.75,1.75,0,0,0,3.15.41Z"/></g><g id="_Group_140" data-name="&lt;Group&gt;"><path id="_Path_139" data-name="&lt;Path&gt;" class="cls-1" d="M65.39,299.31c.49.13,1,.29,1.46.43a3.94,3.94,0,0,0,1.93,0,1.47,1.47,0,0,0,1.05-1.05,1.75,1.75,0,0,0,0-.8,1.47,1.47,0,0,0-1.05-1.05,3.89,3.89,0,0,0-1.93,0c-.49.14-1,.3-1.46.43a1.09,1.09,0,0,0,0,2.09Z"/></g><g id="_Group_141" data-name="&lt;Group&gt;"><path id="_Path_140" data-name="&lt;Path&gt;" class="cls-1" d="M49.57,339.56c-8.93-.39-18,.87-26.81,2.43-5.12.91-11.87,2.36-14.45,7.53C2,362.11,25.33,368.12,33,369.84c16.73,3.76,35.06,3.49,52.1,2.51,8.24-.48,16.58-1.47,24.46-4,5.1-1.65,14.52-4.57,15.31-11,.82-6.65-6.85-10.65-11.9-12.64-8.58-3.4-19.58-7.57-29-6.64a1,1,0,0,0-.26,1.92c7.47,3.05,15.91,4,23.55,6.83,3.19,1.19,9.72,3,11.37,6.56,2.36,5.06-5.55,7.05-9.07,8.3-14.64,5.17-30.87,4.74-46.2,5-15,.27-33.55.85-47.13-6.56-4.86-2.65-7.94-8.29-2.27-12.18,2.8-1.92,6.25-2.64,9.51-3.34,8.68-1.86,17.48-2.61,26.24-3.93.66-.1.46-1.09-.15-1.11Z"/></g><g id="_Group_142" data-name="&lt;Group&gt;"><path id="_Path_141" data-name="&lt;Path&gt;" class="cls-1" d="M18.63,355.94c3.5,5.17,10.12,7.87,16,9.3,6.17,1.52,15.38,3.1,21.44,1a1.87,1.87,0,0,0,0-3.58c-5.37-1.59-12-.31-17.59-.86-7.33-.71-12.86-3.13-19.32-6.39-.3-.15-.71.17-.49.49Z"/></g><g id="_Group_143" data-name="&lt;Group&gt;"><path id="_Path_142" data-name="&lt;Path&gt;" class="cls-1" d="M61.28,366.22l2.25,0c.79,0,1.56.1,2.14-.53a1.05,1.05,0,0,0,0-1.46c-.58-.63-1.35-.51-2.14-.53l-2.25,0a1.29,1.29,0,0,0,0,2.58Z"/></g><g id="_Group_144" data-name="&lt;Group&gt;"><path id="_Path_143" data-name="&lt;Path&gt;" class="cls-1" d="M77.39,366.42c1.61-.09,3.43.06,4.89-.65a1,1,0,0,0,0-1.69c-1.46-.71-3.28-.56-4.89-.65-1.92-.11-1.93,3.09,0,3Z"/></g><g id="_Group_145" data-name="&lt;Group&gt;"><path id="_Path_144" data-name="&lt;Path&gt;" class="cls-1" d="M101.26,361.65a9.52,9.52,0,0,0,4.19.17c1.23-.24,3.23-1.06,3.16-2.59s-1.72-1.45-2.78-1a9.94,9.94,0,0,1-4.26,1.08,1.19,1.19,0,0,0-.31,2.33Z"/></g><g id="_Group_146" data-name="&lt;Group&gt;"><path id="_Path_145" data-name="&lt;Path&gt;" class="cls-1" d="M97.09,347.7l-2.24-1.53c-.88-.6-1.62-1-2.67-.58a1.14,1.14,0,0,0-.59,1c.09,1.12.88,1.57,1.8,2.05l2.4,1.26a1.29,1.29,0,0,0,1.3-2.22Z"/></g></g></g></g></svg>