<svg xmlns="http://www.w3.org/2000/svg" viewBox="0 0 174.08 335.68"><defs><style>.cls-1{fill:#855d25;}</style></defs><title>Asset 1</title><g id="Layer_2" data-name="Layer 2"><g id="Layer_2-2" data-name="Layer 2"><g id="_Group_" data-name="&lt;Group&gt;"><g id="_Group_2" data-name="&lt;Group&gt;"><path id="_Path_" data-name="&lt;Path&gt;" class="cls-1" d="M.19,61.15c-.79,7.05,1,14.79,3,21.55A53.36,53.36,0,0,0,6.94,92.76c1.45,2.7,3.63,4.84,5.42,7.35,3.32,4.66,8.65,10.29,14.31,12.09,1.58.5,2.91.4,4.4,1.21,2.09,1.14,4,3.21,5.7,4.87a72.27,72.27,0,0,1,6.6,7.72c2.41,3.07,4.32,4.36,5.63,8.36a56.29,56.29,0,0,1,2.43,10.87c.76,6.32-.09,13.06,2.44,19,3,7.15,8.38,11.45,14.07,16.5a39.83,39.83,0,0,1,8.34,10.17c1.93,3.34,1.75,8.24,4.61,10.8a1.38,1.38,0,0,0,1.89,0c4.76-4.06-.94-13.58-4.16-17-5.76-6.14-12.36-11.15-16.46-18.74-6.86-12.7-7.56-26.86-8.53-40.92-.47-6.76-5.91-12.58-12.32-14.58a29.13,29.13,0,0,0-4.27-1,21,21,0,0,1-7.54-2.19c-3-1.55-6.25-2.83-9.06-4.87C14.19,97.9,10.84,90.87,8.07,83.8,5.14,76.34,4.46,68.45,2,60.9a.93.93,0,0,0-1.82.25Z"/></g><g id="_Group_3" data-name="&lt;Group&gt;"><path id="_Path_2" data-name="&lt;Path&gt;" class="cls-1" d="M96.34,204c3.08-14,16.48-20.49,23.69-32.13,3.65-5.89,4.49-11.56,4.8-18.26.38-8.17,1.79-14.8,5.8-22a23.85,23.85,0,0,1,7.3-8.62c3.26-2.26,7-3.69,10.11-6.15a80.37,80.37,0,0,0,14.47-14.55c7.9-10.44,15.1-26.22,9.63-39.45a1.55,1.55,0,0,0-3,.41c-.79,7.84-.59,15-3.15,22.68-2.66,7.95-6.2,14.6-12.59,20.2-6.2,5.44-15,6.45-21.68,11.34A22.23,22.23,0,0,0,122.58,133c-.9,7.52.08,15.07-2.37,22.41-2.33,7-4.13,13-9,18.78C104.22,182.37,93,192,94.85,204c.12.76,1.33.71,1.49,0Z"/></g><g id="_Group_4" data-name="&lt;Group&gt;"><path id="_Path_3" data-name="&lt;Path&gt;" class="cls-1" d="M1.48,63.71c12.1-1.46,24.22-3,36.36-4.07q8.89-.78,17.8-1.15c5-.21,10.64.42,15.23-1.74a1.09,1.09,0,0,0,0-1.87c-4.59-2.06-10.31-1.23-15.23-1q-9.44.43-18.84,1.36a236.79,236.79,0,0,0-35.65,6c-1.31.33-1.08,2.6.33,2.43Z"/></g><g id="_Group_5" data-name="&lt;Group&gt;"><path id="_Path_4" data-name="&lt;Path&gt;" class="cls-1" d="M80.58,57.36c15,.27,30.31.08,45.12,2.3a313.54,313.54,0,0,0,43.59,3.29c3,0,3.91-4.94.74-5.46a202.7,202.7,0,0,0-44-2.62c-15.09.84-30.36-.17-45.48-.08a1.29,1.29,0,0,0,0,2.58Z"/></g><g id="_Group_6" data-name="&lt;Group&gt;"><path id="_Path_5" data-name="&lt;Path&gt;" class="cls-1" d="M16.52,60.16c4.66-1.12,5.48-4.77,8-8.27,1.65-2.32,4.48-2.55,6.18-4.74,1.54-2,.64-4.19,1.59-6.18,2.17-4.54,6.73,3.24,8.52,4.66,2.35,1.86,5.34,1.77,8,2.86,3.39,1.37,3.57,4,5.64,6.74,1.58,2.07,3,3.42,5.63,3.26,1.46-.09,3-1.53,2.38-3.13-1.59-4.25-7.66-9.65-12.06-11.06-1.49-.48-2.35-.26-3.85-.58-4.7-1-4.61-3.15-7.29-6-1.54-1.63-3.58-3.32-5.91-3.5a5.66,5.66,0,0,0-5.18,2.53c-2,2.94-.46,5.79-3.72,7.78a12.68,12.68,0,0,0-4.77,4.51c-1.64,2.75-2.07,6.51-4.59,8.59-1.22,1,.11,2.82,1.45,2.5Z"/></g><g id="_Group_7" data-name="&lt;Group&gt;"><path id="_Path_6" data-name="&lt;Path&gt;" class="cls-1" d="M24.53,64.59c-.19,3.17,1.81,5.07,4.76,5.83a13.78,13.78,0,0,0,5.17.19c2.05-.27,4.08-.18,6.1-.45A.83.83,0,0,0,41.05,69c-1.16-2.1-4-2.31-6.17-2.37s-7.31,1-8.13-2.3a1.14,1.14,0,0,0-2.23.3Z"/></g><g id="_Group_8" data-name="&lt;Group&gt;"><path id="_Path_7" data-name="&lt;Path&gt;" class="cls-1" d="M42.9,71.68l1.62.24a7,7,0,0,0,1.61,0,.62.62,0,0,0,.31-1.15,14,14,0,0,0-2.94-1.3c-1.39-.51-2,2-.6,2.19Z"/></g><g id="_Group_9" data-name="&lt;Group&gt;"><path id="_Path_8" data-name="&lt;Path&gt;" class="cls-1" d="M49.54,72.89l4.77-1.72c1.4-.5,2.78-.81,3.33-2.33a1.19,1.19,0,0,0-.54-1.34c-1.33-.79-2.65-.09-4,.39l-4.5,1.62c-2.1.76-1.2,4.14.93,3.38Z"/></g><g id="_Group_10" data-name="&lt;Group&gt;"><path id="_Path_9" data-name="&lt;Path&gt;" class="cls-1" d="M60.21,60.27a2.69,2.69,0,0,0-.67.94,12.41,12.41,0,0,0-.3,1.26A4.31,4.31,0,0,0,59,65a1.2,1.2,0,0,0,2,.52,4,4,0,0,0,.86-2.3,4.44,4.44,0,0,0,.06-2.46,1,1,0,0,0-1.72-.45Z"/></g><g id="_Group_11" data-name="&lt;Group&gt;"><path id="_Path_10" data-name="&lt;Path&gt;" class="cls-1" d="M37.34,50a6.24,6.24,0,0,0,2,5.39c1.58,1.47,3.91,2.71,6,1.42a1.87,1.87,0,0,0,.37-2.9c-1-.91-2.28-1.07-3.34-1.86a6.56,6.56,0,0,1-2.05-2.45,1.5,1.5,0,0,0-2.93.4Z"/></g><g id="_Group_12" data-name="&lt;Group&gt;"><path id="_Path_11" data-name="&lt;Path&gt;" class="cls-1" d="M47.17,69.74a11.43,11.43,0,0,0,2.41,8.7c2.5,2.89,5.91,2.56,9.17,3.94C64.9,85,69.95,89,76.83,86c2.42-1.07,5.9-2.93,7.35-5.29.86-1.4.65-2.14.65-3.65,0-2.65-.27-4.25.41-6.93.91-3.56,2.08-10.44-3.32-10.81a.68.68,0,0,0-.47,1.14c4,4.14.63,8.83-.33,13.42-.61,2.92-.1,5.25-2.79,7.58a8.38,8.38,0,0,1-9.17,1.57c-3.27-1.64-5.31-4.74-8.84-6.13-2.11-.83-5.28-.68-7-2.22-1.51-1.35-2.37-4-3.46-5.69a1.46,1.46,0,0,0-2.69.73Z"/></g><g id="_Group_13" data-name="&lt;Group&gt;"><path id="_Path_12" data-name="&lt;Path&gt;" class="cls-1" d="M64.22,51a5.52,5.52,0,0,1,3.42-1.16,8.31,8.31,0,0,1,2.64.36,10.71,10.71,0,0,1,4.63,2.91C77,55.23,77.74,58.46,80,60.22c.76.6,2.17.31,2.11-.87-.3-5.52-7.23-11.16-12.49-11.71-1.95-.2-5.58.06-6.76,2-.6,1-.5,2.2.7,2.51.6.15,1.2-.68.65-1.12Z"/></g><g id="_Group_14" data-name="&lt;Group&gt;"><path id="_Path_13" data-name="&lt;Path&gt;" class="cls-1" d="M56.37,43.76c2.14-4.5,8.28-4,12.07-6.38,1.39-.89,1.94-2.24,3.12-3.25,4.58-4,6.63.13,10.77,1.27,1,.28,2.37-.77,1.9-1.9C82,28.18,73.78,26.89,70,31.29c-1.68,1.94-2.39,3.77-4.78,5-1.68.87-3.56,1.33-5.28,2.14-2.34,1.09-3.93,2.33-4.85,4.76-.29.76,1,1.29,1.32.56Z"/></g><g id="_Group_15" data-name="&lt;Group&gt;"><path id="_Path_14" data-name="&lt;Path&gt;" class="cls-1" d="M85.48,36c1.78,3.83,3.74,7.8,7.29,10.29,2.14,1.5,4.74,2.15,6.91,3.58,2.4,1.58,2.85,2.82,2.76,5.59A1.24,1.24,0,0,0,104,56.63c3.77-1.54,2.51-7.17-.15-9.32-2.92-2.37-7.11-1.9-10-4.38-2.6-2.24-4-5.65-5.38-8.71-.91-2-4-.28-3,1.77Z"/></g><g id="_Group_16" data-name="&lt;Group&gt;"><path id="_Path_15" data-name="&lt;Path&gt;" class="cls-1" d="M81.79,64.17c5.61,1,13.41,1.56,18.45-1.61a1.35,1.35,0,0,0-.68-2.5c-2.82-.32-5.73.5-8.52.93-3.08.48-6.17.82-9.25,1.29a1,1,0,0,0,0,1.89Z"/></g><g id="_Group_17" data-name="&lt;Group&gt;"><path id="_Path_16" data-name="&lt;Path&gt;" class="cls-1" d="M77.24,40.83c-.81,1.82,0,3.37,1.33,4.76.81.82,1.88,1.26,2.73,2a5.84,5.84,0,0,1,1.58,2.68,1.3,1.3,0,0,0,1.89.77c2.5-1.55,1.29-4.5-.55-6A16,16,0,0,0,81,43.17c-1-.5-2.2-1-2.56-2.18-.15-.5-1-.72-1.22-.16Z"/></g><g id="_Group_18" data-name="&lt;Group&gt;"><path id="_Path_17" data-name="&lt;Path&gt;" class="cls-1" d="M85.84,55.71c1.24,1.19,3.47,2.52,5.26,2,1.43-.46,1.94-2.64.44-3.4-1.07-.54-2.08-.4-3-1.24a1.91,1.91,0,0,0-2.7,2.7Z"/></g><g id="_Group_19" data-name="&lt;Group&gt;"><path id="_Path_18" data-name="&lt;Path&gt;" class="cls-1" d="M69.91,66.11a7.49,7.49,0,0,1,2.89,2.42,19.5,19.5,0,0,1,1.54,3.4,1.48,1.48,0,0,0,1.87.61,1.53,1.53,0,0,0,.86-1.76c-.42-3-3.77-5.4-6.56-6.08-.82-.2-1.41,1-.6,1.41Z"/></g><g id="_Group_20" data-name="&lt;Group&gt;"><path id="_Path_19" data-name="&lt;Path&gt;" class="cls-1" d="M72.82,75.82a5.5,5.5,0,0,0-.56,2.93,1.71,1.71,0,0,0,2.83.75c.71-.61.92-1.85,1.21-2.72A1.82,1.82,0,0,0,75,74.56a1.85,1.85,0,0,0-2.22,1.26Z"/></g><g id="_Group_21" data-name="&lt;Group&gt;"><path id="_Path_20" data-name="&lt;Path&gt;" class="cls-1" d="M65.09,78.36l-.17,0a1,1,0,0,0-1.12.46,1.08,1.08,0,0,0,0,1,1,1,0,0,0,1.12.46l.17,0a1,1,0,0,0,0-1.84Z"/></g><g id="_Group_22" data-name="&lt;Group&gt;"><path id="_Path_21" data-name="&lt;Path&gt;" class="cls-1" d="M84.54,79.6a27,27,0,0,0,9.76,5.46c3.68,1.23,8.35,2.92,12.25,2.51,1.29-.14,2.13-2,.73-2.69-3-1.56-6.73-1.66-10-2.52A60.87,60.87,0,0,1,85.79,78c-1-.49-2.17.79-1.25,1.62Z"/></g><g id="_Group_23" data-name="&lt;Group&gt;"><path id="_Path_22" data-name="&lt;Path&gt;" class="cls-1" d="M111.33,88.3c12.88.95,23-12,17.55-24.13-.94-2.11-4.28-.6-3.67,1.55,2.82,10-2.86,19.79-13.88,19.69-1.88,0-1.83,2.75,0,2.88Z"/></g><g id="_Group_24" data-name="&lt;Group&gt;"><path id="_Path_23" data-name="&lt;Path&gt;" class="cls-1" d="M95.56,77.75a26.2,26.2,0,0,0,7.83,2.55c2.33.31,5.23.89,7.24-.52.8-.57,1.13-2.09,0-2.58-2.06-.88-4.07-.29-6.28-.32a45.56,45.56,0,0,1-8.13-.73c-.91-.17-1.63,1.14-.67,1.6Z"/></g><g id="_Group_25" data-name="&lt;Group&gt;"><path id="_Path_24" data-name="&lt;Path&gt;" class="cls-1" d="M113.15,79.25a4.17,4.17,0,0,0,4.88-3,1.63,1.63,0,0,0-1.11-2,1.61,1.61,0,0,0-2,1.11s-.11.41-.05.26-.07.13-.09.16-.05.09,0,0l-.1.12s-.31.27-.2.19a1.37,1.37,0,0,1-.3.14c-.09,0-.22.05,0,0,0,0-.48,0-.21,0a1.59,1.59,0,0,0-1.9,1.08,1.56,1.56,0,0,0,1.08,1.9Z"/></g><g id="_Group_26" data-name="&lt;Group&gt;"><path id="_Path_25" data-name="&lt;Path&gt;" class="cls-1" d="M117.61,65.36c0-.67.07-1.63-.51-2.08a.92.92,0,0,0-1.24,0c-.58.45-.47,1.41-.51,2.08-.11,1.46,2.37,1.46,2.27,0Z"/></g><g id="_Group_27" data-name="&lt;Group&gt;"><path id="_Path_26" data-name="&lt;Path&gt;" class="cls-1" d="M90.69,62.88c9,3.4,20.44,2.88,30,3.73,10.6.95,21.15,3,31.79,2.11a.88.88,0,0,0,.23-1.72c-9.9-3.75-20.47-4.25-31-5.17-9.7-.85-21.54-2.85-31,0a.57.57,0,0,0,0,1.09Z"/></g><g id="_Group_28" data-name="&lt;Group&gt;"><path id="_Path_27" data-name="&lt;Path&gt;" class="cls-1" d="M157.16,70.28l3,.45a5.35,5.35,0,0,0,2.77.13c.64-.26,1.12-1.17.45-1.72a4.69,4.69,0,0,0-2.57-.8l-3-.45c-1.56-.24-2.23,2.14-.66,2.38Z"/></g><g id="_Group_29" data-name="&lt;Group&gt;"><path id="_Path_28" data-name="&lt;Path&gt;" class="cls-1" d="M30.2,64.85C24.25,63.34,14.11,62,9.1,66.42a1.66,1.66,0,0,0,.73,2.75c3,.42,5.73-.73,8.64-1.36A107.51,107.51,0,0,1,30,66.06c.65-.07.89-1,.16-1.21Z"/></g><g id="_Group_30" data-name="&lt;Group&gt;"><path id="_Path_29" data-name="&lt;Path&gt;" class="cls-1" d="M6.08,71.25,5.06,73A1,1,0,0,0,6.4,74.3l1.73-1a1.49,1.49,0,1,0-2-2Z"/></g><g id="_Group_31" data-name="&lt;Group&gt;"><path id="_Path_30" data-name="&lt;Path&gt;" class="cls-1" d="M69.32,169.2c4.15,8.69,14.93,9.4,23.32,8.32,6.06-.78,20.41-2.15,20.84-10.48a1.71,1.71,0,0,0-2.15-1.64c-2.81,1-4.72,3.19-7.63,4.16a66.89,66.89,0,0,1-9.37,2c-8.58,1.53-16.16,1.13-23.53-3.84-1-.66-1.91.59-1.48,1.48Z"/></g><g id="_Group_32" data-name="&lt;Group&gt;"><path id="_Path_31" data-name="&lt;Path&gt;" class="cls-1" d="M115.18,160.12l.61-2.92a5.55,5.55,0,0,0,.23-2.72,1,1,0,0,0-1.79-.23,5.48,5.48,0,0,0-.65,2.55l-.39,2.77c-.18,1.27,1.71,1.87,2,.55Z"/></g><g id="_Group_33" data-name="&lt;Group&gt;"><path id="_Path_32" data-name="&lt;Path&gt;" class="cls-1" d="M133.15,107.67c5.28,1.08,11.66-3.23,15.24-6.75,2.93-2.88,9.65-10.41,6.8-14.75a1.11,1.11,0,0,0-1.48-.39c-2.21,1.06-2.46,3.34-3.44,5.39a27.31,27.31,0,0,1-4.72,6.91,33.73,33.73,0,0,1-6.43,5.5c-2,1.27-4.27,2.1-6.08,3.66a.26.26,0,0,0,.11.43Z"/></g><g id="_Group_34" data-name="&lt;Group&gt;"><path id="_Path_33" data-name="&lt;Path&gt;" class="cls-1" d="M160.81,81.13a9,9,0,0,0,2.56-7.88c-.45-2.54-4.46-1.9-4.43.6a14.84,14.84,0,0,1-.79,5.73c-.58,1.56,1.6,2.6,2.67,1.55Z"/></g><g id="_Group_35" data-name="&lt;Group&gt;"><path id="_Path_34" data-name="&lt;Path&gt;" class="cls-1" d="M26.94,78.39c1.71,5.18,3.36,14.17,8.8,16.75,3,1.43,7,1.46,10.31,2,4.42.77,8.78,1.87,13.2,2.65,4.76.84,12.34,3.4,16.55-.13s5.91-11.51,4.28-16.62a2,2,0,0,0-3.95.53c-.45,6.71-.43,14.26-9.23,13.65-4.81-.33-9.62-.82-14.4-1.44-4.25-.55-13.57-1.51-16.66-5.12-1.38-1.61-2.15-4.62-3.1-6.53-1.13-2.28-2.36-4.48-3.63-6.68a1.19,1.19,0,0,0-2.17.91Z"/></g><g id="_Group_36" data-name="&lt;Group&gt;"><path id="_Path_35" data-name="&lt;Path&gt;" class="cls-1" d="M39,76.15c-.38-1,.38-1.77,1.18-2.31a1.14,1.14,0,0,0-.57-2.11c-2.73-.21-3.79,3.28-2.77,5.34.59,1.19,2.63.35,2.17-.91Z"/></g><g id="_Group_37" data-name="&lt;Group&gt;"><path id="_Path_36" data-name="&lt;Path&gt;" class="cls-1" d="M40.66,86.92a8.84,8.84,0,0,0,4.09,4.75C46.47,92.62,50,93,51,90.87a1.52,1.52,0,0,0-.54-2c-1.34-.65-2.79-.09-4.24-.3a4.64,4.64,0,0,1-3.73-2.39c-.57-1-2.27-.33-1.88.79Z"/></g><g id="_Group_38" data-name="&lt;Group&gt;"><path id="_Path_37" data-name="&lt;Path&gt;" class="cls-1" d="M57.47,92.4c2.06.75,4.77,1.31,6.72.08A.94.94,0,0,0,64,90.79a15.42,15.42,0,0,0-2.81-.18,10.43,10.43,0,0,1-3-.59c-1.52-.51-2.14,1.85-.66,2.38Z"/></g><g id="_Group_39" data-name="&lt;Group&gt;"><path id="_Path_38" data-name="&lt;Path&gt;" class="cls-1" d="M121.51,85.79c4.48-.54,8.72,2.19,13.07,2.87a21.16,21.16,0,0,0,11.36-1.11c5.16-2.16,11.6-9.2,7.69-14.93a1.72,1.72,0,0,0-2.94,0c-1.4,2.86-1.83,5.86-4.34,8.09-3.83,3.41-9.43,3-14.14,2.27-4.12-.67-8.63-2.45-11.33,1.73a.73.73,0,0,0,.62,1.09Z"/></g><g id="_Group_40" data-name="&lt;Group&gt;"><path id="_Path_39" data-name="&lt;Path&gt;" class="cls-1" d="M138.81,79.06c1.48-.45,3.39-.73,4.62-1.67a1.09,1.09,0,0,0-.55-2c-1.59,0-3.21.93-4.68,1.5s-.82,2.62.6,2.19Z"/></g><g id="_Group_41" data-name="&lt;Group&gt;"><path id="_Path_40" data-name="&lt;Path&gt;" class="cls-1" d="M148.21,69l0-1.26a1.65,1.65,0,1,0-3.31,0l0,1.26a1.7,1.7,0,0,0,3.4,0Z"/></g><g id="_Group_42" data-name="&lt;Group&gt;"><path id="_Path_41" data-name="&lt;Path&gt;" class="cls-1" d="M81.69,103.76a9.9,9.9,0,0,0,2.75,4.91c1.22,1.18,3.16,2.6,4.95,2.38a1,1,0,0,0,.52-1.92c-1.24-.83-2.63-1.1-3.75-2.17A7.61,7.61,0,0,1,84,103.13c-.36-1.48-2.62-.86-2.28.63Z"/></g><g id="_Group_43" data-name="&lt;Group&gt;"><path id="_Path_42" data-name="&lt;Path&gt;" class="cls-1" d="M111.48,115c-3.55,4.34-5.62,9.8-8.93,14.36a59.21,59.21,0,0,1-14.26,13.94c-4.79,3.33-11,7.39-17.05,7.67-12,.56-10.42-12.35-10.06-20.29a.41.41,0,0,0-.81-.11c-1.95,6.57-2.35,15.14,2.8,20.46,5,5.12,12.76,3.9,18.65,1.37a54.54,54.54,0,0,0,20.6-15.62c4.71-5.73,9.94-13.8,9.76-21.49,0-.33-.47-.58-.7-.29Z"/></g><g id="_Group_44" data-name="&lt;Group&gt;"><path id="_Path_43" data-name="&lt;Path&gt;" class="cls-1" d="M69.68,117.43c8-8.82,18.14-20,29.89-23.58,6.59-2,17.1-1.39,15.23,8.19-1.24,6.33-5.83,10.42-8.27,16.11-.45,1,.53,2.42,1.69,1.69,9.2-5.78,19.05-28,2-30.27-7.23-.95-14.82,3.58-20.42,7.65-7.71,5.6-14.35,12.67-20.38,20-.12.15.08.37.22.22Z"/></g><g id="_Group_45" data-name="&lt;Group&gt;"><path id="_Path_44" data-name="&lt;Path&gt;" class="cls-1" d="M63.57,149.59c-2.48,4,2.45,8.3,6.27,8.6,8.49.66,15.59-3.42,22.6-7.8a95.92,95.92,0,0,0,19.9-16.54c4.55-5,11.59-11.64,9.25-19a1,1,0,0,0-1.79-.23c-3.58,5.4-6.67,10.75-11.07,15.59A109.14,109.14,0,0,1,96.18,142a91.28,91.28,0,0,1-15.35,10.09c-3.56,1.82-7.47,3.68-11.31,2.16-2.48-1-3.73-2.92-5.56-4.68a.26.26,0,0,0-.4.05Z"/></g><g id="_Group_46" data-name="&lt;Group&gt;"><path id="_Path_45" data-name="&lt;Path&gt;" class="cls-1" d="M121.49,108.89a10.66,10.66,0,0,0,.66-11.12c-1.3-2.43-6.1-5.8-8.55-3.14a1,1,0,0,0-.15,1.19c1.09,1.63,3.49,2,5,3.26,2.86,2.27,3,5.71,1.16,8.72-.75,1.2,1.07,2.2,1.87,1.09Z"/></g><g id="_Group_47" data-name="&lt;Group&gt;"><path id="_Path_46" data-name="&lt;Path&gt;" class="cls-1" d="M104.44,122.7c-5.35,3.6-10,9.46-14.3,14.25-5,5.52-10.45,10.05-15.92,15-.53.49.15,1.3.75,1,6.4-3.45,12.55-8.41,18-13.18,4.81-4.2,10.36-10.23,12.38-16.39a.62.62,0,0,0-.91-.7Z"/></g><g id="_Group_48" data-name="&lt;Group&gt;"><path id="_Path_47" data-name="&lt;Path&gt;" class="cls-1" d="M90.71,115.43c1.83-2.65,1.55-6.61,2.18-9.7.59-2.86,1.77-5.94,1.2-8.86a.57.57,0,0,0-.95-.25c-2.4,2.4-2.84,6.39-3.36,9.61-.47,2.95-1.46,6.43-.05,9.19a.57.57,0,0,0,1,0Z"/></g><g id="_Group_49" data-name="&lt;Group&gt;"><path id="_Path_48" data-name="&lt;Path&gt;" class="cls-1" d="M96,95.19l-.1-.71a.67.67,0,0,0-1.29,0l-.1.71a.76.76,0,1,0,1.49,0Z"/></g><g id="_Group_50" data-name="&lt;Group&gt;"><path id="_Path_49" data-name="&lt;Path&gt;" class="cls-1" d="M93.59,112.24a3.41,3.41,0,0,0,3.05-.88,5.44,5.44,0,0,0,1.87-3A1.21,1.21,0,0,0,98,107a1.33,1.33,0,0,0-.6-.16,1.15,1.15,0,0,0-1,.59,9.34,9.34,0,0,1-1.46,2,5.9,5.9,0,0,1-.88.8,3.67,3.67,0,0,0-.83,1,.73.73,0,0,0,.43,1.06Z"/></g><g id="_Group_51" data-name="&lt;Group&gt;"><path id="_Path_50" data-name="&lt;Path&gt;" class="cls-1" d="M102.59,102.75c1.88-1.91,3.77-3.79,5.7-5.65s4.15-3.52,5.77-5.59c.46-.59-.13-1.63-.87-1.13a56.49,56.49,0,0,0-5.84,5.14q-3.18,2.82-6.43,5.55c-1.15,1,.59,2.78,1.68,1.68Z"/></g><g id="_Group_52" data-name="&lt;Group&gt;"><path id="_Path_51" data-name="&lt;Path&gt;" class="cls-1" d="M88.39,115.76c-3.45-.11-6.63,2.27-9.26,4.28-2.43,1.86-6.68,4.58-6.89,7.86a1.36,1.36,0,0,0,1.7,1.29c1.64-.31,2.25-1.32,3.4-2.49s2.64-2.54,4-3.72c2.48-2.09,5.66-3.79,7.37-6.61a.42.42,0,0,0-.36-.62Z"/></g><g id="_Group_53" data-name="&lt;Group&gt;"><path id="_Path_52" data-name="&lt;Path&gt;" class="cls-1" d="M66.37,134.46c-.95.61-1.88,1.23-2.77,1.93s-1.92,1.67-1.94,2.86a1.26,1.26,0,0,0,1.56,1.19c1.06-.17,1.89-1.4,2.42-2.26a31,31,0,0,0,1.5-2.95c.22-.47-.26-1.11-.78-.78Z"/></g><g id="_Group_54" data-name="&lt;Group&gt;"><path id="_Path_53" data-name="&lt;Path&gt;" class="cls-1" d="M87.39,122a26.05,26.05,0,0,0-8,14.36,2.22,2.22,0,0,0,1,2.44A1.89,1.89,0,0,0,82,139a2.24,2.24,0,0,0,1.59-2.08,31.31,31.31,0,0,1,5.29-13.75c.64-1-.74-1.9-1.54-1.19Z"/></g><g id="_Group_55" data-name="&lt;Group&gt;"><path id="_Path_54" data-name="&lt;Path&gt;" class="cls-1" d="M77,145.51a3.19,3.19,0,0,0-1.68,3.65,1.69,1.69,0,1,0,3.09-1.3q-.1-.22,0-.06t0-.06q0,.25,0,.08t0,.05c0-.07.16-.38,0-.18.12-.21-.06,0,.14-.15a1.28,1.28,0,0,0,.1-1.69,1.32,1.32,0,0,0-1.66-.33Z"/></g><g id="_Group_56" data-name="&lt;Group&gt;"><path id="_Path_55" data-name="&lt;Path&gt;" class="cls-1" d="M94.49,119.57a4.73,4.73,0,0,0-.39,5.48c.84,1.39,3.07,0,2.13-1.24a2.54,2.54,0,0,1-.2-3c.58-.92-.83-2.07-1.54-1.19Z"/></g><g id="_Group_57" data-name="&lt;Group&gt;"><path id="_Path_56" data-name="&lt;Path&gt;" class="cls-1" d="M101.5,128.68a5.85,5.85,0,0,0,.77.63,2.21,2.21,0,0,0,1,.23,1.19,1.19,0,0,0,1.18-1.18,2.21,2.21,0,0,0-.23-1,5.85,5.85,0,0,0-.63-.77,1.49,1.49,0,0,0-2.11,2.11Z"/></g><g id="_Group_58" data-name="&lt;Group&gt;"><path id="_Path_57" data-name="&lt;Path&gt;" class="cls-1" d="M100.49,118.42c.7.32,1.49.87,2.28.65a.93.93,0,0,0,.65-1.14c-.31-.8-1.07-1.08-1.79-1.47a1.16,1.16,0,0,0-1.55.41,1.14,1.14,0,0,0,.41,1.55Z"/></g><g id="_Group_59" data-name="&lt;Group&gt;"><path id="_Path_58" data-name="&lt;Path&gt;" class="cls-1" d="M82.27,114.28a1.58,1.58,0,0,1-1.22.32,2,2,0,0,1-.55-.22,4.84,4.84,0,0,0-1-.24,1,1,0,0,0-1.2,1.2c.66,2.37,3.84,2.06,5.3.64.86-.83-.28-2.42-1.31-1.7Z"/></g><g id="_Group_60" data-name="&lt;Group&gt;"><path id="_Path_59" data-name="&lt;Path&gt;" class="cls-1" d="M77.19,130.55a9.94,9.94,0,0,0-1.78,1.1c-.5.46-.93,1-1.39,1.54a1.14,1.14,0,0,0-.29,1.11,1.16,1.16,0,0,0,.79.79,1.14,1.14,0,0,0,1.11-.29c.5-.46,1.07-.9,1.53-1.4a9.74,9.74,0,0,0,1.09-1.79.78.78,0,0,0-1.06-1.06Z"/></g><g id="_Group_61" data-name="&lt;Group&gt;"><path id="_Path_60" data-name="&lt;Path&gt;" class="cls-1" d="M68.11,142.57l-.6.81c-.42.57.42,1.41,1,1l.81-.6a.87.87,0,1,0-1.2-1.2Z"/></g><g id="_Group_62" data-name="&lt;Group&gt;"><path id="_Path_61" data-name="&lt;Path&gt;" class="cls-1" d="M95.68,113.73l1.71-.78a3.23,3.23,0,0,0,1.49-1,.83.83,0,0,0-.71-1.24,3.43,3.43,0,0,0-1.73.64l-1.64.89c-1,.55-.12,2,.88,1.51Z"/></g><g id="_Group_63" data-name="&lt;Group&gt;"><path id="_Path_62" data-name="&lt;Path&gt;" class="cls-1" d="M104.26,110.89l.69-.15a.73.73,0,0,0,0-1.39l-.69-.15a.87.87,0,1,0,0,1.69Z"/></g><g id="_Group_64" data-name="&lt;Group&gt;"><path id="_Path_63" data-name="&lt;Path&gt;" class="cls-1" d="M83.54,110.72c-2.32-.07-5.21-.42-6.75,1.7a1,1,0,0,0,.35,1.34c2.24,1.29,4.83-.33,6.86-1.31.87-.42.39-1.7-.47-1.73Z"/></g><g id="_Group_65" data-name="&lt;Group&gt;"><path id="_Path_64" data-name="&lt;Path&gt;" class="cls-1" d="M73.57,117.41a5.66,5.66,0,0,0-1.19,1.89.89.89,0,0,0,1.08,1.08,5.64,5.64,0,0,0,1.88-1.2,1.29,1.29,0,1,0-1.76-1.76Z"/></g><g id="_Group_66" data-name="&lt;Group&gt;"><path id="_Path_65" data-name="&lt;Path&gt;" class="cls-1" d="M67.84,129.13a2,2,0,0,1-.24-1c0-.43-.06-.84-.08-1.27a.83.83,0,0,0-1.24-.71A2.46,2.46,0,0,0,65.09,128a4.53,4.53,0,0,0,.22,2.2,1.39,1.39,0,1,0,2.54-1.07Z"/></g><g id="_Group_67" data-name="&lt;Group&gt;"><path id="_Path_66" data-name="&lt;Path&gt;" class="cls-1" d="M64.57,125.63c10.64-11.31,17.21-28,33-33.41.58-.2.52-1.14-.15-1.11-8.15.32-13.58,6-18.63,11.92-5.6,6.52-12,14-15.18,22-.21.54.58.94.95.55Z"/></g><g id="_Group_68" data-name="&lt;Group&gt;"><path id="_Path_67" data-name="&lt;Path&gt;" class="cls-1" d="M101.83,91.06a.05.05,0,0,0,0-.11.05.05,0,0,0,0,.11Z"/></g><g id="_Group_69" data-name="&lt;Group&gt;"><path id="_Path_68" data-name="&lt;Path&gt;" class="cls-1" d="M120.4,101.8c2.4,4,10,1.14,12.93-.72,3.91-2.46,9.17-7.74,7.49-12.83a2.19,2.19,0,0,0-4-.52c-2.14,3.74-2,7.41-6,10.12a12.74,12.74,0,0,1-5.63,2.17c-1.57.19-3.25-.06-4.62.8a.73.73,0,0,0-.26,1Z"/></g><g id="_Group_70" data-name="&lt;Group&gt;"><path id="_Path_69" data-name="&lt;Path&gt;" class="cls-1" d="M77.15,95c-.05,1,.64,2.06,1,3a8.9,8.9,0,0,0,1.63,3.12c1.72,1.82,5,2.23,6-.49.47-1.25-.92-2.39-2.08-2.08a3,3,0,0,0-.48.07c.38,0,.21.08,0-.07s-.51-.23-.72-.41a9.51,9.51,0,0,1-1.44-2.35,3.51,3.51,0,0,0-2.24-1.66c-.62-.13-1.66.07-1.7.88Z"/></g><g id="_Group_71" data-name="&lt;Group&gt;"><path id="_Path_70" data-name="&lt;Path&gt;" class="cls-1" d="M97.64,83.84c.22.16.35.42.59.59s.37.19.54.32a3.16,3.16,0,0,1,.87,1c.48.86.44,2,1,2.75a1.4,1.4,0,0,0,2.17.28c1.33-1.4.48-3.72-.59-5a6.13,6.13,0,0,0-1.78-1.49A3.18,3.18,0,0,0,97.89,82a1,1,0,0,0-.25,1.88Z"/></g><g id="_Group_72" data-name="&lt;Group&gt;"><path id="_Path_71" data-name="&lt;Path&gt;" class="cls-1" d="M30.73,79A34.77,34.77,0,0,1,23.24,79c-2-.25-4-1.22-6-.83a.88.88,0,0,0-.39,1.46c1.53,1.56,4.15,1.64,6.25,1.79a23.15,23.15,0,0,0,7.86-.85c.81-.22.68-1.6-.21-1.52Z"/></g><g id="_Group_73" data-name="&lt;Group&gt;"><path id="_Path_72" data-name="&lt;Path&gt;" class="cls-1" d="M14.4,76.05,13.05,73.2a7.05,7.05,0,0,0-1.54-2.5c-.42-.37-1.3-.16-1.23.51A6.94,6.94,0,0,0,11.37,74L13,76.89c.52.94,1.87.11,1.42-.83Z"/></g><g id="_Group_74" data-name="&lt;Group&gt;"><path id="_Path_73" data-name="&lt;Path&gt;" class="cls-1" d="M92.09,41.82a17.08,17.08,0,0,1,5.83-6.5c2.29-1.38,5-1.46,7.24-2.87a.83.83,0,0,0,0-1.42c-2.94-1.45-6.5.36-9,2.11a14.29,14.29,0,0,0-5.81,8,.93.93,0,0,0,1.69.71Z"/></g><g id="_Group_75" data-name="&lt;Group&gt;"><path id="_Path_74" data-name="&lt;Path&gt;" class="cls-1" d="M107.19,34.86A36.6,36.6,0,0,1,121.86,43c3.3,2.82,12.36,7.84,8.7,13.33-1,1.55,1.23,3.15,2.51,1.93,4.86-4.6,2.24-10.09-2.35-13.81C123.62,38.72,117,33.93,108,32.08a1.44,1.44,0,0,0-.77,2.78Z"/></g><g id="_Group_76" data-name="&lt;Group&gt;"><path id="_Path_75" data-name="&lt;Path&gt;" class="cls-1" d="M107.57,41.88c2.22,1.28,4.58,2.23,6.73,3.64s4,3.34,6.25,4.6c1.24.7,2.9-.76,2-2-2.84-4.24-9.83-7.15-14.81-7a.42.42,0,0,0-.21.77Z"/></g><g id="_Group_77" data-name="&lt;Group&gt;"><path id="_Path_76" data-name="&lt;Path&gt;" class="cls-1" d="M121.73,52.22a2.82,2.82,0,0,1,.4,1.07s0,.29-.05.4a4.23,4.23,0,0,0,.05,1.18,1.76,1.76,0,0,0,1.24,1.62,1.71,1.71,0,0,0,1.9-.77,3.26,3.26,0,0,0,.54-1.52,7.48,7.48,0,0,0-1.57-3.91,1.58,1.58,0,0,0-2.1-.12,1.6,1.6,0,0,0-.41,2.06Z"/></g><g id="_Group_78" data-name="&lt;Group&gt;"><path id="_Path_77" data-name="&lt;Path&gt;" class="cls-1" d="M113.55,53.35a3.15,3.15,0,0,0-1.46.07,3.83,3.83,0,0,0-1.42.74,1.25,1.25,0,0,0-.26,1.37,1.3,1.3,0,0,0,1.14.77A3.54,3.54,0,0,0,113,56a3.64,3.64,0,0,0,1.26-.9,1,1,0,0,0-.73-1.76Z"/></g><g id="_Group_79" data-name="&lt;Group&gt;"><path id="_Path_78" data-name="&lt;Path&gt;" class="cls-1" d="M133.89,49.93c2.84.31,5.23,1.92,7.37,3.71,1.54,1.29,3.13,3.58,5.31,3.32a1.69,1.69,0,0,0,1.65-1.65c0-2.87-3.94-4.86-6.2-6a13.15,13.15,0,0,0-8.37-1.22c-1.11.2-.71,1.72.25,1.82Z"/></g><g id="_Group_80" data-name="&lt;Group&gt;"><path id="_Path_79" data-name="&lt;Path&gt;" class="cls-1" d="M59.71.4c3.42,6.22,7,12.38,10.89,18.34,3.5,5.4,6.84,11.43,11.18,16.18,1.32,1.44,3.39-.39,2.59-2-3.11-6.2-8-12.06-12.15-17.6C68.33,10.13,64.3,5,60.11.08c-.19-.23-.54.06-.4.31Z"/></g><g id="_Group_81" data-name="&lt;Group&gt;"><path id="_Path_80" data-name="&lt;Path&gt;" class="cls-1" d="M60.22,1.55C56.56-5,48.1,11.61,47.35,14.26c-2.87,10.11.24,23,7.88,30.34A1.76,1.76,0,0,0,58,42.47C54.2,35.69,50.36,30,49.86,21.9a26.34,26.34,0,0,1,1.29-10C52.24,8.68,55.6,1.18,60.08,1.78c.12,0,.18-.14.13-.23Z"/></g><g id="_Group_82" data-name="&lt;Group&gt;"><path id="_Path_81" data-name="&lt;Path&gt;" class="cls-1" d="M60.92,4.59c-13,6.61-13,28.22-.62,35.71a1.61,1.61,0,0,0,2.18-2.18c-2.74-5.39-7-9-8.26-15.25A17.12,17.12,0,0,1,61.18,5a.26.26,0,0,0-.26-.44Z"/></g><g id="_Group_83" data-name="&lt;Group&gt;"><path id="_Path_82" data-name="&lt;Path&gt;" class="cls-1" d="M58.65.87C48.5.1,43.56,12.54,41.6,20.57c-1.43,5.85-1.68,12.06.31,17.82,1.27,3.67,3.33,8.63,7.63,8.88a1.4,1.4,0,0,0,1.39-1.39c-.24-3.44-3.14-5.55-4.34-8.78a27.72,27.72,0,0,1-1-13.63c1.23-8.55,4.53-18.39,13.15-21.89a.36.36,0,0,0-.1-.71Z"/></g><g id="_Group_84" data-name="&lt;Group&gt;"><path id="_Path_83" data-name="&lt;Path&gt;" class="cls-1" d="M57.11,21.73a52.67,52.67,0,0,0,5.33-.37,15,15,0,0,0,5.77-1.55c1.44-.76.83-3.3-.86-3.17a15.27,15.27,0,0,0-5.72,1.76A49,49,0,0,0,56.91,21a.42.42,0,0,0,.21.77Z"/></g><g id="_Group_85" data-name="&lt;Group&gt;"><path id="_Path_84" data-name="&lt;Path&gt;" class="cls-1" d="M69.6,18.68a6.72,6.72,0,0,0,2.26.1,1.08,1.08,0,0,0,0-2.06,6.71,6.71,0,0,0-2.26.1.93.93,0,0,0,0,1.85Z"/></g><g id="_Group_86" data-name="&lt;Group&gt;"><path id="_Path_85" data-name="&lt;Path&gt;" class="cls-1" d="M66.38,25.11l1.31-.78a2.77,2.77,0,0,0,1-1.11.68.68,0,0,0-.76-1,2.56,2.56,0,0,0-1.32.5l-1.14.86c-.88.66-.11,2.1.88,1.51Z"/></g><g id="_Group_87" data-name="&lt;Group&gt;"><path id="_Path_86" data-name="&lt;Path&gt;" class="cls-1" d="M59.69,31.54l1.41-.8c.53-.3,1-.52,1.18-1.13a.83.83,0,0,0-.58-1,2,2,0,0,0-1.56.51L58.8,30a.88.88,0,0,0,.88,1.51Z"/></g><g id="_Group_88" data-name="&lt;Group&gt;"><path id="_Path_87" data-name="&lt;Path&gt;" class="cls-1" d="M61.22,36c2.52-1.45,4.9-3.09,7.39-4.59s5.25-2.65,7.6-4.33c1.34-1,.58-3.65-1.23-2.92-5.25,2.11-10.79,6.6-14.57,10.79A.67.67,0,0,0,61.22,36Z"/></g><g id="_Group_89" data-name="&lt;Group&gt;"><path id="_Path_88" data-name="&lt;Path&gt;" class="cls-1" d="M77.49,29l.58-.27a.83.83,0,0,0,0-1.42L77.49,27a1.13,1.13,0,1,0,0,2Z"/></g><g id="_Group_90" data-name="&lt;Group&gt;"><path id="_Path_89" data-name="&lt;Path&gt;" class="cls-1" d="M94.55,35.57c5.46-2.71,9.94-7.34,14.59-11.22a111.84,111.84,0,0,0,14.34-14.24c.35-.42-.1-1.14-.62-.81a109.62,109.62,0,0,0-15.49,11.77c-4.69,4.26-10.16,8.32-13.73,13.59-.4.6.36,1.19.92.92Z"/></g><g id="_Group_91" data-name="&lt;Group&gt;"><path id="_Path_90" data-name="&lt;Path&gt;" class="cls-1" d="M124.47,7.43c2.91,6.19,6.56,11.48,7.31,18.54a29.71,29.71,0,0,1-.63,10c-.71,2.95-2.42,5.53-3,8.48a1.51,1.51,0,0,0,2.5,1.45c5.35-4.53,5.7-15,4.77-21.43-1-6.56-4.09-14.53-10.42-17.6a.42.42,0,0,0-.56.56Z"/></g><g id="_Group_92" data-name="&lt;Group&gt;"><path id="_Path_91" data-name="&lt;Path&gt;" class="cls-1" d="M126.81,7.34a31.59,31.59,0,0,1,10,20.24,30.16,30.16,0,0,1-.57,10c-.91,3.91-3,6.54-4.75,10a1.25,1.25,0,0,0,1.07,1.86c7.64.27,8-16.08,7.4-21.11A31.76,31.76,0,0,0,127.31,6.69c-.38-.28-.84.33-.5.65Z"/></g><g id="_Group_93" data-name="&lt;Group&gt;"><path id="_Path_92" data-name="&lt;Path&gt;" class="cls-1" d="M123.62,6.93a22,22,0,0,0-3.85,2,8.93,8.93,0,0,0-3.27,2.55.83.83,0,0,0,.93,1.21c1.38-.25,2.47-1.34,3.56-2.16a21.12,21.12,0,0,0,3.13-2.73c.31-.35,0-1.05-.5-.86Z"/></g><g id="_Group_94" data-name="&lt;Group&gt;"><path id="_Path_93" data-name="&lt;Path&gt;" class="cls-1" d="M113.3,26.94c5.1,3.23,10.08,6.76,14.91,10.38,1.58,1.18,3.18-1.52,1.56-2.67A87.75,87.75,0,0,0,114,25.78a.67.67,0,0,0-.68,1.16Z"/></g><g id="_Group_95" data-name="&lt;Group&gt;"><path id="_Path_94" data-name="&lt;Path&gt;" class="cls-1" d="M113.07,20.93a9.86,9.86,0,0,0,3.37,3.15c1,.65,2.89,1.75,4.06.92a.74.74,0,0,0,.33-.81c-.46-1.18-1.91-1.49-3-2-1.38-.59-2.59-1.46-3.91-2.14a.62.62,0,0,0-.85.85Z"/></g><g id="_Group_96" data-name="&lt;Group&gt;"><path id="_Path_95" data-name="&lt;Path&gt;" class="cls-1" d="M123.43,28.65l2,1.36c.62.42,1.29,1,2.08.94.47,0,1-.5.79-1-.34-.82-1-1.11-1.77-1.5l-2.28-1.18a.82.82,0,0,0-.83,1.42Z"/></g><g id="_Group_97" data-name="&lt;Group&gt;"><path id="_Path_96" data-name="&lt;Path&gt;" class="cls-1" d="M121.21,19.88l1.69.81a4,4,0,0,0,1.63.61c.43,0,.83-.54.53-.93a3.72,3.72,0,0,0-1.41-1L122,18.55c-.89-.46-1.67.91-.78,1.33Z"/></g><g id="_Group_98" data-name="&lt;Group&gt;"><path id="_Path_97" data-name="&lt;Path&gt;" class="cls-1" d="M123.36,16.31l.81.6c.57.42,1.41-.42,1-1l-.6-.81a.87.87,0,1,0-1.2,1.2Z"/></g><g id="_Group_99" data-name="&lt;Group&gt;"><path id="_Path_98" data-name="&lt;Path&gt;" class="cls-1" d="M108.56,30.07a9.91,9.91,0,0,1,2.05,2.76.88.88,0,0,0,1.6-.67,5.14,5.14,0,0,0-2.65-3.38c-.78-.47-1.74.69-1,1.29Z"/></g><g id="_Group_100" data-name="&lt;Group&gt;"><path id="_Path_99" data-name="&lt;Path&gt;" class="cls-1" d="M83.13,200.75C81,208.81,81.68,218,81.69,226.31c0,9.54.11,19.08,0,28.62-.24,17.53-2.44,37.3-17.66,48.57-2.21,1.64-.06,5.39,2.18,3.74,14-10.34,18.64-27.18,19.54-43.84.58-10.56.08-21.21-.06-31.78-.13-9.95.89-21.21-1.86-30.86a.36.36,0,0,0-.7,0Z"/></g><g id="_Group_101" data-name="&lt;Group&gt;"><path id="_Path_100" data-name="&lt;Path&gt;" class="cls-1" d="M76,302.36c6.32,4.26,21,3.39,25.58-3.25a1.3,1.3,0,0,0-.77-1.89c-3.57-1-7.53.21-11.13.65-4.38.55-9-.05-13.24,1.19a1.83,1.83,0,0,0-.43,3.29Z"/></g><g id="_Group_102" data-name="&lt;Group&gt;"><path id="_Path_101" data-name="&lt;Path&gt;" class="cls-1" d="M104.76,300.85c.69-.05,1.61-.17,1.61-1.08s-.92-1-1.61-1.08c-1.39-.1-1.39,2.27,0,2.16Z"/></g><g id="_Group_103" data-name="&lt;Group&gt;"><path id="_Path_102" data-name="&lt;Path&gt;" class="cls-1" d="M109.35,301.83c-5.73-6.56-8.41-13.53-10.06-22-1.43-7.36-1.08-16.14-4.14-23-.4-.89-1.54-.3-1.63.44-.56,4.56.88,9.46,1.58,14a127.09,127.09,0,0,0,2.49,13.34c1.83,6.85,5,14.09,11,18.19.61.41,1.19-.47.75-1Z"/></g><g id="_Group_104" data-name="&lt;Group&gt;"><path id="_Path_103" data-name="&lt;Path&gt;" class="cls-1" d="M94.86,251.42l-.05-.73a.31.31,0,0,0-.62,0l-.05.73c0,.46.75.46.72,0Z"/></g><g id="_Group_105" data-name="&lt;Group&gt;"><path id="_Path_104" data-name="&lt;Path&gt;" class="cls-1" d="M81.17,196.66a8.5,8.5,0,0,1,5.66-1.6,6.35,6.35,0,0,1,2.68.9c.8.49,1.22,1,2.22.86A1.28,1.28,0,0,0,93,195.58c.14-2.73-4.14-3.61-6.23-3.63a7.86,7.86,0,0,0-6.85,3.44c-.53.74.53,1.81,1.27,1.27Z"/></g><g id="_Group_106" data-name="&lt;Group&gt;"><path id="_Path_105" data-name="&lt;Path&gt;" class="cls-1" d="M87.91,190a11.25,11.25,0,0,0,2.25.22,2.81,2.81,0,0,0,1.81-.64.58.58,0,0,0,0-.8,2.81,2.81,0,0,0-1.81-.64,11.25,11.25,0,0,0-2.25.22.82.82,0,0,0,0,1.65Z"/></g><g id="_Group_107" data-name="&lt;Group&gt;"><path id="_Path_106" data-name="&lt;Path&gt;" class="cls-1" d="M84.79,182.52c7.11,2.85,17.16,4.27,23.72-.77a1.81,1.81,0,0,0-1.39-3.29c-3.54.54-6.91,2-10.49,2.57a45.66,45.66,0,0,1-11.73.69c-.5,0-.5.65-.11.81Z"/></g><g id="_Group_108" data-name="&lt;Group&gt;"><path id="_Path_107" data-name="&lt;Path&gt;" class="cls-1" d="M95.23,190.33H94.5a1,1,0,0,0,0,2.06h.73a1,1,0,0,0,0-2.06Z"/></g><g id="_Group_109" data-name="&lt;Group&gt;"><path id="_Path_108" data-name="&lt;Path&gt;" class="cls-1" d="M70.68,171.72l-2.39-1.41a4.36,4.36,0,0,0-2.36-1,.83.83,0,0,0-.71,1.24,4.13,4.13,0,0,0,2.13,1.36l2.55,1.14c.89.4,1.66-.82.78-1.33Z"/></g><g id="_Group_110" data-name="&lt;Group&gt;"><path id="_Path_109" data-name="&lt;Path&gt;" class="cls-1" d="M52.3,120.51c1.25-2.79,2.4-6.21,1.26-9.22a.83.83,0,0,0-1.59,0c-.91,2.81-.47,6.06-.54,9,0,.44.67.66.86.23Z"/></g><g id="_Group_111" data-name="&lt;Group&gt;"><path id="_Path_110" data-name="&lt;Path&gt;" class="cls-1" d="M36.64,99.55a15,15,0,0,0,5.45,4.62c2,.92,5.16,1.84,7.27,1a1,1,0,0,0,0-2c-1.87-.58-3.88-.36-5.8-1a16.13,16.13,0,0,1-6-3.33c-.45-.4-1.3.15-.89.69Z"/></g><g id="_Group_112" data-name="&lt;Group&gt;"><path id="_Path_111" data-name="&lt;Path&gt;" class="cls-1" d="M57.14,107.17a.05.05,0,0,0,0-.11.05.05,0,0,0,0,.11Z"/></g><g id="_Group_113" data-name="&lt;Group&gt;"><path id="_Path_112" data-name="&lt;Path&gt;" class="cls-1" d="M21.25,91.2A2.18,2.18,0,0,1,19.47,90a.41.41,0,0,0-.77.21,2.29,2.29,0,0,0,.81,1.68,2.56,2.56,0,0,0,1.9.37c.64-.1.48-1.12-.15-1.11Z"/></g><g id="_Group_114" data-name="&lt;Group&gt;"><path id="_Path_113" data-name="&lt;Path&gt;" class="cls-1" d="M14.65,88.08a10.17,10.17,0,0,0-.1,1.93,4.78,4.78,0,0,0,.66,1.83c.1.17.38,0,.27-.16a4,4,0,0,1-.73-3.57.05.05,0,1,0-.1,0Z"/></g><g id="_Group_115" data-name="&lt;Group&gt;"><path id="_Path_114" data-name="&lt;Path&gt;" class="cls-1" d="M104.81,151.24a10.07,10.07,0,0,0-1.4,2.33,7.92,7.92,0,0,0-.45,1.31c-.11.49,0,1-.14,1.49a2.06,2.06,0,1,0,3.77-.49,5.76,5.76,0,0,1-.57-2,7.76,7.76,0,0,1-.06-2.19.68.68,0,0,0-1.14-.47Z"/></g><g id="_Group_116" data-name="&lt;Group&gt;"><path id="_Path_115" data-name="&lt;Path&gt;" class="cls-1" d="M65.33,112.9a1.47,1.47,0,0,0,.11,1,4.2,4.2,0,0,1,.26.46,4,4,0,0,0,.72,1.56,1.31,1.31,0,0,0,2-.26,2.32,2.32,0,0,0-.39-2.59c-.47-.57-1.2-1.2-2-.93a1.07,1.07,0,0,0-.75.75Z"/></g><g id="_Group_117" data-name="&lt;Group&gt;"><path id="_Path_116" data-name="&lt;Path&gt;" class="cls-1" d="M80.25,156.2l0,.55a1.76,1.76,0,1,0,3.53,0l0-.55a1.8,1.8,0,1,0-3.61,0Z"/></g><g id="_Group_118" data-name="&lt;Group&gt;"><path id="_Path_117" data-name="&lt;Path&gt;" class="cls-1" d="M123.32,92a14.57,14.57,0,0,0-1.11,1.34l.73-.56c-2,.36-2.69,4.21-2.18,5.77a2.39,2.39,0,0,0,4.67-.63,12.19,12.19,0,0,0-.48-2.79,2.88,2.88,0,0,0-1.07-2.22l.6,1a13.27,13.27,0,0,1-.09-1.52.62.62,0,0,0-1.06-.44Z"/></g><g id="_Group_119" data-name="&lt;Group&gt;"><path id="_Path_118" data-name="&lt;Path&gt;" class="cls-1" d="M126,109.95a3.44,3.44,0,0,0-.59,1.6c0,.4-.06.81-.09,1.21a2.1,2.1,0,0,0,4.2,0c0-.4,0-.81-.09-1.21a3.56,3.56,0,0,0-.59-1.6,1.67,1.67,0,0,0-2.85,0Z"/></g><g id="_Group_120" data-name="&lt;Group&gt;"><path id="_Path_119" data-name="&lt;Path&gt;" class="cls-1" d="M121,126.53l-.19.88a.84.84,0,0,0,1,1l.88-.19a1.39,1.39,0,1,0-1.71-1.71Z"/></g><g id="_Group_121" data-name="&lt;Group&gt;"><path id="_Path_120" data-name="&lt;Path&gt;" class="cls-1" d="M74.75,154.73l-.13,4.06c0,1.29-.31,2.45.67,3.45a1.3,1.3,0,0,0,1.82,0c1-1,.71-2.15.67-3.45l-.13-4.06a1.44,1.44,0,0,0-2.88,0Z"/></g><g id="_Group_122" data-name="&lt;Group&gt;"><path id="_Path_121" data-name="&lt;Path&gt;" class="cls-1" d="M93.19,205.36l.78-1.44c.1-.18-.18-.33-.27-.16L93,205.26c-.05.12.11.22.18.1Z"/></g><g id="_Group_123" data-name="&lt;Group&gt;"><path id="_Path_122" data-name="&lt;Path&gt;" class="cls-1" d="M96.78,194.59c-3.91,10.08-4.11,21-3.66,31.65.49,11.49.86,23,1.6,34.47.95,14.66,2.64,36,17.1,44,.66.37,1.65-.43,1.13-1.13-4.9-6.59-9-13.07-11.08-21.11s-2.55-16.61-2.89-25c-.42-10.44-1-20.86-1.5-31.29s-1.3-20.84.69-31.26a.72.72,0,0,0-1.39-.38Z"/></g><g id="_Group_124" data-name="&lt;Group&gt;"><path id="_Path_123" data-name="&lt;Path&gt;" class="cls-1" d="M69.56,296.23a68.59,68.59,0,0,0-24.4,4.53c-4.56,1.69-13.27,4.07-15.11,9.2-1.68,4.69,2.9,8.44,6.63,10.16,8.22,3.79,18,5.51,26.83,6.86,18.35,2.8,37.24,2.09,55.7.88,11.15-.73,28.56-2.65,32.31-15.75,2.29-8-7.08-10.19-12.79-12.14a117.44,117.44,0,0,0-29.57-5.82c-2.12-.15-2.1,3.14,0,3.3A116.12,116.12,0,0,1,135,302.32c3.88,1.21,14,3.21,13.25,8.88-.51,3.75-5.93,6.6-9,8-6.28,2.91-13.22,3.58-20,4-8.51.51-17,.83-25.56.83-17,0-34.32-1.38-50.7-6.15-3.58-1-13-3.14-8.12-9,1.9-2.27,6.92-3.91,9.54-5.07,8-3.58,16.6-5.6,25.25-7.06.29,0,.21-.5-.07-.51Z"/></g><g id="_Group_125" data-name="&lt;Group&gt;"><path id="_Path_124" data-name="&lt;Path&gt;" class="cls-1" d="M29.2,315.06c.26,8.33,11.13,11.28,17.58,13.56A130.84,130.84,0,0,0,63,333.28c4.91,1.06,10.69,2.72,15.68,1.65a1.46,1.46,0,0,0,.34-2.64c-3.18-1.44-6.59-1.54-10-2.14-4.24-.74-8.47-1.66-12.63-2.75-3.85-1-7.64-2.2-11.4-3.52-4.19-1.48-12.57-3.23-13.12-8.82-.17-1.68-2.73-1.75-2.68,0Z"/></g><g id="_Group_126" data-name="&lt;Group&gt;"><path id="_Path_125" data-name="&lt;Path&gt;" class="cls-1" d="M87.18,335.49c2.48.07,5.46.63,7.74-.58a.83.83,0,0,0,0-1.42c-2.28-1.21-5.26-.65-7.74-.58a1.29,1.29,0,0,0,0,2.58Z"/></g><g id="_Group_127" data-name="&lt;Group&gt;"><path id="_Path_126" data-name="&lt;Path&gt;" class="cls-1" d="M102.55,334.9A80.81,80.81,0,0,0,131.14,333c5.77-1.5,14.23-4.49,16.4-10.62.41-1.14-1-2.05-2-1.51-2.75,1.54-4.74,4-7.54,5.61a38.43,38.43,0,0,1-10.24,3.68c-8.27,1.9-16.84,2.4-25.25,3.35a.67.67,0,0,0,0,1.34Z"/></g><g id="_Group_128" data-name="&lt;Group&gt;"><path id="_Path_127" data-name="&lt;Path&gt;" class="cls-1" d="M148.93,314.89c-.47-2.13-1.44-4.54-3.41-5.69a1,1,0,0,0-1.34,1.34c.87,1.76,2.28,3.23,3.15,5,.45.93,1.8.25,1.6-.67Z"/></g><g id="_Group_129" data-name="&lt;Group&gt;"><path id="_Path_128" data-name="&lt;Path&gt;" class="cls-1" d="M72.25,307.58a13.32,13.32,0,0,0,4.14-.16c1.35-.16,2.87,0,4-.84.63-.43.84-1.58,0-2-1.37-.61-2.71-.29-4.14,0a9.4,9.4,0,0,0-4.21,1.55c-.46.35-.55,1.29.18,1.41Z"/></g><g id="_Group_130" data-name="&lt;Group&gt;"><path id="_Path_129" data-name="&lt;Path&gt;" class="cls-1" d="M93.78,308c2.83.32,6.33,1,8.74-.87a1,1,0,0,0-.2-1.54c-2.71-1.36-6.07.1-8.73,1a.72.72,0,0,0,.19,1.42Z"/></g><g id="_Group_131" data-name="&lt;Group&gt;"><path id="_Path_130" data-name="&lt;Path&gt;" class="cls-1" d="M97.46,313.12c.37,0,.75.07,1.12.06a4.21,4.21,0,0,0,1.42-.42c.78-.32,1.7-.52,2.14-1.3a1.22,1.22,0,0,0-.42-1.62c-.66-.5-1.64-.3-2.43-.28a4.25,4.25,0,0,0-1.39.19,12.32,12.32,0,0,0-1.19.58c-1.4.71-.63,2.71.75,2.78Z"/></g><g id="_Group_132" data-name="&lt;Group&gt;"><path id="_Path_131" data-name="&lt;Path&gt;" class="cls-1" d="M141.84,312.83c-6.11,1.91-11.64,5.2-17.91,6.88a80.17,80.17,0,0,1-20.61,3c-.28,0-.36.45-.07.51,12.49,2.24,30.1.83,39.34-9.11a.78.78,0,0,0-.75-1.29Z"/></g><g id="_Group_133" data-name="&lt;Group&gt;"><path id="_Path_132" data-name="&lt;Path&gt;" class="cls-1" d="M131.12,313.08a38,38,0,0,0-6.76.79.72.72,0,0,0,.19,1.42,38,38,0,0,0,6.72-1.1.57.57,0,0,0-.15-1.11Z"/></g><g id="_Group_134" data-name="&lt;Group&gt;"><path id="_Path_133" data-name="&lt;Path&gt;" class="cls-1" d="M96.7,317.72l-2.93.1a.26.26,0,0,0,0,.52l2.93.1a.36.36,0,0,0,0-.72Z"/></g><g id="_Group_135" data-name="&lt;Group&gt;"><path id="_Path_134" data-name="&lt;Path&gt;" class="cls-1" d="M37.16,310.09c1.89.79,4.52-.36,5.79-1.82a.68.68,0,0,0-.65-1.12c-.95.2-1.81.49-2.74.75a10.88,10.88,0,0,0-2.58.77.78.78,0,0,0,.18,1.41Z"/></g><g id="_Group_136" data-name="&lt;Group&gt;"><path id="_Path_135" data-name="&lt;Path&gt;" class="cls-1" d="M85.42,272.38c-.52,2.17-1.65,4.88-1.16,7.12a.83.83,0,0,0,1.38.36c1.45-1.79,1.65-4.64,2.17-6.82.37-1.55-2-2.21-2.38-.66Z"/></g><g id="_Group_137" data-name="&lt;Group&gt;"><path id="_Path_136" data-name="&lt;Path&gt;" class="cls-1" d="M58.35,104.92a6.07,6.07,0,0,1-.53,2.49c-.18.35-.46.65-.65,1a4.09,4.09,0,0,0-.33,1.63,1.77,1.77,0,0,0,3,1.24,3.4,3.4,0,0,0,.94-1.63,7.22,7.22,0,0,0,0-1.78,15.41,15.41,0,0,0-.47-3.21,1,1,0,0,0-1.92.26Z"/></g><g id="_Group_138" data-name="&lt;Group&gt;"><path id="_Path_137" data-name="&lt;Path&gt;" class="cls-1" d="M82.21,157.91c.53.29,1.26.82,1.81.26s0-1.29-.26-1.81a1.13,1.13,0,1,0-1.55,1.55Z"/></g></g></g></g></svg>