<svg xmlns="http://www.w3.org/2000/svg" viewBox="0 0 130.57 374.68"><defs><style>.cls-1{fill:#855d25;}</style></defs><title>Asset 6</title><g id="Layer_2" data-name="Layer 2"><g id="Layer_2-2" data-name="Layer 2"><g id="_Group_" data-name="&lt;Group&gt;"><g id="_Group_2" data-name="&lt;Group&gt;"><path id="_Path_" data-name="&lt;Path&gt;" class="cls-1" d="M.29,349.19a3,3,0,0,0,1,1.11,3.76,3.76,0,0,0,1,.37,1.88,1.88,0,0,0,2.28-2.28,3.76,3.76,0,0,0-.37-1,3,3,0,0,0-1.11-1,2.08,2.08,0,0,0-2.82,2.82Z"/></g><g id="_Group_3" data-name="&lt;Group&gt;"><path id="_Path_2" data-name="&lt;Path&gt;" class="cls-1" d="M64.59,10.5c-2.33,4.22,1,10,2.48,14.05,2.56,7.07,5.66,13.85,8.34,20.85.21.55,1.09.33.89-.25-1.94-5.71-3.38-11.52-5.43-17.24S66.08,16.7,65.45,10.73a.47.47,0,0,0-.86-.23Z"/></g><g id="_Group_4" data-name="&lt;Group&gt;"><path id="_Path_3" data-name="&lt;Path&gt;" class="cls-1" d="M77.8,48.38a.05.05,0,0,0,0-.11.05.05,0,0,0,0,.11Z"/></g><g id="_Group_5" data-name="&lt;Group&gt;"><path id="_Path_4" data-name="&lt;Path&gt;" class="cls-1" d="M77.67,51.76c.85,1.63,1.68,3.27,2.55,4.88a1,1,0,0,0,.84.48.91.91,0,0,0,.84-.48,1,1,0,0,0,0-1c-.82-1.64-1.69-3.26-2.54-4.89-.58-1.12-2.27-.13-1.69,1Z"/></g><g id="_Group_6" data-name="&lt;Group&gt;"><path id="_Path_5" data-name="&lt;Path&gt;" class="cls-1" d="M67.3,10.47c22-11,41.14,9.75,49.1,28.15,4.32,10,7.31,21.65,3.24,32.24-2.2,5.73-6.2,9-11.26,12.11A11.4,11.4,0,0,0,103,89.18a1.36,1.36,0,0,0,.93,1.64,7,7,0,0,0,4.23.33c1.3-.24,1-2.46-.31-2.33L105,88.38l.48,1.82c2.2-4.81,9.25-6.7,12.67-10.82a29.75,29.75,0,0,0,6-12.44c2.56-11.57-1.71-23.55-6.82-33.82C108.39,15.3,87.39-3.55,67,10a.26.26,0,0,0,.26.44Z"/></g><g id="_Group_7" data-name="&lt;Group&gt;"><path id="_Path_6" data-name="&lt;Path&gt;" class="cls-1" d="M113,85.74a.05.05,0,0,0,0-.11.05.05,0,0,0,0,.11Z"/></g><g id="_Group_8" data-name="&lt;Group&gt;"><path id="_Path_7" data-name="&lt;Path&gt;" class="cls-1" d="M65.41,9.35a2.52,2.52,0,0,1,2.41-2.64,16.49,16.49,0,0,1,2.42-.89,35,35,0,0,1,4.47-1.11,43.59,43.59,0,0,1,10.56-.54c8.16.54,13.14,4,18.94,9.34,4.76,4.43,9.7,8.91,12.95,14.64,2.57,4.54,3.88,9.8,6.67,14.14a1.29,1.29,0,0,0,2.35-1c-.75-4-3.22-7.59-5.2-11.12-2.5-4.48-4.94-9.27-7.78-13.53-5.3-8-11-14.56-21-16.14-8.59-1.36-18.71,0-26.43,4.1-1.58.84-3.7,2-3.57,4.08a2.21,2.21,0,0,0,3.23,2c.61-.22.76-1.24,0-1.39Z"/></g><g id="_Group_9" data-name="&lt;Group&gt;"><path id="_Path_8" data-name="&lt;Path&gt;" class="cls-1" d="M124.5,49c.62,8.05,1,16-1.88,23.69a23.35,23.35,0,0,1-5.74,8.93C114.75,83.66,112,84.83,110,87a2,2,0,0,0,.89,3.36c7.4,2,14.06-6.27,16.84-12.12,4.29-9,2.81-19.64,1.76-29.22-.34-3.1-5.19-3.21-4.94,0Z"/></g><g id="_Group_10" data-name="&lt;Group&gt;"><path id="_Path_9" data-name="&lt;Path&gt;" class="cls-1" d="M107.1,90.14a.05.05,0,0,0,0-.11.05.05,0,0,0,0,.11Z"/></g><g id="_Group_11" data-name="&lt;Group&gt;"><path id="_Path_10" data-name="&lt;Path&gt;" class="cls-1" d="M80.65,63.94a10.26,10.26,0,0,0,1,3.05.78.78,0,0,0,1.44-.39,10.48,10.48,0,0,0-.49-3.21c-.26-1.29-2.36-.74-2,.55Z"/></g><g id="_Group_12" data-name="&lt;Group&gt;"><path id="_Path_11" data-name="&lt;Path&gt;" class="cls-1" d="M44.82,97.58c2.53-3.51,5.27-7.56,9.07-9.8,1.27-.75,7-1.39,5.46-4A1.58,1.58,0,0,0,58,83c-7.37.1-12.36,7.38-15.49,13.19a1.34,1.34,0,0,0,2.31,1.35Z"/></g><g id="_Group_13" data-name="&lt;Group&gt;"><path id="_Path_12" data-name="&lt;Path&gt;" class="cls-1" d="M60.42,87.35l10.11,7.16c3.47,2.46,7,4.22,10.57,6.37.29.17.65-.25.37-.49-3.09-2.61-5.72-5.22-9-7.6L61.72,85.13c-1.35-1-2.65,1.27-1.3,2.22Z"/></g><g id="_Group_14" data-name="&lt;Group&gt;"><path id="_Path_13" data-name="&lt;Path&gt;" class="cls-1" d="M86,103.2c8.59-.47,6,8.48,3.65,11.88a37.11,37.11,0,0,1-5,5.69c-3.48,3.33-7.11,4.73-11.41,6.6-1.61.7-.57,2.84.81,3,7.72.76,16.27-8.64,18.83-15.23,2-5.21-.14-12.8-6.88-12.23-.2,0-.2.32,0,.31Z"/></g><g id="_Group_15" data-name="&lt;Group&gt;"><path id="_Path_14" data-name="&lt;Path&gt;" class="cls-1" d="M69.55,125.82,58,120.91c-3-1.29-6.13-3.24-9.46-3.31a1,1,0,0,0-.69,1.67c2.45,2.27,6,3,9.08,4.2L68.64,128c1.24.48,2.15-1.64.91-2.17Z"/></g><g id="_Group_16" data-name="&lt;Group&gt;"><path id="_Path_15" data-name="&lt;Path&gt;" class="cls-1" d="M41.93,97.75a78.67,78.67,0,0,0-21,19.74A54.81,54.81,0,0,0,14.08,130c-1.5,3.82-3.75,8.88-2.64,13a.83.83,0,0,0,1.38.36c2.67-2.82,3.49-7.32,5.08-10.81a134.1,134.1,0,0,1,6.31-12.13A78.5,78.5,0,0,1,42.87,99c.68-.55-.2-1.68-.94-1.21Z"/></g><g id="_Group_17" data-name="&lt;Group&gt;"><path id="_Path_16" data-name="&lt;Path&gt;" class="cls-1" d="M11.83,147l-.47,3a.36.36,0,0,0,.7.19l1-2.87c.26-.77-1.07-1.1-1.19-.33Z"/></g><g id="_Group_18" data-name="&lt;Group&gt;"><path id="_Path_17" data-name="&lt;Path&gt;" class="cls-1" d="M10.89,154.54c-.25,9.76,4,18.49,12.38,23.78,2.32,1.47,4.35-2.12,2.13-3.65a29.29,29.29,0,0,1-12.65-20.13.93.93,0,0,0-1.85,0Z"/></g><g id="_Group_19" data-name="&lt;Group&gt;"><path id="_Path_18" data-name="&lt;Path&gt;" class="cls-1" d="M26.16,118c-5.67,7.19-10.44,15.44-12.08,24.57-1.24,6.87-2.6,19,3.51,23.91.53.43,1.59.39,1.72-.45.53-3.35-.57-6.12-1.09-9.42a43.48,43.48,0,0,1,0-13.2,83.88,83.88,0,0,1,8.08-25.29c0-.1-.09-.22-.16-.12Z"/></g><g id="_Group_20" data-name="&lt;Group&gt;"><path id="_Path_19" data-name="&lt;Path&gt;" class="cls-1" d="M27.2,175.45c3.83-5.39,6.24-12.48,8.36-18.71s4.27-13.09,4.56-19.8a.52.52,0,0,0-1-.26c-2.92,5.72-4.67,12.09-6.79,18.13-2.29,6.51-5.3,13.27-6.58,20a.78.78,0,0,0,1.41.6Z"/></g><g id="_Group_21" data-name="&lt;Group&gt;"><path id="_Path_20" data-name="&lt;Path&gt;" class="cls-1" d="M41.17,130.47a.1.1,0,0,0,0-.21.1.1,0,0,0,0,.21Z"/></g><g id="_Group_22" data-name="&lt;Group&gt;"><path id="_Path_21" data-name="&lt;Path&gt;" class="cls-1" d="M44,124.68a56.52,56.52,0,0,0,3.69-18.11c.06-3.22-.47-6.52-3.66-8-1.68-.76-3.15,1.72-1.46,2.49,3.69,1.67,2.44,7.85,2.14,10.93a102.34,102.34,0,0,1-2,12.3.67.67,0,0,0,1.29.36Z"/></g><g id="_Group_23" data-name="&lt;Group&gt;"><path id="_Path_22" data-name="&lt;Path&gt;" class="cls-1" d="M37.55,144.29c9.14.66,20.27-2.44,28.87-5.46,4-1.4,10.09-6.34,5.14-10.45a1.15,1.15,0,0,0-1.93.8c-.11,6.58-10.07,7.29-15,8.56-5.74,1.48-11.77,2.38-17.41,4.12a1.24,1.24,0,0,0,.33,2.43Z"/></g><g id="_Group_24" data-name="&lt;Group&gt;"><path id="_Path_23" data-name="&lt;Path&gt;" class="cls-1" d="M6.13,109.76a8,8,0,0,0,5,2.41,9.41,9.41,0,0,0,2.79-.06,3,3,0,0,0,2.29-1.54.89.89,0,0,0-.62-1.49,6.15,6.15,0,0,0-1.43-.2c-.88.09-1.66.39-2.56.41a12.3,12.3,0,0,1-4.66-.91c-.79-.32-1.35.84-.8,1.38Z"/></g><g id="_Group_25" data-name="&lt;Group&gt;"><path id="_Path_24" data-name="&lt;Path&gt;" class="cls-1" d="M44.17,92c2.49-3.51,3.24-11.78,1.06-15.59C43.84,74,40,73.63,37.57,72.61c-3.23-1.38-6.45-2.84-9.74-4.08-1.62-.61-2.3,2-.71,2.58,4,1.57,12.95,2.65,14.53,7.11s-.21,9.19.83,13.58a.94.94,0,0,0,1.69.22Z"/></g><g id="_Group_26" data-name="&lt;Group&gt;"><path id="_Path_25" data-name="&lt;Path&gt;" class="cls-1" d="M61.67,85.9a8.15,8.15,0,0,0,1.71-1.74,14.84,14.84,0,0,1,1.83-2.1c1.18-1.14,2.68-2,3.62-3.4a.67.67,0,0,0-.58-1c-2,0-3.66,1.44-5,2.8a18.07,18.07,0,0,0-1.86,2.31,4.59,4.59,0,0,0-.82,2.7c0,.58.68.75,1.06.44Z"/></g><g id="_Group_27" data-name="&lt;Group&gt;"><path id="_Path_26" data-name="&lt;Path&gt;" class="cls-1" d="M73,79.46A36.15,36.15,0,0,1,93.6,81.22c2.72,1,6.14,2.39,8.36,4.31,3.18,2.76,2.11,6.14.8,9.79a110.86,110.86,0,0,1-8.51,18.16c-1.24,2.14-3.08,6.8-5.14,8.28-1.63,1.17-3.91.29-5.74.95-.89.32-1.15,1.91,0,2.09,2.71.42,4.66,1.59,7.12,0s4.2-5.5,5.69-7.93c4.79-7.82,9.3-17.19,11.24-26.21,3.36-15.59-26.22-15.38-35-13.48-1.5.32-.86,2.58.63,2.28Z"/></g><g id="_Group_28" data-name="&lt;Group&gt;"><path id="_Path_27" data-name="&lt;Path&gt;" class="cls-1" d="M50.22,140.71c1,3.05,2,6.11,3.08,9.15.84,2.44,1.5,5.48,3.56,7.15a1.25,1.25,0,0,0,2.11-.87c.19-2.66-1.56-5.2-2.76-7.5-1.5-2.85-3-5.68-4.57-8.52a.78.78,0,0,0-1.41.6Z"/></g><g id="_Group_29" data-name="&lt;Group&gt;"><path id="_Path_28" data-name="&lt;Path&gt;" class="cls-1" d="M61.68,158.27c8.12.18,16.23.36,24.3-.74,4.9-.66,9.65-2.2,12.71-6.37,5.26-7.18,2.83-24.23-3.64-30-.87-.77-2.65,0-2.15,1.25,3,7.74,8.84,19.48,4.23,27.79-3.25,5.86-12.29,5.08-18,5.1s-11.64-.16-17.45-.38c-2.12-.08-2.12,3.25,0,3.3Z"/></g><g id="_Group_30" data-name="&lt;Group&gt;"><path id="_Path_29" data-name="&lt;Path&gt;" class="cls-1" d="M6.42,68.93c3.38,1.67,7.17,1.67,10.9,1.92,5.28.35,10.56.56,15.84.83A136,136,0,0,0,48,72c4.46-.26,9.55-.16,13.87-1.32a.52.52,0,0,0,0-1c-4.34-1.47-9.7-1.81-14.28-2.34-4.37-.5-8.92-.47-13.32-.55-4.93-.09-9.86-.15-14.79-.21-4.27-.05-8.85-.52-12.85,1.12-.48.2-.73.94-.16,1.22Z"/></g><g id="_Group_31" data-name="&lt;Group&gt;"><path id="_Path_30" data-name="&lt;Path&gt;" class="cls-1" d="M66.08,70.77c12.53.41,26.18,3.73,38.63,1.47,1.92-.35,1.92-3.53,0-3.87-12.44-2.26-26.1,1.07-38.63,1.47a.46.46,0,0,0,0,.93Z"/></g><g id="_Group_32" data-name="&lt;Group&gt;"><path id="_Path_31" data-name="&lt;Path&gt;" class="cls-1" d="M4.45,60.25C20.65,59.36,36.78,57.54,53,57c7.74-.27,15.47-.22,23.22,0,8.32.2,16.93,0,25.19.73a.31.31,0,0,0,.08-.61c-7.85-1.64-15.11-3.26-23.17-3.75a245.34,245.34,0,0,0-25.32,0A457.74,457.74,0,0,0,4.15,58c-1.26.19-1,2.29.3,2.23Z"/></g><g id="_Group_33" data-name="&lt;Group&gt;"><path id="_Path_32" data-name="&lt;Path&gt;" class="cls-1" d="M104,58.8a12.11,12.11,0,0,0,3.72,2.39.57.57,0,0,0,.55-.95c-1-1.07-2.54-1.54-3.85-2.16a.41.41,0,0,0-.42.71Z"/></g><g id="_Group_34" data-name="&lt;Group&gt;"><path id="_Path_33" data-name="&lt;Path&gt;" class="cls-1" d="M107,63c-.24,6-1.53,13.66.44,19.39A1.35,1.35,0,0,0,110,82c.34-2.73-.27-5.69-.63-8.41A100.09,100.09,0,0,1,108.62,63,.82.82,0,0,0,107,63Z"/></g><g id="_Group_35" data-name="&lt;Group&gt;"><path id="_Path_34" data-name="&lt;Path&gt;" class="cls-1" d="M1.23,62.27c-.21,26.71.23,53.5,1.1,80.2.21,6.5.57,13,.3,19.5C2.37,167.8.74,174.59,2.5,180.3c.87,2.81,1.87,5.17,2.2,8.17.43,4,0,7.46,0,11.41,0,3.18,1,6.05,1,9.22a89.24,89.24,0,0,0,.3,9.19c.3,2.57,4.1,2.72,4.12,0,0-3-.42-5.94-.57-8.92-.17-3.52.37-7.05-.09-10.56-.43-3.29-1.2-6.42-1.14-9.75s1-6.44,1.6-9.75c1.05-6.24-1.27-13.3-2-19.5-.71-6.47-.79-13-1-19.5-1-26-2-52-3.09-78a1.29,1.29,0,0,0-2.58,0Z"/></g><g id="_Group_36" data-name="&lt;Group&gt;"><path id="_Path_35" data-name="&lt;Path&gt;" class="cls-1" d="M6.68,213.15c-1.08,11.36-2.54,22.58-3.15,34-.31,5.79.6,11.24.93,17,.27,4.67,0,9,2.14,13.27a1,1,0,0,0,1.78,0c2-4.3,1.56-8.62,1.65-13.27.11-5.74,1-11.23.67-17-.62-11.34-1.77-22.67-2.27-34a.88.88,0,0,0-1.75,0Z"/></g><g id="_Group_37" data-name="&lt;Group&gt;"><path id="_Path_36" data-name="&lt;Path&gt;" class="cls-1" d="M6.76,282.79c-.24,18.66-2,37.41-.87,56.08.08,1.44,0,4,.62,5.35.7,1.63,1.54,2.19,2.06,3.88,1.36,4.45-1.16,9.05-.69,13.47.7,6.57,9.08,9.07,14.43,10.52,16.22,4.41,33.38,2.21,49.81.4,7.8-.86,15.83-1.26,23.54-2.77,5.31-1,11.34-3.47,12.73-9.26.47-2-1.82-4.22-3.71-2.85-10.26,7.43-24.28,6.6-36.51,7.82-13.84,1.38-28.12,2.55-41.76-.93-7.93-2-15.23-4.94-14.33-14.85.33-3.67,2.23-5.89,2.36-9.71.12-3.59-.18-7.2-.33-10.78-.65-15.51-2.43-30.9-3.43-46.37-.16-2.49-3.88-2.54-3.91,0Z"/></g><g id="_Group_38" data-name="&lt;Group&gt;"><path id="_Path_37" data-name="&lt;Path&gt;" class="cls-1" d="M104.27,68.66c-1.11,7.15-.69,14.58-.78,21.81l-.3,22.7c-.1,7.61-.7,15.11-1.11,22.7a61.49,61.49,0,0,0,3.2,21.89,1,1,0,0,0,2,0,62.23,62.23,0,0,0,2.57-21.89c-.58-7.58-1.45-15.08-1.78-22.7l-1-22.7c-.31-7.22-.09-14.69-1.41-21.81a.73.73,0,0,0-1.39,0Z"/></g><g id="_Group_39" data-name="&lt;Group&gt;"><path id="_Path_38" data-name="&lt;Path&gt;" class="cls-1" d="M104.71,165.52c-.31,13.38-1.31,26.71-1.52,40.1-.11,6.86-.42,13.73-.52,20.59a17.45,17.45,0,0,0,1,7c1.5,4,1.31,7.17,1.25,11.41-.19,13.44-2.51,26.63-2.68,40.1-.09,6.55.37,13,.83,19.51s.38,13.45,1.59,19.86a1.35,1.35,0,0,0,2.58,0c1.2-6.06,1.24-12.59,1.69-18.78.47-6.53,1.07-12.95,1.09-19.51,0-13.83-2.22-27.39-2.26-41.18,0-3.56-.45-7.22,1-10.57a15.5,15.5,0,0,0,1.53-6.77c.05-6.85-.28-13.73-.3-20.59,0-13.75-.87-27.44-1-41.18,0-2.72-4.16-2.72-4.22,0Z"/></g><g id="_Group_40" data-name="&lt;Group&gt;"><path id="_Path_39" data-name="&lt;Path&gt;" class="cls-1" d="M104.16,326.69c.09,7.12-.25,14.19-.74,21.29a48.26,48.26,0,0,1-1,9.22c-.58,2.15-2.15,3.86-2,6.12a1.6,1.6,0,0,0,.79,1.38l.55.25a2.86,2.86,0,0,0,2.87,0c4.5-3.38,4.8-8.51,5.3-13.79a139.82,139.82,0,0,0-.09-24.48c-.29-3.58-5.71-3.7-5.67,0Z"/></g><g id="_Group_41" data-name="&lt;Group&gt;"><path id="_Path_40" data-name="&lt;Path&gt;" class="cls-1" d="M46.81,363.24c-.56-4.93-8.68-5.24-12.42-6.38s-7.63-2.42-11.43-3.71c-3.47-1.17-7.29-3-10.92-3.48s-4.67,6.13-.9,6.64c5.69.77,11.34,3.18,17.06,4.17s13,.43,18.29,2.94c.12.06.33,0,.31-.18Z"/></g><g id="_Group_42" data-name="&lt;Group&gt;"><path id="_Path_41" data-name="&lt;Path&gt;" class="cls-1" d="M50.45,362.74a14,14,0,0,0,4,.84,4.8,4.8,0,0,0,3.74-.78,1.34,1.34,0,0,0,0-1.89c-2.07-1.6-5.53-.82-7.79.05a.94.94,0,0,0,0,1.79Z"/></g><g id="_Group_43" data-name="&lt;Group&gt;"><path id="_Path_42" data-name="&lt;Path&gt;" class="cls-1" d="M64.57,363.25c4.33-.28,8.68-.22,13-.76,3.06-.38,6.64-.2,8.21-3.27a1.59,1.59,0,0,0-.24-1.87c-2.44-2.46-5.69-1.27-8.76-.7-4.29.8-8.42,2.2-12.65,3.26-1.82.46-1.49,3.46.45,3.34Z"/></g><g id="_Group_44" data-name="&lt;Group&gt;"><path id="_Path_43" data-name="&lt;Path&gt;" class="cls-1" d="M89.72,357.4A30.5,30.5,0,0,0,102,352.11a2.3,2.3,0,0,0,.81-3.09,2.94,2.94,0,0,0-.81-.81,2.27,2.27,0,0,0-2.74.35,21.1,21.1,0,0,1-10.16,6.76,1.08,1.08,0,0,0,.58,2.09Z"/></g><g id="_Group_45" data-name="&lt;Group&gt;"><path id="_Path_44" data-name="&lt;Path&gt;" class="cls-1" d="M13.09,323.55c6,5.46,15.16,6.67,22.82,8.2,6.92,1.38,16,3.7,22.56.25a.93.93,0,0,0,.19-1.46c-5.78-4.62-15-4.22-22-5.24-7.59-1.1-15.6-4-23.29-2.79a.62.62,0,0,0-.27,1Z"/></g><g id="_Group_46" data-name="&lt;Group&gt;"><path id="_Path_45" data-name="&lt;Path&gt;" class="cls-1" d="M64.59,331.24c9.27.55,18.65-.88,27.78-2.63,4.53-.86,14.41-2,14.13-8.36a2,2,0,0,0-2.48-1.89c-2.28.51-4.22,1.94-6.45,2.68-3.56,1.19-7.23,2-10.79,3.21-7.39,2.43-14.94,3.83-22.26,6.49a.26.26,0,0,0,.07.51Z"/></g><g id="_Group_47" data-name="&lt;Group&gt;"><path id="_Path_46" data-name="&lt;Path&gt;" class="cls-1" d="M32,284.69a22.45,22.45,0,0,0,5.07-.95.93.93,0,0,0-.25-1.82,23.82,23.82,0,0,0-5.43.58c-1.44.21-.83,2.39.6,2.19Z"/></g><g id="_Group_48" data-name="&lt;Group&gt;"><path id="_Path_47" data-name="&lt;Path&gt;" class="cls-1" d="M41.69,97.32c-8.58-5.31-20.79,4.48-27.14,9.53C7.59,112.39.34,121.64,1,131.09a1.76,1.76,0,0,0,3.44.47c2.81-9.15,4.66-16.11,12.88-22.13a77.44,77.44,0,0,1,10.44-6.64c4.7-2.4,8.7-2.4,13.64-3.49a1.09,1.09,0,0,0,.26-2Z"/></g><g id="_Group_49" data-name="&lt;Group&gt;"><path id="_Path_48" data-name="&lt;Path&gt;" class="cls-1" d="M6.79,162.79a15.15,15.15,0,0,0,5.85,8.8c2.22,1.5,7.13,4.06,9.13,1.21a1.26,1.26,0,0,0,0-1.3c-1.27-2.05-5-1.68-7-2.76a13.59,13.59,0,0,1-6.54-6.54c-.37-.82-1.62-.23-1.41.6Z"/></g><g id="_Group_50" data-name="&lt;Group&gt;"><path id="_Path_49" data-name="&lt;Path&gt;" class="cls-1" d="M20.15,146.56a14.29,14.29,0,0,1,3.71-.39c.77.11,1.49.45,2.28.58a8.48,8.48,0,0,0,4.88-.3c1.17-.5,1-2.29,0-2.85a7.06,7.06,0,0,0-5.63-.2c-.76.27-1.4.68-2.18.91-1.14.32-2.31.53-3.45.86a.72.72,0,0,0,.38,1.39Z"/></g><g id="_Group_51" data-name="&lt;Group&gt;"><path id="_Path_50" data-name="&lt;Path&gt;" class="cls-1" d="M33.11,144.89l1.26-.09a1.25,1.25,0,0,0,0-2.5l-1.26-.09c-1.72-.12-1.73,2.8,0,2.68Z"/></g><g id="_Group_52" data-name="&lt;Group&gt;"><path id="_Path_51" data-name="&lt;Path&gt;" class="cls-1" d="M25.77,139.35c1.8-.2,4-.1,5.57-1a.89.89,0,0,0-.21-1.6c-1.79-.43-3.84.27-5.63.6-1.13.21-.88,2.15.27,2Z"/></g><g id="_Group_53" data-name="&lt;Group&gt;"><path id="_Path_52" data-name="&lt;Path&gt;" class="cls-1" d="M34.85,139.42l.53-.08a.93.93,0,0,0,.66-.66,1,1,0,0,0,0-.51.93.93,0,0,0-.66-.66l-.53-.08a1,1,0,1,0,0,2Z"/></g><g id="_Group_54" data-name="&lt;Group&gt;"><path id="_Path_53" data-name="&lt;Path&gt;" class="cls-1" d="M22.48,128c2.45,1.18,5,2.94,7.77,3.16a1,1,0,0,0,.69-1.67c-2.11-1.76-5.17-2.31-7.75-3.19-1-.33-1.67,1.24-.71,1.69Z"/></g><g id="_Group_55" data-name="&lt;Group&gt;"><path id="_Path_54" data-name="&lt;Path&gt;" class="cls-1" d="M33.54,132.94l2.72.63a1.14,1.14,0,0,0,1.1-.29,1.12,1.12,0,0,0,.29-1.1,1.13,1.13,0,0,0-.79-.79l-2.69-.72c-1.48-.4-2.11,1.94-.63,2.28Z"/></g><g id="_Group_56" data-name="&lt;Group&gt;"><path id="_Path_55" data-name="&lt;Path&gt;" class="cls-1" d="M31,121.89l2.73,1.34c1.3.64,2.45-1.31,1.14-2l-2.73-1.34c-1.3-.64-2.45,1.31-1.14,2Z"/></g><g id="_Group_57" data-name="&lt;Group&gt;"><path id="_Path_56" data-name="&lt;Path&gt;" class="cls-1" d="M39,122.51a.93.93,0,0,0,0-1.85.93.93,0,0,0,0,1.85Z"/></g><g id="_Group_58" data-name="&lt;Group&gt;"><path id="_Path_57" data-name="&lt;Path&gt;" class="cls-1" d="M36.93,108.24c.53.48,1.17,1.32,1.88,1.48a.63.63,0,0,0,.76-.76c-.16-.71-1-1.36-1.48-1.88-.71-.79-2,.45-1.17,1.17Z"/></g><g id="_Group_59" data-name="&lt;Group&gt;"><path id="_Path_58" data-name="&lt;Path&gt;" class="cls-1" d="M41,104.19c1.36,1.3,1.72,3,2.54,4.59a.78.78,0,0,0,1.41-.18c.76-2.21-.69-4.62-2.2-6.15-1.12-1.13-2.9.64-1.75,1.75Z"/></g><g id="_Group_60" data-name="&lt;Group&gt;"><path id="_Path_59" data-name="&lt;Path&gt;" class="cls-1" d="M15.55,156.28c2.48-.13,5-.15,7.46-.43,1.91-.22,4.29-.18,5.24-2.09a1.16,1.16,0,0,0-.18-1.37c-1.56-1.43-3.47-.72-5.36-.26-2.51.62-5,1.54-7.41,2.33-1,.31-.84,1.88.25,1.82Z"/></g><g id="_Group_61" data-name="&lt;Group&gt;"><path id="_Path_60" data-name="&lt;Path&gt;" class="cls-1" d="M28.45,153.55l-.53.08a1,1,0,0,0-.66.66.71.71,0,0,0,0,.5,1,1,0,0,0,.66.66l.53.08a1,1,0,1,0,0-2Z"/></g><g id="_Group_62" data-name="&lt;Group&gt;"><path id="_Path_61" data-name="&lt;Path&gt;" class="cls-1" d="M22.8,161.55a5.71,5.71,0,0,1,2.07-.55,4.57,4.57,0,0,0,2.2-.38,1.1,1.1,0,0,0,.22-1.7c-1.4-1.5-4.31-.47-5.84.31s-.19,3,1.35,2.31Z"/></g><g id="_Group_63" data-name="&lt;Group&gt;"><path id="_Path_62" data-name="&lt;Path&gt;" class="cls-1" d="M28,161.18a.77.77,0,0,0,0-1.55.77.77,0,0,0,0,1.55Z"/></g><g id="_Group_64" data-name="&lt;Group&gt;"><path id="_Path_63" data-name="&lt;Path&gt;" class="cls-1" d="M31.51,159.73c7.57,5,19.45,9.77,28.31,5.32a.73.73,0,0,0-.17-1.32c-4.35-1.45-9.2-1.34-13.71-2.21a71,71,0,0,1-13.47-4c-1.35-.56-2.06,1.53-1,2.26Z"/></g><g id="_Group_65" data-name="&lt;Group&gt;"><path id="_Path_64" data-name="&lt;Path&gt;" class="cls-1" d="M69.13,165.74a2.29,2.29,0,0,0,3.89.58c.93-1,1.32-2.38,2-3.52.8-1.4,2-2.75,2.37-4.32.23-.92-1-1.85-1.72-1a14.86,14.86,0,0,0-1.79,3.84,25.81,25.81,0,0,1-1.22,2.62c-.2.37-1.42,2.37-1.81,1.33s-2.12-.56-1.69.47Z"/></g><g id="_Group_66" data-name="&lt;Group&gt;"><path id="_Path_65" data-name="&lt;Path&gt;" class="cls-1" d="M37.51,154a27.24,27.24,0,0,0,6.12,0,1,1,0,0,0,0-1.89,27.21,27.21,0,0,0-6.12,0,.93.93,0,0,0,0,1.85Z"/></g><g id="_Group_67" data-name="&lt;Group&gt;"><path id="_Path_66" data-name="&lt;Path&gt;" class="cls-1" d="M60.19,149.48c-.66,2.28,2.73,3.68,4.35,4.23,2.32.78,6.32,1.41,8.08-.71a2,2,0,0,0-.4-3.11c-2.23-1.09-5.07-.06-7.52-.6-.91-.2-4.06-1.36-4.51.19Z"/></g><g id="_Group_68" data-name="&lt;Group&gt;"><path id="_Path_67" data-name="&lt;Path&gt;" class="cls-1" d="M75.6,153.67c2.37,0,5.56.55,7.36-1.3a1.1,1.1,0,0,0,0-1.53c-1.8-1.84-5-1.25-7.36-1.3-2.65-.05-2.66,4.17,0,4.12Z"/></g><g id="_Group_69" data-name="&lt;Group&gt;"><path id="_Path_68" data-name="&lt;Path&gt;" class="cls-1" d="M87.07,152.44a15,15,0,0,0,2.21-1.78c.41-.47,0-1.34-.65-1.12a14.71,14.71,0,0,0-2.5,1.3c-1.06.6,0,2.31.94,1.6Z"/></g><g id="_Group_70" data-name="&lt;Group&gt;"><path id="_Path_69" data-name="&lt;Path&gt;" class="cls-1" d="M94.29,145.67l.51-.86a1,1,0,0,0-1.41-1.41l-.86.51a1.29,1.29,0,1,0,1.76,1.76Z"/></g><g id="_Group_71" data-name="&lt;Group&gt;"><path id="_Path_70" data-name="&lt;Path&gt;" class="cls-1" d="M66.19,122.51c1.78,1.43,3.9,1.47,6.08.92s4.33-1.51,5.15-3.84c.34-1-.67-1.67-1.52-1.52-1.72.31-2.92,1.35-4.59,1.88s-3.23.66-4.78,1.27c-.48.19-.84.89-.34,1.29Z"/></g><g id="_Group_72" data-name="&lt;Group&gt;"><path id="_Path_71" data-name="&lt;Path&gt;" class="cls-1" d="M80.8,117.25l.55-.62a1.08,1.08,0,0,0-1.53-1.53l-.62.55c-1.09,1,.63,2.7,1.6,1.6Z"/></g><g id="_Group_73" data-name="&lt;Group&gt;"><path id="_Path_72" data-name="&lt;Path&gt;" class="cls-1" d="M96.43,103.86A36,36,0,0,0,98.17,99c.45-1.54,1-3.08.53-4.68a.94.94,0,0,0-1.55-.41C96,95,95.66,96.62,95.27,98.18a36.16,36.16,0,0,0-1,5.11,1.14,1.14,0,0,0,2.11.57Z"/></g><g id="_Group_74" data-name="&lt;Group&gt;"><path id="_Path_73" data-name="&lt;Path&gt;" class="cls-1" d="M76.38,94.8C75.13,92.93,73.66,91.13,73,89s0-4.49-.78-6.44A1.36,1.36,0,0,0,70,81.92c-2.06,2.07-1.2,5.87-.24,8.3,1.08,2.72,2.74,5,5.53,6a1,1,0,0,0,1.11-1.44Z"/></g><g id="_Group_75" data-name="&lt;Group&gt;"><path id="_Path_74" data-name="&lt;Path&gt;" class="cls-1" d="M50.67,84.27a19.51,19.51,0,0,0-1.51-1.52,9.31,9.31,0,0,0-1.93-1,1.4,1.4,0,0,0-1.41,0,1.34,1.34,0,0,0-.64.84,1.4,1.4,0,0,0,.36,1.36,12.34,12.34,0,0,0,1.89,1.41,15.65,15.65,0,0,0,2.19.75,1.09,1.09,0,0,0,1.05-1.81Z"/></g><g id="_Group_76" data-name="&lt;Group&gt;"><path id="_Path_75" data-name="&lt;Path&gt;" class="cls-1" d="M17.24,105a22.31,22.31,0,0,1-3-1.36,12.09,12.09,0,0,1-3.3-1.53,4.92,4.92,0,0,1-1.49-2.46c-.24-.88,0-1.78-.29-2.63a1.51,1.51,0,0,0-1.84-1c-3.42,1.2-2.27,5.94-.42,8A9,9,0,0,0,11,106.51a7.92,7.92,0,0,0,2.92.37c1.09-.08,2.07-.57,3.13-.67.65-.07.89-1,.16-1.21Z"/></g><g id="_Group_77" data-name="&lt;Group&gt;"><path id="_Path_76" data-name="&lt;Path&gt;" class="cls-1" d="M8.37,87.44c-.33-1.38.16-2.59.15-4a1.09,1.09,0,0,0-1.63-.93c-1.66,1.15-2,3.43-1.76,5.34a1.65,1.65,0,1,0,3.24-.44Z"/></g><g id="_Group_78" data-name="&lt;Group&gt;"><path id="_Path_77" data-name="&lt;Path&gt;" class="cls-1" d="M18.8,80.14a3.36,3.36,0,0,1-.43,2.14c-.39.79.47,2,1.34,1.34A3,3,0,0,0,21,81.78a4.48,4.48,0,0,0,0-2.25,1.13,1.13,0,0,0-2.19.6Z"/></g><g id="_Group_79" data-name="&lt;Group&gt;"><path id="_Path_78" data-name="&lt;Path&gt;" class="cls-1" d="M29.32,78.4A14.18,14.18,0,0,1,33,90.23a1.9,1.9,0,1,0,3.74.51A14.73,14.73,0,0,0,30.2,77.27c-.72-.46-1.39.54-.87,1.13Z"/></g><g id="_Group_80" data-name="&lt;Group&gt;"><path id="_Path_79" data-name="&lt;Path&gt;" class="cls-1" d="M35.81,92.77a3.61,3.61,0,0,0-.65,3.8,2.84,2.84,0,0,0,3.36,1.76,1.9,1.9,0,0,0,1.12-2.74c-.22-.45,0,.39,0,0s-.43-1.29-.12-.44q-.08-.36,0,.26,0-.37-.05.27.11-.35-.11.25-.41.48-.14.22a2.43,2.43,0,0,0,0-3.42c-.87-.8-2.59-1.06-3.42,0Z"/></g><g id="_Group_81" data-name="&lt;Group&gt;"><path id="_Path_80" data-name="&lt;Path&gt;" class="cls-1" d="M53.45,100.18,56,97.27a15,15,0,0,0,2.45-3.06c.76-1.54-.87-3.59-2.52-2.52a14.51,14.51,0,0,0-2.78,2.73l-2.59,2.91c-1.71,1.93,1.12,4.78,2.84,2.84Z"/></g><g id="_Group_82" data-name="&lt;Group&gt;"><path id="_Path_81" data-name="&lt;Path&gt;" class="cls-1" d="M59.87,103.67c-3.4,3-4.69,8.69-1.39,12.28,2.07,2.25,6.2-.09,5.21-3-.93-2.79-2.45-4.81-1.41-7.84.5-1.45-1.41-2.3-2.41-1.4Z"/></g><g id="_Group_83" data-name="&lt;Group&gt;"><path id="_Path_82" data-name="&lt;Path&gt;" class="cls-1" d="M60.52,117.92c.15,1.27.15,2.55,1.05,3.55a2.25,2.25,0,0,0,3.15,0c.9-1,.9-2.29,1.05-3.55a2.62,2.62,0,0,0-.77-1.86,2.67,2.67,0,0,0-1.86-.77c-1.28.06-2.8,1.17-2.63,2.63Z"/></g><g id="_Group_84" data-name="&lt;Group&gt;"><path id="_Path_83" data-name="&lt;Path&gt;" class="cls-1" d="M53.25,129.13c-.06.36-.13.71-.19,1.07a4.19,4.19,0,0,0,0,1.79,2.31,2.31,0,0,0,2,2,2.28,2.28,0,0,0,2-1.86,4.17,4.17,0,0,0,.08-1.79c-.07-.39-.14-.79-.21-1.18-.33-1.82-3.34-1.82-3.68,0Z"/></g><g id="_Group_85" data-name="&lt;Group&gt;"><path id="_Path_84" data-name="&lt;Path&gt;" class="cls-1" d="M45.85,137.52l-.43.07c-1.55.25-1.56,2.89,0,3.14l.43.07a1.68,1.68,0,1,0,0-3.28Z"/></g><g id="_Group_86" data-name="&lt;Group&gt;"><path id="_Path_85" data-name="&lt;Path&gt;" class="cls-1" d="M79.63,89.62c.11.33.14.68.25,1s.32.67.43,1a7.31,7.31,0,0,1,.15.89A2.47,2.47,0,0,0,81.23,94a1.37,1.37,0,0,0,1.89,0c1-.92.84-2.23.37-3.4A4.71,4.71,0,0,0,82.63,89a4,4,0,0,0-1.55-.86,1.19,1.19,0,0,0-1.46,1.46Z"/></g><g id="_Group_87" data-name="&lt;Group&gt;"><path id="_Path_86" data-name="&lt;Path&gt;" class="cls-1" d="M11.87,78.41a.05.05,0,0,0,0-.11.05.05,0,0,0,0,.11Z"/></g><g id="_Group_88" data-name="&lt;Group&gt;"><path id="_Path_87" data-name="&lt;Path&gt;" class="cls-1" d="M11.14,81.37a1.55,1.55,0,0,0,0-3.09,1.55,1.55,0,0,0,0,3.09Z"/></g><g id="_Group_89" data-name="&lt;Group&gt;"><path id="_Path_88" data-name="&lt;Path&gt;" class="cls-1" d="M9.21,87.15c0,16.72,0,33.47.52,50.19.25,8,.26,16,1,24,.69,7.7.78,16.84,3.43,24.15a.62.62,0,0,0,1.19,0c1.84-7.25,1.07-15.61,1.22-23.06.17-8.34-.43-16.74-.66-25.08-.46-16.73-1.07-33.45-1.31-50.19,0-3.44-5.36-3.45-5.36,0Z"/></g><g id="_Group_90" data-name="&lt;Group&gt;"><path id="_Path_89" data-name="&lt;Path&gt;" class="cls-1" d="M15.17,194.83c.34,8.52-1.59,19.15,2.63,27a1.14,1.14,0,0,0,2.07-.27c1.63-8.73-2.78-18.28-4-26.83-.06-.4-.72-.31-.71.1Z"/></g><g id="_Group_91" data-name="&lt;Group&gt;"><path id="_Path_90" data-name="&lt;Path&gt;" class="cls-1" d="M19.93,240.3a.05.05,0,0,0,0-.11.05.05,0,0,0,0,.11Z"/></g><g id="_Group_92" data-name="&lt;Group&gt;"><path id="_Path_91" data-name="&lt;Path&gt;" class="cls-1" d="M91.88,144.29q-.59,14.63-.72,29.27c-.06,8.21-1.23,17.8,2.29,25.4.37.81,1.56.51,1.79-.23,2.52-8.13.11-17.9-.6-26.25q-1.2-14.08-1.93-28.19a.41.41,0,0,0-.82,0Z"/></g><g id="_Group_93" data-name="&lt;Group&gt;"><path id="_Path_92" data-name="&lt;Path&gt;" class="cls-1" d="M92.63,211.69c-.75,7.4-.91,15.6.54,22.93.16.81,1.56.86,1.69,0,1.09-7.47.52-15.7-.61-23.15-.15-1-1.53-.63-1.62.22Z"/></g><g id="_Group_94" data-name="&lt;Group&gt;"><path id="_Path_93" data-name="&lt;Path&gt;" class="cls-1" d="M49.23,183a.62.62,0,0,0,0-1.24.62.62,0,0,0,0,1.24Z"/></g><g id="_Group_95" data-name="&lt;Group&gt;"><path id="_Path_94" data-name="&lt;Path&gt;" class="cls-1" d="M45.13,179.27A63.15,63.15,0,0,1,63.54,207a58.22,58.22,0,0,1,2.79,16c.16,6.41-1.79,11-3.89,16.8-.65,1.79,1.66,2.57,2.84,1.65,9.16-7.09,6-25.53,2.84-34.87a56.62,56.62,0,0,0-21.68-29.09c-1-.7-2.23.89-1.31,1.7Z"/></g><g id="_Group_96" data-name="&lt;Group&gt;"><path id="_Path_95" data-name="&lt;Path&gt;" class="cls-1" d="M44.73,180.08c-1.41,4.26.86,9.18,1.83,13.43,1.3,5.69,2.8,11.32,4.27,17,2.68,10.37,4.22,22.44,9,32.06a1.92,1.92,0,0,0,3.55-1c-.29-5.24-2.09-10.4-3.44-15.46l-4.52-16.9c-1.51-5.63-3-11.28-4.63-16.87-1.24-4.17-1.69-9.54-5-12.55a.63.63,0,0,0-1,.27Z"/></g><g id="_Group_97" data-name="&lt;Group&gt;"><path id="_Path_96" data-name="&lt;Path&gt;" class="cls-1" d="M62.86,244.27C79.52,247,81.8,222,79.11,210.9c-2-8.18-7.33-15.11-13.32-20.81-3.57-3.4-7.45-6.51-11.32-9.57-2.87-2.26-5.62-4.74-9.4-4.73a.93.93,0,0,0-.8,1.4c3.14,4.51,8.82,7.43,13,11,5.26,4.42,10.39,9.17,14,15.1,5.45,9.06,8.8,38.3-8,38.27-1.52,0-2,2.47-.37,2.73Z"/></g><g id="_Group_98" data-name="&lt;Group&gt;"><path id="_Path_97" data-name="&lt;Path&gt;" class="cls-1" d="M49.38,196.69l3.94,1.79c1.11.51,2.27,1.32,3.51.91a1,1,0,0,0,.58-1.44c-.67-1.14-2-1.28-3.18-1.63l-4.18-1.22c-.93-.27-1.6,1.18-.67,1.6Z"/></g><g id="_Group_99" data-name="&lt;Group&gt;"><path id="_Path_98" data-name="&lt;Path&gt;" class="cls-1" d="M55.63,204.85c-.64.13.17,0-.19,0q-.24,0,0,0l-.18-.09c.05,0,.39.25.19.09s.12.14.14.16-.13-.19,0,0a1.86,1.86,0,0,0,.54.65c.12.09.25.17.37.26-.17-.14-.15-.13,0,0a1.23,1.23,0,0,0,1.5.19A2.65,2.65,0,0,0,59,204.77a2.69,2.69,0,0,0-.74-2.4A3.69,3.69,0,0,0,55.11,201a2,2,0,1,0,.52,3.84Z"/></g><g id="_Group_100" data-name="&lt;Group&gt;"><path id="_Path_99" data-name="&lt;Path&gt;" class="cls-1" d="M59.24,212.36q-.43.17-.1.07-.5.05-.14,0c.48-.08-.47.1,0,0q.32.11-.1,0l.19.11q.19.13-.12-.11l.22.21c.1.11.19.22.3.32s.13.13,0-.07a2,2,0,0,1,.15.24c-.21-.34.06.16,0-.21a1.65,1.65,0,0,0,.23.84l.31.4a1.56,1.56,0,0,0,1.87.24A2.5,2.5,0,0,0,63,212.07a3.67,3.67,0,0,0-1-2.46,4.28,4.28,0,0,0-4.45-1.21,2.16,2.16,0,1,0,1.67,4Z"/></g><g id="_Group_101" data-name="&lt;Group&gt;"><path id="_Path_100" data-name="&lt;Path&gt;" class="cls-1" d="M33.42,174.91a57.62,57.62,0,0,0-3.14,16.21c-.29,5-.67,10.22,2.38,14.41a.73.73,0,0,0,1.32-.17c1.74-4.64.61-9.4.53-14.24-.09-5.31.3-10.68.63-16,.06-1-1.41-1.12-1.72-.23Z"/></g><g id="_Group_102" data-name="&lt;Group&gt;"><path id="_Path_101" data-name="&lt;Path&gt;" class="cls-1" d="M35.7,208.5,44,211.24c2.2.72,4.45,2,6.78,1.54a.78.78,0,0,0,.34-1.29c-1.66-1.65-4.29-1.9-6.49-2.54l-8.39-2.44a1,1,0,0,0-.55,2Z"/></g><g id="_Group_103" data-name="&lt;Group&gt;"><path id="_Path_102" data-name="&lt;Path&gt;" class="cls-1" d="M34.84,178c-.58-6.6,15.7-2.54,18.64-2.25,5.34.54,10.78,2.13,16.12,2.13a.47.47,0,0,0,.23-.86c-4.79-2.67-38.94-12.55-36.31,1.16a.67.67,0,0,0,1.32-.18Z"/></g><g id="_Group_104" data-name="&lt;Group&gt;"><path id="_Path_103" data-name="&lt;Path&gt;" class="cls-1" d="M80.73,181.7a.05.05,0,0,0,0-.11.05.05,0,0,0,0,.11Z"/></g><g id="_Group_105" data-name="&lt;Group&gt;"><path id="_Path_104" data-name="&lt;Path&gt;" class="cls-1" d="M75.75,179.91c5.27,2.74,1.47,9.61,1.12,13.81-.14,1.64.11,3.33-.1,5-.39,3.05-.2,2.76-2.33,2.28a1.3,1.3,0,0,0-1.25,2.15A5.78,5.78,0,0,0,75,204.93a2,2,0,0,0,2.67,0,7.24,7.24,0,0,0,2.47-5.05c.44-3.84.13-7.51.78-11.4.72-4.29.21-8.74-4.36-10.36a1,1,0,0,0-.75,1.79Z"/></g><g id="_Group_106" data-name="&lt;Group&gt;"><path id="_Path_105" data-name="&lt;Path&gt;" class="cls-1" d="M33,171.75a45.91,45.91,0,0,1,5.29-3c1.55-.75,3.51-1.34,4.49-2.8a1.14,1.14,0,0,0-.68-1.66c-1.86-.33-3.8.86-5.35,1.83a47.26,47.26,0,0,0-5.19,3.8c-1,.86.32,2.6,1.44,1.86Z"/></g><g id="_Group_107" data-name="&lt;Group&gt;"><path id="_Path_106" data-name="&lt;Path&gt;" class="cls-1" d="M51.42,165.48c3.5-.17,7-.31,10.49-.38s8.24-.77,11.46.7c7.13,3.26,4.16,11.1,7.14,17a1.09,1.09,0,0,0,2-.26c1.6-5.39.69-15-4.35-18.53-3-2.08-6.56-1.19-9.93-1.14-5.59.08-11.19-.2-16.79-.12-1.79,0-1.79,2.87,0,2.78Z"/></g><g id="_Group_108" data-name="&lt;Group&gt;"><path id="_Path_107" data-name="&lt;Path&gt;" class="cls-1" d="M73.4,182.43a.05.05,0,0,0,0-.11.05.05,0,0,0,0,.11Z"/></g><g id="_Group_109" data-name="&lt;Group&gt;"><path id="_Path_108" data-name="&lt;Path&gt;" class="cls-1" d="M62.86,164a11.53,11.53,0,0,0-1.33-.47,1.4,1.4,0,0,0-1.54.63,1.37,1.37,0,0,0,.21,1.65,14.48,14.48,0,0,0,1.46,1A1.54,1.54,0,1,0,62.86,164Z"/></g><g id="_Group_110" data-name="&lt;Group&gt;"><path id="_Path_109" data-name="&lt;Path&gt;" class="cls-1" d="M54.31,163.46c-.9.66-2.31,1.33-2.51,2.5a1.16,1.16,0,0,0,.79,1.39,2.26,2.26,0,0,0,1.89-.39l1.39-.84a1.57,1.57,0,0,0,.55-2.11,1.56,1.56,0,0,0-2.11-.55Z"/></g><g id="_Group_111" data-name="&lt;Group&gt;"><path id="_Path_110" data-name="&lt;Path&gt;" class="cls-1" d="M28.61,214.06a22.76,22.76,0,0,0,3.33,4.38c1.2,1.22,2.62,2.63,4.45,2.38a1.2,1.2,0,0,0,.83-1.46c-.33-1.43-1.91-2.32-2.92-3.29a19.16,19.16,0,0,1-2.93-3.63c-1.09-1.73-3.81-.17-2.76,1.61Z"/></g><g id="_Group_112" data-name="&lt;Group&gt;"><path id="_Path_111" data-name="&lt;Path&gt;" class="cls-1" d="M30.12,224.4a16.35,16.35,0,0,0-.95,5.6c-.14,2-.38,4,.55,5.83a1.4,1.4,0,0,0,2.4,0c.93-1.88.69-3.79.55-5.83a16.39,16.39,0,0,0-.95-5.6.93.93,0,0,0-1.6,0Z"/></g><g id="_Group_113" data-name="&lt;Group&gt;"><path id="_Path_112" data-name="&lt;Path&gt;" class="cls-1" d="M30.4,243.92l-.16.3.58-.58c-1.35.73-1.47,2.78-1.55,4.16s.47,3.77,2.37,3.77,2.44-2.26,2.37-3.77-.22-3.44-1.55-4.16l.58.58-.16-.3a1.45,1.45,0,0,0-2.49,0Z"/></g><g id="_Group_114" data-name="&lt;Group&gt;"><path id="_Path_113" data-name="&lt;Path&gt;" class="cls-1" d="M20.35,261.49c-.42,10.73-.75,21.46-1.41,32.18-.31,5-.34,10-.42,15-.07,4.44-1.11,9.6,1.51,13.42a1.1,1.1,0,0,0,1.87,0c2.63-3.81,1.61-9,1.56-13.42-.06-5-.07-10-.37-15-.63-10.72-.91-21.45-1.3-32.18a.72.72,0,0,0-1.44,0Z"/></g><g id="_Group_115" data-name="&lt;Group&gt;"><path id="_Path_114" data-name="&lt;Path&gt;" class="cls-1" d="M26.12,309.11c-.19,2-.27,3.94-.34,5.92-.06,1.8-.38,3.7.33,5.39a1.2,1.2,0,0,0,2.28,0c.71-1.68.39-3.6.33-5.39-.07-2-.15-3.94-.34-5.92a1.13,1.13,0,0,0-2.27,0Z"/></g><g id="_Group_116" data-name="&lt;Group&gt;"><path id="_Path_115" data-name="&lt;Path&gt;" class="cls-1" d="M28.14,300.57c.21-.89.43-1.77.64-2.66a3.19,3.19,0,0,0-.05-2.47.94.94,0,0,0-1.46-.19,3.3,3.3,0,0,0-.84,2.34c-.11.9-.21,1.8-.31,2.7-.13,1.16,1.76,1.39,2,.27Z"/></g><g id="_Group_117" data-name="&lt;Group&gt;"><path id="_Path_116" data-name="&lt;Path&gt;" class="cls-1" d="M53.32,286.58a24.15,24.15,0,0,0-1.59,4.91c-.33,1.69-.88,3.77.64,5a1.9,1.9,0,0,0,2.91-.38c1-1.4.26-2.81,0-4.34a17.55,17.55,0,0,1-.13-4.7c.09-.94-1.44-1.38-1.82-.49Z"/></g><g id="_Group_118" data-name="&lt;Group&gt;"><path id="_Path_117" data-name="&lt;Path&gt;" class="cls-1" d="M54.63,306.46l.34-.73a1.74,1.74,0,0,0-2.36-2.36l-.73.34a2,2,0,1,0,2.75,2.75Z"/></g><g id="_Group_119" data-name="&lt;Group&gt;"><path id="_Path_118" data-name="&lt;Path&gt;" class="cls-1" d="M70.72,267.38a13.4,13.4,0,0,1-.08,2,3.5,3.5,0,0,0,.5,2.21,1.63,1.63,0,0,0,1.8.73,1.66,1.66,0,0,0,1.17-1.54,3.25,3.25,0,0,0-.46-2.08,12,12,0,0,1-.8-1.58c-.4-1.06-2.19-1-2.12.29Z"/></g><g id="_Group_120" data-name="&lt;Group&gt;"><path id="_Path_119" data-name="&lt;Path&gt;" class="cls-1" d="M89,244.3a26.71,26.71,0,0,0-1.34,7.78c-.13,3.31,5.26,3.31,5.14,0a26.7,26.7,0,0,0-1.32-7.78,1.3,1.3,0,0,0-2.48,0Z"/></g><g id="_Group_121" data-name="&lt;Group&gt;"><path id="_Path_120" data-name="&lt;Path&gt;" class="cls-1" d="M51.14,253.57a6.24,6.24,0,0,0-.89,2.77,11.46,11.46,0,0,0,.2,3,1.79,1.79,0,0,0,3.43,0,11.46,11.46,0,0,0,.2-3,6.24,6.24,0,0,0-.89-2.77,1.19,1.19,0,0,0-2,0Z"/></g><g id="_Group_122" data-name="&lt;Group&gt;"><path id="_Path_121" data-name="&lt;Path&gt;" class="cls-1" d="M86,282.86v0l.5-.65c-.74.56-.64,1.11-.77,1.94a16.77,16.77,0,0,0-.67,2.61,2.3,2.3,0,0,0,2,2.27,2.35,2.35,0,0,0,2.54-1.66,4.65,4.65,0,0,0-.56-3.52,5.68,5.68,0,0,0-.69-1.12,1.89,1.89,0,0,0-.49-.49,1,1,0,0,0-.51-.16q-.38,0,0-.07c-.58-.66-1.53.05-1.38.8Z"/></g><g id="_Group_123" data-name="&lt;Group&gt;"><path id="_Path_122" data-name="&lt;Path&gt;" class="cls-1" d="M85.1,291.11a3,3,0,0,0,.13,2,1.47,1.47,0,0,0,2.72,0,3,3,0,0,0,.13-2,1.55,1.55,0,0,0-3,0Z"/></g><g id="_Group_124" data-name="&lt;Group&gt;"><path id="_Path_123" data-name="&lt;Path&gt;" class="cls-1" d="M85.3,296.3a3.14,3.14,0,0,0-.06,2,1.42,1.42,0,0,0,2.71,0,3.14,3.14,0,0,0-.06-2,1.35,1.35,0,0,0-2.58,0Z"/></g><g id="_Group_125" data-name="&lt;Group&gt;"><path id="_Path_124" data-name="&lt;Path&gt;" class="cls-1" d="M99.68,297.35c.05,1.46,0,3-.11,4.44s-.57,2.77.56,4a1.52,1.52,0,0,0,1.81.23c1.59-.95,1.39-2.84,1.2-4.47a10.27,10.27,0,0,0-1.74-4.64.93.93,0,0,0-1.73.47Z"/></g><g id="_Group_126" data-name="&lt;Group&gt;"><path id="_Path_125" data-name="&lt;Path&gt;" class="cls-1" d="M99,310.63a.05.05,0,0,0,0-.11.05.05,0,0,0,0,.11Z"/></g><g id="_Group_127" data-name="&lt;Group&gt;"><path id="_Path_126" data-name="&lt;Path&gt;" class="cls-1" d="M75.47,320.09l0,1.26a1.55,1.55,0,0,0,3.1,0l0-1.26c.08-2.05-3.27-2.06-3.19,0Z"/></g><g id="_Group_128" data-name="&lt;Group&gt;"><path id="_Path_127" data-name="&lt;Path&gt;" class="cls-1" d="M77.62,134.52c-.19,1.3-.42,2.59-.51,3.9a42.59,42.59,0,0,1-.21,4.44,2.61,2.61,0,0,0,1.17,2.88,2.33,2.33,0,0,0,2.57,0,2.6,2.6,0,0,0,1.17-2.88c-1-2.68-1.45-5.61-2.4-8.34-.27-.77-1.65-1-1.79,0Z"/></g><g id="_Group_129" data-name="&lt;Group&gt;"><path id="_Path_128" data-name="&lt;Path&gt;" class="cls-1" d="M71.18,102.53l-.1,2.7a1.59,1.59,0,0,0,3.18,0l-.1-2.7a1.49,1.49,0,0,0-3,0Z"/></g><g id="_Group_130" data-name="&lt;Group&gt;"><path id="_Path_129" data-name="&lt;Path&gt;" class="cls-1" d="M63.93,67c-.51,1.53-1.71,3.74-.93,5.31a1,1,0,0,0,1.41.37c1.45-1,1.5-3.47,1.8-5A1.19,1.19,0,0,0,63.93,67Z"/></g><g id="_Group_131" data-name="&lt;Group&gt;"><path id="_Path_130" data-name="&lt;Path&gt;" class="cls-1" d="M81.48,68.1a5.8,5.8,0,0,0,.05,1.48,5.06,5.06,0,0,0,.63,1.16.88.88,0,0,0,1.51,0,5,5,0,0,0,.63-1.16,5.84,5.84,0,0,0,.05-1.48,1.44,1.44,0,0,0-2.88,0Z"/></g><g id="_Group_132" data-name="&lt;Group&gt;"><path id="_Path_131" data-name="&lt;Path&gt;" class="cls-1" d="M79.12,35.72a28.81,28.81,0,0,1,8.36-4.9c2.43-.83,4.78.31,6.38-2.08a1.61,1.61,0,0,0-.57-2.18c-2.74-1.49-5.13,1.27-7.57,2.48a34.47,34.47,0,0,0-7.84,5.45c-.85.77.38,1.93,1.24,1.24Z"/></g><g id="_Group_133" data-name="&lt;Group&gt;"><path id="_Path_132" data-name="&lt;Path&gt;" class="cls-1" d="M80,47c3.25.13,6.49-1,9.56-2,2.55-.81,5.8-1.32,6.75-4.07A1.58,1.58,0,0,0,95.19,39c-2.47-.91-5,1.23-7.24,2.26-2.81,1.31-5.88,2.14-8.51,3.79A1,1,0,0,0,80,47Z"/></g><g id="_Group_134" data-name="&lt;Group&gt;"><path id="_Path_133" data-name="&lt;Path&gt;" class="cls-1" d="M98.64,40.73c1-.38,2.38-.64,3.15-1.45a.83.83,0,0,0-.36-1.38c-1.06-.34-2.41.09-3.5.25a1.34,1.34,0,1,0,.71,2.58Z"/></g><g id="_Group_135" data-name="&lt;Group&gt;"><path id="_Path_134" data-name="&lt;Path&gt;" class="cls-1" d="M105.79,40.34a15.93,15.93,0,0,1,3.8-2c1.34-.46,2.53-.71,3-2.17a1.18,1.18,0,0,0-.3-1.15c-1.18-1.24-2.78-.69-4.17-.14A19.26,19.26,0,0,0,104,37.22c-1.84,1.34-.12,4.44,1.82,3.11Z"/></g><g id="_Group_136" data-name="&lt;Group&gt;"><path id="_Path_135" data-name="&lt;Path&gt;" class="cls-1" d="M114.7,36.13l.51-.15a.88.88,0,0,0,0-1.68l-.51-.15a1,1,0,1,0,0,2Z"/></g><g id="_Group_137" data-name="&lt;Group&gt;"><path id="_Path_136" data-name="&lt;Path&gt;" class="cls-1" d="M95.65,48.61a60.08,60.08,0,0,0,7.29-1.55c1.89-.51,4-.67,4.68-2.74a1.32,1.32,0,0,0-.59-1.45c-1.77-1.29-4.07.18-5.87.85a55.68,55.68,0,0,0-6.38,2.83c-1.24.64-.3,2.24.87,2.07Z"/></g><g id="_Group_138" data-name="&lt;Group&gt;"><path id="_Path_137" data-name="&lt;Path&gt;" class="cls-1" d="M113.3,43.74l3.15-1.22A4.3,4.3,0,0,0,119,40.74a1,1,0,0,0-.62-1.51,4.33,4.33,0,0,0-3.06.52l-3.09,1.36c-1.48.65-.42,3.23,1.11,2.64Z"/></g><g id="_Group_139" data-name="&lt;Group&gt;"><path id="_Path_138" data-name="&lt;Path&gt;" class="cls-1" d="M81.54,53.12a3.13,3.13,0,0,0,2.77.66,3.42,3.42,0,0,0,2.14-1.51.78.78,0,0,0-.87-1.13,5.18,5.18,0,0,1-1.47.21,8.45,8.45,0,0,1-1.73-.21c-1.26-.39-1.75,1.29-.83,2Z"/></g><g id="_Group_140" data-name="&lt;Group&gt;"><path id="_Path_139" data-name="&lt;Path&gt;" class="cls-1" d="M95.32,59a42.31,42.31,0,0,1,9-3.61c2.54-.68,5.46-.54,7.71-1.92a1.1,1.1,0,0,0-.26-2c-2.71-.94-6.16.38-8.8,1.23A45.83,45.83,0,0,0,94,56.79,1.29,1.29,0,0,0,95.32,59Z"/></g><g id="_Group_141" data-name="&lt;Group&gt;"><path id="_Path_140" data-name="&lt;Path&gt;" class="cls-1" d="M117.37,52.71a9.94,9.94,0,0,0,4.16-.74,1.58,1.58,0,0,0,.71-1.76,1.62,1.62,0,0,0-1.5-1.14A9.24,9.24,0,0,0,117,50a1.4,1.4,0,0,0-1,1.53,1.38,1.38,0,0,0,1.37,1.21Z"/></g><g id="_Group_142" data-name="&lt;Group&gt;"><path id="_Path_141" data-name="&lt;Path&gt;" class="cls-1" d="M114.09,58.51a10.94,10.94,0,0,0,4-1.54,1,1,0,0,0-.45-1.72,10.2,10.2,0,0,0-3.94.12,1.6,1.6,0,1,0,.42,3.14Z"/></g><g id="_Group_143" data-name="&lt;Group&gt;"><path id="_Path_142" data-name="&lt;Path&gt;" class="cls-1" d="M87.92,64.94a20.14,20.14,0,0,0,6.49.27c1.78-.23,3.89-.33,5.23-1.63a.83.83,0,0,0-.36-1.38c-1.65-.27-3.14.46-4.76.78-2.11.41-4.32.72-6.45.95-.53.05-.76.9-.14,1Z"/></g><g id="_Group_144" data-name="&lt;Group&gt;"><path id="_Path_143" data-name="&lt;Path&gt;" class="cls-1" d="M106.37,64.26c1.56.07,3.87.65,5-.7a.86.86,0,0,0,0-1.17c-1.1-1.36-3.42-.78-5-.71a1.29,1.29,0,0,0,0,2.58Z"/></g><g id="_Group_145" data-name="&lt;Group&gt;"><path id="_Path_144" data-name="&lt;Path&gt;" class="cls-1" d="M117.71,63.54l.53-.08a1.26,1.26,0,0,0,0-2.42l-.53-.08a1.34,1.34,0,1,0,0,2.58Z"/></g><g id="_Group_146" data-name="&lt;Group&gt;"><path id="_Path_145" data-name="&lt;Path&gt;" class="cls-1" d="M105.21,70l3.82-.78a6.17,6.17,0,0,0,3.16-1.08,1,1,0,0,0-.43-1.64c-1.14-.33-2.24.17-3.36.45l-3.77,1c-1.36.35-.78,2.36.58,2.09Z"/></g><g id="_Group_147" data-name="&lt;Group&gt;"><path id="_Path_146" data-name="&lt;Path&gt;" class="cls-1" d="M93.44,33.94l2.24-.79a2.92,2.92,0,0,0,1.88-1.4A1,1,0,0,0,97,30.4a2.93,2.93,0,0,0-2.32.39l-2.12,1.09a1.14,1.14,0,0,0,.87,2.07Z"/></g><g id="_Group_148" data-name="&lt;Group&gt;"><path id="_Path_147" data-name="&lt;Path&gt;" class="cls-1" d="M102.47,30.13l1.39-.87c.75-.47.27-1.86-.63-1.51l-1.51.58a1,1,0,1,0,.75,1.79Z"/></g><g id="_Group_149" data-name="&lt;Group&gt;"><path id="_Path_148" data-name="&lt;Path&gt;" class="cls-1" d="M78.27,30,81.13,28a6.8,6.8,0,0,0,2.37-2.1.78.78,0,0,0-.87-1.13A6.76,6.76,0,0,0,80,26.58L77.4,28.91c-.61.53.21,1.62.87,1.13Z"/></g><g id="_Group_150" data-name="&lt;Group&gt;"><path id="_Path_149" data-name="&lt;Path&gt;" class="cls-1" d="M89.08,21.73a34.26,34.26,0,0,0,7.51-6.64c.34-.4-.21-1-.58-.58a37.36,37.36,0,0,1-7.66,6c-.79.48-.06,1.74.73,1.25Z"/></g><g id="_Group_151" data-name="&lt;Group&gt;"><path id="_Path_150" data-name="&lt;Path&gt;" class="cls-1" d="M77.39,24a5.63,5.63,0,0,0,1.69-1.13,5.61,5.61,0,0,0,1.29-1.49.57.57,0,0,0-.64-.83,5.84,5.84,0,0,0-1.79,1,5.6,5.6,0,0,0-.78.59,7.51,7.51,0,0,0-.68.92c-.43.6.38,1.16.92.92Z"/></g><g id="_Group_152" data-name="&lt;Group&gt;"><path id="_Path_151" data-name="&lt;Path&gt;" class="cls-1" d="M84.86,18.34A12.87,12.87,0,0,1,87.15,17a11,11,0,0,0,2.14-1.5c1.4-1.12,2.77-1.89,3-3.79A1.3,1.3,0,0,0,91,10.43c-1.78,0-2.75,1.33-3.92,2.5a13.55,13.55,0,0,0-1.56,1.65A21.72,21.72,0,0,1,83.8,17c-.64.69.22,2,1.06,1.38Z"/></g><g id="_Group_153" data-name="&lt;Group&gt;"><path id="_Path_152" data-name="&lt;Path&gt;" class="cls-1" d="M75,20a13.14,13.14,0,0,0,5.13-4.1c.65-.84-.79-1.66-1.42-.83a24.45,24.45,0,0,1-4.2,4.29c-.39.31.11.83.5.65Z"/></g><g id="_Group_154" data-name="&lt;Group&gt;"><path id="_Path_153" data-name="&lt;Path&gt;" class="cls-1" d="M71.43,16.1a2,2,0,0,1,.33-1.19,8.2,8.2,0,0,1,.82-1.08.88.88,0,0,0-.85-1.46,2.65,2.65,0,0,0-1.88,1.52,4.25,4.25,0,0,0-.33,2.48c.16,1.1,1.94.82,1.92-.26Z"/></g><g id="_Group_155" data-name="&lt;Group&gt;"><path id="_Path_154" data-name="&lt;Path&gt;" class="cls-1" d="M96.27,27.94a18.32,18.32,0,0,0,2.2-.56,21.84,21.84,0,0,0,2.23-1.25,49.29,49.29,0,0,0,4.56-2.25,1.77,1.77,0,0,0-1.36-3.22,16.49,16.49,0,0,0-5.1,2.24,13.45,13.45,0,0,0-2.16,1.37A9.67,9.67,0,0,0,95,26.35a1.09,1.09,0,0,0,1.22,1.59Z"/></g><g id="_Group_156" data-name="&lt;Group&gt;"><path id="_Path_155" data-name="&lt;Path&gt;" class="cls-1" d="M79.83,40.9c4.76-.75,9.48-3.75,13.88-5.66s9.84-3.36,13.4-6.6a1,1,0,0,0-.69-1.67C101.86,27.17,97,30.05,93,32c-4.5,2.21-10.15,4.43-13.6,8.08a.47.47,0,0,0,.45.77Z"/></g><g id="_Group_157" data-name="&lt;Group&gt;"><path id="_Path_156" data-name="&lt;Path&gt;" class="cls-1" d="M105.71,35.78l2-1.3a9.72,9.72,0,0,0,1-.66,5.19,5.19,0,0,0,.84-1.06,1.24,1.24,0,0,0-1.07-1.86,6.8,6.8,0,0,0-1.16.12,7.08,7.08,0,0,0-1.27.62l-2.15,1.11c-2,1-.14,4.24,1.77,3Z"/></g><g id="_Group_158" data-name="&lt;Group&gt;"><path id="_Path_157" data-name="&lt;Path&gt;" class="cls-1" d="M86.59,54.54c.7,0,1.59.14,2.08-.46a.91.91,0,0,0,0-1.24c-.49-.61-1.39-.46-2.08-.46a1.08,1.08,0,0,0,0,2.16Z"/></g><g id="_Group_159" data-name="&lt;Group&gt;"><path id="_Path_158" data-name="&lt;Path&gt;" class="cls-1" d="M112.23,73.27a4.24,4.24,0,0,0,1.72-.33.52.52,0,0,0,0-.89,4.26,4.26,0,0,0-1.72-.33c-1-.12-1,1.66,0,1.55Z"/></g><g id="_Group_160" data-name="&lt;Group&gt;"><path id="_Path_159" data-name="&lt;Path&gt;" class="cls-1" d="M113,81.43a.88.88,0,0,0,0-1.75.88.88,0,0,0,0,1.75Z"/></g><g id="_Group_161" data-name="&lt;Group&gt;"><path id="_Path_160" data-name="&lt;Path&gt;" class="cls-1" d="M5.19,60.16l-.06-.28a.54.54,0,0,0-.51-.39l-.43,0a.85.85,0,0,0-.76.44l-.21.43a1.07,1.07,0,0,0,.16,1.26c2,1.77,5.31,1.38,7.79,1.65,5.86.64,11.71,1.34,17.61,1.66,10.73.57,23.36,2.29,33.84-.53.69-.19.78-1.36,0-1.49-9.49-1.62-19.87-.82-29.5-1.43-5-.32-10-.65-15-.76l-7-.16c-1.57,0-4.68-.7-6.12-.11a.21.21,0,0,0,.14-.25Z"/></g><g id="_Group_162" data-name="&lt;Group&gt;"><path id="_Path_161" data-name="&lt;Path&gt;" class="cls-1" d="M72.67,64.41c4.81.07,12.07.73,16.39-1.8.42-.25.4-1-.15-1.13-2.21-.34-4.38.26-6.58.6-3.21.5-6.42.88-9.66,1.09a.62.62,0,0,0,0,1.24Z"/></g><g id="_Group_163" data-name="&lt;Group&gt;"><path id="_Path_162" data-name="&lt;Path&gt;" class="cls-1" d="M39.17,315.86c.33,1.59.8,1.89,2.36,2.53,3.73,1.52,8.8,1.7,12.8,2.29a160,160,0,0,0,24.93,2.05,1,1,0,0,0,0-2c-6.16-.59-12.34-.95-18.51-1.54-2.73-.26-5.46-.52-8.19-.85-2.18-.26-11-.18-12.35-3-.3-.6-1.16-.16-1,.44Z"/></g><g id="_Group_164" data-name="&lt;Group&gt;"><path id="_Path_163" data-name="&lt;Path&gt;" class="cls-1" d="M91.16,320.38l1.44-.78c.41-.22.05-.81-.36-.62l-1.49.69c-.47.22-.06,1,.42.71Z"/></g></g></g></g></svg>