<svg xmlns="http://www.w3.org/2000/svg" viewBox="0 0 131.97 344.79"><defs><style>.cls-1{fill:#855d25;}</style></defs><title>Asset 8</title><g id="Layer_2" data-name="Layer 2"><g id="Layer_2-2" data-name="Layer 2"><path class="cls-1" d="M76.08,182.14a1.86,1.86,0,0,0-.28.3l-.22,0c-.37-.73-1.16-.82-1.94-.94l-6.71-.31h0a6.17,6.17,0,0,0-7.75,0c2.22,2.72,5.16,1,7.79,1.27h0l8.77,1.37c3-.52,7.24,2.88,8.78-2.62l-2.35.18C80.26,182.65,78,181.07,76.08,182.14Zm-.38.44s0,.05,0,.08l0-.07Z"/><path class="cls-1" d="M28.31,196c1.77,2.27,3.53,1.83,5.3,0C31.84,193.34,30.07,194.44,28.31,196Z"/><path class="cls-1" d="M52.31,185.66A7.44,7.44,0,0,0,58,182.91C55,181.55,53.12,182.45,52.31,185.66Z"/><path class="cls-1" d="M91.22,178.26l-5.75,3C89.29,183.92,90.35,181.28,91.22,178.26Z"/><path class="cls-1" d="M46.38,150.48h0L39,152.1l-5.8-.16c1.22,3.19,3.43,2.74,5.83,1.59,2.7.54,5-.7,7.27-1.77A6.32,6.32,0,0,0,51.41,149C48.92,146.73,47.93,149.57,46.38,150.48Z"/><path class="cls-1" d="M43.37,312.75c2.31-.4,3.77-2,5.06-3.73C44.78,307.6,44.46,310.7,43.37,312.75Z"/><path class="cls-1" d="M47.52,43.82c-1.69,4-1.73,6.57,0,10.22Z"/><path class="cls-1" d="M60.4,70.7c-2.82,2.09-2.71,3.86-1,5.87Z"/><path class="cls-1" d="M39,122.66c2.12-3.05,2.57-6.1,0-9.16A20.73,20.73,0,0,0,39,122.66Z"/><path class="cls-1" d="M65.47,44.57,65.4,52.5C67.85,49.88,67.73,47.24,65.47,44.57Z"/><polygon class="cls-1" points="71.5 215.08 71.5 215.08 71.5 215.08 71.5 215.08"/><path class="cls-1" d="M58.93,268.87l.24-.52v0A1.65,1.65,0,0,0,58.93,268.87Z"/><path class="cls-1" d="M128.35,69.71C114.64,53,98,39.86,77.71,56.3c-.31.25-.94.13-1.41.17C78,43.25,76,38.31,67.42,34.83c-2.48-1-6.54-.23-7-3.47-.46-3,2.05-5.86,4-8.35s4.17-4.79,6.26-7.17A14.69,14.69,0,0,0,74.26,4.33C74.09,2.49,73.63.82,71.88.14c-1.6-.62-2.54.95-3.73,1.74-9,6-9.81,15.75-11.72,25-.77,3.74-1.6,6.36-6.46,6.94C42.66,34.68,37.48,39.56,37.8,47c.3,7-3.32,9.86-8.52,12.43-2.61,1.29-5.12,2.82-7.6,4.36-8.28,5.11-9.22,7-5.53,16.06,6.11,15,5.29,29.39-2.23,43.66A131.93,131.93,0,0,0,1.65,155.45c-7,30.48,9,60.76,37.42,63.5,9.16.88,12.47,5.91,12.89,15.88.81,19.06.91,38.14,1.64,57.2.19,4.91-1.78,6.86-6.22,7.84a51.62,51.62,0,0,0-22.11,10.8c-10.41,8.65-9.18,20.11,2.78,26.62a39.82,39.82,0,0,0,8.7,3.65c20,5.29,40.24,4.88,60.18.14,14.44-3.44,17.7-17.22,7.23-28-8-8.23-18.26-12.15-29.27-13.56-4.62-.6-5.46-2.2-5.37-6.18.36-17.12,1.26-34.28.53-51.36-.56-13.17,3.16-21.16,16.28-26.42,17.91-7.19,29.08-21.24,30.28-41.32.95-15.93-2.27-31.13-11.17-44.64a44.48,44.48,0,0,1-7.08-20.46c-.39-3.87,1-4.89,4.58-3.64,4.61,1.59,9.22,3.25,13.2,6.09,3.29,2.34,5.08,1.58,6.63-1.91,3-6.65,6.41-13.13,8.05-20.28C132.39,82.55,133,75.38,128.35,69.71Zm-5.83,7.23c-1.58-.31-1.61-1.81-2.23-2.87l.21,0,.35.06q.71,0,1.42.11h0C124.5,75,124.17,75.9,122.51,76.95Zm-3.95-8.72-.35,1.42c-5.11,0-8-4.84-12.78-5.82-4-.83-7.93-2-12.08-1.21l-2.58-.87a14.39,14.39,0,0,1,1.56-.92c1.3-.57,2.63-1.08,4-1.62L108,59.05C111.61,62,116.35,63.68,118.57,68.23ZM65.25,114.82h0c.68,1.16,1.74.76,2.73.66,2.71,1.5,5.37,2,7.94-.3-1.68-2.4-4.34.47-6.16-1.15-3.8-1.79-3.45-6.26-5.82-9-3.37,2.87-.33,5.76,0,8.64-2.51-1.35-5.5-3-5.36-5.86A4.37,4.37,0,0,1,64,103.7c7.65-5.19,14.86-3.85,19.82,4.15,3.74,6-3.43,5.93-5.43,8.75h0C72.45,123.9,70.29,123.61,65.25,114.82Zm6.21,13.08c-9.79,1.57-10.39,1.1-10.19-8.37Zm-38.23,6c-5.85-.51-7.19-3.17-4.49-8.46,2.46-4.82,3.55-10.3,6.82-14.77h0c1.47-2.66,3.3-3,5.9-1.32,3,1.91,6.13,3.48,9.57,5.4-4,4.38-6.37,9.43-8.73,14.44C40.46,133.07,38,135.63,33.24,133.87Zm7.24,9a14.69,14.69,0,0,1-2.75.28c-3.39-.43-7.35,1.42-9.94-2.32-.62-.89-.38-2.23.65-2.2C32.57,138.76,37.18,137.65,40.48,142.85ZM25.81,84.38l.07-.11a7.73,7.73,0,0,0-1.53,4.84c-3.21-2.79.45-3.41,1.53-4.84l0,.09c4-3.52,8.06,0,11.93.48,1.82.24,3.45,3.56.05,5.51h0l-3.28,7.16a2.12,2.12,0,0,0-1.48-1.13h0s0-.09,0-.13l-.09.14a4.26,4.26,0,0,1-4-1.9l-.51-2.75C28.08,89.09,27.62,86.49,25.81,84.38Zm7.48,17.39c3.78,3.75-2.52,3.66-3,6.1v-7.2c.76,1,1.36,2.37,3,1.1h0Zm14.9,31.44c1.56-2.73-.93-1.48-1.76-1.86a33.33,33.33,0,0,1,6.82-11.74c4.57,7.07,3.78,9.8-5.31,19h0C47.55,136.79,47.2,134.93,48.19,133.2Zm5-27.38c-1.82,1.55-3.69-.69-3.69-2.77,0-1.76.92-3.52,1.47-5.28l-.15,0c0-.07.05-.13.08-.19-1.48,0-1.54,1.49-2.29,2.27-1.28,1.33.28,6.85-4.3,3.23-1.94-1.53-7.35-1.48-4.1-6.4,1.62-2.46,2.34-7.42,7-3.37,1.39,1.2,5.35.56,3.68,4.27H51l-.05.15,13-3.94C59.41,99,56.66,102.84,53.16,105.83ZM49.61,77c-.3-4-1.83-8.5,3.21-10.83,3.77-1.74,7.4-1.11,11.08.93,5.77,3.2,1.88,7.35,1.54,11.22C65,83.13,61.68,81.75,59,81.5c-3-.28-6.51.83-8.36-2.86.18-.84,0-1.45-1-1.62h0ZM61,89.61c-5.31,2.68-7.82,0-10.6-3.1C54.85,86.07,54.85,86.07,61,89.61ZM46.14,73.93h0c-1.84,1.66-.76,4-1.36,5.92-3.57-1.64-3.93-4.47-2.42-7.58C43,71,44.14,69,46,70,47.41,70.78,46,72.59,46.14,73.93ZM68.74,89.79a8.9,8.9,0,0,1,7.31,3c-3,.26-5.18,2.71-7.64.88C67.83,93.26,68.57,89.8,68.74,89.79Zm19.11,7.65C85,97,84.77,95.37,86,93.15h0a3.61,3.61,0,0,0,1-1.43,2.57,2.57,0,0,0,.47.46c-1.15,1.81-1.54,3.58.33,5.26ZM80.09,86.94a66.69,66.69,0,0,0,2.78,6.14C80.85,91.52,77.32,90.66,80.09,86.94Zm4.1-15.63.15,10c-2.54.09-5.46,3.24-7.52-.32s2-4.64,3.56-6.6a23.45,23.45,0,0,1,3.82-3.12ZM76.93,126a19.45,19.45,0,0,1,10.18-8.65c.19-.07,1.5,2.73,2.12,3.88-.05,2-9.45,9.26-11.1,9a1.54,1.54,0,0,1-.68-.26A2.87,2.87,0,0,1,76.93,126Zm8.67-24.18c5.67.44,9.5,1.23,6.78,8.49Zm7.73-10.12h0L90.64,90h0l-1.26-4c1.88-1.53,4.13-2,6.56-2.5C96.55,86.84,93.53,88.83,93.33,91.71ZM86.2,81.36h0l-.36-10.21h0c1.08-2.51,3.59-3.09,5.69-4.22h0l.4,5.69c-1.86,2.06-1.55,4.68-1.86,7.15Zm12.67-27.8c3.05.37,6.33.84,7.71,4.38l-10.29.27c-3.81-.1-6.54,1.79-8.72,4.7h0c-8.33,0-10.41,8.21-15.86,12.56C74.3,62.59,87.33,52.17,98.87,53.57Zm-56-8.67c2.57-7.13,11.73-9.58,17.09-4.71h0c1,3-.69,6.25,1.1,9.12,2.89-1.68-.42-6.23,3.45-7.45l-.42-2.79h0C71,41.19,74.13,46,72.38,51.69c-2.16,7-6.88,9.9-12.82,7.74h0l-7.18,1.4a4.16,4.16,0,0,1-1.57-1.32c-.29-1,.84-2,1.37-3-1.27-.24-2.49-.36-2.9,1.31h0c-2.14-.87-4.92,2.81-6.4-.32C41,53.5,41.35,49,42.85,44.89ZM20.17,74.74a4.54,4.54,0,0,1,1.14-5.24c1.63-1.77,3.4-3.16,6-2.25L30.21,65c3.9,1.15,6.42-3.33,10.24-2.5,4.8,6.17-4.18,5.13-4.51,8.62-2.44,1.89-1.57,5-2.79,7.38-3.76-.69-8.9,1.84-10.26-4.42h0C21.83,73.87,21,76.41,20.17,74.74ZM5.35,160.29c.28-5,3-3.59,5.78-2.54h0l1.68,3c-1.65,4.62-3.51,9.22-2.07,14.29.19.48.41,1,.63,1.43-2.31,3.62.24,8.69-3.37,11.92C3.78,179.35,4.81,169.81,5.35,160.29Zm7,21.25c-.05.08-.09.16-.13.24q-.08-1.72-.14-3.45A5.91,5.91,0,0,1,12.4,181.54Zm76.69,129c5.78-.64,14.69,6.45,16,12.89s-1.33,10.71-7.31,13.11a2.16,2.16,0,0,1-3-.94h0l1.5-6.11-1.59-8.69c-.21-2.27-.44-4.52-2.7-5.84h0L90,312.25c-.28-.06-.55-.12-.82-.15A4,4,0,0,1,89.09,310.51Zm14.32-171.88h0a4.91,4.91,0,0,1-1.29-.09l1.76,10.22L103.8,152c.18,5.27-3,9.77-3.4,14.9a.94.94,0,0,1,.56.43l-.56-.43A4.51,4.51,0,0,0,98.46,171l2.37,1.6-1.44,6.8c3.52-1.59,2.91-4.74,2.91-7.66h0l1.16-2.49c2.28-5.52,2.57-11.37,2.85-17.22h0c.76-1.86-.3-4.18,1.47-5.79l2,11.53-.37,19.06c-1.69,1.14-1.45,2.81-1.22,4.48h0c.37,4.24-1,8-2.95,11.68h0c-2.57,7.22-8.41,11.19-14.66,14.75-5,4.15-11,6.31-16.63,9.3-2.61,1.39-2.88.19-2.44-2-2.3,4.15-5.13,7.52-10.47,7.32h0l-1.72-5.92a3.81,3.81,0,0,0-1.07-.68v0c3.56-6.13,8.23-4.94,13.17-2l0,.66c.75-2.92,3.08-4.14,5.86-4.61,3.86-.65,6.89-3.82,11-3.74.6-3.62,2.19-6.34,5.94-7.07a6.24,6.24,0,0,1-2.86-4.75c-1.9,2.22-4.61,3.06-7.5,3.76a161,161,0,0,1-25.33,3.56c-6.48.51-12.55,2-17.76,6,5.48,1.83,11,3.63,15.22,7.89.12.1.21.2.32.3a3.9,3.9,0,0,0-1,.64l4,7.81h0l1.94,6.86h0l2.05,11.21a6.39,6.39,0,0,0,.45,2.47c.71,11.12-1,22.13-1.58,33.19-4.19-2-2.26-6.09-3-9.28l.08,16.75.28.24c0-.05,0-.11,0-.16.11-1.9.09-3.88,3.21-4.74.82,7.3,0,14.33,1.17,21.19,0,1.53.18,3,1.7,3.94,1,2.8,1.3,6.32,5.64,6,2.26,2.61,6,.58,8.44,2.71.25-1.15.11-1.82-.26-2.22a4.14,4.14,0,0,1,.44.13,8.34,8.34,0,0,1,3.57.62l-.75.2c-.45,2,.77,2.85,2.36,3.65,3.11,1.56,2.89,3.84,1.08,6.32,2.24,1.6,3.37-2.57,5.59-1.08.8,2.37,2.47,4.62,1,7.3-2.27,1.76-.38,4.05-.78,6.05-6.3,1.65-12.63,3.08-19.21,2.89,1.59-2.11,4.6-2.5,6-4.8,1.29-2.16,4.91-3.48,2.65-7-2.66-.13-4.73,1.83-7.62,1.64-4.87-.33-9.54-1.48-14.83.76-5.7,2.41-16.59-6.79-17-12.88-12.46-.83-15,2-12.64,13.84,1.52,2.95,4.42,3.42,7.24,4.28,10.74,3.28,22.09,2.72,32.92,5.39h0c-13.68.43-27.32.71-39.74-6.61-1.49-.88-3.24-1.26-2.33-3.57h0l.69.09.7,0c-.53-1.58-1.08-3.16-1.58-4.75-1.63-5.27-2.75-.64-4.06.2h0c-1-4.17,1.46-6.91,4.07-9.44,5.68-5.49,12.81-8.49,20.15-10.84,4.16-1.33,1.85,1.78,1.72,3.27h0c1.92-.85,3.12-.85,2.81,1.87-.24,2.07.19,3.92,3.05,3.34,3.37-.62,2.83-3.36,3.09-5.68.05-2.17,0-4.35.1-6.52l.1-.93a2.09,2.09,0,0,0,0-1h0c3.73-2.77,2.24-6.82,2.55-10.43-3.51.17-1.63,4.35-4,5.38h0l1.4-8.54h0L57.93,271c-1.49-3.93-1.32-8-1-12.07q0-6.2,0-12.4h0c2.54,1.55-.29,5.28,2.71,6.64-.16-3.48.74-7.08-1.14-10.38h0c.29-6-1.67-11.54-3.47-17.07s-5.58-9.34-11.19-10.58a64.78,64.78,0,0,1-18-7.37h0a4.75,4.75,0,0,0,.11-1.33,8.23,8.23,0,0,1,1.37-.47l6,1.4,5.85,1.38a3.26,3.26,0,0,0,0-1c-1.44-2.26-3.8-1.38-5.82-1.69-1.46-2.17-4.13-1.16-6-2.28h0l-6.29-2.69A10,10,0,0,1,20,200a2.76,2.76,0,0,0-2.27-1.07,2.7,2.7,0,0,0,.68-1.48,6.25,6.25,0,0,0-2.72-5.84c.15-2.6,0-5.13-1.6-7.35l.16-18.82c.78-3,2.25-5.12,7.74-3.75-3.51-2.69-7.52-2.83-5-6.6-2.53-1.66-3.26,3.48-5.86,1.54-3.39-1.51-4.27-3.55-3-7.41,2.9-8.81,7-17.08,10.79-25.47,2.73-6,5.45-11.94,5.84-18.64h0c2.65-1.82.41-5.18,2.29-7.25,1.66,11.36-1.11,22.15-4.29,32.88h0L18.43,144.5c-1.54,2.34-3.41,4.63-1.41,7.63,2-1.58,2.21-4,2.72-6.2,1.11-1.87.66-4.6,3.13-5.72.36,4.55,3.26,6.61,7.34,7.52,9.24.44,18.23.09,24.89-7.76,2.8-8.58,3.29-9,10.06-4.88,8.9,5.46,15.58-.06,21.87-4.55,4.09-2.91,6.76-2.86,10.17,0h0l-.78-2.12h0c-1.45-1.31-3-3.3-1.15-4.57s2.44,1.1,2.68,2.73C100.85,130.09,103.92,133.55,103.42,138.63Zm-37.1,67.15c3.08-.5,5.8-4.75,9.29-.89l.13-.13h0l.08.06c3-1.22,5.45-4.15,10.66-2.07-4.29,1.17-6.24,6.06-10.66,2.07l-.2.08h0c-3.7,3.83-7.76,6.08-13,2.79-5,2.89-9.72,1.63-14.47-1.14,6-1.13,11.88-4.67,18.22-.76h0ZM113,102.44c-1.84,3-6.38-.9-9.58-2.19-.27-.11.07-1.73.12-2.64h0c-2.54-1.65-4-3.5-1.55-6.41a6.51,6.51,0,0,0,1.36-6.74c-2-3.55,1.83-8.38-2.51-11.42-.3,5.5-6.8,3.05-8.56,6.68h0c-1-2.51,1-4.69.78-7.11l1.78-5.81c2.49.24,5.25-.66,7.23,1.73,2.73,2,10.69-1.61,7.44,6.88,1.71-.36,3.18-3.64,5.18-.51s5.19,6,3.17,10.37c-.38.82-.82,1.61-1.23,2.41C121.19,93.87,115.5,98.39,113,102.44ZM125.25,92c-.81,1.93-.5,4.46-2.9,5.55,0,2.53-.39,4.87-3.9,6.59.55-3.09,1.3-5.05,3.21-6.49l1.21-7.22V83.17c4.27,2.87,1,6.37,2.38,8.81h0Z"/></g></g></svg>