<svg xmlns="http://www.w3.org/2000/svg" viewBox="0 0 148.45 262.38"><defs><style>.cls-1{fill:#80bdad;}</style></defs><title>Asset 9</title><g id="Layer_2" data-name="Layer 2"><g id="Layer_2-2" data-name="Layer 2"><path class="cls-1" d="M63.93,262.38c-9,0-17.36-2.69-23.58-7.57a27.71,27.71,0,0,1-10.9-22.18c0-16.48,15.36-29.38,35-29.38s35,12.91,35,29.38C99.37,249.87,84.46,262.38,63.93,262.38Zm15.58-73.15-4.68-1.3c-11.35-3.16-25.59-10.44-36.28-18.56-15.19-11.53-23.22-24.3-23.22-36.91,0-18.8,16.35-31.88,44.6-48.14,1.91-1.09,3.93-2.22,6-3.4C74.71,76,84.63,70.47,92.29,64.59,102.19,57,103,52.88,103,51.8a8.22,8.22,0,0,0-3.91-7.41c-3.51-2.39-9.27-3.71-16.21-3.71-18.88,0-33.31,8.87-41.93,14.18-5.24,3.22-8.71,5.35-12.66,5.35C18.33,60.21,0,50,0,35.53,0,25.09,7.12,19.31,14.13,15.06,31.35,3.79,54.37,0,62.25,0h.48c44.86,0,85.72,31.76,85.72,66.63,0,19.76-13.68,30.95-27.07,39.28-3.55,2.26-8.15,4.79-13,7.47-8.66,4.77-46.4,17.8-48.49,35.77C56.51,163.76,79.51,189.23,79.51,189.23Z"/></g></g></svg>