<svg xmlns="http://www.w3.org/2000/svg" viewBox="0 0 218.98 221.26"><defs><style>.cls-1{fill:#ff8885;}.cls-2{fill:#231f20;}</style></defs><title>Asset 7</title><g id="Layer_2" data-name="Layer 2"><g id="Layer_2-2" data-name="Layer 2"><polygon class="cls-1" points="217.99 111.45 11.05 216.49 31.82 122.82 155.28 111.45 31.82 105.18 13.4 11.91 217.99 111.45"/><path class="cls-2" d="M219.46,105.23l-74.27,37.7L27.84,202.49.72,216.26v5L22,125.45c.75-3.38.39-3.18,3.78-3.49l19.41-1.79,63.8-5.87,44.23-4.07c.09,0,0-5,0-5L52.46,100.11,29.36,98.94c-1.94-.1-5.76.45-6.8-1-.87-1.16-.87-4.41-1.15-5.81L19.22,81.12,13.13,50.28,3.2,0V5L76.4,40.62l116.52,56.7,26.54,12.91c-.63-.3.69-4.67,0-5l-73.2-35.62L29.74,12.91,3.2,0c.38.18-.12,4.39,0,5l18.93,95.87c.64,3.25.61,2.73,3.95,2.9l19.85,1L109.42,108l43.75,2.22v-5L52,114.54l-23.15,2.13c-2.11.19-5.34-.26-6.39,1.36-.95,1.46-1,4.59-1.39,6.28l-2.49,11.22L11.8,166.27l-11.09,50c-.15.67.41,4.79,0,5L75,183.56,192.33,124l27.13-13.77C220.16,109.87,218.82,105.55,219.46,105.23Z" transform="translate(-0.69)"/></g></g></svg>