<svg xmlns="http://www.w3.org/2000/svg" viewBox="0 0 178.95 181.04"><defs><style>.cls-1{fill:#ff8885;}.cls-2{fill:#231f20;}</style></defs><title>Asset 6</title><g id="Layer_2" data-name="Layer 2"><g id="Layer_1-2" data-name="Layer 1"><path class="cls-1" d="M10.62,79.43C18.94,32.08,65.45.83,112.36,11c46.56,10.07,76.27,59,63.74,104.86C163.44,162.22,113.94,190,68.59,173.76c-15.42-5.52-28.08-5-41.91,1.23-2.64,1.2-5.44,2.46-8.26,2.71s-6.55.19-8.48-1.41C8.41,175,8.2,171,8.8,168.57c2.35-9.66,5.64-19.09,7.74-28.79.9-4.18.34-8.92-.58-13.19C13.54,115.29,8.49,102.9,10.62,79.43Z" transform="translate(-0.03)"/><path class="cls-2" d="M2.71,78.15A89.67,89.67,0,0,1,60.9,9.94a87.51,87.51,0,0,1,87.42,17.69C171.88,49.1,183.52,82.8,174,113.71c-9.09,29.5-33.71,52.87-63.78,60.06a83.38,83.38,0,0,1-25.73,2.06c-9.49-.73-17.87-3.83-26.94-6.34a53.85,53.85,0,0,0-31.57.44C19.66,172,.73,182.19.52,168.65v4.66c.82-10.6,6-21.07,8.15-31.47a47.35,47.35,0,0,0,.47-14.52c-.7-6.48-2.82-12.77-4.24-19.11A98.41,98.41,0,0,1,2.71,78.15c.14-1.66-.14-3.35,0-5C1.3,90.06,3.06,106,7.15,122.45c1.18,4.74,2.53,9.5,1.5,14.38-1.53,7.26-3.86,14.35-5.86,21.5-1.24,4.44-4.66,15-1.39,19.8,2.8,4.07,11,2.18,14.64.83,6.32-2.35,12.06-5.17,18.84-6.17,13-1.93,23.85,2.83,36.14,5.87a84.42,84.42,0,0,0,57.09-6.32,89.39,89.39,0,0,0,41.37-42c7-15,9.23-31.37,8.07-47.75C174.67,42.09,143.25,7,102.88.95,56-6.07,11.25,26.79,2.71,73.15,2.41,74.76,3,76.54,2.71,78.15Z" transform="translate(-0.03)"/></g></g></svg>