<svg xmlns="http://www.w3.org/2000/svg" viewBox="0 0 173.43 255.49"><defs><style>.cls-1{fill:#fff;}</style></defs><title>Asset 4</title><g id="Layer_2" data-name="Layer 2"><g id="Layer_2-2" data-name="Layer 2"><path class="cls-1" d="M173.4,83.87A76.73,76.73,0,0,1,170,108.06c-3.94,13.71-9.58,26.74-15.83,39.52a767.56,767.56,0,0,1-39.73,70.57c-7.17,11.42-14.61,22.67-22,34-2.91,4.47-8.39,4.49-11.36.08a987.12,987.12,0,0,1-53.39-88.13c-8.16-15.39-15.8-31-21.55-47.52A103.57,103.57,0,0,1,.31,91.77,76.51,76.51,0,0,1,5,57.63q15.2-40.37,56.32-53.8A77.29,77.29,0,0,1,87.29,0C115.7.7,138.71,12.29,156,34.81a82.68,82.68,0,0,1,16.67,41.47C173.06,79.11,173.23,82,173.4,83.87ZM86.68,237.2c.39-.54.62-.84.83-1.16,4.21-6.49,8.48-12.95,12.62-19.48,14.09-22.25,27.39-44.94,39.26-68.46,6.6-13.08,12.68-26.4,17.12-40.4,2.18-6.9,4-13.9,3.95-21.2a76.46,76.46,0,0,0-2.93-20.35C149.74,38.63,125.37,17.52,97,13.7A73.73,73.73,0,0,0,22.18,51.19,70.67,70.67,0,0,0,13,85.65c-.07,8.29,2,16.18,4.55,24,4.06,12.43,9.48,24.29,15.29,36,11.79,23.75,25.18,46.61,39.26,69.06C76.85,222.17,81.74,229.56,86.68,237.2Z"/><path class="cls-1" d="M38.71,86c-.08-26.21,21.47-47.71,47.94-47.83a48.08,48.08,0,0,1,48.16,48.16c.07,26.33-21.63,48-48.31,47.91A48,48,0,0,1,38.71,86ZM86.89,51.11A35.05,35.05,0,1,0,121.8,86.23C121.73,66.78,105.89,50.91,86.89,51.11Z"/></g></g></svg>