<svg xmlns="http://www.w3.org/2000/svg" viewBox="0 0 166.54 378.93"><defs><style>.cls-1{fill:#855d25;}</style></defs><title>Asset 4</title><g id="Layer_2" data-name="Layer 2"><g id="Layer_2-2" data-name="Layer 2"><g id="_Group_" data-name="&lt;Group&gt;"><g id="_Group_2" data-name="&lt;Group&gt;"><path id="_Path_" data-name="&lt;Path&gt;" class="cls-1" d="M100.69,96c-7.86-2.14-17.09-1.08-25.19-1.2-8.44-.13-16.52,2.27-25,2.13-7.4-.12-14.85-1.73-22.17-.5-8.64,1.46-17.64-.58-26.43.79-2.68.42-1.77,4.26.6,4.45,8.73.7,17.53-1.9,26.11-1.07,7.6.73,15.28-1.4,22.89-1.94,8.09-.58,15.95,1.44,24,1s17.38.21,25.19-2.22a.73.73,0,0,0,0-1.39Z"/></g><g id="_Group_3" data-name="&lt;Group&gt;"><path id="_Path_2" data-name="&lt;Path&gt;" class="cls-1" d="M44.65,118a34.41,34.41,0,0,0,1.73-8.92c.32-3.18-1-6.57,1-9.4.31-.45-.2-.91-.64-.83-3,.52-3.18,4.21-3.91,6.66A29.84,29.84,0,0,0,42,118c.25,1.51,2.24,1.11,2.68,0Z"/></g><g id="_Group_4" data-name="&lt;Group&gt;"><path id="_Path_3" data-name="&lt;Path&gt;" class="cls-1" d="M50.24,96c3.9-3.79,6.81-8.36,11-12a63.1,63.1,0,0,1,14-9.08,70.4,70.4,0,0,1,15.64-5.47c4.64-1,10.23-.33,14.46-2.61a.83.83,0,0,0,0-1.42c-4.42-2.68-10.82-1.1-15.61-.13a59.29,59.29,0,0,0-16.63,6C64,76.34,52.43,85,48.77,95.18c-.31.86.87,1.43,1.46.85Z"/></g><g id="_Group_5" data-name="&lt;Group&gt;"><path id="_Path_4" data-name="&lt;Path&gt;" class="cls-1" d="M109.84,67.58c14.49,1.7,27,8.54,37.58,18.4a44.69,44.69,0,0,1,10.81,14.8c2,4.55,2,11.92,5.61,15.33a1.09,1.09,0,0,0,1.7-.22c2.71-4.93-.7-13.78-2.59-18.63A35.33,35.33,0,0,0,150.9,82a81.12,81.12,0,0,0-41.06-16.19c-1.13-.1-1.1,1.62,0,1.75Z"/></g><g id="_Group_6" data-name="&lt;Group&gt;"><path id="_Path_5" data-name="&lt;Path&gt;" class="cls-1" d="M162.83,124.21a15.66,15.66,0,0,1-.45,4.38c-.31,1.28-.8,2.22-.54,3.55a.83.83,0,0,0,1.21.49c2.54-1.67,2-6.08,1.39-8.64a.83.83,0,0,0-1.62.22Z"/></g><g id="_Group_7" data-name="&lt;Group&gt;"><path id="_Path_6" data-name="&lt;Path&gt;" class="cls-1" d="M67,84.18c8.25-7.19,20.09-3.06,29.53-.94,9.22,2.07,19.79,4.35,27.61,9.8a41.47,41.47,0,0,1,10.37,9.86,89.28,89.28,0,0,0,8.19,9.56c3.23,3.35,6.8,6.05,9.79,9.72,3.17,3.9,6.21,7.89,9.23,11.91,1.26,1.68,4.12,0,2.85-1.66-3.18-4.25-6.37-8.5-9.63-12.69-3.45-4.42-5.94-9.28-9.84-13.31-3.6-3.71-7.55-5.93-11.65-8.85s-8.32-6-12.62-8.79-8.07-5.77-12.79-7.46a88,88,0,0,0-17.6-3.79c-8.4-1.14-18.36-1-24.6,5.48A.82.82,0,0,0,67,84.18Z"/></g><g id="_Group_8" data-name="&lt;Group&gt;"><path id="_Path_7" data-name="&lt;Path&gt;" class="cls-1" d="M65.46,85.57a23,23,0,0,0-2.53,1.85A7.15,7.15,0,0,0,61,89.85a.62.62,0,0,0,1,.75c.35-.27.73-.51,1.06-.8s.67-.72,1-1.07a20,20,0,0,1,2.15-1.92c.71-.55.08-1.76-.73-1.25Z"/></g><g id="_Group_9" data-name="&lt;Group&gt;"><path id="_Path_8" data-name="&lt;Path&gt;" class="cls-1" d="M57.25,94.66A39.13,39.13,0,0,1,86.68,84.48c9.68.9,21.49,3.87,29.67,9.14,9,5.77,16.3,14.57,22.79,22.9,3.18,4.08,5.36,9,8.93,12.8,2.86,3,6.93,4.44,10.85,5.61,1.54.46,2.6-1.9,1.11-2.64-4.53-2.26-7.53-7.19-11.16-10.71-4.26-4.13-8.05-8.64-12.21-12.86a140,140,0,0,0-27.19-21.09c-16.17-9.86-39.79-7.94-53.1,6.16a.62.62,0,0,0,.87.87Z"/></g><g id="_Group_10" data-name="&lt;Group&gt;"><path id="_Path_9" data-name="&lt;Path&gt;" class="cls-1" d="M42.44,118.81c8,2.87,16.67,4,25,5.19,7.46,1,14.91,2.41,22.44,2.81a.52.52,0,0,0,.26-1c-6.24-3.64-13.25-4.28-20.32-4.92-9.09-.83-17.94-2.48-27-3.8a.88.88,0,0,0-.47,1.69Z"/></g><g id="_Group_11" data-name="&lt;Group&gt;"><path id="_Path_10" data-name="&lt;Path&gt;" class="cls-1" d="M97.11,97.23a140.41,140.41,0,0,0,3.54,28.61c.5,2.06,3.85,1.66,3.74-.51A117.24,117.24,0,0,0,99,97a1,1,0,0,0-1.92.26Z"/></g><g id="_Group_12" data-name="&lt;Group&gt;"><path id="_Path_11" data-name="&lt;Path&gt;" class="cls-1" d="M106.08,127.4c5,.44,10,.67,14.9,1.87a38.94,38.94,0,0,0,11.12,1.25c8.71-.18,16.8,4.08,25.58,2.88,2.45-.34,1.8-4.25-.58-4.25-9,0-17.75-1.77-26.78-1.6-8.35.16-16-3.19-24.41-1.37-.72.16-.49,1.16.16,1.21Z"/></g><g id="_Group_13" data-name="&lt;Group&gt;"><path id="_Path_12" data-name="&lt;Path&gt;" class="cls-1" d="M104.41,100.55c-1.79,4.09-.11,8.39.65,12.61,1,5.57.9,11.92,4.29,16.69,1.19,1.67,4.37,1.3,4.22-1.14-.23-3.73-1.79-7.11-3.3-10.49-2-4.39-5.55-11.91-3.7-16.75.47-1.24-1.63-2.14-2.17-.91Z"/></g><g id="_Group_14" data-name="&lt;Group&gt;"><path id="_Path_13" data-name="&lt;Path&gt;" class="cls-1" d="M113.19,114.14a62.58,62.58,0,0,1-1.41-8.76c-.18-2.22,0-4.48-1.16-6.43a1.1,1.1,0,0,0-2,.26c-.93,2.44.11,5.17.82,7.56a66.69,66.69,0,0,0,2.87,7.73c.22.5,1,.13.85-.36Z"/></g><g id="_Group_15" data-name="&lt;Group&gt;"><path id="_Path_14" data-name="&lt;Path&gt;" class="cls-1" d="M109,92.09c-.09-.06-.15-.14,0,0a2.28,2.28,0,0,1-.21-.22c.1.13,0,0,0-.05-.12-.24,0,0-.06-.11s-.05-.19-.08-.29c-.07-.29.1.49,0-.16a.77.77,0,0,0-.11-.39q-.12-.3-.06-.13c.06.16-.06-.22-.06-.21a1.31,1.31,0,0,0-2.37-.31c-1.07,1.61,0,3.62,1.46,4.57A1.55,1.55,0,0,0,109,92.09Z"/></g><g id="_Group_16" data-name="&lt;Group&gt;"><path id="_Path_15" data-name="&lt;Path&gt;" class="cls-1" d="M116.77,108.82a26.77,26.77,0,0,0,.37,3.51,4.6,4.6,0,0,0,1.52,3,1.25,1.25,0,0,0,1.82-.74c.38-1-.22-2.25-.62-3.23a25,25,0,0,0-1.65-3c-.36-.63-1.51-.4-1.44.39Z"/></g><g id="_Group_17" data-name="&lt;Group&gt;"><path id="_Path_16" data-name="&lt;Path&gt;" class="cls-1" d="M118.92,123.49c.3.9.48,2,1.52,2.3a1.06,1.06,0,0,0,1.16-.47c.56-.76.06-1.73-.2-2.51a1.32,1.32,0,0,0-1.58-.9,1.3,1.3,0,0,0-.9,1.58Z"/></g><g id="_Group_18" data-name="&lt;Group&gt;"><path id="_Path_17" data-name="&lt;Path&gt;" class="cls-1" d="M119.57,99.78a8.38,8.38,0,0,1-.13-.88,1.56,1.56,0,0,1-.07-.54,1.38,1.38,0,0,0-.94-1.65,1.35,1.35,0,0,0-1.65.94,2.77,2.77,0,0,0,1.35,3.24,1,1,0,0,0,1.44-1.11Z"/></g><g id="_Group_19" data-name="&lt;Group&gt;"><path id="_Path_18" data-name="&lt;Path&gt;" class="cls-1" d="M125.16,100.91a60.83,60.83,0,0,0-.74,8.81c-.1,2.71-.67,5.85.9,8.18.61.91,2.32,1.23,2.85,0,1.07-2.5.3-4.81-.08-7.46-.45-3.18-.71-6.39-1.34-9.54a.83.83,0,0,0-1.59,0Z"/></g><g id="_Group_20" data-name="&lt;Group&gt;"><path id="_Path_19" data-name="&lt;Path&gt;" class="cls-1" d="M127,124c.24.33.48.66.73,1a3.92,3.92,0,0,0,1.09.85,1.45,1.45,0,0,0,1.61-.11,1.5,1.5,0,0,0,.52-1.52,5.56,5.56,0,0,0-.83-2A1.8,1.8,0,1,0,127,124Z"/></g><g id="_Group_21" data-name="&lt;Group&gt;"><path id="_Path_20" data-name="&lt;Path&gt;" class="cls-1" d="M134.71,118.71c.1-1,.29-2,.3-3a3.36,3.36,0,0,0-.77-2.67,1.13,1.13,0,0,0-1.53,0,3.36,3.36,0,0,0-.77,2.67c0,1,.2,2,.3,3a1.24,1.24,0,0,0,2.47,0Z"/></g><g id="_Group_22" data-name="&lt;Group&gt;"><path id="_Path_21" data-name="&lt;Path&gt;" class="cls-1" d="M139.05,118.67l-.79.32a1.43,1.43,0,0,0,0,2.73l.79.32a1.75,1.75,0,1,0,0-3.38Z"/></g><g id="_Group_23" data-name="&lt;Group&gt;"><path id="_Path_22" data-name="&lt;Path&gt;" class="cls-1" d="M83.17,84.89c.28,2.08.56,4.13,1,6.17.41,1.76.62,3.41,1.88,4.77a1.09,1.09,0,0,0,1.81-.48c.47-1.81-.16-3.38-.63-5.14-.55-2-1.27-3.95-2-5.9a1.08,1.08,0,0,0-2.09.58Z"/></g><g id="_Group_24" data-name="&lt;Group&gt;"><path id="_Path_23" data-name="&lt;Path&gt;" class="cls-1" d="M87.49,105.94c.87,2.66,1,5.84,2.4,8.27a.89.89,0,0,0,1.6-.21c1-2.8-.24-6.16-1.12-8.85-.6-1.82-3.48-1-2.88.79Z"/></g><g id="_Group_25" data-name="&lt;Group&gt;"><path id="_Path_24" data-name="&lt;Path&gt;" class="cls-1" d="M92,119.59a3.75,3.75,0,0,0-.29,1.62c.07.51.07,1,.51,1.38a.86.86,0,0,0,1.17,0c.43-.34.44-.88.51-1.38a3.76,3.76,0,0,0-.29-1.62.83.83,0,0,0-1.59,0Z"/></g><g id="_Group_26" data-name="&lt;Group&gt;"><path id="_Path_25" data-name="&lt;Path&gt;" class="cls-1" d="M84,112.93l-1.19-3.79A8.63,8.63,0,0,0,81.42,106c-.49-.6-1.36-.06-1.41.58a8.94,8.94,0,0,0,.79,3.35L82,113.48c.41,1.25,2.39.73,2-.55Z"/></g><g id="_Group_27" data-name="&lt;Group&gt;"><path id="_Path_26" data-name="&lt;Path&gt;" class="cls-1" d="M73.59,82.45a97.31,97.31,0,0,0,2.89,18.88c1.28,5.27,2.33,12.19,6,16.34a1,1,0,0,0,1.67-.69c.11-5.37-3.05-11.34-4.55-16.5-1.75-6-3.19-12.13-4.88-18.18a.57.57,0,0,0-1.11.15Z"/></g><g id="_Group_28" data-name="&lt;Group&gt;"><path id="_Path_27" data-name="&lt;Path&gt;" class="cls-1" d="M80.92,122.89c-.85-3.51-2-7.6-4.37-10.38a.94.94,0,0,0-1.58.66c.43,3.67,2.62,7.26,4.63,10.28a.72.72,0,0,0,1.32-.56Z"/></g><g id="_Group_29" data-name="&lt;Group&gt;"><path id="_Path_28" data-name="&lt;Path&gt;" class="cls-1" d="M72.72,104.22,71.89,102a2.52,2.52,0,0,0-1.41-1.69.84.84,0,0,0-1,.58A2.52,2.52,0,0,0,70,103l1.15,1.91c.49.81,2,.28,1.6-.67Z"/></g><g id="_Group_30" data-name="&lt;Group&gt;"><path id="_Path_29" data-name="&lt;Path&gt;" class="cls-1" d="M66.47,91.45a2.9,2.9,0,0,0-.89-1.22.57.57,0,0,0-.85.49,3.15,3.15,0,0,0,.5,1.46c.37.83,1.71.1,1.25-.73Z"/></g><g id="_Group_31" data-name="&lt;Group&gt;"><path id="_Path_30" data-name="&lt;Path&gt;" class="cls-1" d="M57.88,102.46a27.18,27.18,0,0,0,2.26,5.48c.75,1.53,1.34,3.9,3,4.6a1.15,1.15,0,0,0,1.66-.68c.4-1.9-1-3.5-2-5.1a28.6,28.6,0,0,0-3.41-5.21c-.64-.72-1.76,0-1.55.9Z"/></g><g id="_Group_32" data-name="&lt;Group&gt;"><path id="_Path_31" data-name="&lt;Path&gt;" class="cls-1" d="M51.41,112.39c-.29,1.06.28,2.07.64,3.06s.88,2.54,2.22,2,.62-2,.2-2.84-.79-2.17-1.78-2.72a.89.89,0,0,0-1.29.52Z"/></g><g id="_Group_33" data-name="&lt;Group&gt;"><path id="_Path_32" data-name="&lt;Path&gt;" class="cls-1" d="M63.12,119.26a2.56,2.56,0,0,0,.51,1.72.89.89,0,0,0,1.24,0,2.56,2.56,0,0,0,.51-1.72,1.13,1.13,0,1,0-2.27,0Z"/></g><g id="_Group_34" data-name="&lt;Group&gt;"><path id="_Path_33" data-name="&lt;Path&gt;" class="cls-1" d="M89.58,76.94c1.39.85,2.95.35,4.36-.17,1.18-.43,3.18-1.14,2.73-2.83s-2.44-1.21-3.54-.89c-1.49.42-3.27.86-3.94,2.42a1.11,1.11,0,0,0,.39,1.48Z"/></g><g id="_Group_35" data-name="&lt;Group&gt;"><path id="_Path_34" data-name="&lt;Path&gt;" class="cls-1" d="M99.32,74.25c1.2-.47,2.82-.8,3.55-1.92a1.73,1.73,0,0,0-1-2.53c-1.18-.29-2.43.45-3.51.87A1.9,1.9,0,0,0,97,73a1.87,1.87,0,0,0,2.28,1.3Z"/></g><g id="_Group_36" data-name="&lt;Group&gt;"><path id="_Path_35" data-name="&lt;Path&gt;" class="cls-1" d="M107,71.89l.29-.25a1,1,0,0,0,0-1.46l-.29-.25a1.39,1.39,0,1,0,0,2Z"/></g><g id="_Group_37" data-name="&lt;Group&gt;"><path id="_Path_36" data-name="&lt;Path&gt;" class="cls-1" d="M105.7,78.4l.51-.15a.78.78,0,0,0,0-1.49l-.51-.15c-1.49-.44-1.5,2.23,0,1.79Z"/></g><g id="_Group_38" data-name="&lt;Group&gt;"><path id="_Path_37" data-name="&lt;Path&gt;" class="cls-1" d="M114,75.43l2-.6a1.24,1.24,0,0,0-.66-2.39l-2,.41c-1.68.34-1,3.09.71,2.58Z"/></g><g id="_Group_39" data-name="&lt;Group&gt;"><path id="_Path_38" data-name="&lt;Path&gt;" class="cls-1" d="M112.6,80.89c.52.06,1.06.16,1.58.18a2.73,2.73,0,0,0,1.6-.61.89.89,0,0,0,0-1.51,2.73,2.73,0,0,0-1.6-.61c-.53,0-1.06.12-1.58.18a1.19,1.19,0,0,0,0,2.37Z"/></g><g id="_Group_40" data-name="&lt;Group&gt;"><path id="_Path_39" data-name="&lt;Path&gt;" class="cls-1" d="M119.19,83.05a.05.05,0,0,0,0-.11.05.05,0,0,0,0,.11Z"/></g><g id="_Group_41" data-name="&lt;Group&gt;"><path id="_Path_40" data-name="&lt;Path&gt;" class="cls-1" d="M126.33,84.7a.05.05,0,0,0,0-.11.05.05,0,0,0,0,.11Z"/></g><g id="_Group_42" data-name="&lt;Group&gt;"><path id="_Path_41" data-name="&lt;Path&gt;" class="cls-1" d="M125.23,88.8a.31.31,0,0,0,0-.62.31.31,0,0,0,0,.62Z"/></g><g id="_Group_43" data-name="&lt;Group&gt;"><path id="_Path_42" data-name="&lt;Path&gt;" class="cls-1" d="M131,90.94l-.34.11a.77.77,0,0,0,0,1.47l.34.11c1.41.46,1.41-2.15,0-1.69Z"/></g><g id="_Group_44" data-name="&lt;Group&gt;"><path id="_Path_43" data-name="&lt;Path&gt;" class="cls-1" d="M129.1,94.54a3.45,3.45,0,0,0,.14,1.36,1,1,0,0,0,1.89,0,3.45,3.45,0,0,0,.14-1.36,1.08,1.08,0,0,0-2.16,0Z"/></g><g id="_Group_45" data-name="&lt;Group&gt;"><path id="_Path_44" data-name="&lt;Path&gt;" class="cls-1" d="M125.78,84.29a1.29,1.29,0,0,0,0-2.58,1.29,1.29,0,0,0,0,2.58Z"/></g><g id="_Group_46" data-name="&lt;Group&gt;"><path id="_Path_45" data-name="&lt;Path&gt;" class="cls-1" d="M1.21,98.93c-1,11.12-1.9,22.5-.5,33.63.78,6.18,1.71,12.33,2,18.56.12,2.84.22,5.66.17,8.51-.06,3.62.82,3.84,1.42,7.57.08.53.9.38.91-.12,0-1.59.78-3.12.84-4.69.12-3.29-.89-6.87-1.1-10.2A147.63,147.63,0,0,1,5,134.08C5.69,122.34,4.26,110.6,3,98.93a.88.88,0,0,0-1.75,0Z"/></g><g id="_Group_47" data-name="&lt;Group&gt;"><path id="_Path_46" data-name="&lt;Path&gt;" class="cls-1" d="M4.38,169.81C3.65,179.41,2.19,189,2,198.59c-.13,7.94-.93,16.65,2.34,24.09,1.08,2.47,4.63.63,4.14-1.75-1.76-8.54-1.67-16.85-1.89-25.54s-1-17-.81-25.58c0-.94-1.37-.91-1.44,0Z"/></g><g id="_Group_48" data-name="&lt;Group&gt;"><path id="_Path_47" data-name="&lt;Path&gt;" class="cls-1" d="M5.88,224.11c1.87,1.4,2.19,5.58,2.7,7.67.65,2.66,1.28,5.33,1.93,8,1.16,4.76,3.2,9.92,3.81,14.7,1.38,10.68.43,21.08.45,31.81,0,.84,1.39,1.09,1.52.21a77.11,77.11,0,0,0,.07-18.69c-.67-6.67-.64-13.56-.87-20.22-.21-5.91-1.86-12.14-3.56-17.78-.92-3-1.44-8.08-5.41-8.08a1.3,1.3,0,0,0-.65,2.4Z"/></g><g id="_Group_49" data-name="&lt;Group&gt;"><path id="_Path_48" data-name="&lt;Path&gt;" class="cls-1" d="M13.65,283.09c1.42,11.3,1.73,22.74,2,34.11.12,5.72.2,11.44.29,17.16.07,4.18-1.08,8.83,2.54,11.52a.94.94,0,0,0,1.12-.14c3.42-3,1.6-8.32,1.28-12.45-.47-6.08-.95-12.15-1.38-18.23-.77-10.9-1.59-21.59-4.62-32.13-.18-.64-1.3-.55-1.21.16Z"/></g><g id="_Group_50" data-name="&lt;Group&gt;"><path id="_Path_49" data-name="&lt;Path&gt;" class="cls-1" d="M18.46,349.45c.05,1.63.07,3.26.19,4.88a16.67,16.67,0,0,1,.32,4.27,23.78,23.78,0,0,1-1,4.08c-.38,2.52-.44,5.15.88,7.37a2.12,2.12,0,0,0,1.83,1l.75,0a1.37,1.37,0,0,0,1.34-1.34c0-1.38-.48-2-.81-3.33s-.34-3-.6-4.43a28.11,28.11,0,0,1-.49-7.65c.11-1.62.13-3.25.18-4.88a1.29,1.29,0,0,0-2.58,0Z"/></g><g id="_Group_51" data-name="&lt;Group&gt;"><path id="_Path_50" data-name="&lt;Path&gt;" class="cls-1" d="M146,131.14c-2.51,4.88-1.45,12.18-1.49,17.56,0,7.23,0,14.46,0,21.69q0,10.3,0,20.6c0,7.65,1.17,15.12,1.36,22.77a.77.77,0,0,0,1.55,0c.12-7.28,1.24-14.42,1.19-21.69l-.15-21.69-.14-20.6c0-5.63,1-13.56-1.63-18.64a.41.41,0,0,0-.71,0Z"/></g><g id="_Group_52" data-name="&lt;Group&gt;"><path id="_Path_51" data-name="&lt;Path&gt;" class="cls-1" d="M145.77,215.84c-5.84,7.24-9.52,18.06-11.34,27.1a104.48,104.48,0,0,0-1.74,14c-.33,5.12-1.11,11.07.71,16a1.4,1.4,0,0,0,2.68,0c1.51-4.42.8-9.41.84-14a102.76,102.76,0,0,1,1-15,62,62,0,0,1,3.53-13.09c1.83-4.69,4.64-9.25,5.58-14.23.13-.67-.76-1.41-1.29-.75Z"/></g><g id="_Group_53" data-name="&lt;Group&gt;"><path id="_Path_52" data-name="&lt;Path&gt;" class="cls-1" d="M134,278.38c-1.51,4.77-1.54,10.09-2.08,15.06-.61,5.67-1.11,11.34-1.55,17s-.88,11.35-1.31,17,.5,11.28.32,17c0,1.47,2.16,1.44,2.27,0,.43-5.81,2-11.25,2.19-17s.45-11.35.72-17,.51-11.34.65-17c.13-5,.79-10.15,0-15.06-.11-.64-1-.53-1.19,0Z"/></g><g id="_Group_54" data-name="&lt;Group&gt;"><path id="_Path_53" data-name="&lt;Path&gt;" class="cls-1" d="M128.86,348.94c-.64,4.92-1,10-2,14.84-.76,3.71-2.57,5.47-4.52,8.42a1.35,1.35,0,0,0,1.16,2c9.17.45,8.1-20.15,8.56-25.28.19-2.08-2.93-2-3.19,0Z"/></g><g id="_Group_55" data-name="&lt;Group&gt;"><path id="_Path_54" data-name="&lt;Path&gt;" class="cls-1" d="M19.14,366.19c3,4.73,8.19,7.15,13.53,8.25,3.58.74,6.75.86,10.25,2.09a7.3,7.3,0,0,0,6.1-.17A.73.73,0,0,0,49,375c-2.11-.78-3.73-2.64-5.86-3.47a21.19,21.19,0,0,0-6.58-1.06c-6-.45-11-3.32-16.45-5.54-.72-.29-1.37.68-1,1.29Z"/></g><g id="_Group_56" data-name="&lt;Group&gt;"><path id="_Path_55" data-name="&lt;Path&gt;" class="cls-1" d="M52.72,377c8.11-1,15.9,2.61,24.13,1.8,3.89-.38,7.76-1,11.67-1.2,3.21-.16,6.16.73,9.07-.68a.94.94,0,0,0,.19-1.46c-4.25-5-15.36-1.57-20.93-1a61.64,61.64,0,0,1-12.63.4c-4.07-.38-7.73-.87-11.79,0-1.17.24-.93,2.28.29,2.12Z"/></g><g id="_Group_57" data-name="&lt;Group&gt;"><path id="_Path_56" data-name="&lt;Path&gt;" class="cls-1" d="M100,377.39a127.57,127.57,0,0,0,28.11-2c3.28-.61,1.92-5.9-1.4-5.07A145.11,145.11,0,0,1,100,374.5a1.44,1.44,0,0,0,0,2.88Z"/></g><g id="_Group_58" data-name="&lt;Group&gt;"><path id="_Path_57" data-name="&lt;Path&gt;" class="cls-1" d="M134.66,285.5a103,103,0,0,0,3.23-15.15c.23-2.15.23-4.26.39-6.41.23-3.06,1.38-5.56,1.73-8.56.6-5.23-1-10.44-.23-15.6a66.64,66.64,0,0,1,5.09-16.67.88.88,0,0,0-1.51-.88c-5.4,8.88-10.88,17.13-11.12,28-.13,5.83,1.81,11.1,1.34,16.92-.48,6-.59,12-1.26,18-.15,1.35,2,1.58,2.33.31Z"/></g><g id="_Group_59" data-name="&lt;Group&gt;"><path id="_Path_58" data-name="&lt;Path&gt;" class="cls-1" d="M15.77,261.58c-.09,12.08-8.49,28.59-1,39.75a1.62,1.62,0,0,0,2.92-.38c2.08-6.15,0-13.61,0-20,0-6.64.73-13-1-19.5a.52.52,0,0,0-1,.14Z"/></g><g id="_Group_60" data-name="&lt;Group&gt;"><path id="_Path_59" data-name="&lt;Path&gt;" class="cls-1" d="M12.65,222.79c3.87,5.1,5.81,11,6.88,17.26,1.13,6.57,2.39,13.55,2.64,20.2s-.06,13.4.35,20.07c.44,7.17,2.14,14,2.73,21.2.55,6.7.77,13.44,1.1,20.16.32,6.55-.39,13.09.12,19.66.61,7.83,5.18,21.75,15.37,21a2.19,2.19,0,0,0,1.53-3.69c-4-4.12-7.88-6.54-9.94-12.32-2.26-6.34-2.58-13-3.53-19.65-1.89-13.18-1.11-26.84-.53-40,.54-12.54-3.52-25.64-5.07-38-1.2-9.56-3.94-19.46-10.5-26.76-.54-.6-1.63.22-1.13.87Z"/></g><g id="_Group_61" data-name="&lt;Group&gt;"><path id="_Path_60" data-name="&lt;Path&gt;" class="cls-1" d="M21.52,302.73c-1.07,3.82-.9,8.17-.91,12.12s.24,8.52,1.73,12.29a.83.83,0,0,0,1.59,0c1.82-6.9.59-17.88-2.11-24.41a.16.16,0,0,0-.3,0Z"/></g><g id="_Group_62" data-name="&lt;Group&gt;"><path id="_Path_61" data-name="&lt;Path&gt;" class="cls-1" d="M22.41,337.19a4.19,4.19,0,0,1,.51,1.56,11.16,11.16,0,0,0,.1,1.51.57.57,0,0,0,1,.14c.77-1.11.24-2.89-.31-4-.44-.88-1.81-.1-1.33.78Z"/></g><g id="_Group_63" data-name="&lt;Group&gt;"><path id="_Path_62" data-name="&lt;Path&gt;" class="cls-1" d="M27.21,356.19a7.13,7.13,0,0,0,.92,1.63,7.67,7.67,0,0,0,1.23,1.41c.41.31.8-.27.63-.63a7.92,7.92,0,0,0-1.14-1.5,7,7,0,0,0-1.36-1.18c-.18-.14-.36.12-.28.28Z"/></g><g id="_Group_64" data-name="&lt;Group&gt;"><path id="_Path_63" data-name="&lt;Path&gt;" class="cls-1" d="M39.31,360c17.31,5.46,36.29,2.79,54.07,3.23.2,0,.19-.29,0-.31-17.72-2.14-36.08-7.49-54.07-4.61-.91.15-.75,1.45,0,1.69Z"/></g><g id="_Group_65" data-name="&lt;Group&gt;"><path id="_Path_64" data-name="&lt;Path&gt;" class="cls-1" d="M97.21,362.69a.05.05,0,0,0,0-.11.05.05,0,0,0,0,.11Z"/></g><g id="_Group_66" data-name="&lt;Group&gt;"><path id="_Path_65" data-name="&lt;Path&gt;" class="cls-1" d="M103.79,362.2c6.81-.6,13.2-1.62,17.74-7.21,4.29-5.28,5.62-12.4,6.44-19,1.24-10,1.28-20,1.58-30,.31-10.4,1.89-20.8,1.82-31.18a.93.93,0,0,0-1.82-.25c-2.62,7.39-2.89,15.31-3.29,23.07-.45,8.71-.62,17.43-1,26.15-.35,7.55,0,15.49-2.25,22.8-2.88,9.4-10.37,12.72-19.3,14.93-.39.1-.32.74.1.71Z"/></g><g id="_Group_67" data-name="&lt;Group&gt;"><path id="_Path_66" data-name="&lt;Path&gt;" class="cls-1" d="M130.82,258.78a89.74,89.74,0,0,1,7.09-29.8c2.79-6.39,10.07-13.76,7.34-21.09a1.35,1.35,0,0,0-2.58,0c-2.63,8.44-7.84,15.78-9.9,24.45s-3.1,17.48-2,26.45a.05.05,0,0,0,.1,0Z"/></g><g id="_Group_68" data-name="&lt;Group&gt;"><path id="_Path_67" data-name="&lt;Path&gt;" class="cls-1" d="M128.93,257.51a21.77,21.77,0,0,0-.67,5.31c0,1.43-.11,3.2,1.29,4a.94.94,0,0,0,1.12-.14c1-1.2.44-2.37.25-3.82a48.18,48.18,0,0,1-.47-5.1c0-.84-1.32-1.08-1.52-.21Z"/></g><g id="_Group_69" data-name="&lt;Group&gt;"><path id="_Path_68" data-name="&lt;Path&gt;" class="cls-1" d="M130,271a9.38,9.38,0,0,0-.74,2.61,4.09,4.09,0,0,0,.41,2.55c.32.66,1.19.26,1.25-.34a18.5,18.5,0,0,1,.49-4.22c.27-.82-1.06-1.41-1.41-.6Z"/></g><g id="_Group_70" data-name="&lt;Group&gt;"><path id="_Path_69" data-name="&lt;Path&gt;" class="cls-1" d="M119.49,370.3a2.16,2.16,0,0,0,.7,2.56,1.25,1.25,0,0,0,2-.25,25.1,25.1,0,0,0,2.28-8.3c.26-2.77,1-5.68-.91-7.93a1.86,1.86,0,0,0-2.62,0c-1.72,2-1.22,4.27-1.33,6.83a51,51,0,0,0,.27,8.77l.91-1.2-.77-.54c-.1-.22-.4-.13-.47.06Z"/></g><g id="_Group_71" data-name="&lt;Group&gt;"><path id="_Path_70" data-name="&lt;Path&gt;" class="cls-1" d="M125.87,352.17l.15-.08-.63.17a2.48,2.48,0,0,0,1.5-.63,2.7,2.7,0,0,0,.84-1.22,3.13,3.13,0,0,0-.23-2.56,1.37,1.37,0,0,0-2.36,0c-.1.19-.24.36-.35.55a3.78,3.78,0,0,0-.23.58q-.11.3,0,.09a6.24,6.24,0,0,0-.24.58q-.09.75-.05.35a2.89,2.89,0,0,0-.11,1l.17-.63-.07.16a1.2,1.2,0,0,0,1.62,1.62Z"/></g><g id="_Group_72" data-name="&lt;Group&gt;"><path id="_Path_71" data-name="&lt;Path&gt;" class="cls-1" d="M93.52,361.28c-.74,2.29-.44,5-.49,7.36-.05,2.2-.14,4.44.77,6.48a.78.78,0,0,0,1.33,0c.91-2,.82-4.28.77-6.48-.06-2.39.25-5.07-.49-7.36a1,1,0,0,0-1.89,0Z"/></g><g id="_Group_73" data-name="&lt;Group&gt;"><path id="_Path_72" data-name="&lt;Path&gt;" class="cls-1" d="M98.87,369.56c3.51-.08,7,0,10.54,0,4.17,0,7.77,1.19,11.82,1.87a.62.62,0,0,0,.33-1.19c-3.79-1.3-8-1.58-11.94-2.23a40.51,40.51,0,0,0-10.75-.12c-1,.1-1.08,1.67,0,1.65Z"/></g><g id="_Group_74" data-name="&lt;Group&gt;"><path id="_Path_73" data-name="&lt;Path&gt;" class="cls-1" d="M60.79,370.86c10.64-.29,24,4.85,33.78-.72a1,1,0,0,0-.52-1.92c-5.78-.36-11.71.09-17.52.09a83,83,0,0,0-16,1c-.86.17-.66,1.54.21,1.52Z"/></g><g id="_Group_75" data-name="&lt;Group&gt;"><path id="_Path_74" data-name="&lt;Path&gt;" class="cls-1" d="M103.63,369.88a1.49,1.49,0,0,0,.43-2.71,1.26,1.26,0,0,0-1.69.44,1.33,1.33,0,0,0-.16.36q-.12.74.06-.1l.47-.47-.06,0,.67-.18h-.08a1.34,1.34,0,1,0,.36,2.63Z"/></g><g id="_Group_76" data-name="&lt;Group&gt;"><path id="_Path_75" data-name="&lt;Path&gt;" class="cls-1" d="M43.36,366.79a48.11,48.11,0,0,1-9.36-.64c-1-.16-8.11-2.08-8.38-1.39l-1.48,1.48.3-.09a1.83,1.83,0,0,0,1.26-2.22l-.09-.29a2.14,2.14,0,0,0-3.11-1.26l-.44.27a2.32,2.32,0,0,0-.46,3.6c2.13,2.06,6.24,2,9.06,2.32a37.82,37.82,0,0,0,12.81-.85.47.47,0,0,0-.12-.91Z"/></g><g id="_Group_77" data-name="&lt;Group&gt;"><path id="_Path_76" data-name="&lt;Path&gt;" class="cls-1" d="M37.94,366.76c.1-.52.18-1,.24-1.54a2.65,2.65,0,0,1,.6-1.31l-2.91-.38c.42,1.82,2.7,4.34,4.71,3a1.4,1.4,0,0,0,.5-1.89,3.71,3.71,0,0,0-.72-.75,2.62,2.62,0,0,0-.54-.3c-.5-.24.11.11-.3-.16a1.4,1.4,0,0,1-.58-.76,1.61,1.61,0,0,0-2.91-.38,5.41,5.41,0,0,0-.85,2.51,2.93,2.93,0,0,0,.86,2.44,1.14,1.14,0,0,0,1.89-.5Z"/></g><g id="_Group_78" data-name="&lt;Group&gt;"><path id="_Path_77" data-name="&lt;Path&gt;" class="cls-1" d="M69.6,237.38c-1.37,13.35-1.09,27-1.56,40.37-.44,12.78-1.73,25.82,1,38.41a.83.83,0,0,0,1.59,0c2.87-12.56,1.7-25.63,1.37-38.41-.34-13.41.06-27-1.19-40.37a.62.62,0,0,0-1.24,0Z"/></g><g id="_Group_79" data-name="&lt;Group&gt;"><path id="_Path_78" data-name="&lt;Path&gt;" class="cls-1" d="M68.17,319.22c-.23,4.32-1,9.12-.35,13.4.13.8,1.28.67,1.49,0,1.29-4.15,1.15-9.09,1.54-13.4.16-1.7-2.59-1.73-2.68,0Z"/></g><g id="_Group_80" data-name="&lt;Group&gt;"><path id="_Path_79" data-name="&lt;Path&gt;" class="cls-1" d="M68.83,337.37c-.22,3.84-1.32,7.4-1.77,11.21-.47,4-1,7.91-1.79,11.83-.67,3.37,3.31,6.11,6,3.46,2.93-2.93,1.21-6.84.68-10.44-.78-5.29-2-10.78-2.35-16.07a.36.36,0,0,0-.72,0Z"/></g><g id="_Group_81" data-name="&lt;Group&gt;"><path id="_Path_80" data-name="&lt;Path&gt;" class="cls-1" d="M92,233.85c-1.84,4.76-1.6,10.29-1.88,15.34s-.3,10.08-.2,15.11,1.26,10,1.28,15.11S89.64,290,91.08,295a1.82,1.82,0,0,0,3.48,0c1.44-5-.11-10.45-.09-15.59s1.18-10,1.28-15.11.06-10.09-.2-15.11,0-10.59-1.88-15.34a.88.88,0,0,0-1.69,0Z"/></g><g id="_Group_82" data-name="&lt;Group&gt;"><path id="_Path_81" data-name="&lt;Path&gt;" class="cls-1" d="M91.36,297.66A149.5,149.5,0,0,0,89.73,315c-.05,5.72.85,11.11.24,16.86a173.56,173.56,0,0,0-.25,30.83.93.93,0,0,0,1.82.25,81.39,81.39,0,0,0,2.18-30.82c-.66-5.85,0-11.29,0-17.12s-.71-11.55-.9-17.36a.72.72,0,0,0-1.44,0Z"/></g><g id="_Group_83" data-name="&lt;Group&gt;"><path id="_Path_82" data-name="&lt;Path&gt;" class="cls-1" d="M41.58,235.46c-.8,2-.53,3.68-.19,5.77.72,4.45,1.45,8.87,1.8,13.37.55,6.89-.7,14.77,1,21.41a.78.78,0,0,0,1.49,0c2.21-5.71,1.13-13.32.43-19.3-.3-2.57-.69-5.14-1.16-7.69-.67-3.67-3.18-9.7-2.3-13.25a.57.57,0,0,0-1.09-.3Z"/></g><g id="_Group_84" data-name="&lt;Group&gt;"><path id="_Path_83" data-name="&lt;Path&gt;" class="cls-1" d="M45.55,283.92a12.45,12.45,0,0,0-.22,6.27.26.26,0,0,0,.51-.07,30.6,30.6,0,0,1,.81-5.9.57.57,0,0,0-1.09-.3Z"/></g><g id="_Group_85" data-name="&lt;Group&gt;"><path id="_Path_84" data-name="&lt;Path&gt;" class="cls-1" d="M44.66,296.71c-1.17,10.93-1.59,21.94-1.68,32.94-.08,9.83-1.53,21.82,1.66,31.24.51,1.5,2.88,1.73,3.28,0,2.24-9.74,0-21.32-.44-31.24-.46-11-.82-22-1.58-32.93a.62.62,0,0,0-1.24,0Z"/></g><g id="_Group_86" data-name="&lt;Group&gt;"><path id="_Path_85" data-name="&lt;Path&gt;" class="cls-1" d="M45,233.84c3.53-9.71,16.48-14.09,25.09-17.95.54-.24.28-1-.15-1.13-6.36-2.56-13,1.46-18,5.11-4.44,3.23-10.6,7.36-10.21,13.53a1.67,1.67,0,0,0,3.26.44Z"/></g><g id="_Group_87" data-name="&lt;Group&gt;"><path id="_Path_86" data-name="&lt;Path&gt;" class="cls-1" d="M79.09,217c2.12.6,4.1,2.63,5.62,4.19,1.36,1.41,2.19,3.2,4.27,3.45.89.11,1.47-.8,1.55-1.55.24-2.33-2.57-3.89-4.36-4.79-2.38-1.18-4.5-1-7-1.42-.07,0-.1.09,0,.11Z"/></g><g id="_Group_88" data-name="&lt;Group&gt;"><path id="_Path_87" data-name="&lt;Path&gt;" class="cls-1" d="M95,231.63c3.29-4.53,7.57-9.15,12.72-11.52,4.34-2,9.29-2.46,13.9-3.62,3.76-.94,2.15-6.49-1.59-5.76-6,1.17-10.1,4.75-14.73,8.39A50.69,50.69,0,0,0,93.91,231c-.45.67.61,1.26,1.07.62Z"/></g><g id="_Group_89" data-name="&lt;Group&gt;"><path id="_Path_88" data-name="&lt;Path&gt;" class="cls-1" d="M128,216.69a24,24,0,0,1,8.57,6V221l-.05,0c-.87.18-.79,1.26-.22,1.69a2.18,2.18,0,0,0,1.47.36,1.94,1.94,0,0,0,1.85-1.41c.66-2.54-1.84-4-3.65-5.28a31,31,0,0,0-6.42-3.35c-2.1-.83-3.63,2.75-1.55,3.67Z"/></g><g id="_Group_90" data-name="&lt;Group&gt;"><path id="_Path_89" data-name="&lt;Path&gt;" class="cls-1" d="M37,231.68c-2.14-6.13-7.58-9.2-13.27-11.73-6.41-2.85-10.36-2.27-15.06,3.1a.82.82,0,0,0,1.17,1.17c3.37-3,11,.21,14.5,1.74,3.95,1.73,8.16,3.42,11.2,6.58a.88.88,0,0,0,1.46-.85Z"/></g><g id="_Group_91" data-name="&lt;Group&gt;"><path id="_Path_90" data-name="&lt;Path&gt;" class="cls-1" d="M115.88,229.11c-7,6.92-9.71,16.45-10.74,26a111,111,0,0,0-.16,18c.29,5.08-2.06,11,.47,15.66a.57.57,0,0,0,1,0c2.41-4.36.45-9.54,1-14.31s1.48-9.77,2.24-14.65c1.62-10.42,1.61-20.47,7.5-29.69.51-.8-.64-1.65-1.29-1Z"/></g><g id="_Group_92" data-name="&lt;Group&gt;"><path id="_Path_91" data-name="&lt;Path&gt;" class="cls-1" d="M105,290.67v.55a1,1,0,0,0,2.06,0v-.55a1,1,0,0,0-2.06,0Z"/></g><g id="_Group_93" data-name="&lt;Group&gt;"><path id="_Path_92" data-name="&lt;Path&gt;" class="cls-1" d="M103.6,292.3c-.37,2.89-.83,5.74-1.4,8.6-.41,2-1.14,4,.18,5.75a1.2,1.2,0,0,0,1.86.24c1.64-1.8,1.05-3.84.82-6.13-.28-2.83-.45-5.63-.54-8.47a.46.46,0,0,0-.93,0Z"/></g><g id="_Group_94" data-name="&lt;Group&gt;"><path id="_Path_93" data-name="&lt;Path&gt;" class="cls-1" d="M99.41,314.93a7,7,0,0,0-.53,3.25,3.78,3.78,0,0,0,1.52,2.84,1,1,0,0,0,1.67-.69c0-.73.06-1.42,0-2.14a4.12,4.12,0,0,1,.32-2,1.64,1.64,0,1,0-3-1.27Z"/></g><g id="_Group_95" data-name="&lt;Group&gt;"><path id="_Path_94" data-name="&lt;Path&gt;" class="cls-1" d="M99.27,330.77c0,2.29-.39,4.86.61,7a.73.73,0,0,0,1.25,0c1-2.1.61-4.67.61-7a1.24,1.24,0,0,0-2.47,0Z"/></g><g id="_Group_96" data-name="&lt;Group&gt;"><path id="_Path_95" data-name="&lt;Path&gt;" class="cls-1" d="M78.59,317v-.55a.05.05,0,0,0-.1,0V317a.05.05,0,0,0,.1,0Z"/></g><g id="_Group_97" data-name="&lt;Group&gt;"><path id="_Path_96" data-name="&lt;Path&gt;" class="cls-1" d="M75.21,343.41c.39-5.48,1.51-10.76,2.22-16.16.53-4,1.41-8.81-.67-12.42a1.15,1.15,0,0,0-2,0c-2.27,3.52-1.54,8.35-1.28,12.42.33,5.42,1.27,10.7,1.38,16.16a.15.15,0,0,0,.31,0Z"/></g><g id="_Group_98" data-name="&lt;Group&gt;"><path id="_Path_97" data-name="&lt;Path&gt;" class="cls-1" d="M77.28,307.44l-.2-1a.78.78,0,0,0-1.49,0l-.2,1a1,1,0,1,0,1.89,0Z"/></g><g id="_Group_99" data-name="&lt;Group&gt;"><path id="_Path_98" data-name="&lt;Path&gt;" class="cls-1" d="M78,301.11c0-1.2.23-2.68-.29-3.79a1,1,0,0,0-1.69,0c-.52,1.11-.29,2.59-.29,3.79a1.13,1.13,0,0,0,2.27,0Z"/></g><g id="_Group_100" data-name="&lt;Group&gt;"><path id="_Path_99" data-name="&lt;Path&gt;" class="cls-1" d="M82.94,271.13A10.71,10.71,0,0,0,81.7,275c-.26,1.4-.64,3.19.61,4.19a1.72,1.72,0,0,0,2.33,0c1.25-1,.87-2.79.61-4.19A10.71,10.71,0,0,0,84,271.13a.63.63,0,0,0-1.07,0Z"/></g><g id="_Group_101" data-name="&lt;Group&gt;"><path id="_Path_100" data-name="&lt;Path&gt;" class="cls-1" d="M82.32,285.09c-.11.49-.24,1-.32,1.49A2.08,2.08,0,0,0,83.18,289a2,2,0,0,0,2.55-.84c.24-.44.43-.9.63-1.35a2.21,2.21,0,1,0-4-1.71Z"/></g><g id="_Group_102" data-name="&lt;Group&gt;"><path id="_Path_101" data-name="&lt;Path&gt;" class="cls-1" d="M89.08,332.62c-.18.16-.36.32-.53.49l1.1-.46h-.07A1.87,1.87,0,0,0,87.84,334a6,6,0,0,0-.17,3.62c.57,2,3.83,1.69,3.75-.51a18.46,18.46,0,0,1,0-2.63,1.78,1.78,0,0,0-.9-1.57l-.06,0,.72.93a1.94,1.94,0,0,1-.06-.34,1.2,1.2,0,0,0-2-.84Z"/></g><g id="_Group_103" data-name="&lt;Group&gt;"><path id="_Path_102" data-name="&lt;Path&gt;" class="cls-1" d="M118.11,282.83c-.29,1.19-.64,2.42-.87,3.63a12.39,12.39,0,0,0,.06,3.67c.3,2.65,4.26,2,3.54-.48a37,37,0,0,1-1.62-6.66c-.06-.6-1-.81-1.11-.15Z"/></g><g id="_Group_104" data-name="&lt;Group&gt;"><path id="_Path_103" data-name="&lt;Path&gt;" class="cls-1" d="M126.57,229.46a93.44,93.44,0,0,0-4.86,20.62c-.78,5.87-2.4,13.71.29,19.19a1.14,1.14,0,0,0,2,0c2.59-5.27,1.58-12.4,2-18.16.51-7.17,1.44-14.31,1.93-21.47.06-.8-1.07-.84-1.32-.18Z"/></g><g id="_Group_105" data-name="&lt;Group&gt;"><path id="_Path_104" data-name="&lt;Path&gt;" class="cls-1" d="M123,273.14a.05.05,0,0,0,0-.11.05.05,0,0,0,0,.11Z"/></g><g id="_Group_106" data-name="&lt;Group&gt;"><path id="_Path_105" data-name="&lt;Path&gt;" class="cls-1" d="M121.44,283.53c0,1.77-.29,3.88.84,5.39a.89.89,0,0,0,1.51,0c1.13-1.5.81-3.61.84-5.39a1.6,1.6,0,0,0-3.19,0Z"/></g><g id="_Group_107" data-name="&lt;Group&gt;"><path id="_Path_106" data-name="&lt;Path&gt;" class="cls-1" d="M121.46,294c-.24,2-.92,4.33-.43,6.27.16.64,1.21.86,1.51.2.84-1.92.58-4.4.67-6.46.05-1.15-1.62-1.09-1.75,0Z"/></g><g id="_Group_108" data-name="&lt;Group&gt;"><path id="_Path_107" data-name="&lt;Path&gt;" class="cls-1" d="M120.78,304.38c-1.12,11.11-3.34,23.46-1.65,34.56.33,2.17,3.34,1.36,3.54-.48.61-5.6-.12-11.42-.3-17.05s0-11.36.16-17c0-1.14-1.64-1.1-1.75,0Z"/></g><g id="_Group_109" data-name="&lt;Group&gt;"><path id="_Path_108" data-name="&lt;Path&gt;" class="cls-1" d="M34.19,316a34.8,34.8,0,0,1,.07,6.49c0,2-.8,4,.76,5.57a1.69,1.69,0,0,0,2.33,0c1.86-1.5,1-4.4.59-6.47-.45-2.36-1.58-4-2.52-6.11-.32-.74-1.36-.18-1.22.52Z"/></g><g id="_Group_110" data-name="&lt;Group&gt;"><path id="_Path_109" data-name="&lt;Path&gt;" class="cls-1" d="M37.08,335.71l.49-.2a.94.94,0,0,0,0-1.79l-.49-.2a1.13,1.13,0,1,0,0,2.19Z"/></g><g id="_Group_111" data-name="&lt;Group&gt;"><path id="_Path_110" data-name="&lt;Path&gt;" class="cls-1" d="M49.26,339.57l-.1,1.44a1.9,1.9,0,0,0,3.8,0l-.1-1.44a1.8,1.8,0,0,0-3.61,0Z"/></g><g id="_Group_112" data-name="&lt;Group&gt;"><path id="_Path_111" data-name="&lt;Path&gt;" class="cls-1" d="M32,267.9l-.62,3.63a8,8,0,0,0-.23,3.68,1.82,1.82,0,0,0,3.48,0,8,8,0,0,0-.23-3.68l-.62-3.63a.93.93,0,0,0-1.79,0Z"/></g><g id="_Group_113" data-name="&lt;Group&gt;"><path id="_Path_112" data-name="&lt;Path&gt;" class="cls-1" d="M54,280.27c-.33,1.87-.48,4.69,1.41,5.79a2,2,0,0,0,2.42-.31c1.5-1.63.64-4.2-.25-5.95-.73-1.43-3.29-1.19-3.58.47Z"/></g><g id="_Group_114" data-name="&lt;Group&gt;"><path id="_Path_113" data-name="&lt;Path&gt;" class="cls-1" d="M54.73,298.21A2.58,2.58,0,0,0,53.51,300a3.15,3.15,0,0,0-.09,1.54,2.52,2.52,0,0,0,.77,1.15,1.83,1.83,0,0,0,2.54,0,2.52,2.52,0,0,0,.77-1.15,3.15,3.15,0,0,0-.09-1.54,2.58,2.58,0,0,0-1.22-1.81,1.43,1.43,0,0,0-1.46,0Z"/></g><g id="_Group_115" data-name="&lt;Group&gt;"><path id="_Path_114" data-name="&lt;Path&gt;" class="cls-1" d="M56.9,304.21l-.52.1a.67.67,0,0,0,0,1.29l.52.1a.76.76,0,1,0,0-1.49Z"/></g><g id="_Group_116" data-name="&lt;Group&gt;"><path id="_Path_115" data-name="&lt;Path&gt;" class="cls-1" d="M60.95,226.87c-1.07,2.15-2.17,6.43.4,8a1.56,1.56,0,0,0,2.27-.92c.3-1.06-.17-2-.42-3.06a7.72,7.72,0,0,1-.18-3.11c.19-1.16-1.45-2.12-2.07-.87Z"/></g><g id="_Group_117" data-name="&lt;Group&gt;"><path id="_Path_116" data-name="&lt;Path&gt;" class="cls-1" d="M61,246.12a1.6,1.6,0,0,0,0-3.19,1.6,1.6,0,0,0,0,3.19Z"/></g><g id="_Group_118" data-name="&lt;Group&gt;"><path id="_Path_117" data-name="&lt;Path&gt;" class="cls-1" d="M24.54,232.61a1.59,1.59,0,0,1,.2.46s.09.5.06.29c.07.48.23.94.33,1.41a1.28,1.28,0,0,0,2.31.3,3.14,3.14,0,0,0,.47-2.23,4.55,4.55,0,0,0-.8-1.75,1.54,1.54,0,0,0-2-.54,1.52,1.52,0,0,0-.54,2Z"/></g><g id="_Group_119" data-name="&lt;Group&gt;"><path id="_Path_118" data-name="&lt;Path&gt;" class="cls-1" d="M18.5,197.09a15.53,15.53,0,0,0-.91,4.78,2.15,2.15,0,0,0,4.31,0,15.56,15.56,0,0,0-.91-4.78,1.45,1.45,0,0,0-2.49,0Z"/></g><g id="_Group_120" data-name="&lt;Group&gt;"><path id="_Path_119" data-name="&lt;Path&gt;" class="cls-1" d="M19.18,134.06c2.48-3.08,5-6.2,9.25-5a1.66,1.66,0,0,0,1.27-3c-2.19-1.42-5.2-.88-7.33.43-2.39,1.47-3.75,3.76-5.05,6.16-.61,1.13,1,2.53,1.86,1.44Z"/></g><g id="_Group_121" data-name="&lt;Group&gt;"><path id="_Path_120" data-name="&lt;Path&gt;" class="cls-1" d="M5.18,134.68c7.64,2.75,15.79,4.54,23.94,4,9.32-.57,18.36-4.91,27.71-3.91,7.77.83,14.47,4.45,22.44,4.36,4.2,0,8.32-.64,12.5-1,3.87-.33,7.89.25,11.67-.47a.78.78,0,0,0,.18-1.41c-6.08-3.15-15-.79-21.48-.15-4.26.41-8.83.68-13-.29-4-.92-7.46-3.41-11.66-4.12-7.51-1.29-15.55.95-22.94,2.11a71.62,71.62,0,0,1-28.75-1.25,1.08,1.08,0,0,0-.58,2.09Z"/></g><g id="_Group_122" data-name="&lt;Group&gt;"><path id="_Path_121" data-name="&lt;Path&gt;" class="cls-1" d="M108.34,137.35c6.25-3.93,13.9-.61,20.75-.78a42.13,42.13,0,0,0,8.6-1.17c3.36-.78,5.44.34,8.51,1.16a1.27,1.27,0,0,0,1.25-.33l.35-.44a2.39,2.39,0,0,0,0-3.27c-4.58-5.26-12.62-.9-18.27-.08-7.12,1-16-1-22.2,3.22-1,.7-.09,2.37,1,1.69Z"/></g><g id="_Group_123" data-name="&lt;Group&gt;"><path id="_Path_122" data-name="&lt;Path&gt;" class="cls-1" d="M62.71,133.62c3.87,1.84,8.59,1.79,12.82,1.94,4.79.17,10.22.4,14.77-1.24a.94.94,0,0,0,0-1.79c-4.41-1.09-9.21-.65-13.74-.71s-9.4-.8-13.68.38a.78.78,0,0,0-.18,1.41Z"/></g><g id="_Group_124" data-name="&lt;Group&gt;"><path id="_Path_123" data-name="&lt;Path&gt;" class="cls-1" d="M111.5,135l2.2-.05a.31.31,0,0,0,0-.62l-2.2-.05a.36.36,0,0,0,0,.72Z"/></g><g id="_Group_125" data-name="&lt;Group&gt;"><path id="_Path_124" data-name="&lt;Path&gt;" class="cls-1" d="M27.54,128.12c4.4-.85,9.89,2.59,13.92,4.16,3.39,1.32,6.91,3,10.57,3.14,1.06,0,1.21-1.3.49-1.82-3.81-2.78-9.24-3.82-13.71-5.19-3.81-1.16-7.71-3-11.7-1.88a.82.82,0,0,0,.44,1.59Z"/></g><g id="_Group_126" data-name="&lt;Group&gt;"><path id="_Path_125" data-name="&lt;Path&gt;" class="cls-1" d="M15.71,139.06A27.88,27.88,0,0,0,13,147.67c-.41,2.41-.77,5,.95,6.89a1,1,0,0,0,1.38,0c1.66-1.67,1.63-4.09,1.78-6.33.2-2.87.68-5.7.75-8.57a1.19,1.19,0,0,0-2.21-.6Z"/></g><g id="_Group_127" data-name="&lt;Group&gt;"><path id="_Path_126" data-name="&lt;Path&gt;" class="cls-1" d="M15,156c2.27,4.26,6.39,5.85,10.86,7,6.36,1.7,13.6,4.27,20.21,3.32,2.17-.31,1.47-3.52-.49-3.64-8.32-.51-23.84,1-28.71-7.82-.67-1.22-2.52-.14-1.87,1.09Z"/></g><g id="_Group_128" data-name="&lt;Group&gt;"><path id="_Path_127" data-name="&lt;Path&gt;" class="cls-1" d="M54.45,164.23l1.32-3.57c.42-1.15.81-2.88-.35-3.79a1.17,1.17,0,0,0-.41-.23,4.43,4.43,0,0,0-2.24.77,3.59,3.59,0,0,0-.92,1.93l-1.07,3.87c-.66,2.4,2.84,3.28,3.68,1Z"/></g><g id="_Group_129" data-name="&lt;Group&gt;"><path id="_Path_128" data-name="&lt;Path&gt;" class="cls-1" d="M57.2,152.24a7.62,7.62,0,0,0,.06-2.91.62.62,0,0,0-1-.27,8.12,8.12,0,0,0-1.15,2.9,1.08,1.08,0,1,0,2.12.29Z"/></g><g id="_Group_130" data-name="&lt;Group&gt;"><path id="_Path_129" data-name="&lt;Path&gt;" class="cls-1" d="M33.68,155.64c3.48,1.45,9.16,2.82,12.5.35a1.25,1.25,0,0,0-.62-2.3c-1.76-.2-3.61.34-5.4.41a21,21,0,0,1-5.9-.55,1.08,1.08,0,0,0-.58,2.09Z"/></g><g id="_Group_131" data-name="&lt;Group&gt;"><path id="_Path_130" data-name="&lt;Path&gt;" class="cls-1" d="M53.61,163.77c-.18,3.43.1,7,3.14,9a2,2,0,0,0,2,0c1.18-.63,4.94.58,6.56.75,2.1.22,4.2.34,6.31.44a100.66,100.66,0,0,0,13.64-.15c7.15-.63,15.51-1,21.29-5.76a.78.78,0,0,0-.34-1.29c-4.73-1.21-9.67-.33-14.44.32-6.69.9-13.42,1.73-20.14,2.28-3.13.25-10.4,2-12.87,0s-1.07-5.11-4.13-6.38c-.49-.2-1,.3-1,.75Z"/></g><g id="_Group_132" data-name="&lt;Group&gt;"><path id="_Path_131" data-name="&lt;Path&gt;" class="cls-1" d="M109.25,165.71c2.39-6.38,3.34-16-2.18-21.15a.73.73,0,0,0-1.21.7c.66,3.35,2.18,6.36,2.52,9.8a24.94,24.94,0,0,1-.93,10.15c-.36,1.16,1.38,1.59,1.79.49Z"/></g><g id="_Group_133" data-name="&lt;Group&gt;"><path id="_Path_132" data-name="&lt;Path&gt;" class="cls-1" d="M56,144.06a6.3,6.3,0,0,1,.64-5.61c1-1.56,2.9-2.72,3.62-4.38.23-.53,0-1.4-.76-1.32-4.69.5-10.29,9.31-4.41,12,.45.2,1.1-.14.91-.7Z"/></g><g id="_Group_134" data-name="&lt;Group&gt;"><path id="_Path_133" data-name="&lt;Path&gt;" class="cls-1" d="M62.88,132.18c3.29.89,6.77.88,10.16,1s6.8.47,10.13-.4a.94.94,0,0,0,0-1.79c-3.28-1.11-6.71-1-10.13-1.1a44.89,44.89,0,0,0-10.16.3,1,1,0,0,0,0,2Z"/></g><g id="_Group_135" data-name="&lt;Group&gt;"><path id="_Path_134" data-name="&lt;Path&gt;" class="cls-1" d="M59.26,157.14l-1.11,1.59,1.74.74c.91-4.23.79-8.76.84-13.07,0-1.8-.4-4.49.28-6.21,1.11-2.79,3.84-3.1,5.94-4.47a.93.93,0,0,0-.47-1.73c-3.54.18-7.72,3.09-8.95,6.45-.93,2.56-.46,6.07-.36,8.71a56.79,56.79,0,0,0,.88,10.32c.27,1.19,2.2.68,1.84-.51l-.54-1.81a.05.05,0,0,0-.09,0Z"/></g><g id="_Group_136" data-name="&lt;Group&gt;"><path id="_Path_135" data-name="&lt;Path&gt;" class="cls-1" d="M61.49,162.06a5.1,5.1,0,0,0-.81.91,2.28,2.28,0,0,0,.08,2.25,3.11,3.11,0,0,0,2.79,1.87,1.7,1.7,0,0,0,.85-3.14q-.2-.15,0,0t-.29-.22l-.24-.13c-.29-.16.12.2-.07-.07s0,.15,0,0a2,2,0,0,0-.67-.88c-.18-.15-.28-.28-.11-.08l-.24-.27.25.44h0a.89.89,0,0,0-1.49-.62Z"/></g><g id="_Group_137" data-name="&lt;Group&gt;"><path id="_Path_136" data-name="&lt;Path&gt;" class="cls-1" d="M67,167.64l1.69,0c.63,0,1.24.06,1.71-.44a1,1,0,0,0,0-1.31c-.47-.51-1.08-.43-1.71-.44l-1.69,0a1.13,1.13,0,0,0,0,2.27Z"/></g><g id="_Group_138" data-name="&lt;Group&gt;"><path id="_Path_137" data-name="&lt;Path&gt;" class="cls-1" d="M86.09,162.93c2.88.66,5.78.32,8.7,0a19.07,19.07,0,0,0,6.52-1.29c2.68-1.29,6.17-6.23,2.24-8.23a1.32,1.32,0,0,0-1.76.46c-.57,1-.55,2.07-1.18,3-1.2,1.76-3.79,2-5.69,2.41-3.06.6-6.19,1-9,2.48a.62.62,0,0,0,.15,1.13Z"/></g><g id="_Group_139" data-name="&lt;Group&gt;"><path id="_Path_138" data-name="&lt;Path&gt;" class="cls-1" d="M88.32,139c.12,2.36.18,4.77.52,7.11.26,1.74.36,3.89,1.8,5A.89.89,0,0,0,92,151c.81-1.69.12-3.47-.34-5.23-.61-2.32-1.4-4.59-2-6.9a.67.67,0,0,0-1.32.18Z"/></g><g id="_Group_140" data-name="&lt;Group&gt;"><path id="_Path_139" data-name="&lt;Path&gt;" class="cls-1" d="M85.06,153.32c-.17,1.46-1.61,2.17-2.56,3.09a1.72,1.72,0,0,0,1.2,2.9c3.08.15,5-3.28,5-6a1.8,1.8,0,0,0-3.61,0Z"/></g><g id="_Group_141" data-name="&lt;Group&gt;"><path id="_Path_140" data-name="&lt;Path&gt;" class="cls-1" d="M81.28,160.05a1.24,1.24,0,0,0,0-2.47,1.24,1.24,0,0,0,0,2.47Z"/></g><g id="_Group_142" data-name="&lt;Group&gt;"><path id="_Path_141" data-name="&lt;Path&gt;" class="cls-1" d="M110.26,166c6.54,7.53,21.73,2.92,27.37-3.65,6-7,7-20.23,1.26-27.59-1.45-1.85-4.19.51-3.15,2.43,3.91,7.25,3.7,18.08-2.71,23.91-3.35,3.05-8.09,4.34-12.53,4.51-3.48.13-6.71-1-10.1-.13a.31.31,0,0,0-.14.52Z"/></g><g id="_Group_143" data-name="&lt;Group&gt;"><path id="_Path_142" data-name="&lt;Path&gt;" class="cls-1" d="M115,159.36a89,89,0,0,0,11,1.14,2,2,0,0,0,1.73-1,1.76,1.76,0,0,0,.2-1.55,2.09,2.09,0,0,0-1.93-1.47,86.58,86.58,0,0,0-10.64.55c-1.19.15-1.76,2.07-.31,2.33Z"/></g><g id="_Group_144" data-name="&lt;Group&gt;"><path id="_Path_143" data-name="&lt;Path&gt;" class="cls-1" d="M130.33,158.4a12,12,0,0,0,1.74-2,7.36,7.36,0,0,0,.78-2.25c.43-1.39,1.25-2.85.87-4.34a.73.73,0,0,0-1.32-.17c-.67,1.05-.69,2.42-1.55,3.38-.39.43-.93.71-1.36,1.12a15.06,15.06,0,0,1-1.41,1.32c-2.15,1.6.29,4.75,2.25,2.91Z"/></g><g id="_Group_145" data-name="&lt;Group&gt;"><path id="_Path_144" data-name="&lt;Path&gt;" class="cls-1" d="M134.11,146.73l0-2.16c0-.78,0-1.41-.7-1.9a.85.85,0,0,0-.88,0c-.69.48-.69,1.11-.7,1.9l0,2.16a1.19,1.19,0,0,0,2.37,0Z"/></g><g id="_Group_146" data-name="&lt;Group&gt;"><path id="_Path_145" data-name="&lt;Path&gt;" class="cls-1" d="M132.86,139.1l-1.18-.92a2.24,2.24,0,0,0-1.47-.6.89.89,0,0,0-.88.88,2,2,0,0,0,.46,1.31l.8,1.08a1.45,1.45,0,0,0,2.12.4,1.43,1.43,0,0,0,.15-2.15Z"/></g><g id="_Group_147" data-name="&lt;Group&gt;"><path id="_Path_146" data-name="&lt;Path&gt;" class="cls-1" d="M118,149a11.41,11.41,0,0,0-2.27,1.27c-.69.56-1.39,1-1.33,2a.93.93,0,0,0,.46.8,1.74,1.74,0,0,0,1.24.22,7,7,0,0,0,1.3-.66,11.76,11.76,0,0,0,2.1-1.69,1.23,1.23,0,0,0,.1-1.62A1.25,1.25,0,0,0,118,149Z"/></g><g id="_Group_148" data-name="&lt;Group&gt;"><path id="_Path_147" data-name="&lt;Path&gt;" class="cls-1" d="M112,140.94a4.13,4.13,0,0,0-1.43-2.23,2.24,2.24,0,0,0-1.44-.61,5.69,5.69,0,0,0-1.15.14.83.83,0,0,0-.36,1.38,5.23,5.23,0,0,1,.34.53,3.26,3.26,0,0,0,.86.83c.4.31,1,.65,1.37,1a1.09,1.09,0,0,0,1.81-1.05Z"/></g><g id="_Group_149" data-name="&lt;Group&gt;"><path id="_Path_148" data-name="&lt;Path&gt;" class="cls-1" d="M106.87,138.32a3.51,3.51,0,0,0,0-2c-.22-.7-.69-1.58-1.49-1.7a1.31,1.31,0,0,0-1.63,1.24,3.17,3.17,0,0,0,.29,1.07c0-.2,0,.21,0,.25,0-.24-.12.22,0,0a1.54,1.54,0,1,0,2.82,1.19Z"/></g><g id="_Group_150" data-name="&lt;Group&gt;"><path id="_Path_149" data-name="&lt;Path&gt;" class="cls-1" d="M103.33,137.76c-.11-.76-.75-2.12-1.68-2a.52.52,0,0,0-.5.65c.1.32.33.46.54.72a1.61,1.61,0,0,1,.33.85.67.67,0,1,0,1.32-.18Z"/></g><g id="_Group_151" data-name="&lt;Group&gt;"><path id="_Path_150" data-name="&lt;Path&gt;" class="cls-1" d="M103.62,135.58c1.44-7.9,12.8-3.85,18.1-4.95a1.35,1.35,0,0,0,.32-2.45c-6.52-3.7-21.5-3.06-21.35,7,0,1.62,2.62,2.11,2.93.4Z"/></g><g id="_Group_152" data-name="&lt;Group&gt;"><path id="_Path_151" data-name="&lt;Path&gt;" class="cls-1" d="M100,127.17c-3.58-1.8-9.22-4.58-13.26-3.1-3.24,1.19-5.9,4.76-8,7.35-.57.7-.29,2.13.84,2,2.76-.25,4.2-2.16,6-4,3.89-4,8.72-.51,13.33.3,1.44.25,2.59-1.78,1.07-2.54Z"/></g><g id="_Group_153" data-name="&lt;Group&gt;"><path id="_Path_152" data-name="&lt;Path&gt;" class="cls-1" d="M63.14,121.65c-4.64,0-8.72-2-12.81,1.18-3.21,2.49-8.54,7.3-8.84,11.56a1,1,0,0,0,1.24.94c3.5-1.35,5.77-5.67,8.32-8.37,2.06-2.19,3.82-2.84,6.85-3a25.57,25.57,0,0,0,5.46-.63.88.88,0,0,0-.23-1.72Z"/></g><g id="_Group_154" data-name="&lt;Group&gt;"><path id="_Path_153" data-name="&lt;Path&gt;" class="cls-1" d="M63.37,124.32a23,23,0,0,1,8.55,5.09c1.66,1.58,3.1,4.85,5.65,4.78a1.34,1.34,0,0,0,1.24-.95c1.08-2.86-3-5.58-5-7A26,26,0,0,0,64,122a1.19,1.19,0,0,0-.63,2.28Z"/></g><g id="_Group_155" data-name="&lt;Group&gt;"><path id="_Path_154" data-name="&lt;Path&gt;" class="cls-1" d="M31,162.25c-2.28,4.06-5.42,9.66-2.36,14.14,1.62,2.38,4.33,4.29,6.3,6.39,2.32,2.48,4.82,4.8,7.11,7.31,8.49,9.3,18.58,8.36,27.74.08.86-.78-.23-2-1.19-1.54-4.23,2.11-8.08,5.11-13,5.36-5.25.27-9-3.11-12.93-6-3.2-2.38-6.88-5.38-9.25-8.62-3.76-5.14-2.59-10.76-.72-16.38a.93.93,0,0,0-1.69-.71Z"/></g><g id="_Group_156" data-name="&lt;Group&gt;"><path id="_Path_155" data-name="&lt;Path&gt;" class="cls-1" d="M74.87,185.59a56.51,56.51,0,0,0,4.06-6.3c1-1.78,2.49-3.93,2.34-6a1.15,1.15,0,0,0-1.93-.8c-1.52,1.45-2,4-2.87,5.84A56.62,56.62,0,0,1,73,184.49c-.77,1.2,1.06,2.19,1.87,1.09Z"/></g><g id="_Group_157" data-name="&lt;Group&gt;"><path id="_Path_156" data-name="&lt;Path&gt;" class="cls-1" d="M36.23,169.36a.1.1,0,0,0,0-.21.1.1,0,0,0,0,.21Z"/></g><g id="_Group_158" data-name="&lt;Group&gt;"><path id="_Path_157" data-name="&lt;Path&gt;" class="cls-1" d="M36,169.26c-4.7,1.51.4,8.63,1.77,10.82,2.75,4.4,7.42,11.42,13.21,11.47a1.36,1.36,0,0,0,.95-2.29c-2.31-3-6.17-4.71-8.71-7.69-1.69-2-7.55-8.37-6.17-11a.94.94,0,0,0-1-1.36Z"/></g><g id="_Group_159" data-name="&lt;Group&gt;"><path id="_Path_158" data-name="&lt;Path&gt;" class="cls-1" d="M56.2,192a13.43,13.43,0,0,0,1.48-.94c.76-.59.08-1.77-.74-1.79a11,11,0,0,0-1.44.14,1.39,1.39,0,1,0,.7,2.59Z"/></g><g id="_Group_160" data-name="&lt;Group&gt;"><path id="_Path_159" data-name="&lt;Path&gt;" class="cls-1" d="M60.56,190.24l1.75-1.17a10.07,10.07,0,0,0,.86-.59,5.58,5.58,0,0,0,.75-.88,1.09,1.09,0,0,0-1.05-1.81,6.32,6.32,0,0,0-2,.87l-1.75,1.17a1.42,1.42,0,0,0-.5,1.9,1.4,1.4,0,0,0,1.9.5Z"/></g><g id="_Group_161" data-name="&lt;Group&gt;"><path id="_Path_160" data-name="&lt;Path&gt;" class="cls-1" d="M69,183a6.62,6.62,0,0,0,1.6-3.8c0-.56-.71-1.11-1.24-.71a6.73,6.73,0,0,0-2.06,3.79A.93.93,0,0,0,69,183Z"/></g><g id="_Group_162" data-name="&lt;Group&gt;"><path id="_Path_161" data-name="&lt;Path&gt;" class="cls-1" d="M75.75,182.91c-3,3.67,1.68,6.82,5.14,7.15a28.9,28.9,0,0,1,4.69.35c1.71.45,2.69,1.64,4.07,2.67s3,1.51,4.64.5a.83.83,0,0,0,0-1.42c-2.38-1.53-4-4.16-6.73-5.16-3.12-1.15-9.76,1-10.43-3.73a.83.83,0,0,0-1.38-.36Z"/></g><g id="_Group_163" data-name="&lt;Group&gt;"><path id="_Path_162" data-name="&lt;Path&gt;" class="cls-1" d="M101.45,194.44c11.89,7.34,20.59-16.1,18.54-24.49a1,1,0,0,0-2,.27c-.13,6.59-4.8,28.85-15.69,22.79a.82.82,0,0,0-.83,1.42Z"/></g><g id="_Group_164" data-name="&lt;Group&gt;"><path id="_Path_163" data-name="&lt;Path&gt;" class="cls-1" d="M78.92,180c.78,3.77,4.11,4.84,7.54,5.5a23.31,23.31,0,0,1,7,2.45c1.7.92,3,1.88,5,1.25a1.1,1.1,0,0,0,.79-1c-.28-3.16-3.89-4.81-6.59-5.77-3.83-1.37-8.81-.15-11.72-3.54-.83-1-2.2.09-2,1.15Z"/></g><g id="_Group_165" data-name="&lt;Group&gt;"><path id="_Path_164" data-name="&lt;Path&gt;" class="cls-1" d="M102.81,189.64c1.63.77,4.32,1.54,5.78.07a1.73,1.73,0,0,0-.35-2.69c-1.13-.57-2.37-.14-3.51-.68a2,2,0,0,0-2.61.68,1.92,1.92,0,0,0,.68,2.61Z"/></g><g id="_Group_166" data-name="&lt;Group&gt;"><path id="_Path_165" data-name="&lt;Path&gt;" class="cls-1" d="M111,186.06l1-2.55a1.24,1.24,0,0,0-2.38-.66l-1,2.55a1.24,1.24,0,0,0,.86,1.52,1.27,1.27,0,0,0,1.52-.86Z"/></g><g id="_Group_167" data-name="&lt;Group&gt;"><path id="_Path_166" data-name="&lt;Path&gt;" class="cls-1" d="M114.24,176.93a1.08,1.08,0,0,0,0-2.16,1.08,1.08,0,0,0,0,2.16Z"/></g><g id="_Group_168" data-name="&lt;Group&gt;"><path id="_Path_167" data-name="&lt;Path&gt;" class="cls-1" d="M85.59,195.14c-1,.72-1.39,2-2.26,2.89s-1.84,1.62-2.62,2.55c-.35.42-.31,1.28.36,1.38a3.47,3.47,0,0,0,2.2-.25,7,7,0,0,0,2.11-1.41c1-1,2.35-3,1.93-4.46a1.19,1.19,0,0,0-1.74-.71Z"/></g><g id="_Group_169" data-name="&lt;Group&gt;"><path id="_Path_168" data-name="&lt;Path&gt;" class="cls-1" d="M71,197l-.84.14a1.22,1.22,0,0,0-.87.87,1.29,1.29,0,0,0,0,.66,1.22,1.22,0,0,0,.87.87l.84.14A1.39,1.39,0,1,0,71,197Z"/></g><g id="_Group_170" data-name="&lt;Group&gt;"><path id="_Path_169" data-name="&lt;Path&gt;" class="cls-1" d="M16.76,176.94c-.34,3.63-1.12,7.52-.79,11.16a2.13,2.13,0,0,0,4.26,0c.33-3.64-.45-7.52-.79-11.16a1.34,1.34,0,0,0-2.68,0Z"/></g><g id="_Group_171" data-name="&lt;Group&gt;"><path id="_Path_170" data-name="&lt;Path&gt;" class="cls-1" d="M128.17,187.5c-7.85,8.69-14.73,18.17-22.2,27.16s-16.66,16.47-24.6,25c-.6.65.28,1.47.95.95,9.55-7.54,17.09-16.83,25.51-25.51,8-8.26,15.67-16.68,21.72-26.53.51-.84-.7-1.81-1.38-1.06Z"/></g><g id="_Group_172" data-name="&lt;Group&gt;"><path id="_Path_171" data-name="&lt;Path&gt;" class="cls-1" d="M81.19,241.83c9.26,10.23,24.45,17.87,37.42,9.14,10.23-6.88,20.26-21.81,18.52-34.59-.06-.45-.82-.43-.89,0-2,11.34-9.58,22-18.36,29.43-11.74,9.93-25.4,3-35.87-5-.63-.48-1.3.52-.81,1.05Z"/></g><g id="_Group_173" data-name="&lt;Group&gt;"><path id="_Path_172" data-name="&lt;Path&gt;" class="cls-1" d="M125.28,189.62a59.33,59.33,0,0,1,8.65,17.55c1.77,5.87.54,11.67,1.82,17.43a1.2,1.2,0,0,0,2.17.28c3.62-5.12,1.76-13.28-.1-18.79-2.25-6.66-6.49-12.36-11.08-17.6-.68-.78-2.07.26-1.46,1.12Z"/></g><g id="_Group_174" data-name="&lt;Group&gt;"><path id="_Path_173" data-name="&lt;Path&gt;" class="cls-1" d="M95,231.66a53.07,53.07,0,0,1,3.18,4.81c.83,1.57,1.05,3.34,1.79,5,1.29,2.84,3.14,6.42,5.45,8.51a2.08,2.08,0,0,0,3.44-2c-.68-3-3.09-6.4-5.1-8.72-1.33-1.53-3.12-2.64-4.49-4.14-1.18-1.29-2.2-2.81-3.3-4.18-.44-.54-1.36.17-1,.75Z"/></g><g id="_Group_175" data-name="&lt;Group&gt;"><path id="_Path_174" data-name="&lt;Path&gt;" class="cls-1" d="M104,232.2c1,1,3.55,2.86,4.85,1.45a1,1,0,0,0,.15-1.19c-.39-.78-1.09-.79-1.82-1a4.57,4.57,0,0,1-1.51-.9c-1.13-1-2.76.59-1.68,1.68Z"/></g><g id="_Group_176" data-name="&lt;Group&gt;"><path id="_Path_175" data-name="&lt;Path&gt;" class="cls-1" d="M114.08,241l.43,1.45a1.24,1.24,0,0,0,2.06.54,1.19,1.19,0,0,0,.32-1.2l-.53-1.43a1.22,1.22,0,0,0-1.46-.83,1.2,1.2,0,0,0-.83,1.46Z"/></g><g id="_Group_177" data-name="&lt;Group&gt;"><path id="_Path_176" data-name="&lt;Path&gt;" class="cls-1" d="M110.5,213.24l4.17,6.55c1.07,1.68,1.94,4,4,4.63a1,1,0,0,0,1.24-.94c.13-2-1.87-3.86-3-5.43l-4.38-6c-.84-1.15-2.76-.11-2,1.14Z"/></g><g id="_Group_178" data-name="&lt;Group&gt;"><path id="_Path_177" data-name="&lt;Path&gt;" class="cls-1" d="M121.75,226l.64,1.17a2.8,2.8,0,0,0,1.09,1.18,1.35,1.35,0,0,0,2-1.15,5.92,5.92,0,0,0-1-2.81,1.6,1.6,0,0,0-2.76,1.61Z"/></g><g id="_Group_179" data-name="&lt;Group&gt;"><path id="_Path_178" data-name="&lt;Path&gt;" class="cls-1" d="M111,227.58l2.66,3.58c.73,1,1.4,2.32,2.48,2.92a.68.68,0,0,0,1-.76c-.25-1.2-1.35-2.29-2.06-3.27l-2.46-3.41c-.7-1-2.31,0-1.6.94Z"/></g><g id="_Group_180" data-name="&lt;Group&gt;"><path id="_Path_179" data-name="&lt;Path&gt;" class="cls-1" d="M120.29,208.66a2.23,2.23,0,0,1,1.07,1.16c.24.61,0,1.34.53,1.8a.92.92,0,0,0,1.06.14c1-.5.62-2,.28-2.79a4.23,4.23,0,0,0-1.89-2.1c-1.17-.63-2.21,1.15-1,1.78Z"/></g><g id="_Group_181" data-name="&lt;Group&gt;"><path id="_Path_180" data-name="&lt;Path&gt;" class="cls-1" d="M29.17,307c7.31,1.47,12.19,7.55,18.11,11.67a114.7,114.7,0,0,0,17.12,9.6,125,125,0,0,0,17,6.49c5.81,1.74,12.63,4.53,18.65,4.89.73,0,.94-.85.55-1.32-3.87-4.69-11.65-5.66-17.24-7.05a112.08,112.08,0,0,1-21.64-7.66A146.12,146.12,0,0,1,44,313.26c-4.48-3-9-7.58-14.8-6.43a.1.1,0,0,0,0,.2Z"/></g><g id="_Group_182" data-name="&lt;Group&gt;"><path id="_Path_181" data-name="&lt;Path&gt;" class="cls-1" d="M97.75,339c-3.11,4.45-6.4,9.23-11.21,12-3.86,2.23-8.34,3.25-12.67,4.11a60.18,60.18,0,0,1-28.68-.9c-.81-.21-1.53.87-.85,1.46,8.16,7.19,20.79,5.14,30.59,3.25,5.34-1,10.51-2.37,14.91-5.73s7.43-8.16,10.33-12.81c1-1.54-1.39-2.85-2.4-1.4Z"/></g><g id="_Group_183" data-name="&lt;Group&gt;"><path id="_Path_182" data-name="&lt;Path&gt;" class="cls-1" d="M95,337.91c-.49,5-4.45,10.94-7.65,14.84-3.64,4.42-7.73,5.4-13.08,6.4-1.3.24-1.3,2-.34,2.64,11.48,7.47,24.18-14.76,23.45-23.87a1.19,1.19,0,0,0-2.37,0Z"/></g><g id="_Group_184" data-name="&lt;Group&gt;"><path id="_Path_183" data-name="&lt;Path&gt;" class="cls-1" d="M53.6,322.08c-2.78,5.42-3.82,11.94-5.26,17.81S44.82,353,46.79,358.93a.73.73,0,0,0,1.32.17c3.53-4.75,3.56-10.8,4.28-16.49.85-6.75,1.21-13.2,2.81-19.87.22-.93-1.13-1.59-1.6-.67Z"/></g><g id="_Group_185" data-name="&lt;Group&gt;"><path id="_Path_184" data-name="&lt;Path&gt;" class="cls-1" d="M54.74,352.21c.53-4.33,1.87-8.31,2.85-12.52.15-.65-.8-1.13-1.13-.48-2,3.86-2.82,8.52-3.44,12.76a.87.87,0,1,0,1.72.23Z"/></g><g id="_Group_186" data-name="&lt;Group&gt;"><path id="_Path_185" data-name="&lt;Path&gt;" class="cls-1" d="M61.29,328.82l.62-2.86a5.57,5.57,0,0,0,.21-2.55.73.73,0,0,0-1.32-.17,5.68,5.68,0,0,0-.82,2.39l-.58,2.67c-.27,1.23,1.62,1.75,1.89.52Z"/></g><g id="_Group_187" data-name="&lt;Group&gt;"><path id="_Path_186" data-name="&lt;Path&gt;" class="cls-1" d="M61.57,353A58.16,58.16,0,0,1,66,340.63c1.33-3,3.09-5.91,3.27-9.23a1.09,1.09,0,0,0-1.85-.76c-2.24,2.79-2.89,6.39-4,9.74-1.32,4-2.93,7.91-3.53,12.13-.15,1.09,1.47,1.59,1.69.47Z"/></g><g id="_Group_188" data-name="&lt;Group&gt;"><path id="_Path_187" data-name="&lt;Path&gt;" class="cls-1" d="M73.36,344.83c1.6-1.58,4-3.91,3.72-6.37a.78.78,0,0,0-1.16-.67,6.64,6.64,0,0,0-2.14,2.44,20.2,20.2,0,0,1-2.1,2.93c-1,1.14.57,2.76,1.68,1.68Z"/></g><g id="_Group_189" data-name="&lt;Group&gt;"><path id="_Path_188" data-name="&lt;Path&gt;" class="cls-1" d="M76.89,333a.05.05,0,0,0,0-.11.05.05,0,0,0,0,.11Z"/></g><g id="_Group_190" data-name="&lt;Group&gt;"><path id="_Path_189" data-name="&lt;Path&gt;" class="cls-1" d="M32,327.48a56.28,56.28,0,0,1,1.16-8.57.93.93,0,0,0-1.69-.71,18.22,18.22,0,0,0-2.14,9.29,1.34,1.34,0,0,0,2.68,0Z"/></g><g id="_Group_191" data-name="&lt;Group&gt;"><path id="_Path_190" data-name="&lt;Path&gt;" class="cls-1" d="M36.08,309.61a9.48,9.48,0,0,0,.3-4.3c-.12-.81-1.43-.61-1.42.19a7.55,7.55,0,0,1-.67,3.35,1,1,0,1,0,1.79.75Z"/></g><g id="_Group_192" data-name="&lt;Group&gt;"><path id="_Path_191" data-name="&lt;Path&gt;" class="cls-1" d="M88.06,237.56l-2.16,1.68c-.41.32.13,1,.56.73l2.22-1.6a.51.51,0,1,0-.62-.81Z"/></g><g id="_Group_193" data-name="&lt;Group&gt;"><path id="_Path_192" data-name="&lt;Path&gt;" class="cls-1" d="M83.74,239.94c8.79,6.33,19.33,12.82,30.38,8.11,4.33-1.84,7.32-4.79,10.12-8.47,3.25-4.27,7.93-9.08,9-14.46.27-1.38-1.5-2.78-2.58-1.5-2.51,2.95-3.75,6.68-6.07,9.8a36.87,36.87,0,0,1-10.42,9.09c-9.84,6-20.3.27-29.08-4.87-1.52-.89-2.72,1.32-1.35,2.31Z"/></g><g id="_Group_194" data-name="&lt;Group&gt;"><path id="_Path_193" data-name="&lt;Path&gt;" class="cls-1" d="M133.24,220.88c.32-6-.14-11.43-2.64-17-1.8-4-4.81-10.14-9.66-10.67-.86-.09-1.33.86-1.19,1.56.77,3.95,5,6.89,7,10.43a32.7,32.7,0,0,1,4.18,15.71,1.19,1.19,0,0,0,2.37,0Z"/></g><g id="_Group_195" data-name="&lt;Group&gt;"><path id="_Path_194" data-name="&lt;Path&gt;" class="cls-1" d="M116.69,206.94a2.28,2.28,0,0,0-2.63-.68c-.73.34-1.57,1-1.57,1.88,0,1.11,1.07,1.49,2,1.21l.16,0q-.16,0,0,0a3.52,3.52,0,0,0,.68-.06,2,2,0,0,0,.65-.33c.18-.11,0,0,.22-.1a1.15,1.15,0,0,0,.5-1.89Z"/></g><g id="_Group_196" data-name="&lt;Group&gt;"><path id="_Path_195" data-name="&lt;Path&gt;" class="cls-1" d="M87.71,336.69c-2.18,2-3.58,4.55-6,6.46a35.16,35.16,0,0,1-9.67,5.43,38,38,0,0,1-9.52,2.19c-3.05.29-6.14,0-9,1a1.36,1.36,0,0,0-.32,2.45c6.37,4,16.9.51,23.12-2.36,5-2.33,14.87-7.92,13-14.8a.94.94,0,0,0-1.55-.41Z"/></g><g id="_Group_197" data-name="&lt;Group&gt;"><path id="_Path_196" data-name="&lt;Path&gt;" class="cls-1" d="M46.57,349.55c-.75-.63-1.63-1.7-2.68-1.64a1.05,1.05,0,0,0-1,1c0,1.07,1,1.9,1.67,2.65a1.44,1.44,0,1,0,2-2Z"/></g><g id="_Group_198" data-name="&lt;Group&gt;"><path id="_Path_197" data-name="&lt;Path&gt;" class="cls-1" d="M40.24,344.35l-1.13-1c-.39-.33-.71-.7-1.26-.66a.74.74,0,0,0-.72.72c0,.56.33.86.67,1.25l1,1.11c.89,1,2.47-.6,1.46-1.46Z"/></g><g id="_Group_199" data-name="&lt;Group&gt;"><path id="_Path_198" data-name="&lt;Path&gt;" class="cls-1" d="M40.56,199.35c-.49,1.6-.55,3.24-1,4.84s-1.13,2.87-.07,4.25a1.46,1.46,0,0,0,2.27.29c1.17-1.36.81-2.61.41-4.25s-.39-3.43-.81-5.13a.42.42,0,0,0-.79,0Z"/></g><g id="_Group_200" data-name="&lt;Group&gt;"><path id="_Path_199" data-name="&lt;Path&gt;" class="cls-1" d="M39.62,215.59c-.61.85-1.45,2-.49,3s2.11.12,3-.49a1.8,1.8,0,1,0-2.47-2.47Z"/></g><g id="_Group_201" data-name="&lt;Group&gt;"><path id="_Path_200" data-name="&lt;Path&gt;" class="cls-1" d="M11.78,156.84a9.39,9.39,0,0,1-.7,6.12.62.62,0,0,0,1.07.62,8.72,8.72,0,0,0,1.13-7.15c-.23-1-1.73-.56-1.49.41Z"/></g><g id="_Group_202" data-name="&lt;Group&gt;"><path id="_Path_201" data-name="&lt;Path&gt;" class="cls-1" d="M10.78.6c.75,21.06,3.41,42.15,6.33,63,1.5,10.73,2.91,21.48,4.61,32.17.34,2.13.65,4.28,1.09,6.39.72,3.45,2.28,6.24,2.87,9.84.93,5.7,2,11.36,2.67,17.11a1.9,1.9,0,1,0,3.74-.51c-1.18-5.68-1.75-11.4-2.69-17.11-.51-3.12.13-5.48,0-8.48-.11-2.27-.62-4.62-.93-6.87-1.5-10.71-3.3-21.39-4.94-32.08C20.26,42.81,17,21.38,12,.44A.62.62,0,0,0,10.78.6Z"/></g><g id="_Group_203" data-name="&lt;Group&gt;"><path id="_Path_202" data-name="&lt;Path&gt;" class="cls-1" d="M11.14,3c2.34.86,4.67,2.19,7.19,1.6a.83.83,0,0,0,.36-1.38C17,1.3,14.27,1,11.91.25,10.1-.29,9.42,2.4,11.14,3Z"/></g><g id="_Group_204" data-name="&lt;Group&gt;"><path id="_Path_203" data-name="&lt;Path&gt;" class="cls-1" d="M17.74,8.67C19.61,20.76,20,32.76,20.66,45c.33,5.78.87,11.54,1.25,17.32.31,4.88.61,9.33,3.11,13.63a1.25,1.25,0,0,0,2.26-.3c2.15-5.1,1.51-10.1,1-15.51-.52-5.68-1-11.38-1.88-17-1.8-11.78-4.24-23.38-5.87-35.19-.25-1.82-3.06-1.06-2.78.77Z"/></g><g id="_Group_205" data-name="&lt;Group&gt;"><path id="_Path_204" data-name="&lt;Path&gt;" class="cls-1" d="M25.29,85.93l5.11,22.41c.81,3.57,1.6,7.12,2.26,10.72.63,3.41.67,5.69,3.38,7.88a1.72,1.72,0,0,0,2.67-.34c2.53-5.54-1.52-13-2.88-18.62L30.15,84.59c-.77-3.16-5.59-1.82-4.87,1.34Z"/></g><g id="_Group_206" data-name="&lt;Group&gt;"><path id="_Path_205" data-name="&lt;Path&gt;" class="cls-1" d="M37,131.86l1.37,2c.49.73,1.84.3,1.51-.64l-.8-2.28a1.13,1.13,0,1,0-2.07.87Z"/></g><g id="_Group_207" data-name="&lt;Group&gt;"><path id="_Path_206" data-name="&lt;Path&gt;" class="cls-1" d="M38.71,188.62c3,22.14,6.55,44.19,10.21,66.24s6.37,44.27,11.37,65.92c.33,1.44,2.79,1.17,2.63-.36C60.64,298.52,56,276.73,52.4,255c-3.74-22.34-7.59-44.65-12-66.87-.22-1.13-1.84-.62-1.69.47Z"/></g><g id="_Group_208" data-name="&lt;Group&gt;"><path id="_Path_207" data-name="&lt;Path&gt;" class="cls-1" d="M27.32,155.7c1.86,6.92,3.4,14,5.7,20.82a.52.52,0,0,0,1-.27c-1.45-7-3.71-13.94-5.6-20.85a.57.57,0,0,0-1.09.3Z"/></g><g id="_Group_209" data-name="&lt;Group&gt;"><path id="_Path_208" data-name="&lt;Path&gt;" class="cls-1" d="M44.19,196.55q2.36,17.18,5.23,34.26c1.81,11,2.34,23.56,6.4,33.94a1.4,1.4,0,0,0,2.73-.37c.39-11-3.2-22.8-5.09-33.57-2.05-11.7-4.21-23.36-6.59-35-.37-1.79-2.92-1-2.68.74Z"/></g><g id="_Group_210" data-name="&lt;Group&gt;"><path id="_Path_209" data-name="&lt;Path&gt;" class="cls-1" d="M33.63,130c-1,5.62-.55,11.14.15,16.78.61,4.9,1.14,10.81,3.94,15A1.51,1.51,0,0,0,40.5,161c.31-4.85-1.67-10-2.53-14.77-1-5.41-1.37-10.86-2.65-16.22a.88.88,0,0,0-1.69,0Z"/></g><g id="_Group_211" data-name="&lt;Group&gt;"><path id="_Path_210" data-name="&lt;Path&gt;" class="cls-1" d="M38.13,147.26a6.34,6.34,0,0,1-.11,2.8c-.08.56-.28,1,0,1.55a1.26,1.26,0,0,0,1.14.65c1.18,0,2.31-1.45,2.63-2.44a6.89,6.89,0,0,0,.1-3.6c-.54-2.45-4.49-1.39-3.77,1Z"/></g><g id="_Group_212" data-name="&lt;Group&gt;"><path id="_Path_211" data-name="&lt;Path&gt;" class="cls-1" d="M15,132.3a10.24,10.24,0,0,1-2.43-4.46,1.88,1.88,0,0,0-3.6,0C7.61,133,5.92,139,7.85,144.17c1.27,3.43,3.74,7.64,7.55,8.49a1.09,1.09,0,0,0,1.05-1.81c-3.14-3.18-5-5.09-5.35-9.73-.35-4.19.47-8.22,1.42-12.29H8.92a17.66,17.66,0,0,0,3.48,6c1.53,1.77,4-.78,2.55-2.55Z"/></g><g id="_Group_213" data-name="&lt;Group&gt;"><path id="_Path_212" data-name="&lt;Path&gt;" class="cls-1" d="M128.27,172.92a5.79,5.79,0,0,0-2.14,2.53,4.84,4.84,0,0,0,.26,3.79,1.85,1.85,0,0,0,2.33.76,1.91,1.91,0,0,0,1.08-2.2,5.32,5.32,0,0,1,.3-3c.59-1.1-.66-2.63-1.83-1.83Z"/></g><g id="_Group_214" data-name="&lt;Group&gt;"><path id="_Path_213" data-name="&lt;Path&gt;" class="cls-1" d="M131,197l.77,1.44a1.82,1.82,0,0,0,1.66,1.11,1.13,1.13,0,0,0,1-.56,1.9,1.9,0,0,0,0-2.06c-.23-.5-.46-1-.7-1.49A1.55,1.55,0,0,0,131,197Z"/></g><g id="_Group_215" data-name="&lt;Group&gt;"><path id="_Path_214" data-name="&lt;Path&gt;" class="cls-1" d="M140.07,190.13l.88-.09a1.56,1.56,0,0,0,0-3.12l-.88-.09a1.65,1.65,0,0,0,0,3.3Z"/></g><g id="_Group_216" data-name="&lt;Group&gt;"><path id="_Path_215" data-name="&lt;Path&gt;" class="cls-1" d="M138.72,165.1a163.16,163.16,0,0,0-2.27,17.85c-.32,5.63-1.44,12.68.63,18a1.4,1.4,0,0,0,2.68,0c1.45-5.27.21-11.52.26-17,.05-6.22.16-12.43.63-18.63.08-1.09-1.74-1.35-1.92-.26Z"/></g><g id="_Group_217" data-name="&lt;Group&gt;"><path id="_Path_216" data-name="&lt;Path&gt;" class="cls-1" d="M138.48,207.82c-.09.57-.19,1.13-.28,1.7a5.21,5.21,0,0,0,.26,2.22,1.68,1.68,0,0,0,3.21,0,5.14,5.14,0,0,0,.26-2.22c-.09-.57-.18-1.13-.28-1.7-.26-1.57-2.92-1.57-3.18,0Z"/></g><g id="_Group_218" data-name="&lt;Group&gt;"><path id="_Path_217" data-name="&lt;Path&gt;" class="cls-1" d="M142.81,158.81l-.14-2.16c-.06-.92-.07-1.63-.88-2.21a1.2,1.2,0,0,0-1.25,0c-.81.58-.82,1.29-.88,2.21l-.14,2.16c-.14,2.12,3.44,2.12,3.3,0Z"/></g><g id="_Group_219" data-name="&lt;Group&gt;"><path id="_Path_218" data-name="&lt;Path&gt;" class="cls-1" d="M136.93,145.09a2.81,2.81,0,0,0,.83,1.74,1.72,1.72,0,0,0,2.4,0,2.81,2.81,0,0,0,.83-1.74,2.11,2.11,0,0,0-3.53-2.05,2.21,2.21,0,0,0-.54,2.05Z"/></g></g></g></g></svg>