<svg xmlns="http://www.w3.org/2000/svg" viewBox="0 0 206.67 261.02"><defs><style>.cls-1{fill:#855d25;}</style></defs><title>Asset 7</title><g id="Layer_2" data-name="Layer 2"><g id="Layer_2-2" data-name="Layer 2"><g id="_Group_" data-name="&lt;Group&gt;"><g id="_Group_2" data-name="&lt;Group&gt;"><path id="_Path_" data-name="&lt;Path&gt;" class="cls-1" d="M28.72,50.3C42,56.49,58.93,56.81,73.34,57.25c8,.24,16.49-.36,24.52-.93,7.63-.54,16.37.85,23.74-1.18a1.09,1.09,0,0,0,0-2.09c-6.91-1.51-14.54.13-21.61-.25-8.18-.45-16.34-1.36-24.52-1.82-7.63-.43-15.31-.38-22.95-.57-7.84-.19-15.67-1.32-23.49-1.26-.58,0-.89.88-.31,1.15Z"/></g><g id="_Group_3" data-name="&lt;Group&gt;"><path id="_Path_2" data-name="&lt;Path&gt;" class="cls-1" d="M124.58,53.89c6.21,1.53,13,1,19.42,1.25,3.23.1,6.47.13,9.7.29,3.88.19,7.52,1.25,11.35,1.54,6.44.49,12.16-1.31,18.4-2.29,7-1.11,14-2.56,20.92-4a.57.57,0,0,0-.15-1.11c-6.82.11-13.56,0-20.38.05-6.52,0-12.76-1.1-19.29.06-7,1.24-13.4,2.67-20.55,3.07-6.4.36-13.14-.22-19.42,1.07a.06.06,0,0,0,0,.11Z"/></g><g id="_Group_4" data-name="&lt;Group&gt;"><path id="_Path_3" data-name="&lt;Path&gt;" class="cls-1" d="M28.28,48.23c-2.16,3.34-1.42,7.52-1,11.32C27.91,65,28.92,70.49,29.55,76c1.21,10.51.63,21.84,3.13,32.1.4,1.63,3,1.71,3.38,0,1.89-9.44.12-20.16-1.17-29.63-.71-5.22-1.49-10.47-2.57-15.63-1-4.75-1.34-9.82-2.62-14.43a.78.78,0,0,0-1.41-.18Z"/></g><g id="_Group_5" data-name="&lt;Group&gt;"><path id="_Path_4" data-name="&lt;Path&gt;" class="cls-1" d="M33.17,102.36c-.7,4.48-2.07,10.95.5,15a.73.73,0,0,0,1.32-.17c.73-2.17.36-4.55.27-6.81a66.2,66.2,0,0,1,.13-7.72c.1-1.26-2-1.57-2.23-.3Z"/></g><g id="_Group_6" data-name="&lt;Group&gt;"><path id="_Path_5" data-name="&lt;Path&gt;" class="cls-1" d="M34.28,119.23c.45,2,.66,4.37,1.55,6.18a.42.42,0,0,0,.77-.21c-.09-2-1.07-4.22-1.62-6.16a.36.36,0,0,0-.7.19Z"/></g><g id="_Group_7" data-name="&lt;Group&gt;"><path id="_Path_6" data-name="&lt;Path&gt;" class="cls-1" d="M36.14,128c.29,11.16,4.9,20.85,9.83,30.64a.78.78,0,0,0,1.41-.18c1.27-4-1.44-7.33-3.37-10.71A45.08,45.08,0,0,1,38.2,128c-.08-1.31-2.1-1.34-2.06,0Z"/></g><g id="_Group_8" data-name="&lt;Group&gt;"><path id="_Path_7" data-name="&lt;Path&gt;" class="cls-1" d="M47,160.94c-.16,10.11,3.12,20.75,4.47,30.78.72,5.37,1.23,10.75,1.75,16.14.43,4.44.26,9.14,2.94,12.87a.94.94,0,0,0,1.6,0c2.15-4,1.35-8.46.85-12.87-.61-5.37-1.45-10.73-2.36-16.06-1.73-10.09-3.11-22.11-8.11-31.18a.62.62,0,0,0-1.15.31Z"/></g><g id="_Group_9" data-name="&lt;Group&gt;"><path id="_Path_8" data-name="&lt;Path&gt;" class="cls-1" d="M56.12,229.05l.33,13.05c.07,2.94-.16,6.29.88,9.12,1.31,3.57,5.38,7,9,4.4a1.35,1.35,0,0,0-.68-2.5c-6-.75-5.85-7.46-6.13-12l-.73-12c-.1-1.71-2.72-1.74-2.68,0Z"/></g><g id="_Group_10" data-name="&lt;Group&gt;"><path id="_Path_9" data-name="&lt;Path&gt;" class="cls-1" d="M54.87,212.65c-1,5.16-2,11.41-1.24,16.63s4.18,10,6.58,14.48a.73.73,0,0,0,1.34-.36c-.09-5.67,2.08-11.18,1.08-16.77a42.35,42.35,0,0,0-5.41-14.28,1.3,1.3,0,0,0-2.35.31Z"/></g><g id="_Group_11" data-name="&lt;Group&gt;"><path id="_Path_10" data-name="&lt;Path&gt;" class="cls-1" d="M67.66,254.08c7.23,4.37,17.52,5.25,25.78,6.25,9.94,1.2,19.27.6,29.19-.13,4.69-.34,9.39-.68,14.07-1.23,5.2-.6,10,.16,15.12-.07a89.89,89.89,0,0,0,13.65-1.53c3.83-.78,8.23-1.31,11.49-3.48a1,1,0,0,0-.25-1.88c-7-2.08-16.32.39-23.45,1.46-5.23.78-10.14,2.79-15.48,2.92-4.68.11-9.38.23-14.06.16-9.34-.14-18.77-1.18-28.12-1.75-8.85-.54-18.91-2.83-27.68-1.68a.52.52,0,0,0-.26,1Z"/></g><g id="_Group_12" data-name="&lt;Group&gt;"><path id="_Path_11" data-name="&lt;Path&gt;" class="cls-1" d="M204.16,52.24c-3,6.94-2.89,15.74-3.83,23.17-1.14,9-2.24,18-3.21,27-.93,8.58-1.71,17.13-3.38,25.59-1.51,7.69-1.64,16.63-5.39,23.6-.55,1,.88,2.29,1.7,1.31,5-6,8.63-11.67,9.89-19.51,1.29-8,1.3-16.41,2.1-24.52.92-9.34,1.83-18.68,2.59-28,.72-8.93,3.18-19.5,1.41-28.31a1,1,0,0,0-1.88-.25Z"/></g><g id="_Group_13" data-name="&lt;Group&gt;"><path id="_Path_12" data-name="&lt;Path&gt;" class="cls-1" d="M188.06,154.72l-.5,1.12c-.13.3.28.56.44.26l.59-1.07c.2-.35-.37-.67-.53-.31Z"/></g><g id="_Group_14" data-name="&lt;Group&gt;"><path id="_Path_13" data-name="&lt;Path&gt;" class="cls-1" d="M186.28,158.66c-6.26,15.39-7.05,32.82-9.55,49.11-1.24,8.08-1.54,16.28-2.08,24.42a81.71,81.71,0,0,1-1.16,10.1c-.68,3.52-2.39,6.66-2.89,10.2a1.52,1.52,0,0,0,2.19,1.69c5.37-2.85,7.22-10.37,8.09-16,1.23-7.91,1.17-16,1.59-24,.5-9.35.85-18.52,2-27.83s2.63-18.29,2.46-27.63a.36.36,0,0,0-.71-.1Z"/></g><g id="_Group_15" data-name="&lt;Group&gt;"><path id="_Path_14" data-name="&lt;Path&gt;" class="cls-1" d="M59.12,230.13c-.37,3.49,2.58,5.64,5.39,6.94,3.32,1.55,7.57,3.54,10.78.94a1,1,0,0,0,0-1.38c-1.78-2.08-4.14-2.09-6.66-2.74-2.1-.55-6.79-1.57-7.28-4.06-.27-1.35-2.1-.87-2.23.3Z"/></g><g id="_Group_16" data-name="&lt;Group&gt;"><path id="_Path_15" data-name="&lt;Path&gt;" class="cls-1" d="M77.09,238.16c11.82,2.82,23.47,3,35.53,3.95,11,.9,24,4.75,34.52-.3,1.73-.83,1.31-3.75-.54-4.14-4.9-1-10.21.21-15.17.59-5.91.45-11.9,2.07-17.76,2.34-12,.54-24.17-2.6-36-4.61-1.41-.24-2,1.84-.6,2.19Z"/></g><g id="_Group_17" data-name="&lt;Group&gt;"><path id="_Path_16" data-name="&lt;Path&gt;" class="cls-1" d="M153.74,241.3a166.94,166.94,0,0,0,26.34-4.21c2.51-.65,1.45-4.47-1.07-3.87a255.75,255.75,0,0,1-25.27,5c-1.92.25-2,3.28,0,3.09Z"/></g><g id="_Group_18" data-name="&lt;Group&gt;"><path id="_Path_17" data-name="&lt;Path&gt;" class="cls-1" d="M96.28,259.94c1.95-5.78,0-13.42-.61-19.4a51.08,51.08,0,0,0-1.11-8.06c-1.06-3.89-2.62-7.19-3.33-11.26-.07-.4-.75-.31-.71.1.38,3.89-.11,6.77-.29,10.68-.14,3,.57,6.18,1,9.15.88,5.92.8,13.79,4,18.94a.57.57,0,0,0,1-.14Z"/></g><g id="_Group_19" data-name="&lt;Group&gt;"><path id="_Path_18" data-name="&lt;Path&gt;" class="cls-1" d="M91.3,214.43c1-2.88.87-7.27-1.2-9.67a.94.94,0,0,0-1.58.66,19.9,19.9,0,0,0,.69,4c.29,1.57.3,3.17.47,4.76a.83.83,0,0,0,1.62.22Z"/></g><g id="_Group_20" data-name="&lt;Group&gt;"><path id="_Path_19" data-name="&lt;Path&gt;" class="cls-1" d="M90.69,186.66c-1.49-11.3.6-23.74,8.27-32.65a17.24,17.24,0,0,1,14.66-5.86c5,.59,10.06,3.52,14.49,6a1.29,1.29,0,0,0,1.3-2.22c-3.17-2.08-6.48-3.93-9.67-5.94-2.13-1.35-4.3-3.77-6.85-4.43-5-1.29-12.78,2.59-16.31,6-9.48,9.17-9.06,27.31-6.5,39.15.07.33.65.27.61-.08Z"/></g><g id="_Group_21" data-name="&lt;Group&gt;"><path id="_Path_20" data-name="&lt;Path&gt;" class="cls-1" d="M131.3,164.77a85.75,85.75,0,0,1,.43,12.08c0,.67,1,.65,1,0a40,40,0,0,0-.65-12.19c-.09-.45-.86-.36-.81.11Z"/></g><g id="_Group_22" data-name="&lt;Group&gt;"><path id="_Path_21" data-name="&lt;Path&gt;" class="cls-1" d="M131.56,179.06c0,11.72-.68,23.37-1,35.09-.18,5.7.36,11.34.29,17-.06,4.72-1.18,10,.76,14.42a1.19,1.19,0,0,0,2,0c2.08-4,1.31-8.94,1.42-13.36.15-6.06.83-12,.67-18.08-.32-11.73-1.39-23.38-2.08-35.09a1,1,0,0,0-2.06,0Z"/></g><g id="_Group_23" data-name="&lt;Group&gt;"><path id="_Path_22" data-name="&lt;Path&gt;" class="cls-1" d="M130.81,252.12l-.17,2.41c-.05.74.13,1.76,1.09,1.76s1.13-.92,1.1-1.64-.12-1.69-.17-2.54a.93.93,0,0,0-1.85,0Z"/></g><g id="_Group_24" data-name="&lt;Group&gt;"><path id="_Path_23" data-name="&lt;Path&gt;" class="cls-1" d="M142,252.67c.36-6.4,1.55-13.66.46-20-.15-.88-1.33-.68-1.59,0-2.26,6-1.5,13.76-.72,20a.93.93,0,0,0,1.85,0Z"/></g><g id="_Group_25" data-name="&lt;Group&gt;"><path id="_Path_24" data-name="&lt;Path&gt;" class="cls-1" d="M142.29,226.91c1.54-5.76,1.94-11.79,2.42-17.72a46.29,46.29,0,0,0-.27-9.34c-.4-3.5.05-6.87-.14-10.36,0-.5-.78-.65-.91-.12-2.89,12.14-4.71,25.22-1.5,37.54a.21.21,0,0,0,.4,0Z"/></g><g id="_Group_26" data-name="&lt;Group&gt;"><path id="_Path_25" data-name="&lt;Path&gt;" class="cls-1" d="M144.5,180.7a17.4,17.4,0,0,0-.17-4.53.52.52,0,0,0-1,0,17.38,17.38,0,0,0-.17,4.53.67.67,0,0,0,1.34,0Z"/></g><g id="_Group_27" data-name="&lt;Group&gt;"><path id="_Path_26" data-name="&lt;Path&gt;" class="cls-1" d="M146.12,171.38c1-8.27,6.53-15.25,12.85-20.38,5.43-4.41,13.11-9.61,17.32-1.32a.62.62,0,0,0,1.13-.48c-.91-3.08-2.27-6.81-5.1-8.65-4.08-2.66-8.81.32-12.21,2.73-9.53,6.73-16.34,16.09-16,28.11a1,1,0,0,0,2.06,0Z"/></g><g id="_Group_28" data-name="&lt;Group&gt;"><path id="_Path_27" data-name="&lt;Path&gt;" class="cls-1" d="M176.52,156.24c-1.16,8-2.16,16-2.88,24.09-.76,8.55-2.77,17-3.83,25.54-.46,3.72-.77,7.47-1.08,11.2-.36,4.35.27,8.61,0,13-.43,8-2.79,15.8-2.93,23.78,0,2.43,3.9,3.09,4.35.59a36,36,0,0,0,.48-9.72c-.33-3.87.67-8.55,1.14-12.48.51-4.29,2-8.33,2.55-12.58.54-4.06.93-8.2,1.27-12.28.7-8.26.25-16.64,1.1-24.86.89-8.66,1.66-17.24,2.13-25.94.07-1.31-2.13-1.65-2.33-.31Z"/></g><g id="_Group_29" data-name="&lt;Group&gt;"><path id="_Path_28" data-name="&lt;Path&gt;" class="cls-1" d="M47,150.61c1.07-.21,1.5-1,2.1-1.83a13.25,13.25,0,0,1,3-3,14.67,14.67,0,0,1,3.51-2c1.2-.45,2.33-.52,3.38-1.31a.79.79,0,0,0,0-1.33c-2.51-1.68-6.82.18-9,1.79-1.77,1.32-5.53,4.91-4,7.34a.86.86,0,0,0,.93.38Z"/></g><g id="_Group_30" data-name="&lt;Group&gt;"><path id="_Path_29" data-name="&lt;Path&gt;" class="cls-1" d="M61.6,142.14C72.25,155.44,75.31,172.42,77,188.91c.81,8,.47,16.45,1.93,24.35.49,2.64,2,5,2.38,7.67a62.78,62.78,0,0,1,.26,9.35,48.32,48.32,0,0,0,.84,12c.52,2.2,3.59,1.54,3.74-.51.44-5.89-1.36-11.37-1.94-17.15-.47-4.71,1.11-8.92.89-13.51a231.93,231.93,0,0,0-2.91-26.4C79.56,168.59,74.12,153,62.55,141.2c-.62-.63-1.47.29-.95.95Z"/></g><g id="_Group_31" data-name="&lt;Group&gt;"><path id="_Path_30" data-name="&lt;Path&gt;" class="cls-1" d="M84.42,247.18l0,1.9a3.92,3.92,0,0,0,.19,1.63.47.47,0,0,0,.8,0,3.92,3.92,0,0,0,.19-1.63l0-1.9a.62.62,0,0,0-1.24,0Z"/></g><g id="_Group_32" data-name="&lt;Group&gt;"><path id="_Path_31" data-name="&lt;Path&gt;" class="cls-1" d="M84.27,253.22l-.12,1.9a2.74,2.74,0,0,0,.18,1.81.84.84,0,0,0,1.42,0,2.74,2.74,0,0,0,.18-1.81l-.12-1.9a.77.77,0,0,0-1.55,0Z"/></g><g id="_Group_33" data-name="&lt;Group&gt;"><path id="_Path_32" data-name="&lt;Path&gt;" class="cls-1" d="M58,144.11a14.26,14.26,0,0,0-9.29,6.17c-2,2.93-4.29,7.75-2.46,11.19a2.18,2.18,0,0,0,3.74,0c1.39-2.84.78-6.17,2.24-9.13a22.29,22.29,0,0,1,6.18-7.54c.35-.28,0-.76-.4-.69Z"/></g><g id="_Group_34" data-name="&lt;Group&gt;"><path id="_Path_33" data-name="&lt;Path&gt;" class="cls-1" d="M167.3,151.72c1,.47,1.31,1.17,2.08,1.84a21.09,21.09,0,0,1,2.16,1.77,12.13,12.13,0,0,1,2.38,4.74c1.15,3.56,6.25,2.09,5.56-1.53a10.69,10.69,0,0,0-5-6.64A10,10,0,0,0,171,150.4a9.38,9.38,0,0,0-3.58.75.31.31,0,0,0-.07.56Z"/></g><g id="_Group_35" data-name="&lt;Group&gt;"><path id="_Path_34" data-name="&lt;Path&gt;" class="cls-1" d="M111.59,153.92c2.84-1.48,6.2,1.2,8.38,2.76,2,1.42,4,4.3,6.46,4.65a1.68,1.68,0,0,0,2.09-1.59c-.08-3.83-5.58-6.64-8.72-7.8-3-1.09-6.84-2-9.3.56a.91.91,0,0,0,1.09,1.42Z"/></g><g id="_Group_36" data-name="&lt;Group&gt;"><path id="_Path_35" data-name="&lt;Path&gt;" class="cls-1" d="M126.85,164.1c.21.83.38,1.68.65,2.5a1.43,1.43,0,0,0,1.57,1,1.41,1.41,0,0,0,1.24-1.4c-.1-1-.31-2-.47-2.94a1.55,1.55,0,1,0-3,.82Z"/></g><g id="_Group_37" data-name="&lt;Group&gt;"><path id="_Path_36" data-name="&lt;Path&gt;" class="cls-1" d="M129.13,168.35a5.07,5.07,0,0,0-.21,1.94c.06.57.78,1,1.23.51a4.35,4.35,0,0,0,.65-.81,9.72,9.72,0,0,0,.42-1.06c.49-1.28-1.72-1.94-2.09-.58Z"/></g><g id="_Group_38" data-name="&lt;Group&gt;"><path id="_Path_37" data-name="&lt;Path&gt;" class="cls-1" d="M102.66,159c-.59,1.57-1.68,2.81-2.34,4.32-.31.71.36,1.58,1.13,1.13,1.71-1,2.63-3.07,3.3-4.87.49-1.31-1.6-1.87-2.09-.58Z"/></g><g id="_Group_39" data-name="&lt;Group&gt;"><path id="_Path_38" data-name="&lt;Path&gt;" class="cls-1" d="M107.1,232.89l.05.55a.41.41,0,0,0,.82,0l.05-.55c.06-.6-1-.6-.93,0Z"/></g><g id="_Group_40" data-name="&lt;Group&gt;"><path id="_Path_39" data-name="&lt;Path&gt;" class="cls-1" d="M96.28,237.6c3.52,2.11,7.36,2.2,11.38,1.64,5.36-.74,10.2-4.11,15.65-3.3a1.1,1.1,0,0,0,1.37-1c-.22-4.38-4.79-4.74-8.26-3.61s-6.27,3.19-9.86,4c-3.32.71-6.74.46-10.09.94-.69.1-.7,1.1-.18,1.41Z"/></g><g id="_Group_41" data-name="&lt;Group&gt;"><path id="_Path_40" data-name="&lt;Path&gt;" class="cls-1" d="M126.25,236.29c1.7,0,4.48.6,5.55-1.08a1.32,1.32,0,0,0,0-1.35c-1.06-1.67-3.85-1.1-5.55-1.08a1.75,1.75,0,0,0,0,3.5Z"/></g><g id="_Group_42" data-name="&lt;Group&gt;"><path id="_Path_41" data-name="&lt;Path&gt;" class="cls-1" d="M146.23,239.28c1.89,1.45,4.28,1.06,6.56,1.09,2.89,0,5.66.25,8.54.46a4.43,4.43,0,0,0,3.89-2.23l-.49.53-2.18.29a3.1,3.1,0,0,1,2.2,1.36c1.59,2.18,6,1,4.8-2-1.05-2.63-2.86-3.88-5.49-4.79l1.69,1.3-.07-.13c-.46-2.09-2.43-3.1-4.35-3.31-4.73-.51-14,0-16,5.26a2,2,0,0,0,.9,2.21Z"/></g><g id="_Group_43" data-name="&lt;Group&gt;"><path id="_Path_42" data-name="&lt;Path&gt;" class="cls-1" d="M84.27,238c-3.84-3.66-9.23-5.83-13.57-8.9-2.92-2.07-7.45-3.36-9.1.8a1.57,1.57,0,0,0,.71,1.75c1.44,1,3.06.76,4.58,1.52,1.9,1,3.5,2.49,5.45,3.41,3.38,1.59,7.31,3.28,11.06,3.54a1.25,1.25,0,0,0,.87-2.11Z"/></g><g id="_Group_44" data-name="&lt;Group&gt;"><path id="_Path_43" data-name="&lt;Path&gt;" class="cls-1" d="M113.64,239.75c2.52.64,5.08.34,7.66.35s4.92.41,7.27-.74a2.44,2.44,0,0,0,0-4.18c-2.47-1.27-5.12-.77-7.82-.54s-5.16.37-7.58,1.5c-1.57.73-1.09,3.22.47,3.62Z"/></g><g id="_Group_45" data-name="&lt;Group&gt;"><path id="_Path_44" data-name="&lt;Path&gt;" class="cls-1" d="M129.54,238.63a1.34,1.34,0,0,0,0-2.68,1.34,1.34,0,0,0,0,2.68Z"/></g><g id="_Group_46" data-name="&lt;Group&gt;"><path id="_Path_45" data-name="&lt;Path&gt;" class="cls-1" d="M164.64,234.43a3.25,3.25,0,0,0,1.32-.62,1.3,1.3,0,0,0,0-1.83,3.31,3.31,0,0,0-1.32-.62,1.59,1.59,0,1,0,0,3.07Z"/></g><g id="_Group_47" data-name="&lt;Group&gt;"><path id="_Path_46" data-name="&lt;Path&gt;" class="cls-1" d="M166.9,78.57a.05.05,0,0,0,0-.11.05.05,0,0,0,0,.11Z"/></g><g id="_Group_48" data-name="&lt;Group&gt;"><path id="_Path_47" data-name="&lt;Path&gt;" class="cls-1" d="M173.11,86.48c-3.52,3.73-4,10.58-5.21,15.45-1.7,6.61-3.2,13.22-4.65,19.89-1.26,5.82-2.56,11.46-3.27,17.35-.92,7.69-5.3,14.7-7.31,22.12-.94,3.46,4.38,4.92,5.36,1.48,1.86-6.52,1.73-13.72,3.74-20.17,1-3.1,2.49-6,3.4-9.1,1-3.44,1.83-6.93,2.72-10.4,1.61-6.28,3.06-12.52,4.19-18.9.92-5.21,3.53-12.49,1.64-17.55a.36.36,0,0,0-.6-.16Z"/></g><g id="_Group_49" data-name="&lt;Group&gt;"><path id="_Path_48" data-name="&lt;Path&gt;" class="cls-1" d="M164.49,87c-4.18,9-5.6,19.74-7.59,29.42-2.17,10.6-4.79,21.09-7.11,31.65-.86,3.93,5,5.61,6.07,1.67,2.79-10.44,4.88-21.09,6.9-31.71,1.86-9.79,4.24-20.74,3-30.7-.07-.57-.93-1-1.25-.34Z"/></g><g id="_Group_50" data-name="&lt;Group&gt;"><path id="_Path_49" data-name="&lt;Path&gt;" class="cls-1" d="M152.24,153a6.35,6.35,0,0,0-.82,2.19,3.22,3.22,0,0,0,.37,2c.16.34.67.15.67-.18a11.52,11.52,0,0,1,.44-3.78c.14-.39-.46-.62-.66-.28Z"/></g><g id="_Group_51" data-name="&lt;Group&gt;"><path id="_Path_50" data-name="&lt;Path&gt;" class="cls-1" d="M151,163.67l-.56,1.09c0,.06.06.12.09.06l.56-1.09c0-.06-.06-.12-.09-.06Z"/></g><g id="_Group_52" data-name="&lt;Group&gt;"><path id="_Path_51" data-name="&lt;Path&gt;" class="cls-1" d="M149.6,166.69c-4.09,8.91-5.69,18.33-7.25,27.94s-4,19.55-5.14,29.34l4.09-2.35q-1-.66-1.89-1.36c-.88-.65-2,.25-2,1.16s-.11,1.7-.19,2.55c-.26,3,4.76,3.73,5.34.72,1.83-9.49,2.49-19.35,3.91-28.93s2.79-19,4.55-28.48c.15-.8-1-1.45-1.41-.6Z"/></g><g id="_Group_53" data-name="&lt;Group&gt;"><path id="_Path_52" data-name="&lt;Path&gt;" class="cls-1" d="M140.62,188l-.31.47a1.7,1.7,0,0,0,2.31,2.31l.47-.31a1.8,1.8,0,1,0-2.47-2.47Z"/></g><g id="_Group_54" data-name="&lt;Group&gt;"><path id="_Path_53" data-name="&lt;Path&gt;" class="cls-1" d="M141.63,172.46c-.9,7.89-2.3,15.88-3.59,23.73-1.06,6.48-3.35,13.3-2.09,19.86.43,2.22,3.24,2,4.33.57,4.17-5.59,4.43-13.75,5-20.48.71-8.09.1-15.65-.89-23.67a1.39,1.39,0,0,0-2.78,0Z"/></g><g id="_Group_55" data-name="&lt;Group&gt;"><path id="_Path_54" data-name="&lt;Path&gt;" class="cls-1" d="M133.81,225.21a39.73,39.73,0,0,1-.77,8.9c-.5,2.35-1.5,4.43-1.17,6.84.16,1.19,1.76,1.33,2.5.66,2-1.82,2.37-4.95,2.82-7.51a45.35,45.35,0,0,0,.64-8.89c-.06-2.58-4.06-2.59-4,0Z"/></g><g id="_Group_56" data-name="&lt;Group&gt;"><path id="_Path_55" data-name="&lt;Path&gt;" class="cls-1" d="M167.54,86.24a1.64,1.64,0,0,0,.86,0,4.08,4.08,0,0,0,.87-.65c.54-.43,1.1-.73,1.17-1.47a.72.72,0,0,0-.53-.7c-.74-.13-1.17.33-1.74.75a6.36,6.36,0,0,0-.78.58,1.47,1.47,0,0,0-.3.92.47.47,0,0,0,.45.59Z"/></g><g id="_Group_57" data-name="&lt;Group&gt;"><path id="_Path_56" data-name="&lt;Path&gt;" class="cls-1" d="M159,86.61c3.18-4.81,2.56-11.75,3.13-17.3.71-7,1.5-14.06,2.3-21.08C166.09,33.71,167.64,19,170,4.62c.25-1.54-2-2.24-2.38-.66-3.13,14-6.19,27.89-8.11,42.17-.94,7-1.71,14-2.27,21.07-.48,6.05-2.36,13.75.42,19.41a.78.78,0,0,0,1.33,0Z"/></g><g id="_Group_58" data-name="&lt;Group&gt;"><path id="_Path_57" data-name="&lt;Path&gt;" class="cls-1" d="M169.28,3.89c3,1.06,6.25-.27,6.51,4.37.19,3.31-1.71,7.78-2.27,11.1-1.13,6.7-1.82,13.44-2.57,20.19s-1.54,13.75-2.08,20.64c-.43,5.38.54,16.2-4.28,19.24a2.61,2.61,0,0,0-.91,3.45l.4.94a3.42,3.42,0,0,0,3.08,1.77c9-1.09,8-12.28,8.57-19.22.87-10.31.79-20.63,1.46-30.95.39-5.92,1-11.86,1.86-17.73.6-3.9,2.49-8.54,1.7-12.44-1-5-7.92-6.68-11.83-4a1.46,1.46,0,0,0,.34,2.64Z"/></g><g id="_Group_59" data-name="&lt;Group&gt;"><path id="_Path_58" data-name="&lt;Path&gt;" class="cls-1" d="M164.79,82.15c.47-2.38.87-4.78,1.18-7.19s.85-4.92,0-7.21c-.33-.86-1.79-1.37-2.26-.3-.9,2.08-.75,4.21-.85,6.45-.12,2.64-.36,5.27-.68,7.89-.19,1.49,2.34,1.83,2.63.36Z"/></g><g id="_Group_60" data-name="&lt;Group&gt;"><path id="_Path_59" data-name="&lt;Path&gt;" class="cls-1" d="M161.08,76.65a6.86,6.86,0,0,0-.57.74l.44-.44c-1,.56-1.05,1.89-.95,2.91s1.29,2.69,2.53,2.54a1.24,1.24,0,0,0,1.09-.91c.17-.57-.1-1-.21-1.51s-.28-.88-.4-1.33a2.89,2.89,0,0,0-.58-1.5l.32.54q0-.17,0-.34a1,1,0,0,0-1.67-.69Z"/></g><g id="_Group_61" data-name="&lt;Group&gt;"><path id="_Path_60" data-name="&lt;Path&gt;" class="cls-1" d="M159.56,83.7c1.16.6,2.53.74,3.58,1.56l2.13-3.66a5.41,5.41,0,0,0-5.91,2.7,2.26,2.26,0,0,0,.8,3,3.65,3.65,0,0,0,2.63.5,2.91,2.91,0,0,0,1-.34c.23-.15.57-.86.72-.94s.9.06,1.11,0c.48-.1.93-.33,1.42-.41,1.13-.19,2.15.14,3.12-.57a1.16,1.16,0,0,0,.23-1.78c-.9-1.09-2.28-.95-3.57-.69a8.38,8.38,0,0,0-2.05.67c-.6.29-1,1-1.58,1.2l1.27.52c-.36-.56-.92-.72-1.29-1.22v2.25a1.68,1.68,0,0,1,1.48-.64,2.21,2.21,0,0,0,1.11-4.08c-1.9-1.07-4.21-1.8-6.23-.69a1.5,1.5,0,0,0,0,2.58Z"/></g><g id="_Group_62" data-name="&lt;Group&gt;"><path id="_Path_61" data-name="&lt;Path&gt;" class="cls-1" d="M32.16,82.44c2.71,3.2,7.39,4.67,11.33,5.75,4.17,1.14,8.57,2.26,12.7.55.7-.29,1.07-1.37.23-1.79-3.7-1.87-7.82-1.9-11.79-2.92s-7.7-3-11.71-3.44c-1-.1-1.31,1.21-.76,1.85Z"/></g><g id="_Group_63" data-name="&lt;Group&gt;"><path id="_Path_62" data-name="&lt;Path&gt;" class="cls-1" d="M71.65,91c8.61,1.34,17.63.9,26.3.58,4.53-.17,9-.35,13.58-.16,4,.17,7.85.9,11.28-1.44a1.73,1.73,0,0,0-.41-3.11c-3.27-1.35-6-.33-9.36.36a106.61,106.61,0,0,1-15.09,2c-8.72.52-17.44.09-26.14.52-.65,0-.89,1.1-.16,1.21Z"/></g><g id="_Group_64" data-name="&lt;Group&gt;"><path id="_Path_63" data-name="&lt;Path&gt;" class="cls-1" d="M122.55,87.17l-1,.74c-.43.32-.21,1.13.4.94l1.15-.36c1.06-.33.25-1.91-.56-1.32Z"/></g><g id="_Group_65" data-name="&lt;Group&gt;"><path id="_Path_64" data-name="&lt;Path&gt;" class="cls-1" d="M119.57,90.88A84.43,84.43,0,0,0,138,85.13c2.76-1.21,5.15-3.15,7.86-4.36,3.54-1.57,6.7-.17,10.35-.73a1.81,1.81,0,0,0,1.08-2.65c-3.47-5.54-10.27-4.4-15.15-1.5-7.65,4.54-15,9.07-23.28,12.5a1.29,1.29,0,0,0,.68,2.48Z"/></g><g id="_Group_66" data-name="&lt;Group&gt;"><path id="_Path_65" data-name="&lt;Path&gt;" class="cls-1" d="M140.57,88.2C150.9,89,161,89,171.35,90.5c8.41,1.25,18.85,2.8,27.11.27a3,3,0,0,0-.78-5.77c-4.73-.26-9.51.39-14.28.22-5.13-.18-10.23-.5-15.37-.51-9.06,0-18.8-.06-27.65,2.08-.83.2-.58,1.35.19,1.42Z"/></g><g id="_Group_67" data-name="&lt;Group&gt;"><path id="_Path_66" data-name="&lt;Path&gt;" class="cls-1" d="M169.18,76.39a101.55,101.55,0,0,0,12.64,9.09c2.79,1.76,6.17,4.43,9.44,2.67a1.4,1.4,0,0,0,.28-2.18,7.41,7.41,0,0,0-2.89-1.52,36.08,36.08,0,0,1-6.09-3.41,90.72,90.72,0,0,0-12-6.44c-1.07-.46-2.44.85-1.37,1.78Z"/></g><g id="_Group_68" data-name="&lt;Group&gt;"><path id="_Path_67" data-name="&lt;Path&gt;" class="cls-1" d="M140.9,76.29c-6.1-4-13.46-10.32-20.55-4.7-3.28,2.6-6.21,5.2-9.68,7.61s-4.69,6.63-8,8.86a1,1,0,0,0,.79,1.88c2.64-.41,3.57-2.26,5.28-4.09,2.86-3,6.74-3.63,10.06-5.92,4-2.77,5.58-6.91,11.51-5.18,3.58,1,6.3,3.41,10.23,3a.78.78,0,0,0,.39-1.44Z"/></g><g id="_Group_69" data-name="&lt;Group&gt;"><path id="_Path_68" data-name="&lt;Path&gt;" class="cls-1" d="M102.82,96.92c1,2.59,2.6,4.07,4.76,5.78,2.67,2.11,4.45,4.93,7,6.94,4,3.1,13.36,6.15,16.92,1.43a.93.93,0,0,0-.55-1.36c-2.49-.46-5,0-7.47-.43a15.82,15.82,0,0,1-8.49-4.43c-3.21-3.2-8.11-4.84-10.71-8.57-.49-.71-1.88-.29-1.51.64Z"/></g><g id="_Group_70" data-name="&lt;Group&gt;"><path id="_Path_69" data-name="&lt;Path&gt;" class="cls-1" d="M179.26,98.33c-.11,5.33-.37,10.61-3.93,14.88-2.57,3.08-6.06,5.05-8.9,7.81-1.44,1.39.38,3.3,2,2.59a26.16,26.16,0,0,0,11.71-10.34c2.74-4.86,2.31-10,1.56-15.27-.2-1.42-2.4-1-2.43.33Z"/></g><g id="_Group_71" data-name="&lt;Group&gt;"><path id="_Path_70" data-name="&lt;Path&gt;" class="cls-1" d="M114.78,107.61c-2.47,3.8-6.41,6.07-8.73,10a55.71,55.71,0,0,0-4.43,10.81c-.85,2.6-3,6.73-1.86,9.49s5,4.7,7.53,5.45a1.25,1.25,0,0,0,1.4-1.82c-1.7-3.16-4.93-3.87-4.05-7.69.71-3.06,2-6.18,3-9.19,1.95-6.2,6.52-10.49,8.79-16.4.37-1-1.08-1.47-1.6-.67Z"/></g><g id="_Group_72" data-name="&lt;Group&gt;"><path id="_Path_71" data-name="&lt;Path&gt;" class="cls-1" d="M118.84,124.74c-1.41,2.62-3.31,6.42-2.58,9.46a.73.73,0,0,0,1.32.17,20,20,0,0,0,1-4.06,24,24,0,0,1,1.68-4.73c.45-.95-.91-1.78-1.42-.83Z"/></g><g id="_Group_73" data-name="&lt;Group&gt;"><path id="_Path_72" data-name="&lt;Path&gt;" class="cls-1" d="M126.25,150.46c5.53,5.35,12.07,7.94,17.87,1.48s13.06-14.57,14.34-23.44c.23-1.6-2.11-3-2.92-1.23-2.77,6.2-5.19,15.59-11.57,18.9-1.6.83-3,1.65-4.49,2.59-4.44,2.78-7.8,1.73-12.29.05-.94-.35-1.62,1-1,1.64Z"/></g><g id="_Group_74" data-name="&lt;Group&gt;"><path id="_Path_73" data-name="&lt;Path&gt;" class="cls-1" d="M151.63,130.94c-.51-1.65-1.08-5.23-3.2-5.55a1,1,0,0,0-1.11.45c-1.24,1.79,1,4.61,1.86,6.13a1.35,1.35,0,0,0,2.45-1Z"/></g><g id="_Group_75" data-name="&lt;Group&gt;"><path id="_Path_74" data-name="&lt;Path&gt;" class="cls-1" d="M146.75,131.25c-.42,3.87-2.84,6.66-5.68,9-2.22,1.85.62,5.29,3,3.92a12.77,12.77,0,0,0,5-6,11.62,11.62,0,0,0,.6-7.36c-.33-1.79-2.77-1.14-2.93.4Z"/></g><g id="_Group_76" data-name="&lt;Group&gt;"><path id="_Path_75" data-name="&lt;Path&gt;" class="cls-1" d="M138,144.83a9.36,9.36,0,0,1-1.23.36,10.68,10.68,0,0,0-1.15.06,6.86,6.86,0,0,0-2.31,1.22,1.88,1.88,0,0,0-.76,2.32,1.86,1.86,0,0,0,2.19,1.07,8.15,8.15,0,0,0,2.39-1,6.19,6.19,0,0,0,.88-.94,7.94,7.94,0,0,1,1-.73c1.12-.81.5-2.79-1-2.35Z"/></g><g id="_Group_77" data-name="&lt;Group&gt;"><path id="_Path_76" data-name="&lt;Path&gt;" class="cls-1" d="M141.32,126.58l-1.58-.82A1.45,1.45,0,0,0,138,128l1.27,1.22a1.7,1.7,0,1,0,2.06-2.67Z"/></g><g id="_Group_78" data-name="&lt;Group&gt;"><path id="_Path_77" data-name="&lt;Path&gt;" class="cls-1" d="M145.76,112.71c-1.26-2.11-2.58-4.11-4-6.09-1-1.38-2.8-4.14-4.83-2.52s.22,3.89,1.43,5.13c1.74,1.78,3.51,3.42,5.4,5,1.07.9,2.81-.24,2-1.56Z"/></g><g id="_Group_79" data-name="&lt;Group&gt;"><path id="_Path_78" data-name="&lt;Path&gt;" class="cls-1" d="M138.47,101.38c.13-.81.51-1.55.63-2.35s.27-1.37.39-2.06c.15-.91-.8-2-1.74-1.34a4.65,4.65,0,0,0-1.76,5.75c.34,1.12,2.26,1.33,2.48,0Z"/></g><g id="_Group_80" data-name="&lt;Group&gt;"><path id="_Path_79" data-name="&lt;Path&gt;" class="cls-1" d="M179.44,101.08a4.1,4.1,0,0,0,.57-1.72c.06-1-1.18-1.31-1.85-.76a3.4,3.4,0,0,0-.86,1.24c-.72,1.41,1.41,2.67,2.13,1.25Z"/></g><g id="_Group_81" data-name="&lt;Group&gt;"><path id="_Path_80" data-name="&lt;Path&gt;" class="cls-1" d="M170.68,128.2A23.39,23.39,0,0,0,170,134c0,.61.94,1,1.25.34a22.91,22.91,0,0,0,1.54-5.55c.28-1.37-1.84-1.94-2.09-.58Z"/></g><g id="_Group_82" data-name="&lt;Group&gt;"><path id="_Path_81" data-name="&lt;Path&gt;" class="cls-1" d="M90.34,82.35c6.65-2.48,13.22-1.22,19,2.86,2.15,1.53,4.31-2.09,2.08-3.56a21.64,21.64,0,0,0-21.71-.9c-.87.44-.26,1.95.67,1.6Z"/></g><g id="_Group_83" data-name="&lt;Group&gt;"><path id="_Path_82" data-name="&lt;Path&gt;" class="cls-1" d="M97.13,93.18l1.13.69a3.12,3.12,0,0,0,1.34.47,1.08,1.08,0,0,0,1.16-.47,1.05,1.05,0,0,0-.16-1.25,3.52,3.52,0,0,0-1.32-.89L98,91.21a1.07,1.07,0,0,0-1.28.63,1.09,1.09,0,0,0,.44,1.35Z"/></g><g id="_Group_84" data-name="&lt;Group&gt;"><path id="_Path_83" data-name="&lt;Path&gt;" class="cls-1" d="M101.73,100.78c.83,1.25,2.73,2.5,4.18,1.47a1.39,1.39,0,0,0,0-2.36l-.21-.17a2.53,2.53,0,0,0-.51-.23c-.33-.08.17,0-.18-.05q-.21-.14-.09,0l-.07-.06q-.19-.22,0,0a2,2,0,0,1-.15-.26,1.7,1.7,0,1,0-2.94,1.72Z"/></g><g id="_Group_85" data-name="&lt;Group&gt;"><path id="_Path_84" data-name="&lt;Path&gt;" class="cls-1" d="M89.89,81.13C82.36,81,76.57,75.8,69.05,75.8c-5.5,0-10.68,1.94-13.83,6.55-1,1.5.92,3,2.33,2.33,3-1.55,6.05-3.27,9.44-3.8,4.49-.7,7.92.92,12,2.52s8.17,2.71,11.69-.33a1.14,1.14,0,0,0-.8-1.93Z"/></g><g id="_Group_86" data-name="&lt;Group&gt;"><path id="_Path_85" data-name="&lt;Path&gt;" class="cls-1" d="M53.84,84.53a3.55,3.55,0,0,0-.54,1.64c0,.64.81,1.24,1.4.8a3.36,3.36,0,0,0,1-1.35c.62-1.24-1.24-2.34-1.87-1.09Z"/></g><g id="_Group_87" data-name="&lt;Group&gt;"><path id="_Path_86" data-name="&lt;Path&gt;" class="cls-1" d="M53.23,92.94l.15.51a.36.36,0,0,0,.7,0l.15-.51c.24-.83-1.24-.83-1,0Z"/></g><g id="_Group_88" data-name="&lt;Group&gt;"><path id="_Path_87" data-name="&lt;Path&gt;" class="cls-1" d="M44.72,100.15c3.51,3.32,7.5,7.94,11.83,10.14,2.3,1.17,4.9,1.53,7.24,2.74s3.46,2.27,6,2.42a.83.83,0,0,0,.71-1.24c-1.09-2-2.31-2.48-4.13-3.84-2.34-1.75-4.07-4.16-6.4-5.87-3.91-2.87-9.61-4.43-14.16-6.17-1-.39-1.8,1.1-1.05,1.81Z"/></g><g id="_Group_89" data-name="&lt;Group&gt;"><path id="_Path_88" data-name="&lt;Path&gt;" class="cls-1" d="M72.53,117.83c1.59.7,10,3.26,10.43,4.77.52,1.69-1.35,2.16-2.65,3.12-1.76,1.3-3.5,2.63-5.25,4a36.62,36.62,0,0,1-8.29,5,16.46,16.46,0,0,0-3.5,1.63c-.79.58-1.67,2.3-2.79,2.31a2.45,2.45,0,0,0-2.42,2.42,4.13,4.13,0,0,0,4.14,4.28,6.31,6.31,0,0,0,3.47-1.51c1.55-1,3.17-2.44,4.75-3.56,3-2.14,5.34-5.2,8-7.82s6.74-5.59,8.47-8.9a1.26,1.26,0,0,0-.19-1.5c-1.36-1.13-3-1.43-4.71-2-3-1.06-6-2.27-8.93-3.44-.7-.28-1.21.92-.52,1.22Z"/></g><g id="_Group_90" data-name="&lt;Group&gt;"><path id="_Path_89" data-name="&lt;Path&gt;" class="cls-1" d="M47.45,99.42c-9.66,3.73-13.49,15.36-11.55,24.94,1.59,7.85,9.83,23.69,20,20.55a2.3,2.3,0,0,0,.54-4.14c-3.09-1.94-6.16-2.58-8.74-5.47a26.31,26.31,0,0,1-5.82-11.68c-1.89-8.68.91-15.86,6.57-22.38.64-.73,0-2.23-1.05-1.81Z"/></g><g id="_Group_91" data-name="&lt;Group&gt;"><path id="_Path_90" data-name="&lt;Path&gt;" class="cls-1" d="M49.77,103.14c-2.71,2.7-4.58,5.48-5.2,9.34-.68,4.25.63,7.2,1.63,11.22s.7,7.9,2.78,11.72c1.46,2.68,3.52,6.09,6.88,5.76.53-.05,1.15-.46,1.08-1.08-.3-2.63-1.93-3.33-3.37-5.58-2.1-3.26-2-6.27-2.62-10-.47-2.83-1.73-5.4-2.19-8.23a19.09,19.09,0,0,1,2.39-12.13.88.88,0,0,0-1.38-1.06Z"/></g><g id="_Group_92" data-name="&lt;Group&gt;"><path id="_Path_91" data-name="&lt;Path&gt;" class="cls-1" d="M52.16,113.93a24.84,24.84,0,0,0,5.28,2.81c1.7.72,3.53,1.72,5.39,1.38a1.19,1.19,0,0,0,.52-2c-1.34-1.15-3.22-1.29-4.88-1.83-1.9-.62-3.71-1.45-5.6-2.07-1.07-.35-1.5,1.11-.71,1.69Z"/></g><g id="_Group_93" data-name="&lt;Group&gt;"><path id="_Path_92" data-name="&lt;Path&gt;" class="cls-1" d="M64.9,118.24c2.62,1.56,5.45,2.79,8,4.48,1.76,1.18,3.7,2.52,5.87,1.82a1.41,1.41,0,0,0,.83-2c-1.06-2-3.37-2.44-5.46-2.78-3-.49-5.89-1.63-8.86-2.33a.47.47,0,0,0-.36.85Z"/></g><g id="_Group_94" data-name="&lt;Group&gt;"><path id="_Path_93" data-name="&lt;Path&gt;" class="cls-1" d="M57.44,122.31c1.86.42,3.7.88,5.56,1.29a34.46,34.46,0,0,0,5,1.1c.45,0,.5-.55.21-.77-2.85-2.17-7.09-2.69-10.57-2.73a.57.57,0,0,0-.15,1.11Z"/></g><g id="_Group_95" data-name="&lt;Group&gt;"><path id="_Path_94" data-name="&lt;Path&gt;" class="cls-1" d="M70.21,127.5c.72,0,1.8.08,2.3-.53a1,1,0,0,0,0-1.31c-.5-.61-1.58-.48-2.3-.53-1.52-.1-1.53,2.47,0,2.37Z"/></g><g id="_Group_96" data-name="&lt;Group&gt;"><path id="_Path_95" data-name="&lt;Path&gt;" class="cls-1" d="M59.71,131a7.59,7.59,0,0,1,2.33-.81,4.3,4.3,0,0,0,2.12-.63c.43-.33.2-1-.16-1.21-1.41-1-3.93.4-5.12,1.23a.82.82,0,0,0,.83,1.42Z"/></g><g id="_Group_97" data-name="&lt;Group&gt;"><path id="_Path_96" data-name="&lt;Path&gt;" class="cls-1" d="M59,137.06c1.34.18,3.33-.21,3.81-1.68.23-.71-.57-1.12-1.13-.87-.38.17-.66.48-1.05.64a2.13,2.13,0,0,1-1.13.13,1,1,0,0,0-1.14.65.93.93,0,0,0,.65,1.14Z"/></g><g id="_Group_98" data-name="&lt;Group&gt;"><path id="_Path_97" data-name="&lt;Path&gt;" class="cls-1" d="M103.11,159.25c-.22,4.71,1.1,8.21,3.26,12.32,2.36,4.49,4.89,10.49,8.81,13.77a2,2,0,0,0,3.36-2c-2.09-9.1-11.17-15.71-14.73-24.23a.36.36,0,0,0-.71.1Z"/></g><g id="_Group_99" data-name="&lt;Group&gt;"><path id="_Path_98" data-name="&lt;Path&gt;" class="cls-1" d="M52.11,84.08a81.57,81.57,0,0,0-.45,13.07c.1,2.4-.33,5.82,1.21,7.9,2.86,3.85,11.87,5.58,16.24,5.73.91,0,1.41-1.43.49-1.82-2.11-.9-4.27-1.54-6.43-2.32-3.28-1.18-5.71-1.59-6.56-5.1-1.37-5.71-1.49-11.92-2.49-17.73-.21-1.24-1.9-.78-2,.27Z"/></g><g id="_Group_100" data-name="&lt;Group&gt;"><path id="_Path_99" data-name="&lt;Path&gt;" class="cls-1" d="M84,107.87c-4.36.29-9.36,0-13.49,1.54a1,1,0,0,0,0,2c4.37,1.27,9.57-.13,13.77-1.51,1-.34.94-2.11-.27-2Z"/></g><g id="_Group_101" data-name="&lt;Group&gt;"><path id="_Path_100" data-name="&lt;Path&gt;" class="cls-1" d="M57,100.85a21,21,0,0,0,6.44,2.63c2,.56,3.76,1.53,5.53.11a1.42,1.42,0,0,0,.22-1.69c-.82-1.93-3.3-1.89-5.11-2.3a20.1,20.1,0,0,0-6.56-.67,1,1,0,0,0-.52,1.92Z"/></g><g id="_Group_102" data-name="&lt;Group&gt;"><path id="_Path_101" data-name="&lt;Path&gt;" class="cls-1" d="M74.94,103.93a2,2,0,0,0,1.6-.75.94.94,0,0,0,0-1,2,2,0,0,0-1.6-.75,1.29,1.29,0,1,0,0,2.48Z"/></g><g id="_Group_103" data-name="&lt;Group&gt;"><path id="_Path_102" data-name="&lt;Path&gt;" class="cls-1" d="M116.52,94.13a1.79,1.79,0,0,1,.09-.28l-.24.41c.37-.31.35-.78.61-1.14.13-.17.31-.28.44-.44a2.51,2.51,0,0,0,.3-.71.83.83,0,0,0-.58-1,1.73,1.73,0,0,0-2,1,1.9,1.9,0,0,0,0,2.32l-.24-.41c.06.16.13.32.2.48a.83.83,0,0,0,1.51-.2Z"/></g><g id="_Group_104" data-name="&lt;Group&gt;"><path id="_Path_103" data-name="&lt;Path&gt;" class="cls-1" d="M124.91,79.9l.8-1.59a1.31,1.31,0,0,0-.33-1.68,1.29,1.29,0,0,0-1.71.1L122.48,78a1.54,1.54,0,1,0,2.43,1.87Z"/></g><g id="_Group_105" data-name="&lt;Group&gt;"><path id="_Path_104" data-name="&lt;Path&gt;" class="cls-1" d="M118.38,100.66a1.42,1.42,0,0,1,.24.64,7.49,7.49,0,0,0,.36,1,.68.68,0,0,0,1.12.3,1.81,1.81,0,0,0,.62-1.76,3.53,3.53,0,0,0-.88-1.64,1,1,0,0,0-1.46,0,1.06,1.06,0,0,0,0,1.46Z"/></g><g id="_Group_106" data-name="&lt;Group&gt;"><path id="_Path_105" data-name="&lt;Path&gt;" class="cls-1" d="M151.39,95a5.69,5.69,0,0,1,.16,1.42,2.2,2.2,0,0,0-.57,1,3.36,3.36,0,0,0-.15.59,5.51,5.51,0,0,0,.38,3.76,2.33,2.33,0,0,0,4,0,4.85,4.85,0,0,0,.12-4.24A8.52,8.52,0,0,0,154.17,96a10.52,10.52,0,0,1-.67-1.57,1.14,1.14,0,0,0-2.11.57Z"/></g><g id="_Group_107" data-name="&lt;Group&gt;"><path id="_Path_106" data-name="&lt;Path&gt;" class="cls-1" d="M185,120.51c-.21.63-.44,1.25-.63,1.89a4.35,4.35,0,0,0,0,2,.78.78,0,0,0,1.29.34,4.19,4.19,0,0,0,1.08-1.64c.2-.63.36-1.27.54-1.91a1.19,1.19,0,0,0-2.28-.63Z"/></g><g id="_Group_108" data-name="&lt;Group&gt;"><path id="_Path_107" data-name="&lt;Path&gt;" class="cls-1" d="M73.78,130.55l-.51,1.12c-.11.24.22.44.36.21l.6-1.07c.16-.29-.31-.56-.44-.26Z"/></g><g id="_Group_109" data-name="&lt;Group&gt;"><path id="_Path_108" data-name="&lt;Path&gt;" class="cls-1" d="M71.85,135.41a11.64,11.64,0,0,0,1.87,4.36c.85,1.24,1.79,2.58,3.29,3a1,1,0,0,0,1.16-1.51c-.56-1.22-1.71-2-2.48-3.12a22.75,22.75,0,0,1-2-3.51c-.51-1.11-2.1-.29-1.88.79Z"/></g><g id="_Group_110" data-name="&lt;Group&gt;"><path id="_Path_109" data-name="&lt;Path&gt;" class="cls-1" d="M86.27,97.73A22.35,22.35,0,0,0,82.13,110c-.11,3.08-.3,8.17,3.32,9.24a1.12,1.12,0,0,0,1.22-.5c1.84-2.41,0-6-.07-8.74a33.14,33.14,0,0,1,1.66-11.46c.4-1.22-1.32-1.8-2-.83Z"/></g><g id="_Group_111" data-name="&lt;Group&gt;"><path id="_Path_110" data-name="&lt;Path&gt;" class="cls-1" d="M86.65,119.75a39.91,39.91,0,0,0,5.46,5.05c1.77,1.35,3.8,3.27,6.11,3.36a1.3,1.3,0,0,0,1.11-1.94c-1.21-1.82-3.59-2.61-5.4-3.75-2.09-1.32-4.15-2.73-6.16-4.18-.89-.64-1.8.71-1.12,1.46Z"/></g><g id="_Group_112" data-name="&lt;Group&gt;"><path id="_Path_111" data-name="&lt;Path&gt;" class="cls-1" d="M129.95,99.71c-1.74,3.31-2.11,7.53-2.37,11.23-.22,3.06-1.35,7.18,1.75,9a1.49,1.49,0,0,0,1.51,0c2.85-1.79,1.87-5.32,2-8.28.11-3.78.73-7.81.08-11.54a1.61,1.61,0,0,0-2.92-.38Z"/></g><g id="_Group_113" data-name="&lt;Group&gt;"><path id="_Path_112" data-name="&lt;Path&gt;" class="cls-1" d="M132.54,123a9.87,9.87,0,0,1,2,.95,8.57,8.57,0,0,0,2,1c.73.24,1.23-.61.93-1.21a4,4,0,0,0-1.82-1.83,12.77,12.77,0,0,0-2.44-1c-1.4-.45-2,1.71-.6,2.19Z"/></g><g id="_Group_114" data-name="&lt;Group&gt;"><path id="_Path_113" data-name="&lt;Path&gt;" class="cls-1" d="M187.23,110.38c-.54.48-1.26.91-1.28,1.69a.78.78,0,0,0,.77.77c.76,0,1.26-.73,1.74-1.23a.88.88,0,0,0-1.24-1.24Z"/></g><g id="_Group_115" data-name="&lt;Group&gt;"><path id="_Path_114" data-name="&lt;Path&gt;" class="cls-1" d="M178,127.53c-1,3.36-2.26,6.66-3.51,9.94-1.08,2.83-3.08,5.19-1.77,8.21a2,2,0,0,0,2.27.92c3.31-.49,4.41-4.76,5.32-7.53a25,25,0,0,0,.83-11.12c-.23-1.7-2.56-2.27-3.14-.42Z"/></g><g id="_Group_116" data-name="&lt;Group&gt;"><path id="_Path_115" data-name="&lt;Path&gt;" class="cls-1" d="M184.46,141.68c.18,1.63.12,3.3,1.18,4.64.8,1,2.19.26,2.57-.68.55-1.36-.06-3-.31-4.42-.35-1.92-3.65-1.5-3.44.47Z"/></g><g id="_Group_117" data-name="&lt;Group&gt;"><path id="_Path_116" data-name="&lt;Path&gt;" class="cls-1" d="M178.18,102.5a5,5,0,0,0,1.14-3.65,5.52,5.52,0,0,0-1.57-3.76,1.72,1.72,0,0,0-2.86,1.66,21.32,21.32,0,0,1,1,4.8c.1,1,1.49,2,2.29.95Z"/></g><g id="_Group_118" data-name="&lt;Group&gt;"><path id="_Path_117" data-name="&lt;Path&gt;" class="cls-1" d="M130.2,118c.22,3.3,3.34,6.24,6,7.94,2.23,1.44,7.53,4.33,10,1.85,2.6-2.63-2.45-4.25-4.14-4.76a22.75,22.75,0,0,1-5.58-2.62c-1.62-1-2.95-2.51-4.69-3.3a1,1,0,0,0-1.55.89Z"/></g><g id="_Group_119" data-name="&lt;Group&gt;"><path id="_Path_118" data-name="&lt;Path&gt;" class="cls-1" d="M150.09,128.05a4.28,4.28,0,0,0,2.12.08,1.33,1.33,0,0,0,0-2.55,4.32,4.32,0,0,0-2.12.08,1.25,1.25,0,0,0,0,2.38Z"/></g><g id="_Group_120" data-name="&lt;Group&gt;"><path id="_Path_119" data-name="&lt;Path&gt;" class="cls-1" d="M140,95.67c.2-.43.41-.87.6-1.3a3.12,3.12,0,0,0,.22-1.57.88.88,0,0,0-1.32-.76,3.24,3.24,0,0,0-1.13,1c-.24.41-.45.84-.68,1.26a1.37,1.37,0,0,0,.48,1.83,1.35,1.35,0,0,0,1.83-.48Z"/></g><g id="_Group_121" data-name="&lt;Group&gt;"><path id="_Path_120" data-name="&lt;Path&gt;" class="cls-1" d="M185.47,77.24a3.81,3.81,0,0,0,1.28-1,15.35,15.35,0,0,0,.74-1.49c.51-1,1.19-2.42.46-3.5a1.51,1.51,0,0,0-1.63-.66c-1.26.23-1.77,1.7-2.14,2.76-.16.47-.35.94-.49,1.42a3.64,3.64,0,0,0,.11,1.84,1.14,1.14,0,0,0,1.66.68Z"/></g><g id="_Group_122" data-name="&lt;Group&gt;"><path id="_Path_121" data-name="&lt;Path&gt;" class="cls-1" d="M18.31,10.2C12.08,12.45,7.89,17.55,4.93,23.3A35.68,35.68,0,0,0,1.46,34.73C.9,38.14-.61,41.21.78,44.56a.57.57,0,0,0,.95.25c1.84-1.87,2.12-3.74,2.94-6.28,1.09-3.35,3-6.24,4.27-9.5,2.53-6.34,4.23-13.73,9.78-18.14.32-.26,0-.82-.4-.69Z"/></g><g id="_Group_123" data-name="&lt;Group&gt;"><path id="_Path_122" data-name="&lt;Path&gt;" class="cls-1" d="M.91,46.46A53.72,53.72,0,0,0,.82,65.69c1,6.89,3.89,11.12,7.64,16.79,4.43,6.7,16,20.75,25,13.64a2.48,2.48,0,0,0-.5-3.88c-4.11-1.75-8.15-1.93-12.1-4.49s-9.29-5.41-11.72-9.58C6.81,74.15,6.1,69,5,64.54,3.6,58.63,2.17,52.77,2.43,46.67a.78.78,0,0,0-1.52-.21Z"/></g><g id="_Group_124" data-name="&lt;Group&gt;"><path id="_Path_123" data-name="&lt;Path&gt;" class="cls-1" d="M22.19,10C40.44,4.79,49,24.72,54,38.24c2.91,7.84,5.25,17.29,4.06,25.65a47.31,47.31,0,0,1-2,9.81c-1.3,3.53-3.86,6.92-4.55,10.6a1.46,1.46,0,0,0,2.12,1.63c6.9-4,6.39-15.61,7.68-22.52,1.07-5.77,2.92-9.73,2-15.71-.84-5.2-2.87-10.33-4.84-15.19C52.62,18.32,39.11,1,21.65,8c-1.2.48-.76,2.36.55,2Z"/></g><g id="_Group_125" data-name="&lt;Group&gt;"><path id="_Path_124" data-name="&lt;Path&gt;" class="cls-1" d="M44.37,12.06c4.9,5.42,8.1,11.75,11.6,18.08C59.92,37.28,64,44,66.52,51.75a.72.72,0,0,0,1.42-.19c-.42-14.93-9.48-33.12-22.69-40.62a.72.72,0,0,0-.87,1.13Z"/></g><g id="_Group_126" data-name="&lt;Group&gt;"><path id="_Path_125" data-name="&lt;Path&gt;" class="cls-1" d="M65.4,56a40.19,40.19,0,0,1-.71,7.89c-.45,2.24-.83,3.88,0,6.09a.78.78,0,0,0,1.13.46c4.11-3,3.7-9.88,3.52-14.44-.09-2.51-3.91-2.53-3.91,0Z"/></g><g id="_Group_127" data-name="&lt;Group&gt;"><path id="_Path_126" data-name="&lt;Path&gt;" class="cls-1" d="M64,71.73l-.44,2.51a6.82,6.82,0,0,0-.22,2.25.73.73,0,0,0,1.32.17,6.85,6.85,0,0,0,.44-2.22l.31-2.53c.1-.8-1.28-1-1.42-.19Z"/></g><g id="_Group_128" data-name="&lt;Group&gt;"><path id="_Path_127" data-name="&lt;Path&gt;" class="cls-1" d="M61.78,82.18l-.51.59a.21.21,0,0,0,.29.29l.59-.51c.25-.22-.14-.61-.36-.36Z"/></g><g id="_Group_129" data-name="&lt;Group&gt;"><path id="_Path_128" data-name="&lt;Path&gt;" class="cls-1" d="M17.27,15.71C9.21,25,5.32,36,4.83,48.23A56.56,56.56,0,0,0,7,65.84c1.29,4.62,3.06,11.64,7.32,14.35a.62.62,0,0,0,.93-.53c.12-4.33-2.72-9-3.78-13.26A69.87,69.87,0,0,1,9.64,49.09,81.81,81.81,0,0,1,17.51,15.9c.07-.15-.12-.33-.24-.19Z"/></g><g id="_Group_130" data-name="&lt;Group&gt;"><path id="_Path_129" data-name="&lt;Path&gt;" class="cls-1" d="M17.92,83.5C20.81,88,26,92.89,31.74,92.69a1.45,1.45,0,0,0,.38-2.83c-2.54-.78-5-.94-7.48-2.06a19.37,19.37,0,0,1-6.48-4.49.16.16,0,0,0-.24.19Z"/></g><g id="_Group_131" data-name="&lt;Group&gt;"><path id="_Path_130" data-name="&lt;Path&gt;" class="cls-1" d="M63.53,160.72A35.89,35.89,0,0,1,67,167.82c.71,2,.62,4.57,2.29,6a1.2,1.2,0,0,0,1.86-.24c1.45-2.17.06-5-.9-7.17a17.47,17.47,0,0,0-5.38-6.73c-.68-.54-1.84.14-1.29,1Z"/></g><g id="_Group_132" data-name="&lt;Group&gt;"><path id="_Path_131" data-name="&lt;Path&gt;" class="cls-1" d="M69.57,181.81l.31,2.69a3.57,3.57,0,0,0,.82,2.37,1,1,0,0,0,1.54-.2,3.52,3.52,0,0,0,.1-2.51l-.53-2.66c-.25-1.23-2.37-1-2.23.3Z"/></g><g id="_Group_133" data-name="&lt;Group&gt;"><path id="_Path_132" data-name="&lt;Path&gt;" class="cls-1" d="M70.85,192.21c-.61,1.36-1.22,3.52-.23,4.84a.84.84,0,0,0,1.51-.2,10.16,10.16,0,0,0,.11-1.8,4.84,4.84,0,0,1,.48-1.75c.61-1.26-1.3-2.35-1.87-1.09Z"/></g><g id="_Group_134" data-name="&lt;Group&gt;"><path id="_Path_133" data-name="&lt;Path&gt;" class="cls-1" d="M57.89,204l.4,2.34a6,6,0,0,0,.52,2.07.42.42,0,0,0,.75-.1,6,6,0,0,0,0-2.14l-.22-2.36a.72.72,0,1,0-1.42.19Z"/></g><g id="_Group_135" data-name="&lt;Group&gt;"><path id="_Path_134" data-name="&lt;Path&gt;" class="cls-1" d="M58.33,217.52l.29,4.3c.08,1.18,0,2.52,1.24,3.12a1,1,0,0,0,1.19-.15c1-.84.68-2.21.52-3.37l-.6-4.26c-.21-1.49-2.73-1.14-2.63.36Z"/></g><g id="_Group_136" data-name="&lt;Group&gt;"><path id="_Path_135" data-name="&lt;Path&gt;" class="cls-1" d="M168.44,189.86c-1.52,3.66-2.84,8-1.56,11.87a.57.57,0,0,0,1.09,0c1.42-3.63,1.29-7.85,1.68-11.7.08-.76-1-.74-1.21-.16Z"/></g><g id="_Group_137" data-name="&lt;Group&gt;"><path id="_Path_136" data-name="&lt;Path&gt;" class="cls-1" d="M166.16,209.34c-.38,4.23-.59,8.49-1,12.74-.31,3.27-2,6.38.15,9.13a1.36,1.36,0,0,0,1.62.21c3.32-1.59,2.89-6.87,2.94-10.09a23.55,23.55,0,0,0-3-12.19c-.21-.39-.73-.17-.77.21Z"/></g><g id="_Group_138" data-name="&lt;Group&gt;"><path id="_Path_137" data-name="&lt;Path&gt;" class="cls-1" d="M162,235.09a6,6,0,0,1-.67,2.51c-.51,1-1.5,1.72-1.35,2.89a1.85,1.85,0,0,0,1.79,1.79c1.62.11,2.66-1.62,3.28-2.91a11.08,11.08,0,0,0,1.08-4.27c.14-2.65-4-2.64-4.12,0Z"/></g><g id="_Group_139" data-name="&lt;Group&gt;"><path id="_Path_138" data-name="&lt;Path&gt;" class="cls-1" d="M183.91,156.53c0-.53,0-1.06,0-1.58a3.85,3.85,0,0,0-.5-1.5.67.67,0,0,0-1.16,0,3.85,3.85,0,0,0-.5,1.5c0,.53,0,1.06,0,1.58a1.08,1.08,0,0,0,2.16,0Z"/></g><g id="_Group_140" data-name="&lt;Group&gt;"><path id="_Path_139" data-name="&lt;Path&gt;" class="cls-1" d="M24.28,12.92c-1.7,4-.76,9.27-.51,13.55C24,30.12,23.71,34.1,26.09,37a1.19,1.19,0,0,0,1.86-.24c1.64-3.74.16-8.17-.28-12.1s-.12-8.37-1.88-12c-.35-.71-1.26-.39-1.51.2Z"/></g><g id="_Group_141" data-name="&lt;Group&gt;"><path id="_Path_140" data-name="&lt;Path&gt;" class="cls-1" d="M26.72,43.35c0,1.21-.39,2.75.38,3.76a1,1,0,0,0,1.6,0c.77-1,.43-2.55.38-3.76a1.19,1.19,0,0,0-2.37,0Z"/></g><g id="_Group_142" data-name="&lt;Group&gt;"><path id="_Path_141" data-name="&lt;Path&gt;" class="cls-1" d="M31.92,20.28l0,2.22a2.92,2.92,0,0,0,.38,2,.68.68,0,0,0,1.16,0,2.92,2.92,0,0,0,.38-2l0-2.22a.93.93,0,0,0-1.85,0Z"/></g><g id="_Group_143" data-name="&lt;Group&gt;"><path id="_Path_142" data-name="&lt;Path&gt;" class="cls-1" d="M32.11,34.56c0,.89-.21,2.3.56,2.93a1.07,1.07,0,0,0,1.46,0c.77-.62.54-2,.56-2.93a1.29,1.29,0,0,0-2.58,0Z"/></g><g id="_Group_144" data-name="&lt;Group&gt;"><path id="_Path_143" data-name="&lt;Path&gt;" class="cls-1" d="M19.56,16.88a11.33,11.33,0,0,1,3.07-1.59c.95-.37,2.17-.23,3-.85a.89.89,0,0,0,.18-1.38c-1.12-1-2.88-.5-4.14,0a6.31,6.31,0,0,0-3.13,3,.67.67,0,0,0,1.05.81Z"/></g><g id="_Group_145" data-name="&lt;Group&gt;"><path id="_Path_144" data-name="&lt;Path&gt;" class="cls-1" d="M31.39,17.17a18.48,18.48,0,0,1,3.92,2.28,13,13,0,0,0,3.39,2,.62.62,0,0,0,.76-.76c-.74-3.17-4.64-5-7.36-6.1-1.61-.64-2.27,1.93-.71,2.58Z"/></g><g id="_Group_146" data-name="&lt;Group&gt;"><path id="_Path_145" data-name="&lt;Path&gt;" class="cls-1" d="M49.11,33.68A7.74,7.74,0,0,0,50,36.5a.63.63,0,0,0,1.13-.15,8.14,8.14,0,0,0-.32-3.14c-.2-1.1-1.94-.64-1.69.47Z"/></g><g id="_Group_147" data-name="&lt;Group&gt;"><path id="_Path_146" data-name="&lt;Path&gt;" class="cls-1" d="M12.76,27a4.51,4.51,0,0,0-.49,1,3.26,3.26,0,0,0,.12,1.5,6.53,6.53,0,0,0,.94,2.5,1.56,1.56,0,0,0,1.35.77,2.13,2.13,0,0,0,.79-.21,1.55,1.55,0,0,0,.77-1.35,6.62,6.62,0,0,0-.58-2.62A3.75,3.75,0,0,0,15,27.21a3.57,3.57,0,0,0-1-.58,1,1,0,0,0-1.27.33Z"/></g><g id="_Group_148" data-name="&lt;Group&gt;"><path id="_Path_147" data-name="&lt;Path&gt;" class="cls-1" d="M13,37.44a3.23,3.23,0,0,0,1.15,1.33,1,1,0,0,0,1.55-.89,3.43,3.43,0,0,0-.48-1.74A1.29,1.29,0,1,0,13,37.44Z"/></g><g id="_Group_149" data-name="&lt;Group&gt;"><path id="_Path_148" data-name="&lt;Path&gt;" class="cls-1" d="M11.56,40.8a22.13,22.13,0,0,0,5.25,6.44c1.58,1.41,4.13,4.17,6.46,3.3a1.22,1.22,0,0,0,.83-1.46c-.42-2.22-3.64-3.25-5.32-4.39-2.18-1.48-4.18-3.24-6.3-4.82-.58-.43-1.19.38-.92.92Z"/></g><g id="_Group_150" data-name="&lt;Group&gt;"><path id="_Path_149" data-name="&lt;Path&gt;" class="cls-1" d="M24.25,50.85c-.66.21-1.62.41-1.62,1.29s1,1.09,1.62,1.29a1.34,1.34,0,1,0,0-2.58Z"/></g><g id="_Group_151" data-name="&lt;Group&gt;"><path id="_Path_150" data-name="&lt;Path&gt;" class="cls-1" d="M15.15,52.24a7.31,7.31,0,0,0,1.63,1.3c.66.35,1.36.89,2.14.63a1.11,1.11,0,0,0,.76-1.33c-.18-.8-1-1.11-1.61-1.49a7.31,7.31,0,0,0-2-.74,1,1,0,0,0-1,1.64Z"/></g><g id="_Group_152" data-name="&lt;Group&gt;"><path id="_Path_151" data-name="&lt;Path&gt;" class="cls-1" d="M13.07,59.82l1.44,0a1,1,0,0,0,0-2.07l-1.44,0a1.08,1.08,0,0,0,0,2.16Z"/></g><g id="_Group_153" data-name="&lt;Group&gt;"><path id="_Path_152" data-name="&lt;Path&gt;" class="cls-1" d="M12.45,66.92a55.65,55.65,0,0,0,6.65-1c2.17-.52,4.67-.74,6.55-2a2,2,0,0,0-1-3.65c-2.27-.09-4.51,1-6.65,1.7a55.44,55.44,0,0,0-6.21,2.57,1.3,1.3,0,0,0,.65,2.4Z"/></g><g id="_Group_154" data-name="&lt;Group&gt;"><path id="_Path_153" data-name="&lt;Path&gt;" class="cls-1" d="M16.69,77.05a12.18,12.18,0,0,0,3.41-2.22C21.2,74,23,72.46,21.85,70.92s-3-.16-3.93.82A13.43,13.43,0,0,0,15.12,75c-.47,1,.32,2.45,1.57,2Z"/></g><g id="_Group_155" data-name="&lt;Group&gt;"><path id="_Path_154" data-name="&lt;Path&gt;" class="cls-1" d="M20.39,80.89l1.33-1c.51-.4.9-.64,1-1.34a.82.82,0,0,0-.6-.79c-.68-.14-1,.19-1.57.57l-1.37,1a1,1,0,1,0,1.25,1.62Z"/></g><g id="_Group_156" data-name="&lt;Group&gt;"><path id="_Path_155" data-name="&lt;Path&gt;" class="cls-1" d="M22.89,85.11c.08-.67.8-.9,1.15-1.39a.62.62,0,0,0-.22-.85c-1.28-.55-2.5.86-2.85,2a1,1,0,1,0,1.92.26Z"/></g><g id="_Group_157" data-name="&lt;Group&gt;"><path id="_Path_156" data-name="&lt;Path&gt;" class="cls-1" d="M35.44,45.93c2.42-2.38,4.32-5.23,6.77-7.61,2.07-2,5.09-3.7,6-6.56a.88.88,0,0,0-.84-1.11c-3.29.07-5.83,3.25-7.91,5.51-2.32,2.53-4.8,5.33-6.13,8.51-.52,1.25,1.31,2.08,2.15,1.25Z"/></g><g id="_Group_158" data-name="&lt;Group&gt;"><path id="_Path_157" data-name="&lt;Path&gt;" class="cls-1" d="M42.92,43.73a23.67,23.67,0,0,0,2.82-1.35A25,25,0,0,0,48.66,41c1.17-.84.88-3-.79-2.91a8.06,8.06,0,0,0-6.17,4.06c-.39.76.28,1.95,1.22,1.59Z"/></g><g id="_Group_159" data-name="&lt;Group&gt;"><path id="_Path_158" data-name="&lt;Path&gt;" class="cls-1" d="M44.64,49.76A8.76,8.76,0,0,0,47.56,49a.88.88,0,0,0-.44-1.63,9.1,9.1,0,0,0-3,.5c-1.24.29-.7,2.11.52,1.89Z"/></g><g id="_Group_160" data-name="&lt;Group&gt;"><path id="_Path_159" data-name="&lt;Path&gt;" class="cls-1" d="M42,57.83l1.42.5a3.83,3.83,0,0,0,1.55.16c.86,0,1.34-1.29.47-1.73a4.17,4.17,0,0,0-1.63-.53l-1.58-.12c-1-.08-1.11,1.41-.23,1.72Z"/></g><g id="_Group_161" data-name="&lt;Group&gt;"><path id="_Path_160" data-name="&lt;Path&gt;" class="cls-1" d="M40.6,65.6a59.16,59.16,0,0,0,6.78,4c1.72.9,3.38,2,5.3,1.11a.88.88,0,0,0,.4-1c-.57-2.14-2.89-2.75-4.72-3.54a55.12,55.12,0,0,0-6.93-2.56,1.09,1.09,0,0,0-.83,2Z"/></g><g id="_Group_162" data-name="&lt;Group&gt;"><path id="_Path_161" data-name="&lt;Path&gt;" class="cls-1" d="M50.39,78l1-1.39A2,2,0,0,0,51.9,75a.93.93,0,0,0-.89-.68c-.72.08-1,.45-1.42,1L48.53,76.6A1.18,1.18,0,1,0,50.39,78Z"/></g><g id="_Group_163" data-name="&lt;Group&gt;"><path id="_Path_162" data-name="&lt;Path&gt;" class="cls-1" d="M57.6,63.65c-.4,3.56-1.85,6.81-2.33,10.31-.1.72.77,1.5,1.38.8,2.62-3,3.24-7.24,3.63-11.11.17-1.72-2.49-1.69-2.68,0Z"/></g><g id="_Group_164" data-name="&lt;Group&gt;"><path id="_Path_163" data-name="&lt;Path&gt;" class="cls-1" d="M53.47,80.11l.42-.63a.83.83,0,0,0-1.13-1.13l-.63.42c-1.33.88.45,2.68,1.34,1.34Z"/></g><g id="_Group_165" data-name="&lt;Group&gt;"><path id="_Path_164" data-name="&lt;Path&gt;" class="cls-1" d="M65.14,73.31c.76.57,1.67.87,2.43,1.46a32.28,32.28,0,0,1,2.6,2.75c1.36,1.34,3.81,2.72,5.38.86a1.28,1.28,0,0,0,0-1.75c-.74-.92-1.89-1.36-2.78-2.11a34,34,0,0,0-2.87-2.59c-1.49-1-4.39-1.66-5.06.63a.69.69,0,0,0,.31.76Z"/></g><g id="_Group_166" data-name="&lt;Group&gt;"><path id="_Path_165" data-name="&lt;Path&gt;" class="cls-1" d="M88.53,79.35c3-2.49,10.89-1.07,14.33-.45,3.19.58,6.4,3.06,9.57,2a1.12,1.12,0,0,0,.76-1.33c-.78-5.1-9.71-5.32-13.67-5.42-4.6-.12-10.15-.69-13.08,3.53-.93,1.34,1,2.52,2.1,1.62Z"/></g><g id="_Group_167" data-name="&lt;Group&gt;"><path id="_Path_166" data-name="&lt;Path&gt;" class="cls-1" d="M67.09,61c5.18,2.13,10.89,2.7,16.43,3.21,5.27.48,11.88,1.84,16.86-.16a1.77,1.77,0,0,0,0-3.38c-4.78-1.85-10.79-.54-15.84-.54-5.76,0-11.49-.73-17.24-.75-1,0-1,1.28-.22,1.62Z"/></g><g id="_Group_168" data-name="&lt;Group&gt;"><path id="_Path_167" data-name="&lt;Path&gt;" class="cls-1" d="M106.47,62.31c.64,0,1.63.15,2.09-.39a.64.64,0,0,0,0-.87c-.45-.53-1.45-.37-2.09-.39a.82.82,0,0,0,0,1.65Z"/></g><g id="_Group_169" data-name="&lt;Group&gt;"><path id="_Path_168" data-name="&lt;Path&gt;" class="cls-1" d="M115.81,62.68c1.85,0,3.89.21,5.54-.73a1.2,1.2,0,0,0,0-2c-1.65-.94-3.69-.68-5.54-.73-2.25-.06-2.26,3.56,0,3.5Z"/></g><g id="_Group_170" data-name="&lt;Group&gt;"><path id="_Path_169" data-name="&lt;Path&gt;" class="cls-1" d="M128.77,60.76c2.29.4,5.82,1.38,7.41-.88a1.34,1.34,0,0,0-.21-1.62c-2.07-1.82-5.3,0-7.41.91a.88.88,0,0,0,.21,1.6Z"/></g><g id="_Group_171" data-name="&lt;Group&gt;"><path id="_Path_170" data-name="&lt;Path&gt;" class="cls-1" d="M180.14,61.14a21.66,21.66,0,0,0,9.33,1c2.78-.27,6-.48,8-2.56,1-1.07.76-3.47-1-3.7-2.56-.35-4.67.72-7.19,1.16a65.75,65.75,0,0,1-8.73.69,1.76,1.76,0,0,0-.47,3.44Z"/></g><g id="_Group_172" data-name="&lt;Group&gt;"><path id="_Path_171" data-name="&lt;Path&gt;" class="cls-1" d="M194.52,62.07a7.5,7.5,0,0,1,.28,3.4,7.64,7.64,0,0,0,0,3.61,1.47,1.47,0,0,0,1.77,1c3.83-1.31,2.85-6.74,1.55-9.52-.94-2-4.24-.59-3.58,1.51Z"/></g><g id="_Group_173" data-name="&lt;Group&gt;"><path id="_Path_172" data-name="&lt;Path&gt;" class="cls-1" d="M102.19,118.25a24.09,24.09,0,0,0-5.68,15.18.52.52,0,0,0,1,.26c2.28-4.63,4.47-9.33,6.5-14.06.46-1.06-.87-2.46-1.78-1.37Z"/></g><g id="_Group_174" data-name="&lt;Group&gt;"><path id="_Path_173" data-name="&lt;Path&gt;" class="cls-1" d="M93.82,139.1a2.77,2.77,0,0,0-1.33,2.05A1.63,1.63,0,0,0,93.65,143a.76.76,0,0,0,.75-.2,2.24,2.24,0,0,0,.66-1.2,4.6,4.6,0,0,1,.24-1,1.12,1.12,0,0,0-.17-1.31,1.09,1.09,0,0,0-1.31-.17Z"/></g><g id="_Group_175" data-name="&lt;Group&gt;"><path id="_Path_174" data-name="&lt;Path&gt;" class="cls-1" d="M94.38,145.85a.31.31,0,0,0,0-.62.31.31,0,0,0,0,.62Z"/></g><g id="_Group_176" data-name="&lt;Group&gt;"><path id="_Path_175" data-name="&lt;Path&gt;" class="cls-1" d="M84.49,152.43a4.28,4.28,0,0,0-2.62,1,3.26,3.26,0,0,0-1.26,2.44,1.25,1.25,0,0,0,2.3.62c.35-.66.91-1.4,1.58-1.46a1.32,1.32,0,0,0,1.29-1.29,1.3,1.3,0,0,0-1.29-1.29Z"/></g><g id="_Group_177" data-name="&lt;Group&gt;"><path id="_Path_176" data-name="&lt;Path&gt;" class="cls-1" d="M95.2,185.1l0,3.55a10.49,10.49,0,0,0,.16,3.23.73.73,0,0,0,1.39,0,10.57,10.57,0,0,0,.16-3.23l0-3.55a.82.82,0,0,0-1.65,0Z"/></g><g id="_Group_178" data-name="&lt;Group&gt;"><path id="_Path_177" data-name="&lt;Path&gt;" class="cls-1" d="M102.66,190.6c-.1,1.86.05,3.72-.06,5.59s-.27,3.59.83,5.09a1.63,1.63,0,0,0,2.51.32c1.68-1.59,1.58-3.92,1.1-6a13.12,13.12,0,0,0-2.61-5.72c-.6-.75-1.72-.08-1.76.73Z"/></g><g id="_Group_179" data-name="&lt;Group&gt;"><path id="_Path_178" data-name="&lt;Path&gt;" class="cls-1" d="M103.23,213.23a3.91,3.91,0,0,0-.09,3.4,2,2,0,0,0,3.37,0,3.92,3.92,0,0,0-.09-3.4,1.66,1.66,0,0,0-3.18,0Z"/></g><g id="_Group_180" data-name="&lt;Group&gt;"><path id="_Path_179" data-name="&lt;Path&gt;" class="cls-1" d="M118.39,193.18a8.65,8.65,0,0,0-2.1,3,11.93,11.93,0,0,0-.53,3.88c0,3.17,5.06,2.62,4.34-.59a9.33,9.33,0,0,1-.19-2.58,16.06,16.06,0,0,1,.11-2.72c.2-.9-.95-1.72-1.64-1Z"/></g><g id="_Group_181" data-name="&lt;Group&gt;"><path id="_Path_180" data-name="&lt;Path&gt;" class="cls-1" d="M117.51,212.78a3.43,3.43,0,0,0-1.72,2.42q0,.29-.07.58t0,0a3.57,3.57,0,0,0,0,1.25,2.45,2.45,0,0,0,1.77,1.53,1.61,1.61,0,0,0,2-2c0-.06-.12-.44-.06-.17s0,.13,0-.15a.94.94,0,0,0-.13-.47,2.3,2.3,0,0,0-.48-.72l-.37-.29q.6.95.46.49,0-.14,0,0t0,0c0-.07,0-.35,0-.15a1.25,1.25,0,0,1,.08-.3c-.06.15.11-.12.06-.07a1.24,1.24,0,0,0-1.5-1.94Z"/></g><g id="_Group_182" data-name="&lt;Group&gt;"><path id="_Path_181" data-name="&lt;Path&gt;" class="cls-1" d="M163.45,169.68a8.15,8.15,0,0,0-.84.65l1-.4c-2.56.27-3.83,5.07-1.87,6.69,1.07.89,3.14.76,3.44-.91a7.91,7.91,0,0,0-.29-2.53c-.06-.74.28-1.56,0-2.25v.72q.09-.18.19-.35c.56-1-.61-2.31-1.62-1.62Z"/></g><g id="_Group_183" data-name="&lt;Group&gt;"><path id="_Path_182" data-name="&lt;Path&gt;" class="cls-1" d="M160.32,185.52a7,7,0,0,0,1.09,2.09,2,2,0,0,0,2.29.89c1.82-.8.63-3.23-.08-4.38a1.81,1.81,0,0,0-2.25-.74,1.78,1.78,0,0,0-1,2.13Z"/></g><g id="_Group_184" data-name="&lt;Group&gt;"><path id="_Path_183" data-name="&lt;Path&gt;" class="cls-1" d="M149.27,210.37c0,1.73-.16,3.66,1,5.09a1,1,0,0,0,1.38,0c1.17-1.42,1-3.36,1-5.09a1.7,1.7,0,0,0-3.4,0Z"/></g><g id="_Group_185" data-name="&lt;Group&gt;"><path id="_Path_184" data-name="&lt;Path&gt;" class="cls-1" d="M73.85,229.19c-7.79.29-9.9-8.19-12.11-14-1.77-4.66-3.38-9.16-6.05-13.4a1.29,1.29,0,0,0-2.35,1,70.28,70.28,0,0,0,8.95,22.4c2.66,4.09,6.84,7,11.73,5.21.62-.23.58-1.24-.16-1.21Z"/></g><g id="_Group_186" data-name="&lt;Group&gt;"><path id="_Path_185" data-name="&lt;Path&gt;" class="cls-1" d="M54.32,159.84l1.1-3.3c0-.06-.08-.09-.1,0l-1.1,3.3c0,.06.08.09.1,0Z"/></g><g id="_Group_187" data-name="&lt;Group&gt;"><path id="_Path_186" data-name="&lt;Path&gt;" class="cls-1" d="M55.37,154.31c-2.87,26.92,1.83,56.9,13.15,81.56,1.28,2.78,6.11.79,5-2.1-4.84-12.56-9.51-24.91-12.33-38.12C58.27,182,57,168.2,56.29,154.31a.46.46,0,0,0-.93,0Z"/></g></g></g></g></svg>